<?xml version="1.0" encoding="UTF-8" standalone="no"?>
<svg
   xmlns:dc="http://purl.org/dc/elements/1.1/"
   xmlns:cc="http://creativecommons.org/ns#"
   xmlns:rdf="http://www.w3.org/1999/02/22-rdf-syntax-ns#"
   xmlns:svg="http://www.w3.org/2000/svg"
   xmlns="http://www.w3.org/2000/svg"
   xmlns:sodipodi="http://sodipodi.sourceforge.net/DTD/sodipodi-0.dtd"
   xmlns:inkscape="http://www.inkscape.org/namespaces/inkscape"
   width="280.2532mm"
   height="165.69313mm"
   viewBox="0 0 993.02317 587.10164"
   id="svg2"
   version="1.1"
   inkscape:version="0.91 r13725"
   sodipodi:docname="empty-set.svg">
  <sodipodi:namedview
     pagecolor="#ffffff"
     bordercolor="#666666"
     borderopacity="1"
     objecttolerance="10"
     gridtolerance="10"
     guidetolerance="10"
     inkscape:pageopacity="0"
     inkscape:pageshadow="2"
     inkscape:window-width="1360"
     inkscape:window-height="715"
     id="namedview48"
     showgrid="false"
     inkscape:zoom="0.7576476"
     inkscape:cx="518.39602"
     inkscape:cy="251.13196"
     inkscape:window-x="0"
     inkscape:window-y="0"
     inkscape:window-maximized="1"
     inkscape:current-layer="svg2" />
  <defs
     id="defs4">
    <marker
       style="overflow:visible;"
       id="Arrow1Lend"
       refX="0.0"
       refY="0.0"
       orient="auto">
      <path
         transform="scale(0.8) rotate(180) translate(12.5,0)"
         style="fill-rule:evenodd;stroke:#000000;stroke-width:1pt;stroke-opacity:1;fill:#000000;fill-opacity:1"
         d="M 0.0,0.0 L 5.0,-5.0 L -12.5,0.0 L 5.0,5.0 L 0.0,0.0 z "
         id="path4216" />
    </marker>
    <marker
       orient="auto"
       refY="0"
       refX="0"
       id="marker6850"
       style="overflow:visible">
      <path
         id="path6852"
         style="fill:#000000;fill-opacity:1;fill-rule:evenodd;stroke:#000000;stroke-width:0.625;stroke-linejoin:round;stroke-opacity:1"
         d="M 8.7185878,4.0337352 -2.2072895,0.01601326 8.7185884,-4.0017078 c -1.7454984,2.3720609 -1.7354408,5.6174519 -6e-7,8.035443 z"
         transform="scale(-0.6,-0.6)" />
    </marker>
    <marker
       orient="auto"
       refY="0"
       refX="0"
       id="Arrow2Mend"
       style="overflow:visible">
      <path
         id="path4171"
         style="fill:#000000;fill-opacity:1;fill-rule:evenodd;stroke:#000000;stroke-width:0.625;stroke-linejoin:round;stroke-opacity:1"
         d="M 8.7185878,4.0337352 -2.2072895,0.01601326 8.7185884,-4.0017078 c -1.7454984,2.3720609 -1.7354408,5.6174519 -6e-7,8.035443 z"
         transform="scale(-0.6,-0.6)" />
    </marker>
    <marker
       orient="auto"
       refY="0"
       refX="0"
       id="marker6730"
       style="overflow:visible">
      <path
         id="path6732"
         d="M 0,0 5,-5 -12.5,0 5,5 0,0 Z"
         style="fill:#000000;fill-opacity:1;fill-rule:evenodd;stroke:#000000;stroke-width:1pt;stroke-opacity:1"
         transform="matrix(-0.8,0,0,-0.8,-10,0)" />
    </marker>
    <marker
       orient="auto"
       refY="0"
       refX="0"
       id="Arrow1Lstart"
       style="overflow:visible">
      <path
         id="path4144"
         d="M 0,0 5,-5 -12.5,0 5,5 0,0 Z"
         style="fill:#000000;fill-opacity:1;fill-rule:evenodd;stroke:#000000;stroke-width:1pt;stroke-opacity:1"
         transform="matrix(0.8,0,0,0.8,10,0)" />
    </marker>
  </defs>
  <metadata
     id="metadata7">
    <rdf:RDF>
      <cc:Work
         rdf:about="">
        <dc:format>image/svg+xml</dc:format>
        <dc:type
           rdf:resource="http://purl.org/dc/dcmitype/StillImage" />
        <dc:title />
      </cc:Work>
    </rdf:RDF>
  </metadata>
  <path
     id="path4136"
     d="m 49.320556,575.22276 0,-569.2977636"
     style="fill:none;fill-rule:evenodd;stroke:#000000;stroke-width:3.95932698;stroke-linecap:butt;stroke-linejoin:miter;stroke-miterlimit:4;stroke-dasharray:none;stroke-opacity:1;marker-end:url(#marker6850)" />
  <path
     id="path4138"
     d="m 0,531.24913 986.53186,0"
     style="fill:none;fill-rule:evenodd;stroke:#000000;stroke-width:4.29363441;stroke-linecap:butt;stroke-linejoin:miter;stroke-miterlimit:2.79999995;stroke-dasharray:none;stroke-opacity:1;marker-end:url(#Arrow2Mend)" />
  <path
     id="path6712"
     d="m 4.4844658,231.11772 c 0,0 142.8059342,212.41997 242.6832942,187.14356 99.87737,-25.2764 215.52295,-220.96836 297.66177,-211.47374 82.13881,9.49461 110.7357,219.99391 195.17115,268.44144 84.43545,48.44753 246.41648,28.48384 246.41648,28.48384"
     style="fill:none;fill-rule:evenodd;stroke:#000000;stroke-width:4.10826302;stroke-linecap:butt;stroke-linejoin:miter;stroke-miterlimit:4;stroke-dasharray:none;stroke-opacity:1" />
  <text
     id="text6714"
     y="248.18956"
     x="119.28572"
     style="font-style:normal;font-weight:normal;font-size:40px;line-height:125%;font-family:sans-serif;letter-spacing:0px;word-spacing:0px;fill:#000000;fill-opacity:1;stroke:none;stroke-width:1px;stroke-linecap:butt;stroke-linejoin:miter;stroke-opacity:1"
     xml:space="preserve"><tspan
       id="tspan6718"
       y="248.18956"
       x="119.28572">f(x)</tspan></text>
  <path
     id="path6722"
     d="m 194.90408,239.52536 214.39711,47.71219"
     style="fill:none;fill-rule:evenodd;stroke:#000000;stroke-width:1.75926661;stroke-linecap:butt;stroke-linejoin:miter;stroke-miterlimit:4;stroke-dasharray:none;stroke-opacity:1" />
  <path
     id="rect4339-7-9-3"
     d="m 379.51852,271.93851 -1.82908,6.74041 0.008,0.003 -1.82901,6.73955 37.59589,4.37586 -0.0125,-0.005 -33.93382,-17.85462 z"
     style="fill:#000000;fill-opacity:1;stroke:none;stroke-width:5;stroke-miterlimit:4;stroke-dasharray:none;stroke-opacity:1" />
  <text
     id="text4626"
     y="570.30237"
     x="468.51282"
     style="font-style:normal;font-weight:normal;font-size:40px;line-height:125%;font-family:sans-serif;letter-spacing:0px;word-spacing:0px;fill:#000000;fill-opacity:1;stroke:none;stroke-width:1px;stroke-linecap:butt;stroke-linejoin:miter;stroke-opacity:1"
     xml:space="preserve"><tspan
       style="font-style:normal;font-variant:normal;font-weight:normal;font-stretch:normal;font-family:IRANSans;-inkscape-font-specification:IRANSans"
       y="570.30237"
       x="468.51282"
       id="tspan4628">دامنه</tspan></text>
  <path
     id="path4630"
     d="m 0,114.58025 993.02317,0"
     style="fill:none;fill-rule:evenodd;stroke:#000000;stroke-width:2;stroke-linecap:butt;stroke-linejoin:miter;stroke-miterlimit:4;stroke-dasharray:none;stroke-opacity:1"
     inkscape:connector-curvature="0" />
  <path
     id="path4632"
     d="m 0,157.5117 993.86576,0"
     style="fill:none;fill-rule:evenodd;stroke:#000000;stroke-width:2;stroke-linecap:butt;stroke-linejoin:miter;stroke-miterlimit:4;stroke-dasharray:none;stroke-opacity:1"
     inkscape:connector-curvature="0" />
  <path
     id="rect4339-7-9"
     d="m 853.1093,180.78853 6.90119,-1.07338 -3.9e-4,-0.008 6.90037,-1.07311 -11.30849,-36.12086 8.9e-4,0.0128 -2.49362,38.26322 z"
     style="fill:#000000;fill-opacity:1;stroke:none;stroke-width:5;stroke-miterlimit:4;stroke-dasharray:none;stroke-opacity:1"
     inkscape:connector-curvature="0"
     inkscape:transform-center-x="-3.9596245"
     inkscape:transform-center-y="10.558999" />
  <path
     id="path4178"
     d="m 861.17576,165.82558 c 0,0 -5.6437,40.6755 -11.72152,55.03772 -6.07783,14.36223 -24.74544,31.13563 -24.74544,31.13563"
     style="fill:none;fill-rule:evenodd;stroke:#000000;stroke-width:0.55991042;stroke-linecap:butt;stroke-linejoin:miter;stroke-miterlimit:4;stroke-dasharray:none;stroke-opacity:1"
     inkscape:connector-curvature="0" />
  <path
     inkscape:connector-curvature="0"
     id="path3383"
     style="font-style:normal;font-variant:normal;font-weight:normal;font-stretch:normal;font-size:medium;line-height:125%;font-family:IRANSans;-inkscape-font-specification:IRANSans;text-align:center;letter-spacing:0px;word-spacing:0px;text-anchor:middle;fill:#000000;fill-opacity:1;stroke:none;stroke-width:1px;stroke-linecap:butt;stroke-linejoin:miter;stroke-opacity:1"
     d="m 902.97203,273.71279 q 0,-0.28163 0.0983,-0.52102 0.0983,-0.25346 0.2703,-0.43652 0.17194,-0.19714 0.40535,-0.29571 0.22108,-0.11265 0.47905,-0.11265 l 0.11058,0 q 0.73702,0 1.28986,-0.014 0.56507,-0.014 1.01955,-0.0423 0.45448,-0.0282 0.82304,-0.0704 0.38079,-0.0423 0.73702,-0.0986 -0.9213,-1.14059 -1.38811,-2.23894 -0.45449,-1.11244 -0.45449,-2.14038 0,-0.70407 0.15972,-1.47855 0.17195,-0.78856 0.51594,-1.50671 0.35623,-0.73224 0.8844,-1.35182 0.52818,-0.63367 1.26529,-1.04203 l -0.97042,-0.43652 1.16693,-2.53466 4.27482,2.01364 q 1.14238,0.57735 2.19882,1.15468 1.06868,0.57734 1.96542,1.15468 0.90906,0.57734 1.59695,1.16876 0.68789,0.59142 1.06868,1.18284 1.13014,1.78833 1.13014,3.66116 0,1.37998 -0.63877,2.59099 -0.63876,1.19692 -1.92861,1.98548 l 0.0121,-0.014 q -0.34399,0.23939 -0.81071,0.40836 -0.46681,0.1549 -0.98275,0.25347 -0.50361,0.0986 -1.01955,0.1549 -0.51595,0.0423 -0.94587,0.0423 -1.08101,0 -2.10056,-0.18307 -1.00732,-0.18306 -2.05143,-0.66183 -0.65109,0.22531 -1.47413,0.38021 -0.81071,0.15489 -1.70745,0.25347 -0.89673,0.0845 -1.83026,0.12672 -0.93362,0.0423 -1.80579,0.0423 l -0.11059,0 q -0.25797,0 -0.47905,-0.0986 -0.2334,-0.11265 -0.40535,-0.29572 -0.17195,-0.19714 -0.2703,-0.4506 -0.0983,-0.25346 -0.0983,-0.54917 z m 13.02106,-6.64644 q 0,0.59143 -0.14738,1.28142 -0.14748,0.68999 -0.41769,1.39406 -0.25797,0.68999 -0.63876,1.36589 -0.38079,0.67591 -0.8476,1.23917 0.39312,0.0705 0.65109,0.0845 0.25787,0.0141 0.47905,0.0141 l 0.58963,0 q 0.93353,0 1.62142,-0.22531 0.70022,-0.23938 1.14247,-0.63366 0.45448,-0.39427 0.67556,-0.91529 0.22117,-0.5351 0.22117,-1.11243 0,-0.49285 -0.22117,-1.07019 -0.22108,-0.57734 -0.66333,-1.15468 -0.42992,-0.59142 -1.08091,-1.15468 -0.65109,-0.56325 -1.52326,-1.02794 0.13515,0.53509 0.14738,1.01386 0.0121,0.47877 0.0121,0.90122 z m -2.51825,-0.11265 q 0,-0.42244 -0.0616,-0.88712 -0.0495,-0.47877 -0.23341,-0.90121 -0.17204,-0.43654 -0.5037,-0.7604 -0.31934,-0.33796 -0.84761,-0.46469 -0.67556,-0.1549 -1.24063,0.15489 -0.56506,0.29572 -0.98275,0.84488 -0.40535,0.54918 -0.63876,1.23917 -0.23341,0.68999 -0.23341,1.32365 0,0.59143 0.18428,1.12653 0.18428,0.53508 0.49138,1.01385 0.31943,0.46469 0.73702,0.88713 0.41768,0.40837 0.88449,0.7604 0.62644,-0.32388 1.08092,-0.81672 0.46681,-0.49285 0.76168,-1.07019 0.30709,-0.59142 0.45448,-1.22508 0.14738,-0.63367 0.14738,-1.22509 z" />
  <path
     inkscape:connector-curvature="0"
     id="path3385"
     style="font-style:normal;font-variant:normal;font-weight:normal;font-stretch:normal;font-size:medium;line-height:125%;font-family:IRANSans;-inkscape-font-specification:IRANSans;text-align:center;letter-spacing:0px;word-spacing:0px;text-anchor:middle;fill:#000000;fill-opacity:1;stroke:none;stroke-width:1px;stroke-linecap:butt;stroke-linejoin:miter;stroke-opacity:1"
     d="m 892.42009,273.72687 q 0,-0.59142 0.34389,-0.9857 0.344,-0.40836 0.85984,-0.40836 l 0.93363,0 q 1.03188,0 1.97774,-0.14082 0.94586,-0.14081 1.65832,-0.52102 0.72478,-0.38019 1.14237,-1.02793 0.41768,-0.66183 0.38088,-1.68978 -0.0243,-0.78855 -0.12291,-1.63344 -0.0859,-0.84488 -0.35623,-1.92915 l 2.29717,-0.74632 q 0.11049,0.49285 0.20875,1.04202 0.0983,0.5351 0.17204,1.09836 0.0738,0.56325 0.12282,1.14059 0.0616,0.56326 0.0859,1.11244 0.0243,0.52101 0.11049,1.09834 0.0859,0.57735 0.3071,1.07019 0.22117,0.49285 0.60197,0.81673 0.39302,0.32387 1.01955,0.32387 0.51594,0 0.87217,0.39428 0.35622,0.39428 0.35622,0.9857 0,0.2957 -0.0983,0.54917 -0.0983,0.23938 -0.2703,0.43652 -0.15962,0.18307 -0.38079,0.29572 -0.20885,0.0986 -0.45449,0.0986 -1.24072,0 -2.05143,-0.50693 -0.81071,-0.52102 -1.32665,-1.29549 -0.44225,0.49285 -1.14247,0.84488 -0.70013,0.33796 -1.54773,0.54918 -0.83528,0.21122 -1.75657,0.30979 -0.9213,0.0986 -1.80579,0.0986 l -0.93363,0 q -0.51585,0 -0.85984,-0.39428 -0.3439,-0.39427 -0.3439,-0.9857 z m 5.11009,6.73092 -1.98998,2.28119 -2.01463,-2.29527 1.99007,-2.29527 2.01454,2.30935 z m 5.0364,0.014 -1.98998,2.29527 -2.01454,-2.30935 1.98998,-2.28119 2.01454,2.29527 z" />
  <path
     inkscape:connector-curvature="0"
     id="path3387"
     style="font-style:normal;font-variant:normal;font-weight:normal;font-stretch:normal;font-size:medium;line-height:125%;font-family:IRANSans;-inkscape-font-specification:IRANSans;text-align:center;letter-spacing:0px;word-spacing:0px;text-anchor:middle;fill:#000000;fill-opacity:1;stroke:none;stroke-width:1px;stroke-linecap:butt;stroke-linejoin:miter;stroke-opacity:1"
     d="m 886.07565,273.64238 1.86716,2.14038 -1.89173,2.15445 -1.85488,-2.12629 1.87945,-2.16854 z m -5.01187,0.014 1.85489,2.15445 -1.87945,2.15446 -1.85488,-2.14038 1.87944,-2.16853 z m 2.54279,4.1681 1.70747,1.94323 -1.71975,1.95732 -1.69519,-1.94324 1.70747,-1.95731 z m 0.34395,8.42069 q -1.74432,0 -3.31667,-0.57734 -1.57235,-0.56326 -2.81303,-1.5912 -1.22841,-1.02794 -2.05143,-2.43609 -0.81074,-1.40814 -1.05642,-3.08383 -0.24568,-1.6616 0.15969,-3.53443 0.40538,-1.87283 1.63377,-3.83015 1.47408,-1.9714 3.6852,-3.15424 1.51092,-0.80264 3.12012,-1.25325 1.60921,-0.4506 3.15698,-0.66183 l -1.32666,-0.73223 q -1.28982,-0.74632 -2.35852,-1.28141 -1.06871,-0.54917 -1.78119,-0.66182 -1.70747,-0.26755 -3.08327,1.39406 -0.40538,0.50692 -0.66334,0.97161 -0.24568,0.46469 -0.35624,0.71815 l -0.0614,0.16899 -2.26025,-1.0702 q 0.0246,-0.0563 0.12284,-0.30979 0.11055,-0.25346 0.3071,-0.61958 0.19654,-0.3802 0.47907,-0.8308 0.28254,-0.45061 0.66334,-0.91529 1.08099,-1.3659 2.38309,-1.92916 1.31438,-0.56326 2.78846,-0.33796 1.03185,0.1549 2.21112,0.7604 1.19155,0.59143 2.6779,1.43631 1.33896,0.7604 2.84988,1.56303 1.51093,0.80265 3.29214,1.47856 l -0.46682,2.70363 q -0.0243,0 -0.23339,0 -0.19655,-0.0141 -0.56506,-0.0141 -0.35624,-0.014 -0.85988,0 -0.49136,0.0141 -1.09327,0.0563 -0.0246,0.15489 -0.0369,0.43653 0,0.26754 0.0369,0.59141 0.0369,0.32388 0.1474,0.67591 0.11056,0.35204 0.33166,0.66182 0.29482,0.40837 0.66334,0.66184 0.38081,0.25347 0.85988,0.40836 0.49136,0.14081 1.10555,0.19714 0.61429,0.0422 1.38811,0.0422 0.24573,0 0.46681,0.11266 0.22108,0.11264 0.38079,0.30979 0.17195,0.18306 0.2703,0.43653 0.0983,0.25346 0.0983,0.54917 0,0.57734 -0.35623,0.97162 -0.35623,0.3802 -0.85993,0.3802 -1.13014,0 -2.05144,-0.14082 -0.90901,-0.15489 -1.63377,-0.45061 -0.72475,-0.29571 -1.28981,-0.73223 -0.55278,-0.45061 -0.97043,-1.0561 -0.44223,-0.67591 -0.70019,-1.49264 -0.25797,-0.8308 -0.29482,-1.77425 -0.0368,-0.29572 0,-0.5351 -1.37581,0.19714 -2.78846,0.57734 -1.41266,0.3802 -2.70248,1.0561 -0.29481,0.15491 -0.70018,0.42245 -0.3931,0.26754 -0.83532,0.64775 -0.44222,0.36611 -0.88445,0.85896 -0.42993,0.47877 -0.79845,1.09835 -0.36852,0.60551 -0.62648,1.35182 -0.24568,0.73223 -0.3071,1.61936 -0.0983,1.80243 0.5282,3.16833 0.62649,1.36589 1.73205,2.25302 1.10555,0.90121 2.5305,1.30957 1.42494,0.40837 2.92358,0.30979 1.49865,-0.0986 2.9113,-0.73223 1.41267,-0.61958 2.49366,-1.80242 l 1.58463,2.14038 q -0.87217,0.88713 -1.83031,1.46446 -0.95815,0.59142 -1.96544,0.92937 -0.995,0.35204 -2.01457,0.49285 -1.00729,0.15491 -1.99001,0.15491 z" />
  <path
     inkscape:connector-curvature="0"
     id="path3389"
     style="font-style:normal;font-variant:normal;font-weight:normal;font-stretch:normal;font-size:medium;line-height:125%;font-family:IRANSans;-inkscape-font-specification:IRANSans;text-align:center;letter-spacing:0px;word-spacing:0px;text-anchor:middle;fill:#000000;fill-opacity:1;stroke:none;stroke-width:1px;stroke-linecap:butt;stroke-linejoin:miter;stroke-opacity:1"
     d="m 854.17896,273.72687 q 0,-0.59142 0.35623,-0.9857 0.34395,-0.39428 0.84759,-0.39428 l 1.26525,0 q 0.65106,0.0282 1.25297,0 0.60192,-0.0422 1.10556,-0.21123 0.50365,-0.16897 0.88445,-0.50692 0.39308,-0.35204 0.63877,-0.94346 0.24568,-0.6055 0.13512,-1.71794 -0.0983,-1.12651 -0.49136,-2.61914 -0.13513,-0.45061 -0.31939,-0.97161 -0.17197,-0.5351 -0.34394,-0.9857 -0.19656,-0.5351 -0.40538,-1.05612 l 2.18655,-1.23916 q 0,0.0141 0.11056,0.29571 0.12284,0.26755 0.29481,0.73223 0.17198,0.46469 0.3808,1.08428 0.20884,0.6055 0.3931,1.29549 1.1424,4.04137 0.28252,6.30848 -0.87216,2.2671 -3.09556,2.98526 -0.66334,0.2253 -1.3021,0.26754 -0.62649,0.0423 -1.17926,0.0423 l -1.68291,0 -0.11056,0 q -0.50364,0 -0.84759,-0.39428 -0.35623,-0.39428 -0.35623,-0.9857 z m 6.90359,6.67459 -2.00228,2.29527 -2.01458,-2.30935 2.00229,-2.29527 2.01457,2.30935 z" />
  <path
     inkscape:connector-curvature="0"
     id="path3391"
     style="font-style:normal;font-variant:normal;font-weight:normal;font-stretch:normal;font-size:medium;line-height:125%;font-family:IRANSans;-inkscape-font-specification:IRANSans;text-align:center;letter-spacing:0px;word-spacing:0px;text-anchor:middle;fill:#000000;fill-opacity:1;stroke:none;stroke-width:1px;stroke-linecap:butt;stroke-linejoin:miter;stroke-opacity:1"
     d="m 833.72499,273.74095 q 0,-0.28163 0.0983,-0.53509 0.086,-0.25347 0.25797,-0.43653 0.15969,-0.19714 0.3808,-0.30979 0.22111,-0.11265 0.47908,-0.11265 l 2.24797,0 q 1.64605,0 3.15698,-0.35204 1.52321,-0.36611 2.94816,-0.94345 1.42493,-0.57734 2.77618,-1.30957 1.35123,-0.74632 2.6779,-1.49264 l 0.22112,-0.12673 q -0.83532,-0.33796 -1.62149,-0.74631 -0.77389,-0.40836 -1.52321,-0.80265 -0.56507,-0.30978 -1.11785,-0.59142 -0.5405,-0.28163 -1.05642,-0.49285 -0.50365,-0.2253 -0.97043,-0.35203 -0.45451,-0.14082 -0.8476,-0.14082 -0.51593,0 -0.97043,0.25347 -0.45451,0.25347 -0.83531,0.63366 -0.38081,0.38021 -0.68791,0.83081 -0.3071,0.43652 -0.51592,0.8308 -0.20884,0.3802 -0.33168,0.64774 -0.11054,0.25347 -0.11054,0.25347 l -2.22341,-1.15468 q 0,-0.014 0.086,-0.2253 0.0983,-0.21122 0.27026,-0.56325 0.18426,-0.35204 0.42994,-0.78856 0.25796,-0.43653 0.58963,-0.88713 0.95814,-1.28142 2.03913,-1.95732 1.09328,-0.67591 2.26026,-0.67591 0.58962,0 1.20383,0.1549 0.6142,0.15489 1.24068,0.42244 0.62648,0.25347 1.26525,0.59142 0.65105,0.32387 1.31439,0.6759 0.72475,0.40837 1.46179,0.78857 0.74932,0.38019 1.49865,0.68999 0.74932,0.30979 1.49864,0.49285 0.76161,0.18305 1.51092,0.18305 l 0.47908,2.6614 q -0.55278,0.26754 -1.11784,0.57733 -0.55277,0.29571 -1.11784,0.60551 0.13513,0.53509 0.42993,0.91529 0.30711,0.36611 0.7002,0.63366 0.39309,0.25347 0.82303,0.40836 0.44222,0.14081 0.85987,0.2253 0.41766,0.0845 0.77389,0.11266 0.36852,0.014 0.58963,0.014 l 0.0737,0 0.0983,0 q 0.25796,0 0.47907,0.11266 0.22112,0.11264 0.3808,0.30978 0.17198,0.18307 0.25797,0.43654 0.0983,0.25345 0.0983,0.53508 0,0.59143 -0.35624,0.98571 -0.34394,0.38019 -0.85987,0.38019 l -0.17198,0 q -1.21611,0 -2.24797,-0.25347 -1.03185,-0.26753 -1.84259,-0.76039 -0.81075,-0.49285 -1.40037,-1.19692 -0.57735,-0.71815 -0.88445,-1.61936 -1.25297,0.71815 -2.6042,1.40814 -1.35124,0.68999 -2.80075,1.23916 -1.44951,0.5351 -3.02186,0.87306 -1.56007,0.32386 -3.25525,0.32386 l -2.24797,-0.014 q -0.51593,0 -0.85988,-0.3802 -0.35623,-0.39428 -0.35623,-0.9857 z m 9.77804,-16.16548 -2.00229,2.29527 -2.01457,-2.30935 2.00229,-2.29527 2.01457,2.30935 z" />
  <path
     inkscape:connector-curvature="0"
     id="path3393"
     style="font-style:normal;font-variant:normal;font-weight:normal;font-stretch:normal;font-size:medium;line-height:125%;font-family:IRANSans;-inkscape-font-specification:IRANSans;text-align:center;letter-spacing:0px;word-spacing:0px;text-anchor:middle;fill:#000000;fill-opacity:1;stroke:none;stroke-width:1px;stroke-linecap:butt;stroke-linejoin:miter;stroke-opacity:1"
     d="m 810.63436,273.72687 q 0,-0.26755 0.11056,-0.50693 0.0983,-0.25347 0.27025,-0.43652 0.15969,-0.19714 0.38081,-0.3098 0.2211,-0.11266 0.4545,-0.12673 l 0.12284,0 q 0.51593,0 0.98271,-0.30979 0.4668,-0.32388 0.87217,-0.81673 0.40538,-0.49284 0.73704,-1.09835 0.34395,-0.6055 0.6142,-1.18284 0.25796,-0.56325 0.45451,-1.11243 0.20882,-0.56326 0.36852,-1.04202 0.15968,-0.49285 0.25796,-0.87306 0.11055,-0.39427 0.17197,-0.61958 0.0615,-0.32387 0.0615,-0.33795 l 2.35853,0.74631 q -0.0122,0.0141 -0.0369,0.0986 -0.0122,0.0845 -0.0491,0.23938 -0.0737,0.32388 -0.18426,0.94346 -0.11054,0.61958 -0.20882,1.37998 -0.13512,1.22508 -0.0615,2.15446 0.0737,0.91529 0.33167,1.39406 0.17197,0.36611 0.54049,0.40836 0.14742,0.0422 0.27026,0.0422 0.46679,0 0.89673,-0.35203 0.55278,-0.47877 1.08098,-1.50671 0.52821,-1.02794 0.94587,-2.52058 0.20883,-0.68999 0.34395,-1.30957 0.13513,-0.61959 0.20883,-1.05611 0.0614,-0.35203 0.0983,-0.54917 0.0369,-0.21122 0.0369,-0.23938 l 2.39537,0.52101 q -0.0246,0.0141 -0.0491,0.22531 -0.0246,0.19713 -0.086,0.56325 -0.0615,0.36612 -0.11056,0.90121 -0.0491,0.52101 -0.0615,1.11244 -0.0615,1.2814 0.0983,2.22486 0.15968,0.94345 0.50364,1.42222 0.13512,0.19714 0.35623,0.35203 0.2334,0.15491 0.6879,0.15491 0.63877,0 1.03186,-0.50694 0.41765,-0.52101 0.66333,-1.53488 0.25797,-1.01385 0.33167,-2.39383 0.0246,-0.63367 0.0246,-1.16876 0,-0.54918 -0.0246,-0.94346 -0.0369,-0.35204 -0.0491,-0.56326 0,-0.2253 0,-0.23938 l 2.40766,-0.22531 q 0.0246,0.0704 0.0491,0.78857 0.0368,0.29571 0.0737,0.6759 0.0491,0.3802 0.12284,0.8308 0.0737,0.43653 0.17197,0.92938 0.0983,0.47877 0.23339,0.95754 0.97045,3.43586 2.71476,3.43586 l 0.14742,0 0.0983,0 q 0.51593,0 0.85989,0.39429 0.34394,0.39428 0.34394,0.98569 0,0.57734 -0.34394,0.9857 -0.34396,0.39429 -0.85989,0.39429 l -0.0983,0 -0.14742,0 q -0.995,0 -1.86716,-0.46469 -0.85988,-0.47877 -1.54778,-1.39406 -0.34395,-0.43653 -0.67562,-1.05611 -0.34395,0.87305 -0.81074,1.45039 -0.55278,0.71815 -1.27754,1.09835 -0.72475,0.36612 -1.57235,0.36612 -0.90901,0 -1.65833,-0.39429 -0.74933,-0.40836 -1.27753,-1.16876 -0.17198,-0.25346 -0.31939,-0.53508 -0.14741,-0.28163 -0.27025,-0.60551 -0.6879,1.15468 -1.49864,1.85875 -1.09328,0.88713 -2.32167,0.88713 -0.17198,0 -0.33167,-0.0281 -0.15969,-0.014 -0.33167,-0.0422 -1.44951,-0.3098 -2.2234,-1.68978 -0.12284,-0.23938 -0.22111,-0.49285 -0.0983,-0.26754 -0.19655,-0.54917 -0.40537,0.6055 -0.82302,1.0561 -1.52322,1.70386 -3.35353,1.70386 l -0.12284,0 q -0.24568,0 -0.46679,-0.0986 -0.22111,-0.11265 -0.3808,-0.29572 -0.17198,-0.19714 -0.27025,-0.4506 -0.0983,-0.25347 -0.0983,-0.53509 z m 14.32313,-14.91223 1.99,-2.28119 2.01457,2.30936 -1.99,2.28118 -2.01457,-2.30935 z m -5.39267,-0.014 1.99001,-2.29527 2.01457,2.30935 -1.99001,2.29527 -2.01457,-2.30935 z m 2.96044,-4.2385 1.81803,-2.08405 1.83031,2.09812 -1.81803,2.08405 -1.83031,-2.09812 z" />
  <path
     inkscape:connector-curvature="0"
     id="path3395"
     style="font-style:normal;font-variant:normal;font-weight:normal;font-stretch:normal;font-size:medium;line-height:125%;font-family:IRANSans;-inkscape-font-specification:IRANSans;text-align:center;letter-spacing:0px;word-spacing:0px;text-anchor:middle;fill:#000000;fill-opacity:1;stroke:none;stroke-width:1px;stroke-linecap:butt;stroke-linejoin:miter;stroke-opacity:1"
     d="m 801.37752,284.28793 q -1.0687,0 -2.21111,-0.12672 -1.14241,-0.11266 -2.19884,-0.47877 -1.05641,-0.36613 -1.94086,-1.04203 -0.88444,-0.66183 -1.44951,-1.76018 -1.32667,-2.22487 -1.17926,-5.77338 0.086,-1.92916 0.60191,-4.21035 0.51593,-2.28119 1.48636,-4.97074 l 2.24798,1.04203 q -1.57235,4.42156 -1.86717,7.53355 -0.28253,3.112 0.71246,4.84401 0.50365,0.83081 1.24069,1.26733 0.74932,0.45061 1.54779,0.64775 0.81073,0.19714 1.59691,0.2253 0.79846,0.0282 1.41265,0.0282 0.35624,0 1.00729,-0.0704 0.65106,-0.0563 1.41266,-0.21122 0.76161,-0.15489 1.54778,-0.42244 0.79846,-0.25346 1.43723,-0.63366 0.65104,-0.3802 1.05642,-0.90122 0.40537,-0.521 0.40537,-1.21099 0,-0.16899 -0.13512,-0.40837 -0.13513,-0.2253 -0.44223,-0.49284 -0.29482,-0.26755 -0.77389,-0.56326 -0.47907,-0.29572 -1.17926,-0.59142 -0.42994,-0.16898 -0.85988,-0.32388 -0.41765,-0.14082 -0.78617,-0.25346 -0.36852,-0.0986 -0.67562,-0.18306 -0.3071,-0.0845 -0.50365,-0.12674 l -0.27024,-0.0563 0.18426,-2.7318 9.45866,0.014 q 0.50365,0 0.85988,0.39428 0.35623,0.39429 0.35623,0.9857 0,0.59143 -0.35623,0.9857 -0.35623,0.39428 -0.85988,0.39428 l -2.93587,0 q 0.41766,0.39428 0.67562,0.78856 0.27024,0.40836 0.41766,0.78856 0.1474,0.3802 0.19654,0.73223 0.0491,0.35204 0.0491,0.64775 -0.0122,1.19692 -0.47908,2.12629 -0.46679,0.92938 -1.22839,1.61937 -0.76162,0.68999 -1.73205,1.15467 -0.97043,0.47877 -2.00229,0.77448 -1.01957,0.29572 -2.02686,0.42245 -1.00728,0.12673 -1.81803,0.12673 z" />
  <path
     inkscape:connector-curvature="0"
     id="path3397"
     style="font-style:normal;font-variant:normal;font-weight:normal;font-stretch:normal;font-size:medium;line-height:125%;font-family:IRANSans;-inkscape-font-specification:IRANSans;text-align:center;letter-spacing:0px;word-spacing:0px;text-anchor:middle;fill:#000000;fill-opacity:1;stroke:none;stroke-width:1px;stroke-linecap:butt;stroke-linejoin:miter;stroke-opacity:1"
     d="m 781.1343,252.87227 q 0.54049,5.73115 0.62648,10.25128 0.13512,7.46316 -0.19654,12.11003 l -2.41995,-0.15489 q 0.39309,-6.26624 0.24568,-10.51883 -0.24568,-6.8295 -0.66333,-11.26513 l 2.40766,-0.42246 z" />
  <path
     inkscape:connector-curvature="0"
     id="path3399"
     style="font-style:normal;font-variant:normal;font-weight:normal;font-stretch:normal;font-size:medium;line-height:125%;font-family:IRANSans;-inkscape-font-specification:IRANSans;text-align:center;letter-spacing:0px;word-spacing:0px;text-anchor:middle;fill:#000000;fill-opacity:1;stroke:none;stroke-width:1px;stroke-linecap:butt;stroke-linejoin:miter;stroke-opacity:1"
     d="m 773.35633,265.95392 q 0.34395,1.30957 0.65104,2.59098 0.12284,0.54918 0.25798,1.1406 0.13512,0.59141 0.24567,1.18284 0.12284,0.59141 0.20883,1.15468 0.086,0.54917 0.13512,1.02794 0.0123,0.1549 0.0246,0.35203 0.0122,0.19714 0.0122,0.43653 0,1.22508 -0.31938,2.37976 -0.3071,1.15468 -0.87217,2.21078 -0.55278,1.07019 -1.32667,2.04181 -0.7616,0.97161 -1.67062,1.81651 -0.89673,0.85896 -1.90402,1.5912 -0.995,0.73223 -2.02685,1.30956 l -1.06871,-2.47832 q 1.28982,-0.73224 2.50594,-1.70386 1.21611,-0.95754 2.16197,-2.09813 0.95815,-1.1406 1.53551,-2.422 0.57734,-1.28142 0.57734,-2.64731 0,-0.0704 -0.0122,-0.22531 -0.0122,-0.16897 -0.0246,-0.32386 l 0,0.014 q -0.0369,-0.43652 -0.12284,-0.94346 -0.086,-0.52101 -0.19655,-1.0561 -0.11056,-0.54918 -0.2334,-1.08427 -0.12284,-0.54917 -0.24568,-1.05611 -0.29482,-1.18284 -0.62648,-2.36568 l 2.33396,-0.84488 z m 0.55278,-5.71705 -2.00229,2.29527 -2.01458,-2.30936 2.00229,-2.29527 2.01458,2.30936 z" />
  <path
     inkscape:connector-curvature="0"
     id="path3401"
     style="font-style:normal;font-variant:normal;font-weight:normal;font-stretch:normal;font-size:medium;line-height:125%;font-family:IRANSans;-inkscape-font-specification:IRANSans;text-align:center;letter-spacing:0px;word-spacing:0px;text-anchor:middle;fill:#000000;fill-opacity:1;stroke:none;stroke-width:1px;stroke-linecap:butt;stroke-linejoin:miter;stroke-opacity:1"
     d="m 752.13076,275.09277 q -0.58963,0 -1.40037,-0.16899 -0.79846,-0.16897 -1.59691,-0.42244 -0.79847,-0.26755 -1.4618,-0.59141 -0.66334,-0.32388 -0.97044,-0.64775 l 1.00729,-2.64731 q 0.4545,0.33796 1.09328,0.66183 0.63877,0.30979 1.36352,0.54918 0.72476,0.2253 1.48636,0.33795 0.77389,0.11265 1.48636,0.0423 0.71247,-0.0704 1.32667,-0.35204 0.6142,-0.28163 1.03186,-0.85896 0.33166,-0.43653 0.086,-1.63345 -0.13512,-0.68999 -0.44222,-1.43631 -0.29482,-0.76039 -0.72476,-1.50671 -0.41765,-0.76039 -0.93358,-1.47855 -0.51593,-0.71815 -1.08099,-1.32366 -0.55278,-0.61958 -1.13013,-1.09835 -0.57735,-0.47876 -1.13012,-0.76038 l 0.995,-2.56282 q 0.72476,0.38019 1.46179,0.98569 0.73704,0.60551 1.42494,1.36589 0.70019,0.7604 1.32667,1.64753 0.63877,0.87306 1.15469,1.8165 0.51594,0.92939 0.89674,1.87283 0.3808,0.94346 0.56507,1.84468 0.1474,0.78855 0.1474,1.42222 0,0.63367 -0.11056,1.12652 -0.0983,0.49284 -0.27024,0.85896 -0.17198,0.36611 -0.36852,0.63366 -1.13013,1.56304 -3.15699,2.06997 -0.46678,0.14082 -0.98272,0.19714 -0.51592,0.0563 -1.09327,0.0563 z" />
  <path
     inkscape:connector-curvature="0"
     id="path3403"
     style="font-style:normal;font-variant:normal;font-weight:normal;font-stretch:normal;font-size:medium;line-height:125%;font-family:IRANSans;-inkscape-font-specification:IRANSans;text-align:center;letter-spacing:0px;word-spacing:0px;text-anchor:middle;fill:#000000;fill-opacity:1;stroke:none;stroke-width:1px;stroke-linecap:butt;stroke-linejoin:miter;stroke-opacity:1"
     d="m 743.38985,252.87227 q 0.5405,5.73115 0.62648,10.25128 0.13512,7.46316 -0.19654,12.11003 l -2.41994,-0.15489 q 0.39308,-6.26624 0.24568,-10.51883 -0.24568,-6.8295 -0.66334,-11.26513 l 2.40766,-0.42246 z" />
  <path
     inkscape:connector-curvature="0"
     id="path3405"
     style="font-style:normal;font-variant:normal;font-weight:normal;font-stretch:normal;font-size:medium;line-height:125%;font-family:IRANSans;-inkscape-font-specification:IRANSans;text-align:center;letter-spacing:0px;word-spacing:0px;text-anchor:middle;fill:#000000;fill-opacity:1;stroke:none;stroke-width:1px;stroke-linecap:butt;stroke-linejoin:miter;stroke-opacity:1"
     d="m 723.38568,273.72687 q 0,-0.57734 0.34395,-0.95754 0.34395,-0.39428 0.84759,-0.42244 l 0.0122,0 q 1.03185,0 1.74433,-0.3802 0.71247,-0.39428 1.24068,-1.02794 0.52821,-0.64775 0.9213,-1.46447 0.39308,-0.8308 0.77389,-1.70386 0.31938,-0.76039 0.63876,-1.45039 0.31938,-0.68999 0.73704,-1.26732 1.10557,-1.54895 2.67791,-1.54895 1.85488,0 3.08328,1.70384 0.98272,1.35183 1.17926,3.39363 0.12284,0.97161 0.0369,1.901 -0.086,0.92937 -0.35623,1.76017 -0.35624,1.01387 -0.94587,1.67569 -0.58964,0.64775 -1.36352,0.88713 -1.37581,0.42244 -3.10785,-0.38021 -1.19154,-0.53508 -2.49365,-1.63343 -0.086,0.0986 -0.12284,0.12673 -1.83031,2.16854 -4.64334,2.16854 l -0.0122,0 q -0.50364,0 -0.84759,-0.39429 -0.34396,-0.40836 -0.34396,-0.98569 z m 7.38267,-3.19649 q 1.11784,0.94346 2.03914,1.36591 0.9213,0.42244 1.53549,0.2253 0.20884,-0.0563 0.40538,-0.32388 0.19654,-0.26755 0.33167,-0.68999 0.1474,-0.42244 0.19654,-0.97162 0.0615,-0.54918 -0.0122,-1.18284 -0.0123,-0.0986 -0.0615,-0.33795 -0.0491,-0.23938 -0.14741,-0.53509 -0.086,-0.29572 -0.2334,-0.6055 -0.1474,-0.32388 -0.35624,-0.57734 -0.20882,-0.26755 -0.49136,-0.43653 -0.28252,-0.16897 -0.65104,-0.16897 -0.24568,0 -0.46679,0.16897 -0.20884,0.1549 -0.42994,0.49285 -0.20883,0.33795 -0.45451,0.84489 -0.2334,0.50693 -0.5405,1.19692 l -0.66333,1.53487 z" />
  <path
     inkscape:connector-curvature="0"
     id="path3407"
     style="font-style:normal;font-variant:normal;font-weight:normal;font-stretch:normal;font-size:medium;line-height:125%;font-family:IRANSans;-inkscape-font-specification:IRANSans;text-align:center;letter-spacing:0px;word-spacing:0px;text-anchor:middle;fill:#000000;fill-opacity:1;stroke:none;stroke-width:1px;stroke-linecap:butt;stroke-linejoin:miter;stroke-opacity:1"
     d="m 714.75897,273.72687 q 0,-0.57734 0.34395,-0.97162 0.34395,-0.40836 0.85988,-0.40836 l 0.20883,0 q 2.06371,0 2.99728,-0.84489 0.93358,-0.85896 0.93358,-2.53466 0,-0.39427 -0.0246,-0.78855 -0.0246,-0.40837 -0.086,-0.83081 -0.0491,-0.43652 -0.14742,-0.90121 -0.086,-0.47877 -0.2211,-1.01386 l 2.30939,-0.74631 q 0.12284,0.49284 0.20882,0.95753 0.086,0.4506 0.14741,0.95753 0.0737,0.50694 0.12284,1.09836 0.0491,0.59142 0.0983,1.33774 0.0369,0.52101 0.12284,1.09834 0.086,0.57735 0.3071,1.07019 0.22111,0.49285 0.60191,0.81673 0.39309,0.32387 1.01957,0.32387 0.24568,0 0.4668,0.11265 0.22111,0.0986 0.3808,0.29571 0.17197,0.18306 0.27025,0.43652 0.0983,0.25347 0.0983,0.5351 0,0.2957 -0.0983,0.54917 -0.0983,0.23938 -0.27025,0.43652 -0.15969,0.18307 -0.3808,0.29572 -0.20884,0.0986 -0.45452,0.0986 -0.61419,0 -1.13011,-0.12674 -0.50365,-0.12673 -0.92131,-0.35203 -0.40537,-0.23938 -0.73704,-0.56326 -0.31938,-0.32387 -0.57734,-0.70407 -0.77389,0.87305 -2.01458,1.30958 -1.22839,0.43652 -3.02185,0.43652 l -0.20883,0 q -0.51592,0 -0.85988,-0.39428 -0.34395,-0.39428 -0.34395,-0.9857 z m 7.87402,-14.79958 -2.00228,2.29527 -2.01457,-2.30935 2.00228,-2.29528 2.01457,2.30936 z" />
  <path
     inkscape:connector-curvature="0"
     id="path3409"
     style="font-style:normal;font-variant:normal;font-weight:normal;font-stretch:normal;font-size:medium;line-height:125%;font-family:IRANSans;-inkscape-font-specification:IRANSans;text-align:center;letter-spacing:0px;word-spacing:0px;text-anchor:middle;fill:#000000;fill-opacity:1;stroke:none;stroke-width:1px;stroke-linecap:butt;stroke-linejoin:miter;stroke-opacity:1"
     d="m 710.39077,265.22168 q -0.29482,0.14083 -0.70019,0.35205 -0.40537,0.19713 -0.8476,0.46468 -0.42994,0.25347 -0.85988,0.57734 -0.41765,0.30979 -0.7616,0.6759 -0.33167,0.35204 -0.54049,0.77448 -0.20884,0.40836 -0.20884,0.85897 0,0.46469 0.24568,0.7604 0.25796,0.28163 0.65106,0.4506 0.40537,0.1549 0.90901,0.21122 0.50364,0.0563 1.00729,0.0563 0.51592,-0.014 0.97043,-0.0704 0.46679,-0.0563 0.78618,-0.12674 -0.14741,-0.81671 -0.3071,-1.99955 -0.14741,-1.18285 -0.34395,-2.98527 z m -1.20383,7.91377 q -3.16927,0 -4.40995,-1.76018 -0.34396,-0.47877 -0.49136,-1.01386 -0.13512,-0.54917 -0.1597,-1.07019 -0.0122,-0.52101 0.0615,-0.97162 0.0737,-0.4506 0.18426,-0.74632 0.33167,-0.78855 0.78617,-1.45039 0.4668,-0.66182 0.98273,-1.18284 0.5282,-0.53508 1.08099,-0.94344 0.56506,-0.42245 1.08098,-0.73224 0.52822,-0.30979 0.99501,-0.53509 0.46679,-0.22531 0.81074,-0.36612 -0.0983,-1.07019 -0.1474,-1.56304 -0.0369,-0.50694 -0.0369,-0.52101 l 2.40766,-0.57734 0,-0.014 q 0.0122,0.12674 0.0491,0.52101 0.0368,0.39429 0.086,0.94346 0.0491,0.5351 0.0983,1.15467 0.0615,0.60551 0.11056,1.1406 0.0491,0.5351 0.086,0.92937 0.0369,0.39429 0.0491,0.49285 0.18426,1.81651 0.34395,2.97118 0.15969,1.15468 0.28253,1.84467 0.12283,0.67591 0.19655,0.97162 0.086,0.29571 0.12284,0.3802 0.1474,0.3802 0.33166,0.63366 0.19654,0.25347 0.45451,0.40836 0.25796,0.14081 0.58962,0.21122 0.33168,0.0563 0.76161,0.0563 0.50364,0 0.85988,0.39428 0.35624,0.39428 0.35624,0.9857 0,0.28163 -0.0983,0.5351 -0.0983,0.25345 -0.27024,0.4506 -0.1597,0.18306 -0.3808,0.29571 -0.22112,0.0986 -0.4668,0.0986 -0.46679,0 -1.11784,-0.0845 -0.63876,-0.0986 -1.27753,-0.43652 -0.98272,-0.5351 -1.62149,-1.71794 -0.7616,0.14081 -1.42494,0.21122 -0.66333,0.0563 -1.26525,0.0563 z" />
  <path
     inkscape:connector-curvature="0"
     id="path3411"
     style="font-style:normal;font-variant:normal;font-weight:normal;font-stretch:normal;font-size:medium;line-height:125%;font-family:IRANSans;-inkscape-font-specification:IRANSans;text-align:center;letter-spacing:0px;word-spacing:0px;text-anchor:middle;fill:#000000;fill-opacity:1;stroke:none;stroke-width:1px;stroke-linecap:butt;stroke-linejoin:miter;stroke-opacity:1"
     d="m 930.59457,293.35637 q 0.54051,5.73114 0.62644,10.25128 0.13514,7.46316 -0.19652,12.11003 l -2.4199,-0.15491 q 0.39303,-6.26623 0.24565,-10.51881 -0.24565,-6.8295 -0.66333,-11.26515 l 2.40766,-0.42244 z" />
  <path
     inkscape:connector-curvature="0"
     id="path3413"
     style="font-style:normal;font-variant:normal;font-weight:normal;font-stretch:normal;font-size:medium;line-height:125%;font-family:IRANSans;-inkscape-font-specification:IRANSans;text-align:center;letter-spacing:0px;word-spacing:0px;text-anchor:middle;fill:#000000;fill-opacity:1;stroke:none;stroke-width:1px;stroke-linecap:butt;stroke-linejoin:miter;stroke-opacity:1"
     d="m 919.51455,320.44903 -1.99007,2.2812 -2.01455,-2.29528 1.98998,-2.29527 2.01464,2.30935 z m 5.0364,0.014 -1.98998,2.29527 -2.01464,-2.30935 1.99008,-2.28119 2.01454,2.29527 z m -10.9573,-6.25215 q 0,-0.59143 0.35623,-0.9857 0.34389,-0.39428 0.8476,-0.39428 l 1.36345,0 q 0.43001,0.014 0.93363,0.014 0.50361,-0.014 1.01955,-0.0704 0.51594,-0.0563 1.00732,-0.15489 0.50361,-0.11265 0.92129,-0.29571 0.41769,-0.19714 0.73702,-0.47877 0.31943,-0.28162 0.47905,-0.67591 0.24573,-0.6055 0.13515,-1.71793 -0.0983,-1.12651 -0.49138,-2.61915 -0.13505,-0.4506 -0.31933,-0.97162 -0.17204,-0.53508 -0.34399,-0.9857 -0.19652,-0.53508 -0.40536,-1.0561 l 2.18658,-1.23917 q 0,0.014 0.1105,0.29571 0.12291,0.26755 0.29486,0.73224 0.17195,0.46469 0.38079,1.08427 0.20884,0.6055 0.39312,1.29549 1.14238,4.04137 0.28254,6.30847 -0.87217,2.26712 -3.09565,2.98527 -0.33166,0.11265 -0.84751,0.18306 -0.51594,0.0563 -1.05645,0.0845 -0.5405,0.0282 -1.03188,0.0423 -0.49137,0 -0.76158,0 l -1.78123,0 -0.11049,0 q -0.50371,0 -0.8476,-0.39429 -0.35623,-0.39428 -0.35623,-0.9857 z" />
  <path
     inkscape:connector-curvature="0"
     id="path3415"
     style="font-style:normal;font-variant:normal;font-weight:normal;font-stretch:normal;font-size:medium;line-height:125%;font-family:IRANSans;-inkscape-font-specification:IRANSans;text-align:center;letter-spacing:0px;word-spacing:0px;text-anchor:middle;fill:#000000;fill-opacity:1;stroke:none;stroke-width:1px;stroke-linecap:butt;stroke-linejoin:miter;stroke-opacity:1"
     d="m 915.38767,315.59094 q -1.63375,0 -2.93583,-0.87305 0.0495,1.07019 -0.0616,2.16854 -0.0983,1.11243 -0.40535,2.25303 -0.35623,1.29549 -1.05645,2.36568 -0.70022,1.08427 -1.73201,1.84467 -1.13013,0.88712 -2.55514,1.33773 -1.4249,0.46469 -3.20604,0.57734 l -0.50371,0 q -1.60918,0 -2.93583,-0.53509 -1.32666,-0.5351 -2.37077,-1.54896 -0.94586,-0.97162 -1.56015,-2.29528 -0.60187,-1.32365 -0.79839,-2.8726 -0.0983,-0.85897 -0.0983,-1.71794 0.0121,-0.85896 0.0983,-1.66161 0.0859,-0.80264 0.22108,-1.52079 0.13515,-0.71815 0.29486,-1.29549 0.39303,-1.4363 0.82295,-2.43609 0.43001,-1.01386 0.73711,-1.52079 l 1.96542,1.63345 q -0.15972,0.23938 -0.3808,0.71814 -0.20884,0.47877 -0.42991,1.11244 -0.20885,0.63366 -0.40545,1.39406 -0.19652,0.74631 -0.33167,1.57712 -0.12282,0.81672 -0.15962,1.66161 -0.0364,0.85896 0.0738,1.66161 0.0495,0.36611 0.17195,0.87305 0.12282,0.50693 0.35623,1.04202 0.2334,0.54918 0.60196,1.08427 0.38079,0.53509 0.94586,0.94346 0.56507,0.42244 1.33889,0.67591 0.78624,0.26753 1.83035,0.26753 l 0.18428,0 q 0.0616,0 0.11049,0 0.0616,0 0.12292,-0.014 2.59184,-0.15489 4.18879,-1.211 1.59695,-1.04202 2.13737,-2.98526 0.33175,-1.22509 0.34399,-2.43608 0.0243,-1.21101 -0.13515,-2.30937 -0.15962,-1.11243 -0.44216,-2.06997 -0.28253,-0.95752 -0.56507,-1.70384 -0.13515,-0.28163 -0.24573,-0.57734 -0.11049,-0.29572 -0.24564,-0.6055 -0.0983,-0.2253 -0.17195,-0.33796 -0.0738,-0.11265 -0.0738,-0.14081 l 2.05144,-1.49264 q 0.0374,0.0563 0.2703,0.56327 0.24564,0.50693 0.60186,1.35181 0.67566,1.46447 1.26529,2.32344 0.60187,0.85896 1.14238,1.29548 0.5405,0.43654 1.01955,0.56326 0.47914,0.11266 0.90906,0.11266 0.51594,0 0.85984,0.39428 0.35623,0.39427 0.35623,0.9857 0,0.57733 -0.35623,0.98569 -0.3439,0.39429 -0.85984,0.39429 z m -9.50782,-8.08274 -2.00231,2.29527 -2.01454,-2.30935 2.00231,-2.29527 2.01454,2.30935 z" />
  <path
     inkscape:connector-curvature="0"
     id="path3417"
     style="font-style:normal;font-variant:normal;font-weight:normal;font-stretch:normal;font-size:medium;line-height:125%;font-family:IRANSans;-inkscape-font-specification:IRANSans;text-align:center;letter-spacing:0px;word-spacing:0px;text-anchor:middle;fill:#000000;fill-opacity:1;stroke:none;stroke-width:1px;stroke-linecap:butt;stroke-linejoin:miter;stroke-opacity:1"
     d="m 870.41794,314.21096 q 0,-0.57733 0.34395,-0.95754 0.34396,-0.39428 0.8476,-0.42244 l 0.0122,0 q 1.03185,0 1.74433,-0.3802 0.71247,-0.39427 1.24068,-1.02794 0.52821,-0.64775 0.9213,-1.46446 0.39308,-0.83081 0.77389,-1.70386 0.31938,-0.7604 0.63876,-1.45039 0.31939,-0.68999 0.73704,-1.26732 1.10557,-1.54897 2.67792,-1.54897 1.85487,0 3.08327,1.70386 0.98272,1.35182 1.17926,3.39362 0.12284,0.97162 0.0369,1.90099 -0.086,0.92938 -0.35623,1.76019 -0.35624,1.01385 -0.94587,1.67568 -0.58963,0.64775 -1.36352,0.88714 -1.37581,0.42244 -3.10785,-0.38021 -1.19154,-0.53509 -2.49365,-1.63344 -0.086,0.0986 -0.12284,0.12674 -1.83031,2.16853 -4.64334,2.16853 l -0.0122,0 q -0.50364,0 -0.84759,-0.39428 -0.34396,-0.40836 -0.34396,-0.9857 z m 7.38267,-3.19648 q 1.11784,0.94345 2.03914,1.36589 0.9213,0.42245 1.5355,0.22531 0.20883,-0.0563 0.40537,-0.32387 0.19654,-0.26755 0.33167,-0.68999 0.1474,-0.42245 0.19654,-0.97162 0.0615,-0.54918 -0.0123,-1.18284 -0.0122,-0.0986 -0.0615,-0.33796 -0.0491,-0.23938 -0.14742,-0.53509 -0.086,-0.29571 -0.23339,-0.6055 -0.14741,-0.32387 -0.35623,-0.57734 -0.20883,-0.26754 -0.49137,-0.43652 -0.28252,-0.16898 -0.65104,-0.16898 -0.24568,0 -0.4668,0.16898 -0.20883,0.15489 -0.42993,0.49284 -0.20884,0.33796 -0.45452,0.84489 -0.23339,0.50694 -0.54049,1.19693 l -0.66334,1.53487 z" />
  <path
     inkscape:connector-curvature="0"
     id="path3419"
     style="font-style:normal;font-variant:normal;font-weight:normal;font-stretch:normal;font-size:medium;line-height:125%;font-family:IRANSans;-inkscape-font-specification:IRANSans;text-align:center;letter-spacing:0px;word-spacing:0px;text-anchor:middle;fill:#000000;fill-opacity:1;stroke:none;stroke-width:1px;stroke-linecap:butt;stroke-linejoin:miter;stroke-opacity:1"
     d="m 865.1462,305.1566 q -0.33168,0 -0.72476,0.28163 -0.3808,0.26755 -0.71247,0.77449 -0.33166,0.49285 -0.55278,1.19692 -0.20883,0.70407 -0.20883,1.57712 0,0.66182 0.54049,1.30956 0.55279,0.63367 1.57235,1.16876 l 0.19655,0.0986 q 0.72476,-0.36613 1.10556,-0.98571 0.3808,-0.63366 0.50364,-1.33773 0.12284,-0.71815 0.0246,-1.43631 -0.0983,-0.73223 -0.35623,-1.30956 -0.24568,-0.59143 -0.6142,-0.95754 -0.36852,-0.38021 -0.77389,-0.38021 z m -7.77577,9.05436 q 0,-0.2957 0.0983,-0.54917 0.086,-0.25347 0.25796,-0.43652 0.15969,-0.18307 0.3808,-0.28163 0.20883,-0.11266 0.46679,-0.11266 0.42994,0 0.9213,-0.014 0.50365,-0.014 0.98273,-0.0423 0.47907,-0.0281 0.90901,-0.0704 0.44222,-0.0422 0.74932,-0.0845 -1.59691,-1.60528 -1.59691,-3.633 0,-1.30958 0.34394,-2.49242 0.35624,-1.18284 1.01957,-2.14037 0.66334,-0.95754 1.51093,-1.47856 0.85988,-0.53509 1.75661,-0.49285 1.09327,0.0563 1.9163,0.59143 0.82303,0.53509 1.36352,1.37998 0.55279,0.84488 0.81075,1.91506 0.25796,1.05612 0.20882,2.16855 -0.0368,1.09834 -0.39308,2.16854 -0.34395,1.0561 -1.00729,1.8869 0.36852,0.0845 0.81075,0.1549 0.44222,0.0563 0.90901,0.0986 0.46679,0.0422 0.93358,0.0704 0.46679,0.014 0.87216,0.014 0.51593,0 0.85989,0.39429 0.35623,0.39427 0.35623,0.98569 0,0.29571 -0.0983,0.54918 -0.086,0.23938 -0.25796,0.43652 -0.1597,0.18306 -0.38081,0.29571 -0.22111,0.0986 -0.47908,0.0986 l -0.11055,0 q -0.38081,0 -0.82303,-0.0141 -0.44222,-0.0141 -0.89673,-0.0423 -0.4545,-0.0423 -0.88444,-0.0845 -0.42995,-0.0423 -0.78618,-0.11266 -0.73704,-0.14081 -1.42494,-0.32388 -0.67562,-0.18305 -1.32667,-0.42244 -0.57734,0.25347 -1.33895,0.43653 -0.76162,0.18306 -1.63377,0.30979 -0.87216,0.12674 -1.81803,0.19714 -0.94587,0.0563 -1.87945,0.0563 l -0.0983,0 q -0.51592,0 -0.85987,-0.39428 -0.34396,-0.39429 -0.34396,-0.9857 z m 7.18613,-17.33423 -1.99,2.28119 -2.01457,-2.29527 1.99,-2.29527 2.01457,2.30935 z m 5.03643,0.014 -1.99,2.29528 -2.01457,-2.30935 1.99,-2.2812 2.01457,2.29527 z" />
  <path
     inkscape:connector-curvature="0"
     id="path3421"
     style="font-style:normal;font-variant:normal;font-weight:normal;font-stretch:normal;font-size:medium;line-height:125%;font-family:IRANSans;-inkscape-font-specification:IRANSans;text-align:center;letter-spacing:0px;word-spacing:0px;text-anchor:middle;fill:#000000;fill-opacity:1;stroke:none;stroke-width:1px;stroke-linecap:butt;stroke-linejoin:miter;stroke-opacity:1"
     d="m 858.60603,315.59094 q -1.35123,0 -2.32167,-0.36612 -0.95815,-0.36612 -1.62149,-1.12651 -0.40536,-0.46468 -0.62648,-0.99978 -0.20883,-0.5351 -0.31938,-1.0561 -0.0983,-0.52102 -0.11055,-0.98571 -0.0122,-0.47877 -0.0122,-0.81672 l 0,-0.26754 q 0,-0.0141 0.0122,-0.50694 0.0122,-0.50693 0.0122,-1.35181 0.0123,-0.85897 0.0123,-1.9714 0,-1.11244 -0.0123,-2.3516 0,-1.21101 -0.0246,-2.52058 -0.0246,-1.30957 -0.0737,-2.53465 -0.0491,-1.22509 -0.13512,-2.25303 -0.086,-1.04203 -0.19654,-1.70385 l 2.40766,-0.50694 q 0.11056,0.71816 0.19655,1.76019 0.086,1.04202 0.13512,2.2671 0.0615,1.22508 0.086,2.56282 0.0246,1.32365 0.0246,2.59099 0.0122,1.23916 0.0122,2.37975 0,1.1406 0,2.02773 0,0.88713 -0.0122,1.46446 0,0.57735 0,0.68999 l 0,0.25347 q -0.0122,0.61959 0.0369,1.09836 0.0491,0.46469 0.33166,0.77447 0.55278,0.66183 2.08828,0.67591 l 0.11055,0 q 0.24568,0 0.46679,0.11265 0.22112,0.11265 0.3808,0.30979 0.17198,0.18307 0.27025,0.43653 0.0983,0.25346 0.0983,0.53509 0,0.59142 -0.35624,0.9857 -0.35623,0.39428 -0.85988,0.39428 z" />
  <path
     inkscape:connector-curvature="0"
     id="path3423"
     style="font-style:normal;font-variant:normal;font-weight:normal;font-stretch:normal;font-size:medium;line-height:125%;font-family:IRANSans;-inkscape-font-specification:IRANSans;text-align:center;letter-spacing:0px;word-spacing:0px;text-anchor:middle;fill:#000000;fill-opacity:1;stroke:none;stroke-width:1px;stroke-linecap:butt;stroke-linejoin:miter;stroke-opacity:1"
     d="m 843.76037,315.57686 q -0.58963,0 -1.40037,-0.16898 -0.79846,-0.16897 -1.59692,-0.42244 -0.79846,-0.26755 -1.46179,-0.59142 -0.66334,-0.32387 -0.97044,-0.64775 l 1.00729,-2.6473 q 0.4545,0.33795 1.09328,0.66183 0.63876,0.30978 1.36351,0.54916 0.72476,0.22531 1.48637,0.33796 0.77389,0.11265 1.48635,0.0423 0.71248,-0.0704 1.32667,-0.35203 0.61421,-0.28163 1.03186,-0.85898 0.33167,-0.43652 0.086,-1.63344 -0.13512,-0.68999 -0.44222,-1.4363 -0.29482,-0.7604 -0.72476,-1.50672 -0.41765,-0.76039 -0.93358,-1.47855 -0.51593,-0.71815 -1.081,-1.32365 -0.55277,-0.61958 -1.13012,-1.09835 -0.57735,-0.47877 -1.13012,-0.7604 l 0.99499,-2.56282 q 0.72476,0.3802 1.46181,0.98571 0.73703,0.60549 1.42493,1.36589 0.70019,0.7604 1.32667,1.64753 0.63877,0.87305 1.1547,1.8165 0.51593,0.92938 0.89673,1.87283 0.3808,0.94346 0.56506,1.84467 0.14741,0.78856 0.14741,1.42222 0,0.63366 -0.11056,1.12652 -0.0983,0.49285 -0.27025,0.85896 -0.17197,0.36612 -0.36852,0.63367 -1.13012,1.56304 -3.15698,2.06997 -0.46679,0.14081 -0.98272,0.19714 -0.51593,0.0563 -1.09327,0.0563 z" />
  <path
     inkscape:connector-curvature="0"
     id="path3425"
     style="font-style:normal;font-variant:normal;font-weight:normal;font-stretch:normal;font-size:medium;line-height:125%;font-family:IRANSans;-inkscape-font-specification:IRANSans;text-align:center;letter-spacing:0px;word-spacing:0px;text-anchor:middle;fill:#000000;fill-opacity:1;stroke:none;stroke-width:1px;stroke-linecap:butt;stroke-linejoin:miter;stroke-opacity:1"
     d="m 830.50605,320.44903 -1.99,2.2812 -2.01457,-2.29528 1.99,-2.29527 2.01457,2.30935 z m 5.03643,0.014 -1.99,2.29527 -2.01457,-2.30935 1.99,-2.28119 2.01457,2.29527 z m -10.9573,-6.25215 q 0,-0.59143 0.35623,-0.9857 0.34395,-0.39428 0.8476,-0.39428 l 1.36351,0 q 0.42994,0.014 0.93359,0.014 0.50364,-0.014 1.01957,-0.0704 0.51592,-0.0563 1.00728,-0.15489 0.50365,-0.11265 0.9213,-0.29571 0.41766,-0.19714 0.73705,-0.47877 0.31938,-0.28162 0.47907,-0.67591 0.24568,-0.6055 0.13512,-1.71793 -0.0983,-1.12651 -0.49136,-2.61915 -0.13513,-0.4506 -0.31939,-0.97162 -0.17196,-0.53508 -0.34394,-0.9857 -0.19655,-0.53508 -0.40537,-1.0561 l 2.18654,-1.23917 q 0,0.014 0.11056,0.29571 0.12284,0.26755 0.29482,0.73224 0.17197,0.46469 0.3808,1.08427 0.20883,0.6055 0.39309,1.29549 1.14241,4.04137 0.28252,6.30847 -0.87215,2.26712 -3.09556,2.98527 -0.33166,0.11265 -0.84759,0.18306 -0.51592,0.0563 -1.05642,0.0845 -0.54049,0.0282 -1.03185,0.0423 -0.49136,0 -0.76161,0 l -1.78118,0 -0.11055,0 q -0.50365,0 -0.8476,-0.39429 -0.35623,-0.39428 -0.35623,-0.9857 z" />
  <path
     inkscape:connector-curvature="0"
     id="path3427"
     style="font-style:normal;font-variant:normal;font-weight:normal;font-stretch:normal;font-size:medium;line-height:125%;font-family:IRANSans;-inkscape-font-specification:IRANSans;text-align:center;letter-spacing:0px;word-spacing:0px;text-anchor:middle;fill:#000000;fill-opacity:1;stroke:none;stroke-width:1px;stroke-linecap:butt;stroke-linejoin:miter;stroke-opacity:1"
     d="m 824.04986,314.61933 q 0,1.22507 -0.31938,2.37975 -0.3071,1.15468 -0.87216,2.22487 -0.55278,1.07019 -1.32667,2.02772 -0.76161,0.97162 -1.67062,1.83059 -0.89673,0.85896 -1.90401,1.57712 -0.99501,0.73223 -2.02686,1.32366 l -1.05642,-2.49242 q 0.88444,-0.52101 1.75661,-1.1406 0.87216,-0.61958 1.64605,-1.33773 0.77389,-0.71815 1.42493,-1.52079 0.65106,-0.80265 1.09328,-1.67569 0.45451,-0.87306 0.67562,-1.8165 0.22111,-0.92938 0.13513,-1.92916 l 0,0.0282 q -0.086,-0.80264 -0.27026,-1.71794 -0.17196,-0.92937 -0.39308,-1.8165 -0.20883,-0.88713 -0.41766,-1.66161 -0.19654,-0.78855 -0.34395,-1.30957 l 2.30939,-0.81672 q 0.46679,1.63344 0.90902,2.78812 0.4545,1.14059 0.9213,1.87283 0.47907,0.71815 0.99499,1.05611 0.51594,0.33795 1.13013,0.33795 l 0.0615,0 q 0.25796,0 0.47908,0.11266 0.2211,0.11264 0.3808,0.30978 0.17197,0.18307 0.25796,0.43652 0.0983,0.25347 0.0983,0.5351 0,0.59143 -0.35623,0.9857 -0.34396,0.3802 -0.85988,0.3802 l -0.0122,0 q -0.17198,0 -0.45452,-0.0141 -0.27024,-0.0141 -0.61419,-0.11265 -0.33167,-0.0986 -0.6879,-0.3098 -0.35624,-0.21122 -0.68791,-0.59142 l 0,0.0563 z" />
  <path
     inkscape:connector-curvature="0"
     id="path3429"
     style="font-style:normal;font-variant:normal;font-weight:normal;font-stretch:normal;font-size:medium;line-height:125%;font-family:IRANSans;-inkscape-font-specification:IRANSans;text-align:center;letter-spacing:0px;word-spacing:0px;text-anchor:middle;fill:#000000;fill-opacity:1;stroke:none;stroke-width:1px;stroke-linecap:butt;stroke-linejoin:miter;stroke-opacity:1"
     d="m 805.33426,306.43802 q 0.34394,1.30957 0.65105,2.59098 0.12284,0.54917 0.25796,1.1406 0.13512,0.59141 0.24568,1.18284 0.12284,0.59141 0.20883,1.15467 0.086,0.54917 0.13513,1.02794 0.0122,0.15489 0.0246,0.35204 0.0122,0.19714 0.0122,0.43653 0,1.22507 -0.31938,2.37976 -0.3071,1.15467 -0.87217,2.21078 -0.55278,1.07018 -1.32666,2.0418 -0.76161,0.97162 -1.67063,1.8165 -0.89673,0.85898 -1.90402,1.5912 -0.995,0.73224 -2.02685,1.30958 l -1.06871,-2.47833 q 1.28982,-0.73223 2.50594,-1.70385 1.21611,-0.95754 2.16197,-2.09813 0.95815,-1.1406 1.5355,-2.42201 0.57734,-1.28141 0.57734,-2.6473 0,-0.0704 -0.0122,-0.22531 -0.0122,-0.16898 -0.0246,-0.32387 l 0,0.014 q -0.0369,-0.43653 -0.12283,-0.94346 -0.086,-0.52101 -0.19656,-1.05611 -0.11054,-0.54917 -0.23338,-1.08427 -0.12284,-0.54918 -0.24568,-1.0561 -0.29482,-1.18284 -0.62649,-2.36568 l 2.33396,-0.84489 z" />
  <path
     inkscape:connector-curvature="0"
     id="path3431"
     style="font-style:normal;font-variant:normal;font-weight:normal;font-stretch:normal;font-size:medium;line-height:125%;font-family:IRANSans;-inkscape-font-specification:IRANSans;text-align:center;letter-spacing:0px;word-spacing:0px;text-anchor:middle;fill:#000000;fill-opacity:1;stroke:none;stroke-width:1px;stroke-linecap:butt;stroke-linejoin:miter;stroke-opacity:1"
     d="m 797.21983,293.35637 q 0.54049,5.73114 0.62648,10.25128 0.13512,7.46316 -0.19654,12.11003 l -2.41995,-0.15491 q 0.39309,-6.26623 0.24568,-10.51881 -0.24568,-6.8295 -0.66333,-11.26515 l 2.40766,-0.42244 z" />
  <path
     inkscape:connector-curvature="0"
     id="path3433"
     style="font-style:normal;font-variant:normal;font-weight:normal;font-stretch:normal;font-size:medium;line-height:125%;font-family:IRANSans;-inkscape-font-specification:IRANSans;text-align:center;letter-spacing:0px;word-spacing:0px;text-anchor:middle;fill:#000000;fill-opacity:1;stroke:none;stroke-width:1px;stroke-linecap:butt;stroke-linejoin:miter;stroke-opacity:1"
     d="m 774.74455,314.21096 q 0,-0.59142 0.35624,-0.98569 0.34395,-0.39429 0.84759,-0.39429 l 1.26525,0 q 0.65106,0.0282 1.25297,0 0.60192,-0.0423 1.10556,-0.21122 0.50364,-0.16898 0.88445,-0.50693 0.39308,-0.35203 0.63876,-0.94346 0.24568,-0.6055 0.13513,-1.71793 -0.0983,-1.12651 -0.49137,-2.61915 -0.13512,-0.4506 -0.31938,-0.97162 -0.17198,-0.53508 -0.34395,-0.9857 -0.19654,-0.53508 -0.40537,-1.0561 l 2.18655,-1.23917 q 0,0.014 0.11056,0.29571 0.12284,0.26755 0.29481,0.73224 0.17197,0.46469 0.3808,1.08427 0.20883,0.6055 0.39309,1.29549 1.14241,4.04137 0.28253,6.30847 -0.87216,2.26712 -3.09556,2.98527 -0.66333,0.22531 -1.30211,0.26754 -0.62648,0.0423 -1.17925,0.0423 l -1.68291,0 -0.11056,0 q -0.50364,0 -0.84759,-0.39429 -0.35624,-0.39428 -0.35624,-0.98569 z m 7.34583,-16.19364 -2.00229,2.29527 -2.01458,-2.30935 2.00229,-2.29527 2.01458,2.30935 z" />
  <path
     inkscape:connector-curvature="0"
     id="path3435"
     style="font-style:normal;font-variant:normal;font-weight:normal;font-stretch:normal;font-size:medium;line-height:125%;font-family:IRANSans;-inkscape-font-specification:IRANSans;text-align:center;letter-spacing:0px;word-spacing:0px;text-anchor:middle;fill:#000000;fill-opacity:1;stroke:none;stroke-width:1px;stroke-linecap:butt;stroke-linejoin:miter;stroke-opacity:1"
     d="m 770.37204,312.7465 q 0.97043,0.19714 1.40038,-0.49285 0.33166,-0.54918 0.31938,-1.5912 -0.0122,-0.26755 -0.0122,-0.50694 l -0.0123,-0.14082 q -0.11055,-1.25324 -0.73704,-2.21078 -0.65105,-1.01386 -1.43723,-1.01386 -0.63876,0 -1.40037,1.57712 -0.24568,0.50693 -0.6142,1.40814 l -0.1474,0.33796 -0.13513,0.33795 q -0.14741,0.3802 -0.25796,0.61959 1.83031,1.40814 3.03414,1.67569 z m 5.58921,0.0845 q 0.50364,0 0.85988,0.40836 0.34395,0.40837 0.34395,0.97162 0,0.57734 -0.34395,0.97162 -0.35624,0.40836 -0.85988,0.40836 -1.80574,0 -2.75161,-1.39406 -1.01957,1.54896 -2.55507,1.30958 -2.44451,-0.36613 -4.7539,-2.19671 -0.31938,0.57734 -1.03186,1.14059 -1.40037,1.1406 -3.31666,1.1406 -0.50365,0 -0.8476,-0.40836 -0.35623,-0.39428 -0.35623,-0.97162 0,-0.56325 0.35623,-0.97162 0.34395,-0.40836 0.8476,-0.40836 1.74432,0 3.08328,-2.0418 0.44222,-0.68999 0.89672,-1.70386 0.13513,-0.30978 0.33167,-0.77447 l 0.0737,-0.18307 0.0737,-0.16897 q 0.0737,-0.16898 0.12284,-0.29572 l 0.29481,-0.64774 q 0.17198,-0.36611 0.31938,-0.64774 0.36853,-0.71816 0.74933,-1.16876 0.97044,-1.18284 2.39537,-1.18284 1.67063,0 2.88674,1.57712 1.13013,1.47855 1.42495,3.70341 0.086,0.64775 0.0491,1.3659 0.0983,0.99978 0.55278,1.63344 0.39308,0.5351 1.1547,0.5351 z" />
  <path
     inkscape:connector-curvature="0"
     id="path3437"
     style="font-style:normal;font-variant:normal;font-weight:normal;font-stretch:normal;font-size:medium;line-height:125%;font-family:IRANSans;-inkscape-font-specification:IRANSans;text-align:center;letter-spacing:0px;word-spacing:0px;text-anchor:middle;fill:#000000;fill-opacity:1;stroke:none;stroke-width:1px;stroke-linecap:butt;stroke-linejoin:miter;stroke-opacity:1"
     d="m 751.07918,324.77203 q -1.0687,0 -2.21111,-0.12674 -1.14241,-0.11264 -2.19884,-0.47877 -1.05641,-0.36611 -1.94086,-1.04202 -0.88444,-0.66182 -1.44951,-1.76018 -1.32666,-2.22486 -1.17926,-5.77338 0.086,-1.92915 0.60191,-4.21035 0.51593,-2.28119 1.48636,-4.97074 l 2.24798,1.04202 q -1.57235,4.42157 -1.86717,7.53357 -0.28253,3.112 0.71247,4.84401 0.50364,0.8308 1.24068,1.26733 0.74932,0.45061 1.54779,0.64775 0.81073,0.19713 1.59691,0.2253 0.79846,0.0282 1.41265,0.0282 0.35624,0 1.00729,-0.0704 0.65106,-0.0563 1.41266,-0.21122 0.76161,-0.1549 1.54778,-0.42245 0.79846,-0.25346 1.43723,-0.63366 0.65104,-0.3802 1.05642,-0.90121 0.40537,-0.52102 0.40537,-1.21101 0,-0.16897 -0.13512,-0.40835 -0.13513,-0.22531 -0.44223,-0.49286 -0.29482,-0.26754 -0.77388,-0.56325 -0.47908,-0.29571 -1.17927,-0.59142 -0.42994,-0.16898 -0.85988,-0.32387 -0.41765,-0.14082 -0.78617,-0.25347 -0.36852,-0.0986 -0.67562,-0.18306 -0.3071,-0.0845 -0.50365,-0.12673 l -0.27024,-0.0563 0.18426,-2.73179 9.45866,0.014 q 0.50365,0 0.85988,0.39428 0.35623,0.39427 0.35623,0.9857 0,0.59141 -0.35623,0.98569 -0.35623,0.39429 -0.85988,0.39429 l -2.93587,0 q 0.41766,0.39427 0.67562,0.78855 0.27024,0.40837 0.41766,0.78857 0.1474,0.38019 0.19654,0.73223 0.0491,0.35203 0.0491,0.64774 -0.0122,1.19693 -0.47908,2.1263 -0.46679,0.92937 -1.22839,1.61936 -0.76161,0.68999 -1.73205,1.15468 -0.97043,0.47877 -2.00229,0.77448 -1.01957,0.29571 -2.02686,0.42244 -1.00728,0.12673 -1.81803,0.12673 z" />
  <path
     inkscape:connector-curvature="0"
     id="path3439"
     style="font-style:normal;font-variant:normal;font-weight:normal;font-stretch:normal;font-size:medium;line-height:125%;font-family:IRANSans;-inkscape-font-specification:IRANSans;text-align:center;letter-spacing:0px;word-spacing:0px;text-anchor:middle;fill:#000000;fill-opacity:1;stroke:none;stroke-width:1px;stroke-linecap:butt;stroke-linejoin:miter;stroke-opacity:1"
     d="m 725.743,315.57686 q -0.58963,0 -1.40037,-0.16898 -0.79846,-0.16897 -1.59692,-0.42244 -0.79846,-0.26755 -1.46179,-0.59142 -0.66334,-0.32387 -0.97044,-0.64775 l 1.00729,-2.6473 q 0.45451,0.33795 1.09328,0.66183 0.63876,0.30978 1.36351,0.54916 0.72476,0.22531 1.48637,0.33796 0.77389,0.11265 1.48635,0.0423 0.71248,-0.0704 1.32667,-0.35203 0.6142,-0.28163 1.03186,-0.85898 0.33167,-0.43652 0.086,-1.63344 -0.13512,-0.68999 -0.44223,-1.4363 -0.29481,-0.7604 -0.72475,-1.50672 -0.41765,-0.76039 -0.93358,-1.47855 -0.51593,-0.71815 -1.08099,-1.32365 -0.55278,-0.61958 -1.13013,-1.09835 -0.57735,-0.47877 -1.13012,-0.7604 l 0.995,-2.56282 q 0.72475,0.3802 1.46179,0.98571 0.73704,0.60549 1.42494,1.36589 0.70019,0.7604 1.32667,1.64753 0.63876,0.87305 1.1547,1.8165 0.51593,0.92938 0.89673,1.87283 0.3808,0.94346 0.56506,1.84467 0.14741,0.78856 0.14741,1.42222 0,0.63366 -0.11056,1.12652 -0.0983,0.49285 -0.27025,0.85896 -0.17198,0.36612 -0.36852,0.63367 -1.13012,1.56304 -3.15698,2.06997 -0.46679,0.14081 -0.98271,0.19714 -0.51594,0.0563 -1.09328,0.0563 z" />
  <path
     inkscape:connector-curvature="0"
     id="path3441"
     style="font-style:normal;font-variant:normal;font-weight:normal;font-stretch:normal;font-size:medium;line-height:125%;font-family:IRANSans;-inkscape-font-specification:IRANSans;text-align:center;letter-spacing:0px;word-spacing:0px;text-anchor:middle;fill:#000000;fill-opacity:1;stroke:none;stroke-width:1px;stroke-linecap:butt;stroke-linejoin:miter;stroke-opacity:1"
     d="m 699.06402,314.19688 q 0,-0.28162 0.0983,-0.52101 0.0983,-0.25346 0.27024,-0.43653 0.17198,-0.19714 0.40538,-0.2957 0.22111,-0.11266 0.47907,-0.11266 l 0.11056,0 q 0.73704,0 1.28982,-0.014 0.56505,-0.014 1.01957,-0.0423 0.4545,-0.0281 0.82302,-0.0704 0.38081,-0.0422 0.73704,-0.0986 -0.9213,-1.1406 -1.38809,-2.23896 -0.45451,-1.11243 -0.45451,-2.14036 0,-0.70408 0.1597,-1.47856 0.17197,-0.78856 0.51592,-1.50671 0.35624,-0.73223 0.88445,-1.35182 0.52821,-0.63366 1.26525,-1.04202 l -0.97043,-0.43652 1.16697,-2.53467 4.27483,2.01365 q 1.14241,0.57734 2.19883,1.15468 1.06871,0.57733 1.96544,1.15468 0.90901,0.57733 1.59691,1.16875 0.6879,0.59142 1.06871,1.18284 1.13012,1.78834 1.13012,3.66117 0,1.37998 -0.63876,2.59099 -0.63877,1.19692 -1.92859,1.98547 l 0.0122,-0.014 q -0.34395,0.23938 -0.81074,0.40836 -0.46679,0.15489 -0.98272,0.25347 -0.50364,0.0986 -1.01957,0.15489 -0.51593,0.0422 -0.94587,0.0422 -1.08099,0 -2.10056,-0.18306 -1.00728,-0.18306 -2.05142,-0.66183 -0.65105,0.2253 -1.47408,0.38021 -0.81074,0.15489 -1.70747,0.25346 -0.89673,0.0845 -1.83032,0.12673 -0.93358,0.0423 -1.80574,0.0423 l -0.11055,0 q -0.25796,0 -0.47908,-0.0986 -0.2334,-0.11264 -0.40537,-0.2957 -0.17198,-0.19715 -0.27025,-0.4506 -0.0983,-0.25347 -0.0983,-0.54918 z m 13.02102,-6.64643 q 0,0.59141 -0.1474,1.2814 -0.14742,0.68999 -0.41766,1.39406 -0.25796,0.68999 -0.63877,1.36591 -0.3808,0.67591 -0.8476,1.23916 0.3931,0.0704 0.65106,0.0845 0.25796,0.014 0.47907,0.014 l 0.58964,0 q 0.93357,0 1.62148,-0.2253 0.70019,-0.23938 1.14241,-0.63366 0.45451,-0.39428 0.67562,-0.91529 0.22111,-0.5351 0.22111,-1.11243 0,-0.49285 -0.22111,-1.0702 -0.22111,-0.57733 -0.66333,-1.15467 -0.42994,-0.59142 -1.08099,-1.15468 -0.65106,-0.56325 -1.52322,-1.02794 0.13513,0.53509 0.14741,1.01386 0.0122,0.47877 0.0122,0.90122 z m -2.51821,-0.11266 q 0,-0.42244 -0.0615,-0.88713 -0.0491,-0.47876 -0.23339,-0.90121 -0.17198,-0.43652 -0.50365,-0.7604 -0.31938,-0.33794 -0.8476,-0.46468 -0.67562,-0.15489 -1.24068,0.1549 -0.56506,0.2957 -0.98271,0.84488 -0.40538,0.54918 -0.63877,1.23917 -0.2334,0.68999 -0.2334,1.32365 0,0.59143 0.18426,1.12651 0.18426,0.5351 0.49136,1.01387 0.31939,0.46469 0.73704,0.88713 0.41766,0.40836 0.88445,0.7604 0.62648,-0.32388 1.08099,-0.81673 0.46679,-0.49285 0.76161,-1.07018 0.3071,-0.59143 0.4545,-1.22509 0.14741,-0.63366 0.14741,-1.22509 z" />
  <path
     inkscape:connector-curvature="0"
     id="path3443"
     style="font-style:normal;font-variant:normal;font-weight:normal;font-stretch:normal;font-size:medium;line-height:125%;font-family:IRANSans;-inkscape-font-specification:IRANSans;text-align:center;letter-spacing:0px;word-spacing:0px;text-anchor:middle;fill:#000000;fill-opacity:1;stroke:none;stroke-width:1px;stroke-linecap:butt;stroke-linejoin:miter;stroke-opacity:1"
     d="m 691.35823,315.59094 q -1.43723,0 -2.69019,-0.68999 -1.24069,-0.68999 -2.27254,-1.91507 l 1.38809,-2.23895 q 0.73704,0.78856 1.48637,1.25325 0.74931,0.46469 1.47407,0.64774 0.73704,0.18306 1.43723,0.11265 0.71246,-0.0845 1.3758,-0.3802 0.62649,-0.28163 1.01957,-0.60549 0.40537,-0.33796 0.6142,-0.57735 l -3.88174,-10.70188 2.23568,-1.07018 q 0.3931,1.09835 0.94587,2.63323 0.4668,1.32365 1.16698,3.26689 0.70019,1.92915 1.64605,4.50605 0.24568,0.6759 0.42994,1.23917 0.19655,0.54917 0.49137,0.94345 0.2948,0.3802 0.78617,0.6055 0.49136,0.21122 1.32666,0.21122 0.50365,0 0.85989,0.39429 0.35623,0.39427 0.35623,0.98569 0,0.59142 -0.35623,0.9857 -0.35624,0.39428 -0.85989,0.39428 -0.79845,0 -1.42493,-0.14081 -0.6142,-0.15489 -1.09328,-0.40836 -0.46679,-0.25347 -0.82303,-0.59143 -0.35623,-0.35203 -0.6142,-0.73223 -0.36851,0.30979 -0.84759,0.64775 -0.46679,0.33795 -1.08099,0.61958 -0.6879,0.3098 -1.42494,0.46469 -0.73704,0.14081 -1.67062,0.14081 z" />
</svg>
