<?xml version="1.0" encoding="UTF-8" standalone="no"?>
<svg
   xmlns:ns0="http://www.iki.fi/pav/software/textext/"
   xmlns:dc="http://purl.org/dc/elements/1.1/"
   xmlns:cc="http://creativecommons.org/ns#"
   xmlns:rdf="http://www.w3.org/1999/02/22-rdf-syntax-ns#"
   xmlns:svg="http://www.w3.org/2000/svg"
   xmlns="http://www.w3.org/2000/svg"
   xmlns:xlink="http://www.w3.org/1999/xlink"
   xmlns:sodipodi="http://sodipodi.sourceforge.net/DTD/sodipodi-0.dtd"
   xmlns:inkscape="http://www.inkscape.org/namespaces/inkscape"
   width="280.2532mm"
   height="165.69313mm"
   viewBox="0 0 993.02317 587.10164"
   id="svg2"
   version="1.1"
   inkscape:version="0.91 r13725"
   sodipodi:docname="borel-measure.svg">
  <sodipodi:namedview
     pagecolor="#ffffff"
     bordercolor="#666666"
     borderopacity="1"
     objecttolerance="10"
     gridtolerance="10"
     guidetolerance="10"
     inkscape:pageopacity="0"
     inkscape:pageshadow="2"
     inkscape:window-width="1360"
     inkscape:window-height="715"
     id="namedview47"
     showgrid="false"
     inkscape:zoom="0.53573776"
     inkscape:cx="380.07115"
     inkscape:cy="201.17757"
     inkscape:window-x="0"
     inkscape:window-y="0"
     inkscape:window-maximized="1"
     inkscape:current-layer="svg2" />
  <defs
     id="defs4">
    <marker
       orient="auto"
       refY="0.0"
       refX="0.0"
       id="Arrow1Lend"
       style="overflow:visible;">
      <path
         id="path4216"
         d="M 0.0,0.0 L 5.0,-5.0 L -12.5,0.0 L 5.0,5.0 L 0.0,0.0 z "
         style="fill-rule:evenodd;stroke:#000000;stroke-width:1pt;stroke-opacity:1;fill:#000000;fill-opacity:1"
         transform="scale(0.8) rotate(180) translate(12.5,0)" />
    </marker>
    <marker
       style="overflow:visible"
       id="marker6850"
       refX="0"
       refY="0"
       orient="auto">
      <path
         transform="scale(-0.6,-0.6)"
         d="M 8.7185878,4.0337352 -2.2072895,0.01601326 8.7185884,-4.0017078 c -1.7454984,2.3720609 -1.7354408,5.6174519 -6e-7,8.035443 z"
         style="fill:#000000;fill-opacity:1;fill-rule:evenodd;stroke:#000000;stroke-width:0.625;stroke-linejoin:round;stroke-opacity:1"
         id="path6852" />
    </marker>
    <marker
       style="overflow:visible"
       id="Arrow2Mend"
       refX="0"
       refY="0"
       orient="auto">
      <path
         transform="scale(-0.6,-0.6)"
         d="M 8.7185878,4.0337352 -2.2072895,0.01601326 8.7185884,-4.0017078 c -1.7454984,2.3720609 -1.7354408,5.6174519 -6e-7,8.035443 z"
         style="fill:#000000;fill-opacity:1;fill-rule:evenodd;stroke:#000000;stroke-width:0.625;stroke-linejoin:round;stroke-opacity:1"
         id="path4171" />
    </marker>
    <marker
       style="overflow:visible"
       id="marker6730"
       refX="0"
       refY="0"
       orient="auto">
      <path
         transform="matrix(-0.8,0,0,-0.8,-10,0)"
         style="fill:#000000;fill-opacity:1;fill-rule:evenodd;stroke:#000000;stroke-width:1pt;stroke-opacity:1"
         d="M 0,0 5,-5 -12.5,0 5,5 0,0 Z"
         id="path6732" />
    </marker>
    <marker
       style="overflow:visible"
       id="Arrow1Lstart"
       refX="0"
       refY="0"
       orient="auto">
      <path
         transform="matrix(0.8,0,0,0.8,10,0)"
         style="fill:#000000;fill-opacity:1;fill-rule:evenodd;stroke:#000000;stroke-width:1pt;stroke-opacity:1"
         d="M 0,0 5,-5 -12.5,0 5,5 0,0 Z"
         id="path4144" />
    </marker>
    <defs
       id="defs4734">
      <g
         id="g4736">
        <symbol
           id="textext-84dd12ac-0"
           overflow="visible"
           style="overflow:visible">
          <path
             id="path4739"
             d=""
             style="stroke:none"
             inkscape:connector-curvature="0" />
        </symbol>
        <symbol
           id="textext-84dd12ac-1"
           overflow="visible"
           style="overflow:visible">
          <path
             id="path4742"
             d="M 3.328125,-3.015625 C 3.390625,-3.265625 3.625,-4.1875 4.3125,-4.1875 c 0.046875,0 0.296875,0 0.5,0.125 C 4.53125,-4 4.34375,-3.765625 4.34375,-3.515625 c 0,0.15625 0.109375,0.34375 0.375,0.34375 0.21875,0 0.53125,-0.171875 0.53125,-0.578125 0,-0.515625 -0.578125,-0.65625 -0.921875,-0.65625 -0.578125,0 -0.921875,0.53125 -1.046875,0.75 -0.25,-0.65625 -0.78125,-0.75 -1.078125,-0.75 -1.03125,0 -1.609375,1.28125 -1.609375,1.53125 0,0.109375 0.109375,0.109375 0.125,0.109375 0.078125,0 0.109375,-0.03125 0.125,-0.109375 0.34375,-1.0625 1,-1.3125 1.34375,-1.3125 0.1875,0 0.53125,0.09375 0.53125,0.671875 0,0.3125 -0.171875,0.96875 -0.53125,2.375 -0.15625,0.609375 -0.515625,1.03125 -0.953125,1.03125 -0.0625,0 -0.28125,0 -0.5,-0.125 0.25,-0.0625 0.46875,-0.265625 0.46875,-0.546875 0,-0.265625 -0.21875,-0.34375 -0.359375,-0.34375 -0.3125,0 -0.546875,0.25 -0.546875,0.578125 0,0.453125 0.484375,0.65625 0.921875,0.65625 0.671875,0 1.03125,-0.703125 1.046875,-0.75 0.125,0.359375 0.484375,0.75 1.078125,0.75 1.03125,0 1.59375,-1.28125 1.59375,-1.53125 0,-0.109375 -0.078125,-0.109375 -0.109375,-0.109375 -0.09375,0 -0.109375,0.046875 -0.140625,0.109375 -0.328125,1.078125 -1,1.3125 -1.3125,1.3125 -0.390625,0 -0.546875,-0.3125 -0.546875,-0.65625 0,-0.21875 0.046875,-0.4375 0.15625,-0.875 z m 0,0"
             style="stroke:none"
             inkscape:connector-curvature="0" />
        </symbol>
        <symbol
           id="textext-84dd12ac-2"
           overflow="visible"
           style="overflow:visible">
          <path
             id="path4746"
             d=""
             style="stroke:none"
             inkscape:connector-curvature="0" />
        </symbol>
        <symbol
           id="textext-84dd12ac-3"
           overflow="visible"
           style="overflow:visible">
          <path
             id="path4750"
             d="M 3.59375,-2.21875 C 3.59375,-2.984375 3.5,-3.546875 3.1875,-4.03125 2.96875,-4.34375 2.53125,-4.625 1.984375,-4.625 c -1.625,0 -1.625,1.90625 -1.625,2.40625 0,0.5 0,2.359375 1.625,2.359375 1.609375,0 1.609375,-1.859375 1.609375,-2.359375 z M 1.984375,-0.0625 c -0.328125,0 -0.75,-0.1875 -0.890625,-0.75 C 1,-1.21875 1,-1.796875 1,-2.3125 1,-2.828125 1,-3.359375 1.09375,-3.734375 1.25,-4.28125 1.6875,-4.4375 1.984375,-4.4375 c 0.375,0 0.734375,0.234375 0.859375,0.640625 0.109375,0.375 0.125,0.875 0.125,1.484375 0,0.515625 0,1.03125 -0.09375,1.46875 -0.140625,0.640625 -0.609375,0.78125 -0.890625,0.78125 z m 0,0"
             style="stroke:none"
             inkscape:connector-curvature="0" />
        </symbol>
        <symbol
           id="textext-84dd12ac-4"
           overflow="visible"
           style="overflow:visible">
          <path
             id="path4753"
             d="m 2.328125,-4.4375 c 0,-0.1875 0,-0.1875 -0.203125,-0.1875 -0.453125,0.4375 -1.078125,0.4375 -1.359375,0.4375 l 0,0.25 c 0.15625,0 0.625,0 1,-0.1875 l 0,3.546875 c 0,0.234375 0,0.328125 -0.6875,0.328125 l -0.265625,0 0,0.25 c 0.125,0 0.984375,-0.03125 1.234375,-0.03125 0.21875,0 1.09375,0.03125 1.25,0.03125 l 0,-0.25 -0.265625,0 c -0.703125,0 -0.703125,-0.09375 -0.703125,-0.328125 z m 0,0"
             style="stroke:none"
             inkscape:connector-curvature="0" />
        </symbol>
        <symbol
           id="textext-84dd12ac-5"
           overflow="visible"
           style="overflow:visible">
          <path
             id="path4756"
             d="m 3.515625,-1.265625 -0.234375,0 c -0.015625,0.15625 -0.09375,0.5625 -0.1875,0.625 -0.046875,0.046875 -0.578125,0.046875 -0.6875,0.046875 l -1.28125,0 c 0.734375,-0.640625 0.984375,-0.84375 1.390625,-1.171875 0.515625,-0.40625 1,-0.84375 1,-1.5 0,-0.84375 -0.734375,-1.359375 -1.625,-1.359375 -0.859375,0 -1.453125,0.609375 -1.453125,1.25 0,0.34375 0.296875,0.390625 0.375,0.390625 0.15625,0 0.359375,-0.125 0.359375,-0.375 0,-0.125 -0.046875,-0.375 -0.40625,-0.375 C 0.984375,-4.21875 1.453125,-4.375 1.78125,-4.375 c 0.703125,0 1.0625,0.546875 1.0625,1.109375 0,0.609375 -0.4375,1.078125 -0.65625,1.328125 L 0.515625,-0.265625 C 0.4375,-0.203125 0.4375,-0.1875 0.4375,0 l 2.875,0 z m 0,0"
             style="stroke:none"
             inkscape:connector-curvature="0" />
        </symbol>
        <symbol
           id="textext-84dd12ac-6"
           overflow="visible"
           style="overflow:visible">
          <path
             id="path4759"
             d="m 1.90625,-2.328125 c 0.546875,0 0.9375,0.375 0.9375,1.125 0,0.859375 -0.515625,1.125 -0.90625,1.125 -0.28125,0 -0.90625,-0.078125 -1.1875,-0.5 0.328125,0 0.40625,-0.234375 0.40625,-0.390625 0,-0.21875 -0.171875,-0.375 -0.390625,-0.375 -0.1875,0 -0.390625,0.125 -0.390625,0.40625 0,0.65625 0.71875,1.078125 1.5625,1.078125 0.96875,0 1.640625,-0.65625 1.640625,-1.34375 0,-0.546875 -0.4375,-1.09375 -1.203125,-1.25 0.71875,-0.265625 0.984375,-0.78125 0.984375,-1.21875 0,-0.546875 -0.625,-0.953125 -1.40625,-0.953125 -0.765625,0 -1.359375,0.375 -1.359375,0.9375 0,0.234375 0.15625,0.359375 0.359375,0.359375 0.21875,0 0.359375,-0.15625 0.359375,-0.34375 0,-0.203125 -0.140625,-0.359375 -0.359375,-0.375 0.25,-0.296875 0.71875,-0.375 0.984375,-0.375 0.3125,0 0.75,0.15625 0.75,0.75 0,0.296875 -0.09375,0.625 -0.28125,0.828125 -0.21875,0.265625 -0.421875,0.28125 -0.765625,0.3125 -0.171875,0.015625 -0.1875,0.015625 -0.21875,0.015625 -0.015625,0 -0.078125,0.015625 -0.078125,0.09375 0,0.09375 0.0625,0.09375 0.1875,0.09375 z m 0,0"
             style="stroke:none"
             inkscape:connector-curvature="0" />
        </symbol>
        <symbol
           id="textext-84dd12ac-7"
           overflow="visible"
           style="overflow:visible">
          <path
             id="path4762"
             d="m 3.6875,-1.140625 0,-0.25 -0.78125,0 0,-3.109375 c 0,-0.140625 0,-0.203125 -0.140625,-0.203125 -0.09375,0 -0.125,0 -0.1875,0.109375 l -2.3125,3.203125 0,0.25 2.0625,0 0,0.5625 c 0,0.25 0,0.328125 -0.578125,0.328125 l -0.1875,0 0,0.25 C 1.921875,-0.015625 2.359375,-0.03125 2.609375,-0.03125 2.875,-0.03125 3.3125,-0.015625 3.671875,0 l 0,-0.25 -0.1875,0 C 2.90625,-0.25 2.90625,-0.328125 2.90625,-0.578125 l 0,-0.5625 z M 2.375,-3.9375 l 0,2.546875 -1.84375,0 z m 0,0"
             style="stroke:none"
             inkscape:connector-curvature="0" />
        </symbol>
        <symbol
           id="textext-84dd12ac-8"
           overflow="visible"
           style="overflow:visible">
          <path
             id="path4765"
             d="m 1.078125,-3.890625 c 0.359375,0.09375 0.5625,0.09375 0.671875,0.09375 0.921875,0 1.46875,-0.625 1.46875,-0.734375 0,-0.078125 -0.046875,-0.09375 -0.078125,-0.09375 -0.015625,0 -0.03125,0 -0.0625,0.015625 -0.171875,0.0625 -0.53125,0.203125 -1.046875,0.203125 -0.203125,0 -0.5625,-0.015625 -1.015625,-0.1875 C 0.9375,-4.625 0.921875,-4.625 0.921875,-4.625 c -0.09375,0 -0.09375,0.078125 -0.09375,0.1875 l 0,2.046875 c 0,0.125 0,0.203125 0.109375,0.203125 0.0625,0 0.078125,0 0.140625,-0.09375 0.296875,-0.375 0.734375,-0.4375 0.96875,-0.4375 0.421875,0 0.609375,0.328125 0.640625,0.390625 0.125,0.234375 0.171875,0.5 0.171875,0.90625 0,0.203125 0,0.609375 -0.21875,0.921875 -0.171875,0.25 -0.46875,0.421875 -0.8125,0.421875 -0.453125,0 -0.921875,-0.25 -1.09375,-0.71875 0.265625,0.015625 0.40625,-0.15625 0.40625,-0.34375 0,-0.296875 -0.265625,-0.34375 -0.359375,-0.34375 0,0 -0.34375,0 -0.34375,0.375 0,0.625 0.578125,1.25 1.40625,1.25 0.890625,0 1.671875,-0.65625 1.671875,-1.546875 0,-0.78125 -0.59375,-1.5 -1.453125,-1.5 -0.3125,0 -0.671875,0.0625 -0.984375,0.328125 z m 0,0"
             style="stroke:none"
             inkscape:connector-curvature="0" />
        </symbol>
      </g>
    </defs>
  </defs>
  <metadata
     id="metadata7">
    <rdf:RDF>
      <cc:Work
         rdf:about="">
        <dc:format>image/svg+xml</dc:format>
        <dc:type
           rdf:resource="http://purl.org/dc/dcmitype/StillImage" />
        <dc:title />
      </cc:Work>
    </rdf:RDF>
  </metadata>
  <path
     style="fill:none;fill-rule:evenodd;stroke:#000000;stroke-width:3.95932698;stroke-linecap:butt;stroke-linejoin:miter;stroke-miterlimit:4;stroke-dasharray:none;stroke-opacity:1;marker-end:url(#marker6850)"
     d="m 49.320556,575.22276 0,-569.2977636"
     id="path4136" />
  <path
     style="fill:none;fill-rule:evenodd;stroke:#000000;stroke-width:4.29363441;stroke-linecap:butt;stroke-linejoin:miter;stroke-miterlimit:2.79999995;stroke-dasharray:none;stroke-opacity:1;marker-end:url(#Arrow2Mend)"
     d="m 0,531.24913 986.53186,0"
     id="path4138" />
  <path
     style="fill:none;fill-rule:evenodd;stroke:#000000;stroke-width:4.10826302;stroke-linecap:butt;stroke-linejoin:miter;stroke-miterlimit:4;stroke-dasharray:none;stroke-opacity:1"
     d="m 4.4844658,231.11772 c 0,0 142.8059342,212.41997 242.6832942,187.14356 99.87737,-25.2764 215.52295,-220.96836 297.66177,-211.47374 82.13881,9.49461 110.7357,219.99391 195.17115,268.44144 84.43545,48.44753 246.41648,28.48384 246.41648,28.48384"
     id="path6712" />
  <text
     xml:space="preserve"
     style="font-style:normal;font-weight:normal;font-size:40px;line-height:125%;font-family:sans-serif;letter-spacing:0px;word-spacing:0px;fill:#000000;fill-opacity:1;stroke:none;stroke-width:1px;stroke-linecap:butt;stroke-linejoin:miter;stroke-opacity:1"
     x="119.28572"
     y="248.18956"
     id="text6714"><tspan
       x="119.28572"
       y="248.18956"
       id="tspan6718">f(x)</tspan></text>
  <path
     style="fill:none;fill-rule:evenodd;stroke:#000000;stroke-width:1.75926661;stroke-linecap:butt;stroke-linejoin:miter;stroke-miterlimit:4;stroke-dasharray:none;stroke-opacity:1"
     d="m 194.90408,239.52536 214.39711,47.71219"
     id="path6722" />
  <rect
     style="opacity:0.75;fill:#e74b32;fill-opacity:1;stroke:#6d6d6d;stroke-width:2.46336198;stroke-miterlimit:4;stroke-dasharray:none;stroke-opacity:1"
     id="rect6947"
     width="41.820293"
     height="214.87483"
     x="69.828285"
     y="313.67236" />
  <path
     style="fill:#000000;fill-opacity:1;stroke:none;stroke-width:5;stroke-miterlimit:4;stroke-dasharray:none;stroke-opacity:1"
     d="m 379.51852,271.93851 -1.82908,6.74041 0.008,0.003 -1.82901,6.73955 37.59589,4.37586 -0.0125,-0.005 -33.93382,-17.85462 z"
     id="rect4339-7-9-3" />
  <text
     xml:space="preserve"
     style="font-style:normal;font-weight:normal;font-size:40px;line-height:125%;font-family:sans-serif;letter-spacing:0px;word-spacing:0px;fill:#000000;fill-opacity:1;stroke:none;stroke-width:1px;stroke-linecap:butt;stroke-linejoin:miter;stroke-opacity:1"
     x="468.51282"
     y="570.30237"
     id="text4626"><tspan
       id="tspan4628"
       x="468.51282"
       y="570.30237"
       style="font-style:normal;font-variant:normal;font-weight:normal;font-stretch:normal;font-family:IRANSans;-inkscape-font-specification:IRANSans">دامنه</tspan></text>
  <path
     style="fill:none;fill-rule:evenodd;stroke:#000000;stroke-width:2;stroke-linecap:butt;stroke-linejoin:miter;stroke-opacity:1;stroke-miterlimit:4;stroke-dasharray:none"
     d="m 0,314.58025 993.02317,0"
     id="path4630" />
  <path
     style="fill:none;fill-rule:evenodd;stroke:#000000;stroke-width:2;stroke-linecap:butt;stroke-linejoin:miter;stroke-opacity:1;stroke-miterlimit:4;stroke-dasharray:none"
     d="m 0,357.5117 993.86576,0"
     id="path4632" />
  <rect
     style="opacity:0.75;fill:#e74b32;fill-opacity:1;stroke:#6d6d6d;stroke-width:2.54245043;stroke-miterlimit:4;stroke-dasharray:none;stroke-opacity:1"
     id="rect6947-4"
     width="45.353394"
     height="211.06258"
     x="342.89105"
     y="315.44431" />
  <path
     inkscape:connector-curvature="0"
     style="fill:none;fill-rule:evenodd;stroke:#0000cd;stroke-width:2;stroke-linecap:butt;stroke-linejoin:miter;stroke-miterlimit:4;stroke-dasharray:none;stroke-opacity:1"
     d="m 634.32583,313.88755 0,219.09922"
     id="path4743" />
  <path
     inkscape:connector-curvature="0"
     style="fill:none;fill-rule:evenodd;stroke:#0000cd;stroke-width:2;stroke-linecap:butt;stroke-linejoin:miter;stroke-miterlimit:4;stroke-dasharray:none;stroke-opacity:1"
     d="m 657.4188,313.22761 0,218.43929"
     id="path4745" />
  <path
     inkscape:connector-curvature="0"
     style="fill:none;fill-rule:evenodd;stroke:#0000cd;stroke-width:2;stroke-linecap:butt;stroke-linejoin:miter;stroke-miterlimit:4;stroke-dasharray:none;stroke-opacity:1"
     d="m 112.66278,313.64695 0,217.45715"
     id="path4747" />
  <ellipse
     style="opacity:0.75;fill:none;fill-opacity:1;stroke:#0000cd;stroke-width:2.45351768;stroke-miterlimit:4;stroke-dasharray:none;stroke-opacity:1"
     id="path4749"
     cx="365.36942"
     cy="532.10437"
     rx="23.406096"
     ry="10.325435" />
  <ellipse
     style="opacity:0.75;fill:none;fill-opacity:1;stroke:#0000cd;stroke-width:2;stroke-miterlimit:4;stroke-dasharray:none;stroke-opacity:1"
     id="path4751"
     cx="92.529366"
     cy="531.10413"
     rx="20.904053"
     ry="12.504421" />
  <rect
     style="opacity:0.75;fill:#e74b32;fill-opacity:1;stroke:#6d6d6d;stroke-width:1.71876824;stroke-miterlimit:4;stroke-dasharray:none;stroke-opacity:1"
     id="rect6947-4-3"
     width="20.289104"
     height="215.61942"
     x="635.22717"
     y="313.16589" />
  <path
     inkscape:connector-curvature="0"
     style="fill:none;fill-rule:evenodd;stroke:#0000cd;stroke-width:2;stroke-linecap:butt;stroke-linejoin:miter;stroke-miterlimit:4;stroke-dasharray:none;stroke-opacity:1"
     d="m 341.23745,314.95791 0,219.09922"
     id="path4743-6" />
  <path
     inkscape:connector-curvature="0"
     style="fill:none;fill-rule:evenodd;stroke:#0000cd;stroke-width:2;stroke-linecap:butt;stroke-linejoin:miter;stroke-miterlimit:4;stroke-dasharray:none;stroke-opacity:1"
     d="m 387.93017,316.16455 0,218.43929"
     id="path4745-7" />
  <path
     inkscape:connector-curvature="0"
     style="fill:none;fill-rule:evenodd;stroke:#0000cd;stroke-width:2;stroke-linecap:butt;stroke-linejoin:miter;stroke-miterlimit:4;stroke-dasharray:none;stroke-opacity:1"
     d="m 69.996934,314.78497 0,217.45715"
     id="path4747-5" />
  <ellipse
     style="opacity:0.75;fill:none;fill-opacity:1;stroke:#0000cd;stroke-width:2;stroke-miterlimit:4;stroke-dasharray:none;stroke-opacity:1"
     id="path4749-3"
     cx="647.50513"
     cy="534.50403"
     rx="12.016058"
     ry="7.3495989" />
  <g
     transform="translate(-192.25824,347.18479)"
     id="g5152">
    <g
       id="g4768"
       style="fill:#000000;fill-opacity:1"
       transform="matrix(5.8241456,0,0,5.8241456,-1103.9254,-626.24584)">
      <use
         id="use4770"
         y="134.765"
         x="223.43201"
         xlink:href="#textext-84dd12ac-1"
         width="100%"
         height="100%" />
    </g>
    <g
       id="g4772"
       style="fill:#000000;fill-opacity:1"
       transform="matrix(5.8241456,0,0,5.8241456,-1103.9254,-626.24584)">
      <use
         id="use4774"
         y="136.259"
         x="229.12601"
         xlink:href="#textext-84dd12ac-3"
         width="100%"
         height="100%" />
    </g>
  </g>
  <g
     transform="translate(-156.79313,348.00381)"
     id="g5158">
    <g
       id="g4776"
       style="fill:#000000;fill-opacity:1"
       transform="matrix(5.8241456,0,0,5.8241456,-1103.9254,-626.24584)">
      <use
         id="use4778"
         y="134.765"
         x="236.916"
         xlink:href="#textext-84dd12ac-1"
         width="100%"
         height="100%" />
    </g>
    <g
       id="g4780"
       style="fill:#000000;fill-opacity:1"
       transform="matrix(5.8241456,0,0,5.8241456,-1103.9254,-626.24584)">
      <use
         id="use4782"
         y="136.259"
         x="242.61"
         xlink:href="#textext-84dd12ac-4"
         width="100%"
         height="100%" />
    </g>
  </g>
  <g
     transform="translate(-73.997547,348.00381)"
     id="g5164">
    <g
       id="g4784"
       style="fill:#000000;fill-opacity:1"
       transform="matrix(5.8241456,0,0,5.8241456,-1103.9254,-626.24584)">
      <use
         id="use4786"
         y="134.765"
         x="250.39999"
         xlink:href="#textext-84dd12ac-1"
         width="100%"
         height="100%" />
    </g>
    <g
       id="g4788"
       style="fill:#000000;fill-opacity:1"
       transform="matrix(5.8241456,0,0,5.8241456,-1103.9254,-626.24584)">
      <use
         id="use4790"
         y="136.259"
         x="256.09399"
         xlink:href="#textext-84dd12ac-5"
         width="100%"
         height="100%" />
    </g>
  </g>
  <g
     transform="translate(-41.064868,347.18479)"
     id="g5170">
    <g
       id="g4792"
       style="fill:#000000;fill-opacity:1"
       transform="matrix(5.8241456,0,0,5.8241456,-1103.9254,-626.24584)">
      <use
         id="use4794"
         y="134.765"
         x="263.88501"
         xlink:href="#textext-84dd12ac-1"
         width="100%"
         height="100%" />
    </g>
    <g
       id="g4796"
       style="fill:#000000;fill-opacity:1"
       transform="matrix(5.8241456,0,0,5.8241456,-1103.9254,-626.24584)">
      <use
         id="use4798"
         y="136.259"
         x="269.578"
         xlink:href="#textext-84dd12ac-6"
         width="100%"
         height="100%" />
    </g>
  </g>
  <g
     transform="translate(50.397792,348.00381)"
     id="g5176">
    <g
       id="g4800"
       style="fill:#000000;fill-opacity:1"
       transform="matrix(5.8241456,0,0,5.8241456,-1103.9254,-626.24584)">
      <use
         id="use4802"
         y="134.765"
         x="277.36899"
         xlink:href="#textext-84dd12ac-1"
         width="100%"
         height="100%" />
    </g>
    <g
       id="g4804"
       style="fill:#000000;fill-opacity:1"
       transform="matrix(5.8241456,0,0,5.8241456,-1103.9254,-626.24584)">
      <use
         id="use4806"
         y="136.259"
         x="283.06299"
         xlink:href="#textext-84dd12ac-7"
         width="100%"
         height="100%" />
    </g>
  </g>
  <g
     transform="translate(78.396566,347.18479)"
     id="g5182">
    <g
       id="g4808"
       style="fill:#000000;fill-opacity:1"
       transform="matrix(5.8241456,0,0,5.8241456,-1103.9254,-626.24584)">
      <use
         id="use4810"
         y="134.765"
         x="290.853"
         xlink:href="#textext-84dd12ac-1"
         width="100%"
         height="100%" />
    </g>
    <g
       id="g4812"
       style="fill:#000000;fill-opacity:1"
       transform="matrix(5.8241456,0,0,5.8241456,-1103.9254,-626.24584)">
      <use
         id="use4814"
         y="136.259"
         x="296.547"
         xlink:href="#textext-84dd12ac-8"
         width="100%"
         height="100%" />
    </g>
  </g>
  <g
     id="g5275"
     ns0:preamble=""
     ns0:text="$A=(x_0,x_1)\\cup (x_2,x_3)\\cup (x_4,x_5)$"
     transform="matrix(4.6241435,0,0,4.6241435,-797.92937,-534.07999)">
    <defs
       id="defs5277">
      <g
         id="g5279">
        <symbol
           id="textext-b21d941b-0"
           overflow="visible"
           style="overflow:visible">
          <path
             id="path5282"
             d=""
             style="stroke:none"
             inkscape:connector-curvature="0" />
        </symbol>
        <symbol
           id="textext-b21d941b-1"
           overflow="visible"
           style="overflow:visible">
          <path
             id="path5285"
             d="M 1.78125,-1.140625 C 1.390625,-0.484375 1,-0.34375 0.5625,-0.3125 0.4375,-0.296875 0.34375,-0.296875 0.34375,-0.109375 0.34375,-0.046875 0.40625,0 0.484375,0 0.75,0 1.0625,-0.03125 1.328125,-0.03125 c 0.34375,0 0.6875,0.03125 1,0.03125 0.0625,0 0.1875,0 0.1875,-0.1875 0,-0.109375 -0.078125,-0.125 -0.15625,-0.125 -0.21875,-0.015625 -0.46875,-0.09375 -0.46875,-0.34375 0,-0.125 0.0625,-0.234375 0.140625,-0.375 l 0.765625,-1.265625 2.5,0 c 0.015625,0.203125 0.15625,1.5625 0.15625,1.65625 0,0.296875 -0.515625,0.328125 -0.71875,0.328125 C 4.59375,-0.3125 4.5,-0.3125 4.5,-0.109375 4.5,0 4.609375,0 4.640625,0 5.046875,0 5.46875,-0.03125 5.875,-0.03125 6.125,-0.03125 6.765625,0 7.015625,0 7.0625,0 7.1875,0 7.1875,-0.203125 7.1875,-0.3125 7.09375,-0.3125 6.953125,-0.3125 6.34375,-0.3125 6.34375,-0.375 6.3125,-0.671875 l -0.609375,-6.21875 c -0.015625,-0.203125 -0.015625,-0.25 -0.1875,-0.25 -0.15625,0 -0.203125,0.078125 -0.265625,0.171875 z M 2.984375,-2.609375 4.9375,-5.90625 5.265625,-2.609375 Z m 0,0"
             style="stroke:none"
             inkscape:connector-curvature="0" />
        </symbol>
        <symbol
           id="textext-b21d941b-2"
           overflow="visible"
           style="overflow:visible">
          <path
             id="path5288"
             d="M 3.328125,-3.015625 C 3.390625,-3.265625 3.625,-4.1875 4.3125,-4.1875 c 0.046875,0 0.296875,0 0.5,0.125 C 4.53125,-4 4.34375,-3.765625 4.34375,-3.515625 c 0,0.15625 0.109375,0.34375 0.375,0.34375 0.21875,0 0.53125,-0.171875 0.53125,-0.578125 0,-0.515625 -0.578125,-0.65625 -0.921875,-0.65625 -0.578125,0 -0.921875,0.53125 -1.046875,0.75 -0.25,-0.65625 -0.78125,-0.75 -1.078125,-0.75 -1.03125,0 -1.609375,1.28125 -1.609375,1.53125 0,0.109375 0.109375,0.109375 0.125,0.109375 0.078125,0 0.109375,-0.03125 0.125,-0.109375 0.34375,-1.0625 1,-1.3125 1.34375,-1.3125 0.1875,0 0.53125,0.09375 0.53125,0.671875 0,0.3125 -0.171875,0.96875 -0.53125,2.375 -0.15625,0.609375 -0.515625,1.03125 -0.953125,1.03125 -0.0625,0 -0.28125,0 -0.5,-0.125 0.25,-0.0625 0.46875,-0.265625 0.46875,-0.546875 0,-0.265625 -0.21875,-0.34375 -0.359375,-0.34375 -0.3125,0 -0.546875,0.25 -0.546875,0.578125 0,0.453125 0.484375,0.65625 0.921875,0.65625 0.671875,0 1.03125,-0.703125 1.046875,-0.75 0.125,0.359375 0.484375,0.75 1.078125,0.75 1.03125,0 1.59375,-1.28125 1.59375,-1.53125 0,-0.109375 -0.078125,-0.109375 -0.109375,-0.109375 -0.09375,0 -0.109375,0.046875 -0.140625,0.109375 -0.328125,1.078125 -1,1.3125 -1.3125,1.3125 -0.390625,0 -0.546875,-0.3125 -0.546875,-0.65625 0,-0.21875 0.046875,-0.4375 0.15625,-0.875 z m 0,0"
             style="stroke:none"
             inkscape:connector-curvature="0" />
        </symbol>
        <symbol
           id="textext-b21d941b-3"
           overflow="visible"
           style="overflow:visible">
          <path
             id="path5291"
             d="m 2.03125,-0.015625 c 0,-0.65625 -0.25,-1.046875 -0.640625,-1.046875 -0.328125,0 -0.53125,0.25 -0.53125,0.53125 C 0.859375,-0.265625 1.0625,0 1.390625,0 1.5,0 1.640625,-0.046875 1.734375,-0.125 1.765625,-0.15625 1.78125,-0.15625 1.78125,-0.15625 c 0.015625,0 0.015625,0 0.015625,0.140625 0,0.75 -0.34375,1.34375 -0.671875,1.671875 -0.109375,0.109375 -0.109375,0.125 -0.109375,0.15625 0,0.078125 0.046875,0.109375 0.09375,0.109375 0.109375,0 0.921875,-0.765625 0.921875,-1.9375 z m 0,0"
             style="stroke:none"
             inkscape:connector-curvature="0" />
        </symbol>
        <symbol
           id="textext-b21d941b-4"
           overflow="visible"
           style="overflow:visible">
          <path
             id="path5294"
             d=""
             style="stroke:none"
             inkscape:connector-curvature="0" />
        </symbol>
        <symbol
           id="textext-b21d941b-5"
           overflow="visible"
           style="overflow:visible">
          <path
             id="path5297"
             d="m 6.84375,-3.265625 c 0.15625,0 0.34375,0 0.34375,-0.1875 C 7.1875,-3.65625 7,-3.65625 6.859375,-3.65625 l -5.96875,0 c -0.140625,0 -0.328125,0 -0.328125,0.203125 0,0.1875 0.1875,0.1875 0.328125,0.1875 z m 0.015625,1.9375 c 0.140625,0 0.328125,0 0.328125,-0.203125 0,-0.1875 -0.1875,-0.1875 -0.34375,-0.1875 l -5.953125,0 c -0.140625,0 -0.328125,0 -0.328125,0.1875 0,0.203125 0.1875,0.203125 0.328125,0.203125 z m 0,0"
             style="stroke:none"
             inkscape:connector-curvature="0" />
        </symbol>
        <symbol
           id="textext-b21d941b-6"
           overflow="visible"
           style="overflow:visible">
          <path
             id="path5300"
             d="m 3.296875,2.390625 c 0,-0.03125 0,-0.046875 -0.171875,-0.21875 C 1.890625,0.921875 1.5625,-0.96875 1.5625,-2.5 c 0,-1.734375 0.375,-3.46875 1.609375,-4.703125 0.125,-0.125 0.125,-0.140625 0.125,-0.171875 0,-0.078125 -0.03125,-0.109375 -0.09375,-0.109375 -0.109375,0 -1,0.6875 -1.59375,1.953125 -0.5,1.09375 -0.625,2.203125 -0.625,3.03125 0,0.78125 0.109375,1.984375 0.65625,3.125 C 2.25,1.84375 3.09375,2.5 3.203125,2.5 c 0.0625,0 0.09375,-0.03125 0.09375,-0.109375 z m 0,0"
             style="stroke:none"
             inkscape:connector-curvature="0" />
        </symbol>
        <symbol
           id="textext-b21d941b-7"
           overflow="visible"
           style="overflow:visible">
          <path
             id="path5303"
             d="m 2.875,-2.5 c 0,-0.765625 -0.109375,-1.96875 -0.65625,-3.109375 -0.59375,-1.21875 -1.453125,-1.875 -1.546875,-1.875 -0.0625,0 -0.109375,0.046875 -0.109375,0.109375 0,0.03125 0,0.046875 0.1875,0.234375 0.984375,0.984375 1.546875,2.5625 1.546875,4.640625 0,1.71875 -0.359375,3.46875 -1.59375,4.71875 C 0.5625,2.34375 0.5625,2.359375 0.5625,2.390625 0.5625,2.453125 0.609375,2.5 0.671875,2.5 0.765625,2.5 1.671875,1.8125 2.25,0.546875 2.765625,-0.546875 2.875,-1.65625 2.875,-2.5 Z m 0,0"
             style="stroke:none"
             inkscape:connector-curvature="0" />
        </symbol>
        <symbol
           id="textext-b21d941b-8"
           overflow="visible"
           style="overflow:visible">
          <path
             id="path5306"
             d=""
             style="stroke:none"
             inkscape:connector-curvature="0" />
        </symbol>
        <symbol
           id="textext-b21d941b-9"
           overflow="visible"
           style="overflow:visible">
          <path
             id="path5309"
             d="M 3.59375,-2.21875 C 3.59375,-2.984375 3.5,-3.546875 3.1875,-4.03125 2.96875,-4.34375 2.53125,-4.625 1.984375,-4.625 c -1.625,0 -1.625,1.90625 -1.625,2.40625 0,0.5 0,2.359375 1.625,2.359375 1.609375,0 1.609375,-1.859375 1.609375,-2.359375 z M 1.984375,-0.0625 c -0.328125,0 -0.75,-0.1875 -0.890625,-0.75 C 1,-1.21875 1,-1.796875 1,-2.3125 1,-2.828125 1,-3.359375 1.09375,-3.734375 1.25,-4.28125 1.6875,-4.4375 1.984375,-4.4375 c 0.375,0 0.734375,0.234375 0.859375,0.640625 0.109375,0.375 0.125,0.875 0.125,1.484375 0,0.515625 0,1.03125 -0.09375,1.46875 -0.140625,0.640625 -0.609375,0.78125 -0.890625,0.78125 z m 0,0"
             style="stroke:none"
             inkscape:connector-curvature="0" />
        </symbol>
        <symbol
           id="textext-b21d941b-10"
           overflow="visible"
           style="overflow:visible">
          <path
             id="path5312"
             d="m 2.328125,-4.4375 c 0,-0.1875 0,-0.1875 -0.203125,-0.1875 -0.453125,0.4375 -1.078125,0.4375 -1.359375,0.4375 l 0,0.25 c 0.15625,0 0.625,0 1,-0.1875 l 0,3.546875 c 0,0.234375 0,0.328125 -0.6875,0.328125 l -0.265625,0 0,0.25 c 0.125,0 0.984375,-0.03125 1.234375,-0.03125 0.21875,0 1.09375,0.03125 1.25,0.03125 l 0,-0.25 -0.265625,0 c -0.703125,0 -0.703125,-0.09375 -0.703125,-0.328125 z m 0,0"
             style="stroke:none"
             inkscape:connector-curvature="0" />
        </symbol>
        <symbol
           id="textext-b21d941b-11"
           overflow="visible"
           style="overflow:visible">
          <path
             id="path5315"
             d="m 3.515625,-1.265625 -0.234375,0 c -0.015625,0.15625 -0.09375,0.5625 -0.1875,0.625 -0.046875,0.046875 -0.578125,0.046875 -0.6875,0.046875 l -1.28125,0 c 0.734375,-0.640625 0.984375,-0.84375 1.390625,-1.171875 0.515625,-0.40625 1,-0.84375 1,-1.5 0,-0.84375 -0.734375,-1.359375 -1.625,-1.359375 -0.859375,0 -1.453125,0.609375 -1.453125,1.25 0,0.34375 0.296875,0.390625 0.375,0.390625 0.15625,0 0.359375,-0.125 0.359375,-0.375 0,-0.125 -0.046875,-0.375 -0.40625,-0.375 C 0.984375,-4.21875 1.453125,-4.375 1.78125,-4.375 c 0.703125,0 1.0625,0.546875 1.0625,1.109375 0,0.609375 -0.4375,1.078125 -0.65625,1.328125 L 0.515625,-0.265625 C 0.4375,-0.203125 0.4375,-0.1875 0.4375,0 l 2.875,0 z m 0,0"
             style="stroke:none"
             inkscape:connector-curvature="0" />
        </symbol>
        <symbol
           id="textext-b21d941b-12"
           overflow="visible"
           style="overflow:visible">
          <path
             id="path5318"
             d="m 1.90625,-2.328125 c 0.546875,0 0.9375,0.375 0.9375,1.125 0,0.859375 -0.515625,1.125 -0.90625,1.125 -0.28125,0 -0.90625,-0.078125 -1.1875,-0.5 0.328125,0 0.40625,-0.234375 0.40625,-0.390625 0,-0.21875 -0.171875,-0.375 -0.390625,-0.375 -0.1875,0 -0.390625,0.125 -0.390625,0.40625 0,0.65625 0.71875,1.078125 1.5625,1.078125 0.96875,0 1.640625,-0.65625 1.640625,-1.34375 0,-0.546875 -0.4375,-1.09375 -1.203125,-1.25 0.71875,-0.265625 0.984375,-0.78125 0.984375,-1.21875 0,-0.546875 -0.625,-0.953125 -1.40625,-0.953125 -0.765625,0 -1.359375,0.375 -1.359375,0.9375 0,0.234375 0.15625,0.359375 0.359375,0.359375 0.21875,0 0.359375,-0.15625 0.359375,-0.34375 0,-0.203125 -0.140625,-0.359375 -0.359375,-0.375 0.25,-0.296875 0.71875,-0.375 0.984375,-0.375 0.3125,0 0.75,0.15625 0.75,0.75 0,0.296875 -0.09375,0.625 -0.28125,0.828125 -0.21875,0.265625 -0.421875,0.28125 -0.765625,0.3125 -0.171875,0.015625 -0.1875,0.015625 -0.21875,0.015625 -0.015625,0 -0.078125,0.015625 -0.078125,0.09375 0,0.09375 0.0625,0.09375 0.1875,0.09375 z m 0,0"
             style="stroke:none"
             inkscape:connector-curvature="0" />
        </symbol>
        <symbol
           id="textext-b21d941b-13"
           overflow="visible"
           style="overflow:visible">
          <path
             id="path5321"
             d="m 3.6875,-1.140625 0,-0.25 -0.78125,0 0,-3.109375 c 0,-0.140625 0,-0.203125 -0.140625,-0.203125 -0.09375,0 -0.125,0 -0.1875,0.109375 l -2.3125,3.203125 0,0.25 2.0625,0 0,0.5625 c 0,0.25 0,0.328125 -0.578125,0.328125 l -0.1875,0 0,0.25 C 1.921875,-0.015625 2.359375,-0.03125 2.609375,-0.03125 2.875,-0.03125 3.3125,-0.015625 3.671875,0 l 0,-0.25 -0.1875,0 C 2.90625,-0.25 2.90625,-0.328125 2.90625,-0.578125 l 0,-0.5625 z M 2.375,-3.9375 l 0,2.546875 -1.84375,0 z m 0,0"
             style="stroke:none"
             inkscape:connector-curvature="0" />
        </symbol>
        <symbol
           id="textext-b21d941b-14"
           overflow="visible"
           style="overflow:visible">
          <path
             id="path5324"
             d="m 1.078125,-3.890625 c 0.359375,0.09375 0.5625,0.09375 0.671875,0.09375 0.921875,0 1.46875,-0.625 1.46875,-0.734375 0,-0.078125 -0.046875,-0.09375 -0.078125,-0.09375 -0.015625,0 -0.03125,0 -0.0625,0.015625 -0.171875,0.0625 -0.53125,0.203125 -1.046875,0.203125 -0.203125,0 -0.5625,-0.015625 -1.015625,-0.1875 C 0.9375,-4.625 0.921875,-4.625 0.921875,-4.625 c -0.09375,0 -0.09375,0.078125 -0.09375,0.1875 l 0,2.046875 c 0,0.125 0,0.203125 0.109375,0.203125 0.0625,0 0.078125,0 0.140625,-0.09375 0.296875,-0.375 0.734375,-0.4375 0.96875,-0.4375 0.421875,0 0.609375,0.328125 0.640625,0.390625 0.125,0.234375 0.171875,0.5 0.171875,0.90625 0,0.203125 0,0.609375 -0.21875,0.921875 -0.171875,0.25 -0.46875,0.421875 -0.8125,0.421875 -0.453125,0 -0.921875,-0.25 -1.09375,-0.71875 0.265625,0.015625 0.40625,-0.15625 0.40625,-0.34375 0,-0.296875 -0.265625,-0.34375 -0.359375,-0.34375 0,0 -0.34375,0 -0.34375,0.375 0,0.625 0.578125,1.25 1.40625,1.25 0.890625,0 1.671875,-0.65625 1.671875,-1.546875 0,-0.78125 -0.59375,-1.5 -1.453125,-1.5 -0.3125,0 -0.671875,0.0625 -0.984375,0.328125 z m 0,0"
             style="stroke:none"
             inkscape:connector-curvature="0" />
        </symbol>
        <symbol
           id="textext-b21d941b-15"
           overflow="visible"
           style="overflow:visible">
          <path
             id="path5327"
             d=""
             style="stroke:none"
             inkscape:connector-curvature="0" />
        </symbol>
        <symbol
           id="textext-b21d941b-16"
           overflow="visible"
           style="overflow:visible">
          <path
             id="path5330"
             d="m 6.09375,-5.609375 c 0,-0.171875 0,-0.359375 -0.203125,-0.359375 -0.203125,0 -0.203125,0.1875 -0.203125,0.359375 L 5.6875,-2 c 0,1.5 -1.625,1.828125 -2.375,1.828125 -0.4375,0 -1.0625,-0.09375 -1.59375,-0.4375 C 0.953125,-1.09375 0.953125,-1.734375 0.953125,-2 l 0,-3.609375 c 0,-0.171875 0,-0.359375 -0.203125,-0.359375 -0.203125,0 -0.203125,0.1875 -0.203125,0.359375 l 0,3.65625 c 0,1.515625 1.53125,2.171875 2.765625,2.171875 1.296875,0 2.78125,-0.703125 2.78125,-2.15625 z m 0,0"
             style="stroke:none"
             inkscape:connector-curvature="0" />
        </symbol>
      </g>
    </defs>
    <g
       id="textext-b21d941b-17">
      <g
         id="g5333"
         style="fill:#000000;fill-opacity:1">
        <use
           id="use5335"
           y="134.765"
           x="223.43201"
           xlink:href="#textext-b21d941b-1"
           width="100%"
           height="100%" />
      </g>
      <g
         id="g5337"
         style="fill:#000000;fill-opacity:1">
        <use
           id="use5339"
           y="134.765"
           x="233.67101"
           xlink:href="#textext-b21d941b-5"
           width="100%"
           height="100%" />
      </g>
      <g
         id="g5341"
         style="fill:#000000;fill-opacity:1">
        <use
           id="use5343"
           y="134.765"
           x="244.18951"
           xlink:href="#textext-b21d941b-6"
           width="100%"
           height="100%" />
      </g>
      <g
         id="g5345"
         style="fill:#000000;fill-opacity:1">
        <use
           id="use5347"
           y="134.765"
           x="248.062"
           xlink:href="#textext-b21d941b-2"
           width="100%"
           height="100%" />
      </g>
      <g
         id="g5349"
         style="fill:#000000;fill-opacity:1">
        <use
           id="use5351"
           y="136.259"
           x="253.756"
           xlink:href="#textext-b21d941b-9"
           width="100%"
           height="100%" />
      </g>
      <g
         id="g5353"
         style="fill:#000000;fill-opacity:1">
        <use
           id="use5355"
           y="134.765"
           x="258.22501"
           xlink:href="#textext-b21d941b-3"
           width="100%"
           height="100%" />
      </g>
      <g
         id="g5357"
         style="fill:#000000;fill-opacity:1">
        <use
           id="use5359"
           y="134.765"
           x="262.65637"
           xlink:href="#textext-b21d941b-2"
           width="100%"
           height="100%" />
      </g>
      <g
         id="g5361"
         style="fill:#000000;fill-opacity:1">
        <use
           id="use5363"
           y="136.259"
           x="268.34698"
           xlink:href="#textext-b21d941b-10"
           width="100%"
           height="100%" />
      </g>
      <g
         id="g5365"
         style="fill:#000000;fill-opacity:1">
        <use
           id="use5367"
           y="134.765"
           x="272.81601"
           xlink:href="#textext-b21d941b-7"
           width="100%"
           height="100%" />
      </g>
      <g
         id="g5369"
         style="fill:#000000;fill-opacity:1">
        <use
           id="use5371"
           y="134.765"
           x="278.905"
           xlink:href="#textext-b21d941b-16"
           width="100%"
           height="100%" />
      </g>
      <g
         id="g5373"
         style="fill:#000000;fill-opacity:1">
        <use
           id="use5375"
           y="134.765"
           x="287.76001"
           xlink:href="#textext-b21d941b-6"
           width="100%"
           height="100%" />
      </g>
      <g
         id="g5377"
         style="fill:#000000;fill-opacity:1">
        <use
           id="use5379"
           y="134.765"
           x="291.63501"
           xlink:href="#textext-b21d941b-2"
           width="100%"
           height="100%" />
      </g>
      <g
         id="g5381"
         style="fill:#000000;fill-opacity:1">
        <use
           id="use5383"
           y="136.259"
           x="297.328"
           xlink:href="#textext-b21d941b-11"
           width="100%"
           height="100%" />
      </g>
      <g
         id="g5385"
         style="fill:#000000;fill-opacity:1">
        <use
           id="use5387"
           y="134.765"
           x="301.798"
           xlink:href="#textext-b21d941b-3"
           width="100%"
           height="100%" />
      </g>
      <g
         id="g5389"
         style="fill:#000000;fill-opacity:1">
        <use
           id="use5391"
           y="134.765"
           x="306.22937"
           xlink:href="#textext-b21d941b-2"
           width="100%"
           height="100%" />
      </g>
      <g
         id="g5393"
         style="fill:#000000;fill-opacity:1">
        <use
           id="use5395"
           y="136.259"
           x="311.92001"
           xlink:href="#textext-b21d941b-12"
           width="100%"
           height="100%" />
      </g>
      <g
         id="g5397"
         style="fill:#000000;fill-opacity:1">
        <use
           id="use5399"
           y="134.765"
           x="316.38901"
           xlink:href="#textext-b21d941b-7"
           width="100%"
           height="100%" />
      </g>
      <g
         id="g5401"
         style="fill:#000000;fill-opacity:1">
        <use
           id="use5403"
           y="134.765"
           x="322.47699"
           xlink:href="#textext-b21d941b-16"
           width="100%"
           height="100%" />
      </g>
      <g
         id="g5405"
         style="fill:#000000;fill-opacity:1">
        <use
           id="use5407"
           y="134.765"
           x="331.33301"
           xlink:href="#textext-b21d941b-6"
           width="100%"
           height="100%" />
      </g>
      <g
         id="g5409"
         style="fill:#000000;fill-opacity:1">
        <use
           id="use5411"
           y="134.765"
           x="335.207"
           xlink:href="#textext-b21d941b-2"
           width="100%"
           height="100%" />
      </g>
      <g
         id="g5413"
         style="fill:#000000;fill-opacity:1">
        <use
           id="use5415"
           y="136.259"
           x="340.901"
           xlink:href="#textext-b21d941b-13"
           width="100%"
           height="100%" />
      </g>
      <g
         id="g5417"
         style="fill:#000000;fill-opacity:1">
        <use
           id="use5419"
           y="134.765"
           x="345.37"
           xlink:href="#textext-b21d941b-3"
           width="100%"
           height="100%" />
      </g>
      <g
         id="g5421"
         style="fill:#000000;fill-opacity:1">
        <use
           id="use5423"
           y="134.765"
           x="349.80136"
           xlink:href="#textext-b21d941b-2"
           width="100%"
           height="100%" />
      </g>
      <g
         id="g5425"
         style="fill:#000000;fill-opacity:1">
        <use
           id="use5427"
           y="136.259"
           x="355.492"
           xlink:href="#textext-b21d941b-14"
           width="100%"
           height="100%" />
      </g>
      <g
         id="g5429"
         style="fill:#000000;fill-opacity:1">
        <use
           id="use5431"
           y="134.765"
           x="359.96201"
           xlink:href="#textext-b21d941b-7"
           width="100%"
           height="100%" />
      </g>
    </g>
  </g>
</svg>
