<?xml version="1.0" encoding="UTF-8" standalone="no"?>
<svg
   xmlns:dc="http://purl.org/dc/elements/1.1/"
   xmlns:cc="http://creativecommons.org/ns#"
   xmlns:rdf="http://www.w3.org/1999/02/22-rdf-syntax-ns#"
   xmlns:svg="http://www.w3.org/2000/svg"
   xmlns="http://www.w3.org/2000/svg"
   xmlns:sodipodi="http://sodipodi.sourceforge.net/DTD/sodipodi-0.dtd"
   xmlns:inkscape="http://www.inkscape.org/namespaces/inkscape"
   width="280.2532mm"
   height="165.69313mm"
   viewBox="0 0 993.02317 587.10164"
   id="svg2"
   version="1.1"
   inkscape:version="0.91 r13725"
   sodipodi:docname="lebesgue-integral.svg">
  <sodipodi:namedview
     pagecolor="#ffffff"
     bordercolor="#666666"
     borderopacity="1"
     objecttolerance="10"
     gridtolerance="10"
     guidetolerance="10"
     inkscape:pageopacity="0"
     inkscape:pageshadow="2"
     inkscape:window-width="1360"
     inkscape:window-height="715"
     id="namedview48"
     showgrid="false"
     inkscape:zoom="0.53573776"
     inkscape:cx="404.35718"
     inkscape:cy="148.46969"
     inkscape:window-x="0"
     inkscape:window-y="0"
     inkscape:window-maximized="1"
     inkscape:current-layer="svg2" />
  <defs
     id="defs4">
    <marker
       style="overflow:visible;"
       id="Arrow1Lend"
       refX="0.0"
       refY="0.0"
       orient="auto">
      <path
         transform="scale(0.8) rotate(180) translate(12.5,0)"
         style="fill-rule:evenodd;stroke:#000000;stroke-width:1pt;stroke-opacity:1;fill:#000000;fill-opacity:1"
         d="M 0.0,0.0 L 5.0,-5.0 L -12.5,0.0 L 5.0,5.0 L 0.0,0.0 z "
         id="path4216" />
    </marker>
    <marker
       orient="auto"
       refY="0"
       refX="0"
       id="marker6850"
       style="overflow:visible">
      <path
         id="path6852"
         style="fill:#000000;fill-opacity:1;fill-rule:evenodd;stroke:#000000;stroke-width:0.625;stroke-linejoin:round;stroke-opacity:1"
         d="M 8.7185878,4.0337352 -2.2072895,0.01601326 8.7185884,-4.0017078 c -1.7454984,2.3720609 -1.7354408,5.6174519 -6e-7,8.035443 z"
         transform="scale(-0.6,-0.6)" />
    </marker>
    <marker
       orient="auto"
       refY="0"
       refX="0"
       id="Arrow2Mend"
       style="overflow:visible">
      <path
         id="path4171"
         style="fill:#000000;fill-opacity:1;fill-rule:evenodd;stroke:#000000;stroke-width:0.625;stroke-linejoin:round;stroke-opacity:1"
         d="M 8.7185878,4.0337352 -2.2072895,0.01601326 8.7185884,-4.0017078 c -1.7454984,2.3720609 -1.7354408,5.6174519 -6e-7,8.035443 z"
         transform="scale(-0.6,-0.6)" />
    </marker>
    <marker
       orient="auto"
       refY="0"
       refX="0"
       id="marker6730"
       style="overflow:visible">
      <path
         id="path6732"
         d="M 0,0 5,-5 -12.5,0 5,5 0,0 Z"
         style="fill:#000000;fill-opacity:1;fill-rule:evenodd;stroke:#000000;stroke-width:1pt;stroke-opacity:1"
         transform="matrix(-0.8,0,0,-0.8,-10,0)" />
    </marker>
    <marker
       orient="auto"
       refY="0"
       refX="0"
       id="Arrow1Lstart"
       style="overflow:visible">
      <path
         id="path4144"
         d="M 0,0 5,-5 -12.5,0 5,5 0,0 Z"
         style="fill:#000000;fill-opacity:1;fill-rule:evenodd;stroke:#000000;stroke-width:1pt;stroke-opacity:1"
         transform="matrix(0.8,0,0,0.8,10,0)" />
    </marker>
  </defs>
  <metadata
     id="metadata7">
    <rdf:RDF>
      <cc:Work
         rdf:about="">
        <dc:format>image/svg+xml</dc:format>
        <dc:type
           rdf:resource="http://purl.org/dc/dcmitype/StillImage" />
        <dc:title />
      </cc:Work>
    </rdf:RDF>
  </metadata>
  <path
     id="path4136"
     d="m 49.320556,575.22276 0,-569.2977636"
     style="fill:none;fill-rule:evenodd;stroke:#000000;stroke-width:3.95932698;stroke-linecap:butt;stroke-linejoin:miter;stroke-miterlimit:4;stroke-dasharray:none;stroke-opacity:1;marker-end:url(#marker6850)" />
  <path
     id="path4138"
     d="m 0,531.24913 986.53186,0"
     style="fill:none;fill-rule:evenodd;stroke:#000000;stroke-width:4.29363441;stroke-linecap:butt;stroke-linejoin:miter;stroke-miterlimit:2.79999995;stroke-dasharray:none;stroke-opacity:1;marker-end:url(#Arrow2Mend)" />
  <path
     id="path6712"
     d="m 4.4844658,231.11772 c 0,0 142.8059342,212.41997 242.6832942,187.14356 99.87737,-25.2764 215.52295,-220.96836 297.66177,-211.47374 82.13881,9.49461 110.7357,219.99391 195.17115,268.44144 84.43545,48.44753 246.41648,28.48384 246.41648,28.48384"
     style="fill:none;fill-rule:evenodd;stroke:#000000;stroke-width:4.10826302;stroke-linecap:butt;stroke-linejoin:miter;stroke-miterlimit:4;stroke-dasharray:none;stroke-opacity:1" />
  <text
     id="text6714"
     y="248.18956"
     x="119.28572"
     style="font-style:normal;font-weight:normal;font-size:40px;line-height:125%;font-family:sans-serif;letter-spacing:0px;word-spacing:0px;fill:#000000;fill-opacity:1;stroke:none;stroke-width:1px;stroke-linecap:butt;stroke-linejoin:miter;stroke-opacity:1"
     xml:space="preserve"><tspan
       id="tspan6718"
       y="248.18956"
       x="119.28572">f(x)</tspan></text>
  <path
     id="path6722"
     d="m 194.90408,239.52536 214.39711,47.71219"
     style="fill:none;fill-rule:evenodd;stroke:#000000;stroke-width:1.75926661;stroke-linecap:butt;stroke-linejoin:miter;stroke-miterlimit:4;stroke-dasharray:none;stroke-opacity:1" />
  <rect
     y="312.75262"
     x="65.452087"
     height="215.36557"
     width="42.648758"
     id="rect6947"
     style="opacity:0.75;fill:#e74b32;fill-opacity:1;stroke:#6d6d6d;stroke-width:2.49048114;stroke-miterlimit:4;stroke-dasharray:none;stroke-opacity:1" />
  <g
     transform="translate(-67.857144,-54.172656)"
     style="font-style:normal;font-weight:normal;font-size:40px;line-height:125%;font-family:sans-serif;letter-spacing:0px;word-spacing:0px;fill:#000000;fill-opacity:1;stroke:none;stroke-width:1px;stroke-linecap:butt;stroke-linejoin:miter;stroke-opacity:1"
     id="text6949">
    <path
       d="m 810.44125,190.05205 q 0,-0.71305 0.48695,-1.18261 0.48696,-0.48696 1.2,-0.52174 l 0.0174,0 q 1.46087,0 2.46956,-0.46957 1.0087,-0.48695 1.75652,-1.26956 0.74783,-0.8 1.30435,-1.8087 0.55652,-1.02609 1.09565,-2.10435 0.45218,-0.93913 0.90435,-1.7913 0.45217,-0.85217 1.04348,-1.56522 1.56522,-1.91304 3.7913,-1.91304 2.62609,0 4.36522,2.10435 1.3913,1.66956 1.66957,4.1913 0.17391,1.2 0.0522,2.34783 -0.12174,1.14782 -0.50435,2.17391 -0.50435,1.25217 -1.33913,2.06957 -0.83478,0.8 -1.93043,1.09565 -1.94783,0.52174 -4.4,-0.46957 -1.68696,-0.66087 -3.53044,-2.01739 -0.12174,0.12174 -0.17391,0.15652 -2.59131,2.67826 -6.57391,2.67826 l -0.0174,0 q -0.71304,0 -1.2,-0.48695 -0.48695,-0.50435 -0.48695,-1.21739 z m 10.45217,-3.94783 q 1.58261,1.16522 2.88696,1.68696 1.30435,0.52174 2.17391,0.27826 0.29565,-0.0696 0.57391,-0.4 0.27827,-0.33044 0.46957,-0.85218 0.2087,-0.52174 0.27826,-1.2 0.087,-0.67826 -0.0174,-1.46087 -0.0174,-0.12174 -0.087,-0.41739 -0.0696,-0.29565 -0.20869,-0.66087 -0.12174,-0.36521 -0.33044,-0.74782 -0.20869,-0.4 -0.50435,-0.71305 -0.29565,-0.33043 -0.69565,-0.53913 -0.4,-0.20869 -0.92174,-0.20869 -0.34782,0 -0.66087,0.20869 -0.29565,0.19131 -0.60869,0.6087 -0.29565,0.41739 -0.64348,1.04348 -0.33044,0.62608 -0.76522,1.47826 l -0.93913,1.89565 z"
       style="font-style:normal;font-variant:normal;font-weight:normal;font-stretch:normal;font-family:IRANSans;-inkscape-font-specification:IRANSans"
       id="path4179" />
    <path
       d="m 778.06244,190.05205 q 0,-0.33044 0.15653,-0.62609 0.13913,-0.31304 0.3826,-0.53913 0.22609,-0.24348 0.53913,-0.38261 0.31305,-0.13913 0.64348,-0.15652 l 0.17392,0 q 0.73043,0 1.3913,-0.38261 0.66087,-0.4 1.23478,-1.0087 0.57392,-0.60869 1.04348,-1.35652 0.48696,-0.74782 0.86957,-1.46087 0.36521,-0.69565 0.64347,-1.37391 0.29566,-0.69565 0.52174,-1.28696 0.22609,-0.60869 0.36522,-1.07826 0.15652,-0.48695 0.24348,-0.76522 0.087,-0.4 0.087,-0.41739 l 3.33913,0.92174 q -0.0174,0.0174 -0.0522,0.12174 -0.0174,0.10435 -0.0696,0.29565 -0.10435,0.4 -0.26087,1.16522 -0.15652,0.76522 -0.29565,1.70435 -0.19131,1.51304 -0.087,2.66087 0.10435,1.13043 0.46956,1.72174 0.24348,0.45217 0.76522,0.50435 0.2087,0.0522 0.38261,0.0522 0.66087,0 1.26957,-0.43478 0.7826,-0.59131 1.53043,-1.86087 0.74783,-1.26957 1.33913,-3.11305 0.29565,-0.85217 0.48696,-1.61739 0.1913,-0.76522 0.29565,-1.30435 0.087,-0.43478 0.13913,-0.67826 0.0522,-0.26087 0.0522,-0.29565 l 3.39131,0.64348 q -0.0348,0.0174 -0.0696,0.27826 -0.0348,0.24348 -0.12174,0.69565 -0.087,0.45218 -0.15652,1.11305 -0.0696,0.64347 -0.087,1.37391 -0.087,1.58261 0.13913,2.74783 0.22608,1.16521 0.71304,1.75652 0.1913,0.24348 0.50435,0.43478 0.33043,0.1913 0.97391,0.1913 0.90435,0 1.46087,-0.62608 0.5913,-0.64348 0.93913,-1.89566 0.36522,-1.25217 0.46957,-2.95652 0.0348,-0.78261 0.0348,-1.44348 0,-0.67826 -0.0348,-1.16521 -0.0522,-0.43479 -0.0696,-0.69565 0,-0.27827 0,-0.29566 l 3.4087,-0.27826 q 0.0348,0.087 0.0696,0.97392 0.0522,0.36521 0.10435,0.83478 0.0696,0.46956 0.17391,1.02608 0.10435,0.53914 0.24348,1.14783 0.13913,0.59131 0.33043,1.18261 1.37392,4.24348 3.84348,4.24348 l 0.2087,0 0.13913,0 q 0.73043,0 1.21739,0.48695 0.48696,0.48696 0.48696,1.2174 0,0.71304 -0.48696,1.21739 -0.48696,0.48695 -1.21739,0.48695 l -0.13913,0 -0.2087,0 q -1.40869,0 -2.64348,-0.57391 -1.21739,-0.5913 -2.1913,-1.72174 -0.48696,-0.53913 -0.95652,-1.30435 -0.48696,1.07826 -1.14783,1.79131 -0.78261,0.88695 -1.80869,1.35652 -1.02609,0.45217 -2.22609,0.45217 -1.28696,0 -2.34783,-0.48695 -1.06087,-0.50435 -1.80869,-1.44348 -0.24348,-0.31304 -0.45218,-0.66087 -0.20869,-0.34783 -0.3826,-0.74783 -0.97392,1.42609 -2.12174,2.29566 -1.54783,1.09565 -3.28696,1.09565 -0.24348,0 -0.46957,-0.0348 -0.22608,-0.0174 -0.46956,-0.0522 -2.05217,-0.38261 -3.14783,-2.08696 -0.17391,-0.29565 -0.31304,-0.60869 -0.13913,-0.33044 -0.27826,-0.67826 -0.57391,0.74782 -1.16522,1.30435 -2.15652,2.10434 -4.74782,2.10434 l -0.17392,0 q -0.34782,0 -0.66087,-0.12174 -0.31304,-0.13913 -0.53913,-0.36521 -0.24348,-0.24348 -0.38261,-0.55652 -0.13913,-0.31305 -0.13913,-0.66087 z"
       style="font-style:normal;font-variant:normal;font-weight:normal;font-stretch:normal;font-family:IRANSans;-inkscape-font-specification:IRANSans"
       id="path4181" />
    <path
       d="m 762.95837,190.05205 q 0,-0.73044 0.48695,-1.2174 0.48696,-0.50434 1.2174,-0.50434 l 1.32173,0 q 1.46087,0 2.8,-0.17392 1.33913,-0.17391 2.34783,-0.64347 1.02609,-0.46957 1.61739,-1.26957 0.59131,-0.81739 0.53913,-2.08696 -0.0348,-0.97391 -0.17391,-2.01739 -0.12174,-1.04348 -0.50435,-2.38261 l 3.25218,-0.92174 q 0.15652,0.6087 0.29565,1.28696 0.13913,0.66087 0.24348,1.35652 0.10434,0.69565 0.17391,1.4087 0.087,0.69565 0.12174,1.37391 0.0348,0.64348 0.15652,1.35652 0.12174,0.71305 0.43478,1.32174 0.31305,0.6087 0.85218,1.0087 0.55652,0.4 1.44347,0.4 0.73044,0 1.23479,0.48695 0.50434,0.48696 0.50434,1.2174 0,0.36521 -0.13913,0.67826 -0.13913,0.29565 -0.3826,0.53913 -0.22609,0.22608 -0.53913,0.36521 -0.29566,0.12174 -0.64348,0.12174 -1.75652,0 -2.90435,-0.62608 -1.14783,-0.64348 -1.87826,-1.6 -0.62609,0.60869 -1.61739,1.04347 -0.99131,0.4174 -2.19131,0.67827 -1.18261,0.26087 -2.48695,0.3826 -1.30435,0.12174 -2.55653,0.12174 l -1.32173,0 q -0.73044,0 -1.2174,-0.48695 -0.48695,-0.48696 -0.48695,-1.21739 z m 8.81739,-17.2174 -2.81739,2.8174 -2.85218,-2.83479 2.81739,-2.83478 2.85218,2.85217 z m 7.13043,0.0174 -2.81739,2.83478 -2.85217,-2.85218 2.81739,-2.81739 2.85217,2.83479 z"
       style="font-style:normal;font-variant:normal;font-weight:normal;font-stretch:normal;font-family:IRANSans;-inkscape-font-specification:IRANSans"
       id="path4183" />
    <path
       d="m 744.03228,188.3477 q 1.30435,0 2.52174,0.0174 1.23478,0.0174 2.4,-0.0174 1.16522,-0.0522 2.26087,-0.2087 1.11304,-0.17391 2.1913,-0.52174 1.09566,-0.36521 2.15653,-0.95652 1.06086,-0.60869 2.12173,-1.54782 0.31305,-0.31305 0.59131,-0.74783 0.29565,-0.45217 0.50435,-0.93913 0.20869,-0.50435 0.31304,-1.02609 0.12174,-0.52174 0.10435,-1.00869 -0.12174,-0.73044 -0.55652,-1.2 -0.43479,-0.46957 -1.04348,-0.73044 -0.59131,-0.26087 -1.26957,-0.33043 -0.67826,-0.087 -1.28695,-0.0348 -1.77392,0.31305 -3.86087,1.79131 -2.08696,1.46087 -4.45218,4.03478 -0.41739,0.50435 -0.8,0.95652 -0.38261,0.43479 -0.73043,0.88696 l -1.16522,1.58261 z m -8.5913,1.70435 q 0,-0.73044 0.48695,-1.2174 0.48696,-0.48695 1.21739,-0.48695 l 0.13913,0 2.50435,0 q 0.24348,-0.36522 0.92174,-1.35652 0.67826,-1.0087 1.75652,-2.31305 l 0.12174,-0.17391 q 0.17392,-0.2087 0.26087,-0.97391 0.087,-0.76522 0.10435,-1.89566 0.0348,-1.13043 0.0174,-2.55652 -0.0174,-1.42608 -0.087,-2.95652 -0.0696,-1.53043 -0.17391,-3.07826 -0.087,-1.56522 -0.20869,-2.97391 -0.10435,-1.4087 -0.22609,-2.57392 -0.12174,-1.16521 -0.24348,-1.91304 l 3.3913,-0.62609 q 0.55653,3.53044 0.8174,7.30435 0.27826,3.77391 0.24347,8.03478 4.27827,-3.9826 8.0174,-4.55652 3.47826,-0.55652 6.27826,1.70435 1.70434,1.44348 1.86087,3.73913 0.0696,0.97391 -0.13913,1.91304 -0.2087,0.92174 -0.57392,1.73913 -0.36521,0.8174 -0.83478,1.51305 -0.46957,0.67826 -0.93913,1.16522 -0.15652,0.15652 -0.33044,0.31304 -0.17391,0.13913 -0.33043,0.26087 -0.15652,0.10435 -0.27826,0.1913 -0.10435,0.0696 -0.10435,0.0696 l 5.8087,0 q 0.73043,0 1.21739,0.48695 0.48695,0.46957 0.48695,1.2 0,0.71305 -0.48695,1.2174 -0.48696,0.48695 -1.21739,0.48695 l -0.0174,0 0,0.0174 q -1.30435,0 -2.31305,0 -0.9913,0.0174 -1.98261,0.0174 -0.76521,0 -1.6,-0.0174 -0.81739,-0.0174 -1.68695,-0.087 -0.85218,-0.087 -1.70435,-0.22609 -0.85217,-0.15652 -1.65217,-0.41739 -1.68696,0.50435 -3.23479,0.62609 -1.54782,0.10434 -2.92174,0.10434 l -10.66087,0 q -0.73043,0 -1.21739,-0.48695 -0.48695,-0.48696 -0.48695,-1.21739 z"
       style="font-style:normal;font-variant:normal;font-weight:normal;font-stretch:normal;font-family:IRANSans;-inkscape-font-specification:IRANSans"
       id="path4185" />
    <path
       d="m 720.53649,190.05205 q 0,-0.73044 0.48696,-1.2174 0.48696,-0.50434 1.21739,-0.50434 l 1.32174,0 q 1.46087,0 2.8,-0.17392 1.33913,-0.17391 2.34783,-0.64347 1.02608,-0.46957 1.61739,-1.26957 0.5913,-0.81739 0.53913,-2.08696 -0.0348,-0.97391 -0.17392,-2.01739 -0.12174,-1.04348 -0.50434,-2.38261 l 3.25217,-0.92174 q 0.15652,0.6087 0.29565,1.28696 0.13913,0.66087 0.24348,1.35652 0.10435,0.69565 0.17391,1.4087 0.087,0.69565 0.12174,1.37391 0.0348,0.64348 0.15652,1.35652 0.12174,0.71305 0.43479,1.32174 0.31304,0.6087 0.85217,1.0087 0.55652,0.4 1.44348,0.4 0.73043,0 1.23478,0.48695 0.50435,0.48696 0.50435,1.2174 0,0.36521 -0.13913,0.67826 -0.13913,0.29565 -0.38261,0.53913 -0.22609,0.22608 -0.53913,0.36521 -0.29565,0.12174 -0.64348,0.12174 -1.75652,0 -2.90435,-0.62608 -1.14782,-0.64348 -1.87826,-1.6 -0.62608,0.60869 -1.61739,1.04347 -0.9913,0.4174 -2.1913,0.67827 -1.18261,0.26087 -2.48696,0.3826 -1.30435,0.12174 -2.55652,0.12174 l -1.32174,0 q -0.73043,0 -1.21739,-0.48695 -0.48696,-0.48696 -0.48696,-1.21739 z m 7.23478,8.31304 -2.81739,2.81739 -2.85217,-2.83478 2.81739,-2.83478 2.85217,2.85217 z m 7.13044,0.0174 -2.81739,2.83478 -2.85218,-2.85217 2.8174,-2.81739 2.85217,2.83478 z"
       style="font-style:normal;font-variant:normal;font-weight:normal;font-stretch:normal;font-family:IRANSans;-inkscape-font-specification:IRANSans"
       id="path4187" />
    <path
       d="m 702.50456,185.86074 q -0.52174,0.67826 -0.92174,1.72174 -0.34782,0.88696 -0.62608,2.27826 -0.27826,1.37391 -0.27826,3.32174 0,1.14783 0.33043,2.08696 0.33044,0.93913 0.86957,1.65217 0.53913,0.73044 1.21739,1.25217 0.69565,0.53914 1.40869,0.88696 0.71305,0.34783 1.39131,0.50435 0.67826,0.17391 1.2,0.17391 0.8,0 1.73913,-0.12174 0.95652,-0.10434 1.89565,-0.4 0.93913,-0.27826 1.8087,-0.78261 0.86956,-0.50434 1.54782,-1.28695 0.67826,-0.78261 1.07826,-1.87826 0.4,-1.09566 0.4,-2.57392 0,-1.37391 -0.0522,-3.26956 -0.0348,-1.91304 -0.10435,-4.08696 -0.0522,-2.1913 -0.13913,-4.52174 -0.087,-2.33043 -0.17391,-4.55652 -0.19131,-5.21739 -0.45218,-10.95652 l 3.4087,-0.13913 q 0.13913,3.13043 0.27826,6.43478 0.0522,1.4087 0.12174,2.99131 0.0696,1.5826 0.12174,3.25217 0.0696,1.66957 0.12174,3.35652 0.0696,1.68696 0.12174,3.30435 0.0696,1.09565 0.48695,1.93043 0.17392,0.36522 0.43479,0.71305 0.26087,0.33043 0.62608,0.60869 0.36522,0.26087 0.85218,0.43479 0.50434,0.15652 1.14782,0.15652 0.36522,0 0.67826,0.13913 0.31305,0.13913 0.53913,0.38261 0.24348,0.22608 0.36522,0.53913 0.13913,0.31304 0.13913,0.66087 0,0.73043 -0.50435,1.21739 -0.48695,0.46956 -1.21739,0.46956 -0.60869,0 -1.09565,-0.0522 -0.48696,-0.0522 -0.90435,-0.15652 -0.4,-0.10435 -0.74782,-0.24348 -0.33044,-0.13913 -0.66087,-0.33044 0.0174,0.46957 0.0174,0.90435 0,0.43479 0,0.81739 0,2.19131 -0.55652,3.8087 -0.53913,1.63478 -1.46087,2.8 -0.92174,1.16522 -2.12174,1.89565 -1.2,0.74783 -2.52174,1.18261 -1.32174,0.43478 -2.67826,0.5913 -1.33913,0.17392 -2.53913,0.17392 -1.18261,0 -2.36522,-0.26087 -1.18261,-0.24348 -2.27826,-0.76522 -1.09565,-0.52174 -2.05217,-1.33913 -0.93914,-0.8 -1.63479,-1.91304 -0.69565,-1.09566 -1.09565,-2.52174 -0.4,-1.4087 -0.4,-3.16522 0,-2.41739 0.33044,-4.12174 0.34782,-1.70435 0.76521,-2.81739 0.48696,-1.28696 1.11305,-2.13913 l 3.02608,1.75652 z"
       style="font-style:normal;font-variant:normal;font-weight:normal;font-stretch:normal;font-family:IRANSans;-inkscape-font-specification:IRANSans"
       id="path4189" />
    <path
       d="m 669.98962,190.05205 q 0,-0.73044 0.50435,-1.2174 0.48695,-0.48695 1.2,-0.48695 l 1.7913,0 q 0.92174,0.0348 1.77391,0 0.85218,-0.0522 1.56522,-0.26087 0.71304,-0.2087 1.25217,-0.62609 0.55653,-0.43478 0.90435,-1.16522 0.34783,-0.74782 0.19131,-2.12174 -0.13913,-1.3913 -0.69566,-3.23478 -0.1913,-0.55652 -0.45217,-1.2 -0.24348,-0.66087 -0.48696,-1.21739 -0.27826,-0.66087 -0.57391,-1.30435 l 3.09565,-1.53043 q 0,0.0174 0.15652,0.36522 0.17392,0.33043 0.4174,0.90434 0.24347,0.57392 0.53913,1.33913 0.29565,0.74783 0.55652,1.6 1.61739,4.99131 0.4,7.79131 -1.23478,2.8 -4.38261,3.68695 -0.93913,0.27827 -1.84348,0.33044 -0.88696,0.0522 -1.66956,0.0522 l -2.38261,0 -0.15652,0 q -0.71305,0 -1.2,-0.48695 -0.50435,-0.48696 -0.50435,-1.21739 z m 9.77391,8.24347 -2.83478,2.83479 -2.85218,-2.85218 2.83479,-2.83478 2.85217,2.85217 z"
       style="font-style:normal;font-variant:normal;font-weight:normal;font-stretch:normal;font-family:IRANSans;-inkscape-font-specification:IRANSans"
       id="path4191" />
    <path
       d="m 668.46652,190.55639 q 0,1.51305 -0.45217,2.93913 -0.43479,1.42609 -1.23479,2.74783 -0.78261,1.32174 -1.87826,2.50435 -1.07826,1.2 -2.36522,2.26087 -1.26956,1.06087 -2.69565,1.94782 -1.40869,0.90435 -2.86956,1.63479 l -1.49565,-3.07826 q 1.25217,-0.64348 2.48695,-1.4087 1.23478,-0.76522 2.33044,-1.65217 1.09565,-0.88696 2.01739,-1.87827 0.92174,-0.9913 1.54782,-2.06956 0.64348,-1.07826 0.95653,-2.24348 0.31304,-1.14782 0.1913,-2.38261 l 0,0.0348 q -0.12174,-0.99131 -0.38261,-2.12174 -0.24348,-1.14783 -0.55652,-2.24348 -0.29565,-1.09565 -0.5913,-2.05218 -0.27827,-0.97391 -0.48696,-1.61739 l 3.26956,-1.00869 q 0.66087,2.01739 1.28696,3.44348 0.64348,1.40869 1.30435,2.31304 0.67826,0.88696 1.40869,1.30435 0.73044,0.41739 1.6,0.41739 l 0.087,0 q 0.36522,0 0.67826,0.13913 0.31304,0.13913 0.53913,0.38261 0.24348,0.22608 0.36522,0.53913 0.13913,0.31304 0.13913,0.66087 0,0.73043 -0.50435,1.21739 -0.48695,0.46956 -1.21739,0.46956 l -0.0174,0 q -0.24348,0 -0.64348,-0.0174 -0.38261,-0.0174 -0.86956,-0.13913 -0.46957,-0.12174 -0.97392,-0.38261 -0.50435,-0.26087 -0.97391,-0.73043 l 0,0.0696 z"
       style="font-style:normal;font-variant:normal;font-weight:normal;font-stretch:normal;font-family:IRANSans;-inkscape-font-specification:IRANSans"
       id="path4193" />
    <path
       d="m 654.70008,164.29552 q 0.76522,7.07826 0.88696,12.66087 0.1913,9.21739 -0.27827,14.95653 l -3.42608,-0.19131 q 0.55652,-7.73913 0.34782,-12.9913 -0.34782,-8.43479 -0.93913,-13.91305 l 3.4087,-0.52174 z"
       style="font-style:normal;font-variant:normal;font-weight:normal;font-stretch:normal;font-family:IRANSans;-inkscape-font-specification:IRANSans"
       id="path4195" />
    <path
       d="m 641.55388,176.41726 q 1.2,-0.24348 2.29566,-0.17391 1.09565,0.0696 1.93043,0.26087 0.83478,0.1913 1.33913,0.4 0.52174,0.2087 0.57391,0.22609 l -1.51304,3.18261 q 0,0 -0.33043,-0.12174 -0.33044,-0.13913 -0.86957,-0.24348 -0.52174,-0.12174 -1.23478,-0.15652 -0.69565,-0.0522 -1.46087,0.10434 -0.73044,0.0696 -1.53044,0.45218 -0.78261,0.38261 -1.51304,0.9913 -0.73043,0.6087 -1.35652,1.39131 -0.62609,0.76521 -1.04348,1.6 -0.4,0.83478 -0.53913,1.68695 -0.13913,0.85218 0.12174,1.6 0.22609,0.64348 0.78261,1.02609 0.57391,0.38261 1.33913,0.64348 0.76522,0.26087 1.65217,0.45217 0.90435,0.19131 1.77391,0.45218 0.86957,0.24347 1.65218,0.60869 0.78261,0.36522 1.32174,0.97391 0.55652,0.62609 0.78261,1.53044 0.24347,0.92174 0.0174,2.26087 -0.31305,1.70435 -1.53044,3.13043 -1.21739,1.42609 -3.23478,2.43479 -1.91304,0.97391 -4.34783,1.47826 -2.41739,0.50435 -5.26956,0.50435 -3.28696,0 -5.82609,-0.95653 -2.52174,-0.93913 -4.13913,-2.74782 -1.42609,-1.63479 -2.01739,-3.79131 -0.57391,-2.15652 -0.26087,-4.71304 0.13913,-1.13044 0.38261,-2.33044 0.24348,-1.21739 0.52174,-2.36521 0.29565,-1.14783 0.5913,-2.17392 0.31305,-1.04347 0.55652,-1.84347 0.26087,-0.8 0.4174,-1.28696 0.17391,-0.48696 0.20869,-0.55652 l 3.32174,1.16522 q -0.78261,2.43478 -1.46087,4.85217 -0.67826,2.41739 -1.00869,4.95652 -0.087,0.62609 -0.10435,1.35652 0,0.73044 0.13913,1.47826 0.15652,0.76522 0.46956,1.49566 0.33044,0.74782 0.90435,1.3913 1.09565,1.25217 2.93913,1.87826 1.86087,0.62609 4.36522,0.62609 2.46956,0 4.45217,-0.4 1.98261,-0.38261 3.37392,-1.04348 1.40869,-0.64348 2.1913,-1.47826 0.78261,-0.81739 0.86957,-1.70435 0.0348,-0.41739 -0.29566,-0.69565 -0.33043,-0.27826 -0.90434,-0.48696 -0.57392,-0.20869 -1.33913,-0.38261 -0.74783,-0.17391 -1.58261,-0.41739 -0.81739,-0.22608 -1.63479,-0.55652 -0.81739,-0.31304 -1.51304,-0.78261 -0.69565,-0.48695 -1.21739,-1.16522 -0.50435,-0.69565 -0.69565,-1.66956 -0.27826,-1.37391 -0.13913,-2.73044 0.15652,-1.37391 0.64347,-2.64347 0.48696,-1.28696 1.28696,-2.4174 0.8,-1.14782 1.82609,-2.05217 1.04348,-0.92174 2.27826,-1.56522 1.23478,-0.64347 2.5913,-0.93913 z"
       style="font-style:normal;font-variant:normal;font-weight:normal;font-stretch:normal;font-family:IRANSans;-inkscape-font-specification:IRANSans"
       id="path4197" />
    <path
       d="m 598.67617,170.08683 -2.8174,2.81739 -2.85217,-2.83478 2.81739,-2.83479 2.85218,2.85218 z m 7.13043,0.0174 -2.81739,2.83478 -2.85217,-2.85217 2.81739,-2.81739 2.85217,2.83478 z m -16.10435,19.94783 q 0,-0.73044 0.50435,-1.2174 0.48696,-0.48695 1.2,-0.48695 l 1.93044,0 q 0.60869,0.0174 1.32173,0.0174 0.71305,-0.0174 1.44348,-0.087 0.73044,-0.0696 1.42609,-0.1913 0.71304,-0.13913 1.30435,-0.36522 0.5913,-0.24348 1.04348,-0.5913 0.45217,-0.34783 0.67826,-0.83479 0.34782,-0.74782 0.1913,-2.12174 -0.13913,-1.3913 -0.69565,-3.23478 -0.19131,-0.55652 -0.45217,-1.2 -0.24348,-0.66087 -0.48696,-1.21739 -0.27826,-0.66087 -0.57391,-1.30435 l 3.09565,-1.53043 q 0,0.0174 0.15652,0.36522 0.17391,0.33043 0.41739,0.90434 0.24348,0.57392 0.53913,1.33913 0.29565,0.74783 0.55652,1.6 1.61739,4.99131 0.4,7.79131 -1.23478,2.8 -4.38261,3.68695 -0.46956,0.13914 -1.2,0.22609 -0.73043,0.0696 -1.49565,0.10435 -0.76522,0.0348 -1.46087,0.0522 -0.69565,0 -1.07826,0 l -2.52174,0 -0.15652,0 q -0.71304,0 -1.2,-0.48695 -0.50435,-0.48696 -0.50435,-1.21739 z"
       style="font-style:normal;font-variant:normal;font-weight:normal;font-stretch:normal;font-family:IRANSans;-inkscape-font-specification:IRANSans"
       id="path4199" />
    <path
       d="m 582.89954,178.86944 q -0.46957,0 -1.02609,0.34782 -0.53913,0.33044 -1.0087,0.95652 -0.46956,0.6087 -0.78261,1.47827 -0.29565,0.86956 -0.29565,1.94782 0,0.81739 0.76522,1.61739 0.78261,0.78261 2.22609,1.44348 l 0.27826,0.12174 q 1.02608,-0.45217 1.56521,-1.21739 0.53914,-0.78261 0.71305,-1.65217 0.17391,-0.88696 0.0348,-1.77392 -0.13913,-0.90435 -0.50435,-1.61739 -0.34782,-0.73043 -0.86956,-1.18261 -0.52174,-0.46956 -1.09565,-0.46956 z m -11.0087,11.18261 q 0,-0.36522 0.13913,-0.67827 0.12174,-0.31304 0.36522,-0.53913 0.22608,-0.22608 0.53913,-0.34782 0.29565,-0.13913 0.66087,-0.13913 0.60869,0 1.30435,-0.0174 0.71304,-0.0174 1.3913,-0.0522 0.67826,-0.0348 1.28696,-0.087 0.62608,-0.0522 1.06087,-0.10435 -2.26087,-1.98261 -2.26087,-4.48696 0,-1.61739 0.48695,-3.07826 0.50435,-1.46087 1.44348,-2.64348 0.93913,-1.18261 2.13913,-1.82608 1.21739,-0.66087 2.48696,-0.6087 1.54782,0.0696 2.71304,0.73043 1.16522,0.66087 1.93044,1.70435 0.78261,1.04348 1.14782,2.36522 0.36522,1.30435 0.29565,2.67826 -0.0522,1.35652 -0.55652,2.67826 -0.48695,1.30435 -1.42608,2.33044 0.52174,0.10434 1.14782,0.1913 0.62609,0.0696 1.28696,0.12174 0.66087,0.0522 1.32174,0.087 0.66087,0.0174 1.23478,0.0174 0.73044,0 1.21739,0.48695 0.50435,0.48696 0.50435,1.2174 0,0.36521 -0.13913,0.67826 -0.12174,0.29565 -0.36522,0.53913 -0.22609,0.22608 -0.53913,0.36521 -0.31304,0.12174 -0.67826,0.12174 l -0.15652,0 q -0.53913,0 -1.16522,-0.0174 -0.62609,-0.0174 -1.26956,-0.0522 -0.64348,-0.0522 -1.25218,-0.10435 -0.60869,-0.0522 -1.11304,-0.13913 -1.04348,-0.17391 -2.01739,-0.4 -0.95652,-0.22609 -1.87826,-0.52174 -0.81739,0.31304 -1.89566,0.53913 -1.07826,0.22609 -2.31304,0.38261 -1.23478,0.15652 -2.57391,0.24348 -1.33913,0.0696 -2.66087,0.0696 l -0.13913,0 q -0.73044,0 -1.21739,-0.48695 -0.48696,-0.48696 -0.48696,-1.21739 z m 10.17391,-21.4087 -2.81739,2.81739 -2.85217,-2.83478 2.81739,-2.83478 2.85217,2.85217 z m 7.13044,0.0174 -2.81739,2.83478 -2.85218,-2.85217 2.81739,-2.81739 2.85218,2.83478 z"
       style="font-style:normal;font-variant:normal;font-weight:normal;font-stretch:normal;font-family:IRANSans;-inkscape-font-specification:IRANSans"
       id="path4201" />
    <path
       d="m 570.26339,190.55639 q 0,1.51305 -0.45217,2.93913 -0.43478,1.42609 -1.23478,2.74783 -0.78261,1.32174 -1.87826,2.50435 -1.07826,1.2 -2.36522,2.26087 -1.26957,1.06087 -2.69565,1.94782 -1.4087,0.90435 -2.86957,1.63479 l -1.49565,-3.07826 q 1.25217,-0.64348 2.48696,-1.4087 1.23478,-0.76522 2.33043,-1.65217 1.09565,-0.88696 2.01739,-1.87827 0.92174,-0.9913 1.54783,-2.06956 0.64348,-1.07826 0.95652,-2.24348 0.31304,-1.14782 0.1913,-2.38261 l 0,0.0348 q -0.12173,-0.99131 -0.3826,-2.12174 -0.24348,-1.14783 -0.55653,-2.24348 -0.29565,-1.09565 -0.5913,-2.05218 -0.27826,-0.97391 -0.48696,-1.61739 l 3.26957,-1.00869 q 0.66087,2.01739 1.28696,3.44348 0.64347,1.40869 1.30434,2.31304 0.67826,0.88696 1.4087,1.30435 0.73043,0.41739 1.6,0.41739 l 0.087,0 q 0.36521,0 0.67826,0.13913 0.31304,0.13913 0.53913,0.38261 0.24347,0.22608 0.36521,0.53913 0.13913,0.31304 0.13913,0.66087 0,0.73043 -0.50434,1.21739 -0.48696,0.46956 -1.21739,0.46956 l -0.0174,0 q -0.24347,0 -0.64347,-0.0174 -0.38261,-0.0174 -0.86957,-0.13913 -0.46956,-0.12174 -0.97391,-0.38261 -0.50435,-0.26087 -0.97392,-0.73043 l 0,0.0696 z"
       style="font-style:normal;font-variant:normal;font-weight:normal;font-stretch:normal;font-family:IRANSans;-inkscape-font-specification:IRANSans"
       id="path4203" />
    <path
       d="m 550.10701,197.75639 -2.81739,2.81739 -2.85218,-2.83478 2.81739,-2.83478 2.85218,2.85217 z m 7.13043,0.0174 -2.81739,2.83479 -2.85217,-2.85218 2.81739,-2.81739 2.85217,2.83478 z m -15.51304,-7.72173 q 0,-0.73044 0.50435,-1.2174 0.48695,-0.48695 1.2,-0.48695 l 1.93043,0 q 0.6087,0.0174 1.32174,0.0174 0.71305,-0.0174 1.44348,-0.087 0.73043,-0.0696 1.42609,-0.1913 0.71304,-0.13913 1.30434,-0.36522 0.59131,-0.24348 1.04348,-0.5913 0.45218,-0.34783 0.67826,-0.83479 0.34783,-0.74782 0.19131,-2.12174 -0.13913,-1.3913 -0.69565,-3.23478 -0.19131,-0.55652 -0.45218,-1.2 -0.24348,-0.66087 -0.48695,-1.21739 -0.27827,-0.66087 -0.57392,-1.30435 l 3.09565,-1.53043 q 0,0.0174 0.15653,0.36522 0.17391,0.33043 0.41739,0.90434 0.24348,0.57392 0.53913,1.33913 0.29565,0.74783 0.55652,1.6 1.61739,4.99131 0.4,7.79131 -1.23478,2.8 -4.38261,3.68695 -0.46956,0.13914 -1.2,0.22609 -0.73043,0.0696 -1.49565,0.10435 -0.76522,0.0348 -1.46087,0.0522 -0.69565,0 -1.07826,0 l -2.52174,0 -0.15652,0 q -0.71305,0 -1.2,-0.48695 -0.50435,-0.48696 -0.50435,-1.21739 z"
       style="font-style:normal;font-variant:normal;font-weight:normal;font-stretch:normal;font-family:IRANSans;-inkscape-font-specification:IRANSans"
       id="path4205" />
    <path
       d="m 537.30538,188.90422 q -0.67826,-0.8 -1.07826,-1.89565 -4.59131,4.8 -14.48696,4.8 -5.28696,-0.0348 -8.76522,-1.25218 -3.46087,-1.23478 -5.02608,-3.87826 -0.50435,-0.85217 -0.78261,-1.75652 -0.26087,-0.90435 -0.34783,-1.7913 -0.0696,-0.90435 0,-1.77392 0.087,-0.86956 0.29565,-1.65217 0.2087,-0.81739 0.4174,-1.47826 0.22608,-0.66087 0.41739,-1.13044 0.1913,-0.48695 0.33043,-0.76521 0.13913,-0.27826 0.17391,-0.33044 l 3.0087,1.65218 q 0,0.0174 -0.15652,0.34782 -0.15652,0.33044 -0.34783,0.86957 -0.1913,0.53913 -0.38261,1.25217 -0.17391,0.71304 -0.22608,1.49565 -0.0348,0.78261 0.10434,1.6 0.13913,0.81739 0.57392,1.54783 1.04348,1.77391 3.73913,2.67826 2.71304,0.88696 6.97391,0.90435 3.84348,0 6.53913,-0.66087 2.69565,-0.67826 4.48696,-2.13913 0.8,-0.62609 1.37391,-1.37392 0.59131,-0.74782 0.99131,-1.54782 0.41739,-0.8 0.69565,-1.61739 0.27826,-0.81739 0.50435,-1.6 l 3.30434,0.90435 q -0.087,0.34782 -0.1913,0.7826 -0.10435,0.4174 -0.2087,0.92174 -0.20869,1.02609 -0.1913,1.73913 0.0348,0.74783 0.22609,1.56522 0.1913,0.81739 0.73043,1.46087 1.23478,1.54783 4.13913,1.54783 0.73044,0 1.21739,0.50434 0.50435,0.48696 0.50435,1.2174 0,0.73043 -0.50435,1.21739 -0.48695,0.48695 -1.21739,0.48695 l -0.13913,0 q -4.52174,-0.0522 -6.69565,-2.85217 z m -11.98261,9.14783 -2.83478,2.83478 -2.85218,-2.85218 2.83479,-2.83478 2.85217,2.85218 z"
       style="font-style:normal;font-variant:normal;font-weight:normal;font-stretch:normal;font-family:IRANSans;-inkscape-font-specification:IRANSans"
       id="path4207" />
  </g>
  <path
     id="rect4339-7-9-3"
     d="m 379.51852,271.93851 -1.82908,6.74041 0.008,0.003 -1.82901,6.73955 37.59589,4.37586 -0.0125,-0.005 -33.93382,-17.85462 z"
     style="fill:#000000;fill-opacity:1;stroke:none;stroke-width:5;stroke-miterlimit:4;stroke-dasharray:none;stroke-opacity:1" />
  <text
     id="text4626"
     y="570.30237"
     x="468.51282"
     style="font-style:normal;font-weight:normal;font-size:40px;line-height:125%;font-family:sans-serif;letter-spacing:0px;word-spacing:0px;fill:#000000;fill-opacity:1;stroke:none;stroke-width:1px;stroke-linecap:butt;stroke-linejoin:miter;stroke-opacity:1"
     xml:space="preserve"><tspan
       style="font-style:normal;font-variant:normal;font-weight:normal;font-stretch:normal;font-family:IRANSans;-inkscape-font-specification:IRANSans"
       y="570.30237"
       x="468.51282"
       id="tspan4628">دامنه</tspan></text>
  <path
     id="path4630"
     d="m 0,314.58025 993.02317,0"
     style="fill:none;fill-rule:evenodd;stroke:#000000;stroke-width:2;stroke-linecap:butt;stroke-linejoin:miter;stroke-opacity:1;stroke-miterlimit:4;stroke-dasharray:none" />
  <path
     id="path4632"
     d="m 0,357.5117 993.86576,0"
     style="fill:none;fill-rule:evenodd;stroke:#000000;stroke-width:2;stroke-linecap:butt;stroke-linejoin:miter;stroke-opacity:1;stroke-miterlimit:4;stroke-dasharray:none" />
  <rect
     y="315.46719"
     x="340.60416"
     height="213.28801"
     width="46.510654"
     id="rect6947-4"
     style="opacity:0.75;fill:#e74b32;fill-opacity:1;stroke:#6d6d6d;stroke-width:2.58822131;stroke-miterlimit:4;stroke-dasharray:none;stroke-opacity:1" />
  <path
     id="rect4339-7-9"
     d="m 410.12351,334.08512 -2.45713,-6.53766 -0.008,0.002 -2.45669,-6.53691 -33.05864,18.43165 0.0123,-0.003 37.96852,-5.3557 z"
     style="fill:#000000;fill-opacity:1;stroke:none;stroke-width:5;stroke-miterlimit:4;stroke-dasharray:none;stroke-opacity:1"
     inkscape:connector-curvature="0" />
  <path
     id="path4178"
     d="m 567.24056,163.39435 c 0,0 -26.22544,79.06155 -54.46816,106.97761 -28.24276,27.91606 -114.98836,60.51877 -114.98836,60.51877"
     style="fill:none;fill-rule:evenodd;stroke:#000000;stroke-width:1.68272889;stroke-linecap:butt;stroke-linejoin:miter;stroke-miterlimit:4;stroke-dasharray:none;stroke-opacity:1"
     inkscape:connector-curvature="0" />
  <path
     id="path4178-8"
     d="m 542.23812,156.40751 c 0,0 -69.64073,81.60602 -144.63828,110.42052 -74.99767,28.8145 -305.347606,62.46646 -305.347606,62.46646"
     style="fill:none;fill-rule:evenodd;stroke:#000000;stroke-width:2.78588319;stroke-linecap:butt;stroke-linejoin:miter;stroke-miterlimit:4;stroke-dasharray:none;stroke-opacity:1"
     inkscape:connector-curvature="0" />
  <path
     id="rect4339-7-9-4"
     d="m 110.41978,333.70533 -1.78315,-6.7527 -0.008,10e-4 -1.78278,-6.75191 -34.753665,14.99271 0.01261,-0.002 38.315545,-1.48713 z"
     style="fill:#000000;fill-opacity:1;stroke:none;stroke-width:5;stroke-miterlimit:4;stroke-dasharray:none;stroke-opacity:1"
     inkscape:connector-curvature="0" />
  <rect
     y="313.08002"
     x="633.62891"
     height="219.39439"
     width="20.940039"
     id="rect6947-4-3"
     style="opacity:0.75;fill:#e74b32;fill-opacity:1;stroke:#6d6d6d;stroke-width:1.76134098;stroke-miterlimit:4;stroke-dasharray:none;stroke-opacity:1" />
  <path
     id="rect4339-7-9-6"
     d="m 653.31031,272.3891 -6.96014,-0.57872 -0.002,0.008 -6.95927,-0.5788 2.50198,37.76691 0.003,-0.0124 11.417,-36.60524 z"
     style="fill:#000000;fill-opacity:1;stroke:none;stroke-width:5;stroke-miterlimit:4;stroke-dasharray:none;stroke-opacity:1"
     inkscape:connector-curvature="0" />
  <path
     id="path4178-7"
     d="m 611.64889,162.37892 c 0,0 -7.94249,55.13032 8.58256,70.58253 37.49598,35.06167 23.69154,47.39627 23.69154,47.39627"
     style="fill:none;fill-rule:evenodd;stroke:#000000;stroke-width:0.67594427;stroke-linecap:butt;stroke-linejoin:miter;stroke-miterlimit:4;stroke-dasharray:none;stroke-opacity:1"
     inkscape:connector-curvature="0"
     sodipodi:nodetypes="csc" />
</svg>
