<?xml version="1.0" encoding="UTF-8" standalone="no"?>
<svg
   xmlns:dc="http://purl.org/dc/elements/1.1/"
   xmlns:cc="http://creativecommons.org/ns#"
   xmlns:rdf="http://www.w3.org/1999/02/22-rdf-syntax-ns#"
   xmlns:svg="http://www.w3.org/2000/svg"
   xmlns="http://www.w3.org/2000/svg"
   xmlns:sodipodi="http://sodipodi.sourceforge.net/DTD/sodipodi-0.dtd"
   xmlns:inkscape="http://www.inkscape.org/namespaces/inkscape"
   width="280.2532mm"
   height="165.69313mm"
   viewBox="0 0 993.02317 587.10164"
   id="svg2"
   version="1.1"
   inkscape:version="0.91 r13725"
   sodipodi:docname="stochastic-process-samples.svg">
  <sodipodi:namedview
     pagecolor="#ffffff"
     bordercolor="#666666"
     borderopacity="1"
     objecttolerance="10"
     gridtolerance="10"
     guidetolerance="10"
     inkscape:pageopacity="0"
     inkscape:pageshadow="2"
     inkscape:window-width="1360"
     inkscape:window-height="715"
     id="namedview48"
     showgrid="false"
     inkscape:zoom="0.3788238"
     inkscape:cx="290.04492"
     inkscape:cy="392.7313"
     inkscape:window-x="0"
     inkscape:window-y="0"
     inkscape:window-maximized="1"
     inkscape:current-layer="svg2" />
  <defs
     id="defs4">
    <marker
       style="overflow:visible;"
       id="Arrow1Lend"
       refX="0.0"
       refY="0.0"
       orient="auto">
      <path
         transform="scale(0.8) rotate(180) translate(12.5,0)"
         style="fill-rule:evenodd;stroke:#000000;stroke-width:1pt;stroke-opacity:1;fill:#000000;fill-opacity:1"
         d="M 0.0,0.0 L 5.0,-5.0 L -12.5,0.0 L 5.0,5.0 L 0.0,0.0 z "
         id="path4216" />
    </marker>
    <marker
       orient="auto"
       refY="0"
       refX="0"
       id="marker6850"
       style="overflow:visible">
      <path
         id="path6852"
         style="fill:#000000;fill-opacity:1;fill-rule:evenodd;stroke:#000000;stroke-width:0.625;stroke-linejoin:round;stroke-opacity:1"
         d="M 8.7185878,4.0337352 -2.2072895,0.01601326 8.7185884,-4.0017078 c -1.7454984,2.3720609 -1.7354408,5.6174519 -6e-7,8.035443 z"
         transform="scale(-0.6,-0.6)" />
    </marker>
    <marker
       orient="auto"
       refY="0"
       refX="0"
       id="Arrow2Mend"
       style="overflow:visible">
      <path
         id="path4171"
         style="fill:#000000;fill-opacity:1;fill-rule:evenodd;stroke:#000000;stroke-width:0.625;stroke-linejoin:round;stroke-opacity:1"
         d="M 8.7185878,4.0337352 -2.2072895,0.01601326 8.7185884,-4.0017078 c -1.7454984,2.3720609 -1.7354408,5.6174519 -6e-7,8.035443 z"
         transform="scale(-0.6,-0.6)" />
    </marker>
    <marker
       orient="auto"
       refY="0"
       refX="0"
       id="marker6730"
       style="overflow:visible">
      <path
         id="path6732"
         d="M 0,0 5,-5 -12.5,0 5,5 0,0 Z"
         style="fill:#000000;fill-opacity:1;fill-rule:evenodd;stroke:#000000;stroke-width:1pt;stroke-opacity:1"
         transform="matrix(-0.8,0,0,-0.8,-10,0)" />
    </marker>
    <marker
       orient="auto"
       refY="0"
       refX="0"
       id="Arrow1Lstart"
       style="overflow:visible">
      <path
         id="path4144"
         d="M 0,0 5,-5 -12.5,0 5,5 0,0 Z"
         style="fill:#000000;fill-opacity:1;fill-rule:evenodd;stroke:#000000;stroke-width:1pt;stroke-opacity:1"
         transform="matrix(0.8,0,0,0.8,10,0)" />
    </marker>
  </defs>
  <metadata
     id="metadata7">
    <rdf:RDF>
      <cc:Work
         rdf:about="">
        <dc:format>image/svg+xml</dc:format>
        <dc:type
           rdf:resource="http://purl.org/dc/dcmitype/StillImage" />
        <dc:title />
      </cc:Work>
    </rdf:RDF>
  </metadata>
  <path
     id="path4136"
     d="m 49.320556,575.22276 0,-569.2977636"
     style="fill:none;fill-rule:evenodd;stroke:#000000;stroke-width:3.95932698;stroke-linecap:butt;stroke-linejoin:miter;stroke-miterlimit:4;stroke-dasharray:none;stroke-opacity:1;marker-end:url(#marker6850)" />
  <path
     id="path4138"
     d="m 0,531.24913 986.53186,0"
     style="fill:none;fill-rule:evenodd;stroke:#000000;stroke-width:4.29363441;stroke-linecap:butt;stroke-linejoin:miter;stroke-miterlimit:2.79999995;stroke-dasharray:none;stroke-opacity:1;marker-end:url(#Arrow2Mend)" />
  <path
     id="path6712"
     d="m 4.4844658,231.11772 c 0,0 142.8059342,212.41997 242.6832942,187.14356 99.87737,-25.2764 215.52295,-220.96836 297.66177,-211.47374 82.13881,9.49461 110.7357,219.99391 195.17115,268.44144 84.43545,48.44753 246.41648,28.48384 246.41648,28.48384"
     style="fill:none;fill-rule:evenodd;stroke:#0000ff;stroke-width:4.10826302;stroke-linecap:butt;stroke-linejoin:miter;stroke-miterlimit:4;stroke-dasharray:none;stroke-opacity:1" />
  <path
     id="rect4339-7-9-3"
     d="m 211.84038,384.3434 -5.82323,3.85597 0.004,0.008 -5.82262,3.85538 25.35323,28.10362 -0.006,-0.012 -13.70517,-35.81145 z"
     style="fill:#000000;fill-opacity:1;stroke:none;stroke-width:5;stroke-miterlimit:4;stroke-dasharray:none;stroke-opacity:1"
     inkscape:connector-curvature="0" />
  <g
     style="font-style:normal;font-weight:normal;font-size:40px;line-height:125%;font-family:sans-serif;letter-spacing:0px;word-spacing:0px;fill:#000000;fill-opacity:1;stroke:none;stroke-width:1px;stroke-linecap:butt;stroke-linejoin:miter;stroke-opacity:1"
     id="text4626">
    <path
       d="m 538.401,552.99802 q 0.48695,1.61739 0.92174,3.2 0.17391,0.67826 0.36521,1.4087 0.19131,0.73043 0.34783,1.46087 0.17391,0.73043 0.29565,1.42608 0.12174,0.67826 0.19131,1.26957 0.0174,0.1913 0.0348,0.43478 0.0174,0.24348 0.0174,0.53913 0,1.51304 -0.45217,2.93913 -0.43479,1.42609 -1.23479,2.73044 -0.78261,1.32174 -1.87826,2.52174 -1.07826,1.2 -2.36522,2.24347 -1.26956,1.06087 -2.69565,1.96522 -1.40869,0.90435 -2.86956,1.61739 l -1.51305,-3.06087 q 1.82609,-0.90435 3.54783,-2.10435 1.72174,-1.1826 3.06087,-2.5913 1.35652,-1.4087 2.17391,-2.9913 0.81739,-1.58261 0.81739,-3.26957 0,-0.087 -0.0174,-0.27826 -0.0174,-0.2087 -0.0348,-0.4 l 0,0.0174 q -0.0522,-0.53913 -0.17391,-1.16522 -0.12174,-0.64347 -0.27826,-1.30434 -0.15653,-0.67826 -0.33044,-1.33913 -0.17391,-0.67827 -0.34782,-1.30435 -0.4174,-1.46087 -0.88696,-2.92174 l 3.30435,-1.04348 z m 0.78261,-7.06087 -2.83479,2.83478 -2.85217,-2.85217 2.83478,-2.83478 2.85218,2.85217 z"
       style="font-style:normal;font-variant:normal;font-weight:normal;font-stretch:normal;font-family:IRANSans;-inkscape-font-specification:IRANSans"
       id="path4404" />
    <path
       d="m 507.88836,562.59802 q 0,-0.71304 0.48696,-1.18261 0.48695,-0.48695 1.2,-0.52174 l 0.0174,0 q 1.46087,0 2.46956,-0.46956 1.0087,-0.48696 1.75653,-1.26957 0.74782,-0.8 1.30434,-1.80869 0.55653,-1.02609 1.09566,-2.10435 0.45217,-0.93913 0.90434,-1.79131 0.45218,-0.85217 1.04348,-1.56521 1.56522,-1.91305 3.79131,-1.91305 2.62608,0 4.36521,2.10435 1.39131,1.66957 1.66957,4.19131 0.17391,1.2 0.0522,2.34782 -0.12174,1.14783 -0.50435,2.17391 -0.50434,1.25218 -1.33913,2.06957 -0.83478,0.8 -1.93043,1.09565 -1.94783,0.52174 -4.4,-0.46956 -1.68696,-0.66087 -3.53044,-2.01739 -0.12173,0.12173 -0.17391,0.15652 -2.5913,2.67826 -6.57391,2.67826 l -0.0174,0 q -0.71305,0 -1.2,-0.48696 -0.48696,-0.50435 -0.48696,-1.21739 z m 10.45217,-3.94783 q 1.58261,1.16522 2.88696,1.68696 1.30435,0.52174 2.17391,0.27826 0.29566,-0.0696 0.57392,-0.4 0.27826,-0.33043 0.46956,-0.85217 0.2087,-0.52174 0.27826,-1.2 0.087,-0.67826 -0.0174,-1.46087 -0.0174,-0.12174 -0.087,-0.41739 -0.0696,-0.29566 -0.2087,-0.66087 -0.12174,-0.36522 -0.33043,-0.74783 -0.2087,-0.4 -0.50435,-0.71304 -0.29565,-0.33044 -0.69565,-0.53913 -0.4,-0.2087 -0.92174,-0.2087 -0.34783,0 -0.66087,0.2087 -0.29566,0.1913 -0.6087,0.60869 -0.29565,0.41739 -0.64348,1.04348 -0.33043,0.62609 -0.76521,1.47826 l -0.93914,1.89565 z"
       style="font-style:normal;font-variant:normal;font-weight:normal;font-stretch:normal;font-family:IRANSans;-inkscape-font-specification:IRANSans"
       id="path4406" />
    <path
       d="m 509.6029,564.30237 q -1.91304,0 -3.28696,-0.45218 -1.35652,-0.45217 -2.29565,-1.3913 -0.57391,-0.57391 -0.88696,-1.23478 -0.29565,-0.66087 -0.45217,-1.30435 -0.13913,-0.64348 -0.15652,-1.21739 -0.0174,-0.59131 -0.0174,-1.0087 l 0,-0.33043 q 0,-0.0174 0.0174,-0.62609 0.0174,-0.62609 0.0174,-1.66956 0.0174,-1.06087 0.0174,-2.43479 0,-1.37391 -0.0174,-2.90434 0,-1.49566 -0.0348,-3.11305 -0.0348,-1.61739 -0.10435,-3.13043 -0.0696,-1.51305 -0.19131,-2.78261 -0.12173,-1.28696 -0.27826,-2.10435 l 3.4087,-0.62609 q 0.15652,0.88696 0.27826,2.17392 0.12174,1.28695 0.1913,2.8 0.087,1.51304 0.12174,3.16521 0.0348,1.63479 0.0348,3.2 0.0174,1.53044 0.0174,2.93913 0,1.4087 0,2.50435 0,1.09565 -0.0174,1.8087 0,0.71304 0,0.85217 l 0,0.31305 q -0.0174,0.76521 0.0522,1.35652 0.0696,0.57391 0.46957,0.95652 0.7826,0.81739 2.95652,0.83478 l 0.15652,0 q 0.34782,0 0.66087,0.13913 0.31304,0.13913 0.53913,0.38261 0.24348,0.22609 0.38261,0.53913 0.13913,0.31304 0.13913,0.66087 0,0.73044 -0.50435,1.21739 -0.50435,0.48696 -1.21739,0.48696 z"
       style="font-style:normal;font-variant:normal;font-weight:normal;font-stretch:normal;font-family:IRANSans;-inkscape-font-specification:IRANSans"
       id="path4408" />
    <path
       d="m 483.39977,576.26759 q -4.60869,0 -7.53043,-2.6087 -1.37391,-1.2 -2.22609,-2.81739 -0.83478,-1.61739 -1.11304,-3.54783 -0.17391,-1.06087 -0.15652,-2.13913 0.0174,-1.06087 0.13913,-2.05217 0.12174,-0.99131 0.33043,-1.86087 0.2087,-0.88696 0.41739,-1.58261 0.53913,-1.77391 1.16522,-3.02609 0.64348,-1.26956 1.06087,-1.87826 l 2.76522,2.03478 q -0.22609,0.31305 -0.52174,0.90435 -0.29565,0.57392 -0.6087,1.35652 -0.29565,0.76522 -0.57391,1.70435 -0.27826,0.93913 -0.46957,1.96522 -0.17391,1.0087 -0.22608,2.05217 -0.0522,1.04348 0.087,2.03479 0.0696,0.45217 0.27827,1.06087 0.20869,0.60869 0.5913,1.25217 0.4,0.64348 0.9913,1.26956 0.6087,0.64348 1.46087,1.14783 0.86957,0.52174 2,0.85217 1.14783,0.34783 2.64348,0.4174 0.087,0 0.0696,0 -0.0174,0.0174 -0.0522,0.0174 -0.0348,0 -0.0522,0 -0.0174,0 0.0696,-0.0174 3.68696,-0.15653 5.94783,-1.46087 2.26087,-1.30435 3.06087,-3.72174 0.45217,-1.49565 0.46957,-3.0087 0.0348,-1.51304 -0.2087,-2.90435 -0.22609,-1.3913 -0.64348,-2.5913 -0.4,-1.21739 -0.8,-2.10435 -0.4,-0.90435 -0.69565,-1.40869 -0.29565,-0.52174 -0.31304,-0.52174 l 2.88695,-1.84348 q 0.0522,0.087 0.43478,0.73043 0.38261,0.64348 0.86957,1.73913 0.48696,1.07826 0.97391,2.53913 0.48696,1.44348 0.74783,3.13044 0.26087,1.68696 0.1913,3.54783 -0.0522,1.86086 -0.66087,3.73913 -0.50434,1.63478 -1.49565,2.93913 -0.9913,1.32174 -2.45217,2.27826 -1.58261,1.09565 -3.61739,1.66956 -2.03479,0.57392 -4.55653,0.69565 -0.17391,0 -0.34782,0 -0.17391,0.0174 -0.33044,0.0174 z m 4.19131,-23.11305 -2.83478,2.83478 -2.85218,-2.85217 2.83478,-2.83478 2.85218,2.85217 z"
       style="font-style:normal;font-variant:normal;font-weight:normal;font-stretch:normal;font-family:IRANSans;-inkscape-font-specification:IRANSans"
       id="path4410" />
  </g>
  <path
     inkscape:connector-curvature="0"
     id="path6712-3"
     d="m 3.393566,230.12233 c 0,0 148.085424,77.79274 247.962784,52.51633 99.87737,-25.2764 144.61759,-55.02384 296.3419,-43.84964 92.30959,6.79843 164.3155,8.9411 196.49102,100.81734 56.71808,161.95677 246.41648,28.48384 246.41648,28.48384"
     style="fill:none;fill-rule:evenodd;stroke:#d40000;stroke-width:4.10826302;stroke-linecap:butt;stroke-linejoin:miter;stroke-miterlimit:4;stroke-dasharray:none;stroke-opacity:1"
     sodipodi:nodetypes="csssc" />
  <path
     inkscape:connector-curvature="0"
     id="path6712-6"
     d="m 7.3531905,227.48259 c 0,0 140.1661795,131.9076 240.0435395,106.63119 99.87737,-25.2764 -37.89302,-128.57712 320.09964,-245.790485 78.58091,-25.72883 71.13945,167.198915 155.5749,215.646445 84.43545,48.44753 267.53449,-40.14965 267.53449,-40.14965"
     style="fill:none;fill-rule:evenodd;stroke:#008000;stroke-width:4.10826302;stroke-linecap:butt;stroke-linejoin:miter;stroke-miterlimit:4;stroke-dasharray:none;stroke-opacity:1"
     sodipodi:nodetypes="csssc" />
  <path
     inkscape:connector-curvature="0"
     id="path6712-7"
     d="m 4.713438,220.88321 c 0,0 128.287312,306.13108 228.164672,280.85467 C 332.75548,476.46148 465.55943,-5.6433152 547.69825,3.8513048 629.83706,13.345915 713.86869,227.80484 798.30414,276.25237 c 84.43545,48.44753 196.26121,78.63908 196.26121,78.63908"
     style="fill:none;fill-rule:evenodd;stroke:#800080;stroke-width:4.10826302;stroke-linecap:butt;stroke-linejoin:miter;stroke-miterlimit:4;stroke-dasharray:none;stroke-opacity:1"
     sodipodi:nodetypes="csssc" />
  <path
     id="rect4339-7-9-3-5"
     d="m 174.09607,446.52849 -6.75502,1.77436 0.001,0.009 -6.75425,1.77399 14.94753,34.77314 -0.002,-0.0133 -1.43731,-38.31744 z"
     style="fill:#000000;fill-opacity:1;stroke:none;stroke-width:5;stroke-miterlimit:4;stroke-dasharray:none;stroke-opacity:1"
     inkscape:connector-curvature="0"
     inkscape:transform-center-x="-63.791457"
     inkscape:transform-center-y="-41.555601" />
  <path
     id="rect4339-7-9-3-3"
     d="m 244.8197,298.81706 0.006,6.98416 0.009,8.7e-4 0.006,6.98333 37.42503,-5.65389 -0.0133,-0.002 -37.4323,-8.3135 z"
     style="fill:#000000;fill-opacity:1;stroke:none;stroke-width:5;stroke-miterlimit:4;stroke-dasharray:none;stroke-opacity:1"
     inkscape:connector-curvature="0" />
  <path
     id="rect4339-7-9-3-56"
     d="m 116.46945,230.15036 -6.87614,-1.2236 -0.002,0.009 -6.8753,-1.2236 -1.02166,37.8359 0.004,-0.0128 14.77226,-35.38463 z"
     style="fill:#000000;fill-opacity:1;stroke:none;stroke-width:5;stroke-miterlimit:4;stroke-dasharray:none;stroke-opacity:1"
     inkscape:connector-curvature="0"
     inkscape:transform-center-x="-61.566983"
     inkscape:transform-center-y="15.894671" />
  <g
     style="font-style:normal;font-weight:normal;font-size:40px;line-height:125%;font-family:sans-serif;letter-spacing:0px;word-spacing:0px;fill:#000000;fill-opacity:1;stroke:none;stroke-width:1px;stroke-linecap:butt;stroke-linejoin:miter;stroke-opacity:1"
     id="text4626-2">
    <path
       d="m 284.76176,69.498899 -2.81739,2.817392 -2.85217,-2.834783 2.81739,-2.834782 2.85217,2.852173 z m 7.13044,0.01739 -2.8174,2.834782 -2.85217,-2.852174 2.81739,-2.817391 2.85218,2.834783 z m -16.10435,19.947826 q 0,-0.730435 0.50435,-1.217391 0.48695,-0.486957 1.2,-0.486957 l 1.93043,0 q 0.6087,0.01739 1.32174,0.01739 0.71304,-0.01739 1.44348,-0.08696 0.73043,-0.06956 1.42608,-0.191305 0.71305,-0.13913 1.30435,-0.365217 0.59131,-0.243478 1.04348,-0.591304 0.45217,-0.347826 0.67826,-0.834783 0.34783,-0.747826 0.19131,-2.121739 -0.13913,-1.391304 -0.69566,-3.234783 -0.1913,-0.556521 -0.45217,-1.2 -0.24348,-0.660869 -0.48696,-1.217391 -0.27826,-0.66087 -0.57391,-1.304348 l 3.09565,-1.530435 q 0,0.01739 0.15652,0.365218 0.17392,0.330435 0.4174,0.904348 0.24347,0.573913 0.53913,1.33913 0.29565,0.747826 0.55652,1.6 1.61739,4.991304 0.4,7.791304 -1.23479,2.8 -4.38261,3.686957 -0.46957,0.13913 -1.2,0.226087 -0.73044,0.06956 -1.49565,0.104348 -0.76522,0.03478 -1.46087,0.05217 -0.69566,0 -1.07826,0 l -2.52174,0 -0.15652,0 q -0.71305,0 -1.2,-0.486957 -0.50435,-0.486956 -0.50435,-1.217391 z"
       style="font-style:normal;font-variant:normal;font-weight:normal;font-stretch:normal;font-family:IRANSans;-inkscape-font-specification:IRANSans"
       id="path4488" />
    <path
       d="m 261.3672,100.02064 q 2.67826,-0.539132 4.8,-1.495654 2.12173,-0.956521 3.63478,-2.156521 1.51304,-1.2 2.38261,-2.556522 0.88695,-1.339131 1.07826,-2.643478 -0.73044,0.01739 -1.73913,0 -0.99131,0 -1.94783,-0.08696 -3.77391,-0.243478 -5.58261,-2.469565 -0.8,-1.008696 -1.02608,-2.330435 -0.2087,-1.321739 -0.0174,-2.695652 0.2087,-1.391304 0.74783,-2.678261 0.53913,-1.304348 1.26957,-2.243478 0.86956,-1.095652 1.91304,-1.652174 1.04348,-0.573913 2.15652,-0.573913 2.46957,0 4.53913,2.226087 0.73044,0.817391 1.32174,1.843478 0.5913,1.026087 1.0087,2.208696 0.41739,1.165217 0.66087,2.452174 0.24347,1.269565 0.27826,2.591304 l 1.30434,0 q 0.36522,0 0.67826,0.13913 0.31305,0.12174 0.53914,0.365218 0.24347,0.226087 0.3826,0.53913 0.13913,0.313044 0.13913,0.678261 0,0.347826 -0.13913,0.66087 -0.13913,0.295652 -0.3826,0.53913 -0.22609,0.226087 -0.53914,0.365218 -0.31304,0.121739 -0.67826,0.121739 l -1.56521,0 q -0.52174,2.573913 -1.89566,4.643478 -1.35652,2.086956 -3.30434,3.634783 -1.93044,1.547824 -4.31305,2.539134 -2.38261,0.9913 -4.90434,1.3913 l -0.8,-3.35652 z m 7.66956,-20.156523 q -0.50435,0 -0.95652,0.4 -0.45218,0.382609 -0.81739,0.991304 -0.34783,0.608696 -0.59131,1.373913 -0.24348,0.747826 -0.34782,1.495652 -0.087,0.730435 0,1.373913 0.087,0.626087 0.38261,0.991305 0.26087,0.347826 0.66087,0.573913 0.4,0.208695 0.83478,0.347826 0.43478,0.121739 0.85217,0.191304 0.43478,0.05217 0.74783,0.06956 1.09565,0.06957 2,0.05217 0.92174,-0.01739 1.6,-0.06956 -0.0522,-1.095652 -0.26087,-2.086956 -0.2087,-1.008696 -0.53913,-1.86087 -0.31305,-0.852174 -0.73044,-1.530435 -0.41739,-0.695652 -0.85217,-1.2 -0.17391,-0.173913 -0.4,-0.365217 -0.2087,-0.208696 -0.46957,-0.365217 -0.24347,-0.173914 -0.53913,-0.278261 -0.27826,-0.104348 -0.57391,-0.104348 z"
       style="font-style:normal;font-variant:normal;font-weight:normal;font-stretch:normal;font-family:IRANSans;-inkscape-font-specification:IRANSans"
       id="path4490" />
    <path
       d="m 257.1138,63.707595 q 0.76522,7.078261 0.88696,12.66087 0.1913,9.217391 -0.27827,14.956521 l -3.42608,-0.191304 q 0.55652,-7.73913 0.34782,-12.991304 -0.34782,-8.434783 -0.93913,-13.913044 l 3.4087,-0.521739 z"
       style="font-style:normal;font-variant:normal;font-weight:normal;font-stretch:normal;font-family:IRANSans;-inkscape-font-specification:IRANSans"
       id="path4492" />
    <path
       d="m 236.30959,89.464117 q 0,-0.730435 0.50434,-1.217391 0.48696,-0.486957 1.2,-0.486957 l 1.79131,0 q 0.92174,0.03478 1.77391,0 0.85218,-0.05217 1.56522,-0.26087 0.71304,-0.208695 1.25217,-0.626087 0.55652,-0.434782 0.90435,-1.165217 0.34783,-0.747826 0.19131,-2.121739 -0.13914,-1.391304 -0.69566,-3.234783 -0.1913,-0.556521 -0.45217,-1.2 -0.24348,-0.660869 -0.48696,-1.217391 -0.27826,-0.66087 -0.57391,-1.304348 l 3.09565,-1.530435 q 0,0.01739 0.15652,0.365218 0.17392,0.330435 0.41739,0.904348 0.24348,0.573913 0.53914,1.33913 0.29565,0.747826 0.55652,1.6 1.61739,4.991304 0.4,7.791304 -1.23479,2.8 -4.38261,3.686957 -0.93913,0.278261 -1.84348,0.330435 -0.88696,0.05217 -1.66957,0.05217 l -2.3826,0 -0.15653,0 q -0.71304,0 -1.2,-0.486957 -0.50434,-0.486956 -0.50434,-1.217391 z m 9.77391,8.243478 -2.83478,2.834785 -2.85218,-2.852176 2.83479,-2.834783 2.85217,2.852174 z"
       style="font-style:normal;font-variant:normal;font-weight:normal;font-stretch:normal;font-family:IRANSans;-inkscape-font-specification:IRANSans"
       id="path4494" />
    <path
       d="m 226.17671,101.37716 q 1.04347,0.15652 2.34782,0.15652 1.32174,0 2.69565,-0.22608 1.39131,-0.22609 2.73044,-0.71305 1.33913,-0.48695 2.41739,-1.269564 l 1.77391,2.956524 q -1.26956,0.76522 -2.34782,1.26956 -1.07826,0.52174 -2.15652,0.83479 -1.07827,0.31304 -2.24348,0.43478 -1.16522,0.13913 -2.6087,0.13913 -1.6,0 -3.26956,-0.29565 -1.65218,-0.27826 -3.18261,-0.93913 -1.53044,-0.64348 -2.85218,-1.70435 -1.30434,-1.06087 -2.20869,-2.608697 -0.57391,-0.956522 -0.83478,-2.156522 -0.26087,-1.2 -0.24348,-2.452174 0.0174,-1.234782 0.29565,-2.434782 0.27826,-1.182609 0.78261,-2.121739 0.53913,-0.956522 1.30435,-1.808696 0.7826,-0.869565 1.68695,-1.582609 0.92174,-0.730435 1.94783,-1.304348 1.02609,-0.591304 2.05217,-1.008695 -1.30435,-1.182609 -2.34782,-2.26087 -1.04348,-1.095652 -1.77392,-1.895652 l -0.45217,-0.521739 -0.2087,-2.121739 q 0.55653,-0.852174 1.35653,-1.46087 0.8,-0.626087 1.65217,-1.060869 0.86956,-0.434783 1.70435,-0.695653 0.83478,-0.27826 1.46087,-0.434782 0.95652,-0.208696 1.93043,-0.313044 0.97391,-0.121739 1.89565,-0.104348 0.93913,0 1.79131,0.139131 0.86956,0.121739 1.6,0.365217 1.82609,0.556522 2.78261,1.686957 0.95652,1.130435 0.90434,2.660869 -0.0696,3.008696 -2.71304,5.095653 -1.30435,1.026087 -2.88696,1.756521 1.68696,1.026087 3.47827,1.704348 1.7913,0.678261 3.66956,0.678261 0.34783,0 0.66087,0.156522 0.31304,0.13913 0.53913,0.382608 0.22609,0.226087 0.34783,0.539131 0.13913,0.295652 0.13913,0.643478 0,0.730435 -0.48696,1.217391 -0.48696,0.469566 -1.2,0.486957 -1.42609,0 -2.8,-0.295652 -1.37391,-0.313044 -2.73043,-0.869565 -1.33913,-0.556522 -2.67826,-1.32174 -1.32174,-0.782608 -2.66087,-1.721739 -1.33913,0.521739 -2.69566,1.217392 -1.35652,0.695652 -2.45217,1.634782 -1.09565,0.939131 -1.7913,2.139131 -0.69566,1.217391 -0.69566,2.782608 0,0.869566 0.31305,1.669566 0.31304,0.817391 0.83478,1.513043 0.53913,0.713044 1.21739,1.304348 0.67826,0.591304 1.4087,1.02609 0.73043,0.45217 1.44347,0.73043 0.73044,0.29565 1.35653,0.38261 z m -2.86957,-22.660869 q 0.86957,0.904348 1.96522,2.034782 1.11304,1.130435 2.48695,2.278261 1.28696,-0.53913 2.27827,-1.043478 0.9913,-0.504348 1.66956,-1.043478 0.67826,-0.556522 1.02609,-1.165218 0.34782,-0.608695 0.38261,-1.33913 0,-0.173913 -0.12174,-0.330435 -0.10435,-0.156522 -0.29565,-0.278261 -0.17392,-0.13913 -0.4,-0.226087 -0.22609,-0.104348 -0.43479,-0.173913 -0.97391,-0.295652 -2.13913,-0.330435 -1.16522,-0.03478 -2.34782,0.156522 -1.16522,0.191305 -2.24348,0.573913 -1.06087,0.365218 -1.82609,0.886957 z"
       style="font-style:normal;font-variant:normal;font-weight:normal;font-stretch:normal;font-family:IRANSans;-inkscape-font-specification:IRANSans"
       id="path4496" />
    <path
       d="m 189.12209,89.464117 q 0,-0.730435 0.50434,-1.217391 0.48696,-0.486957 1.2,-0.486957 l 1.79131,0 q 0.92174,0.03478 1.77391,0 0.85218,-0.05217 1.56522,-0.26087 0.71304,-0.208695 1.25217,-0.626087 0.55652,-0.434782 0.90435,-1.165217 0.34783,-0.747826 0.19131,-2.121739 -0.13914,-1.391304 -0.69566,-3.234783 -0.1913,-0.556521 -0.45217,-1.2 -0.24348,-0.660869 -0.48696,-1.217391 -0.27826,-0.66087 -0.57391,-1.304348 l 3.09565,-1.530435 q 0,0.01739 0.15652,0.365218 0.17392,0.330435 0.41739,0.904348 0.24348,0.573913 0.53914,1.33913 0.29565,0.747826 0.55652,1.6 1.61739,4.991304 0.4,7.791304 -1.23479,2.8 -4.38261,3.686957 -0.93913,0.278261 -1.84348,0.330435 -0.88696,0.05217 -1.66957,0.05217 l -2.3826,0 -0.15653,0 q -0.71304,0 -1.2,-0.486957 -0.50434,-0.486956 -0.50434,-1.217391 z m 10.4,-20 -2.83479,2.834782 -2.85217,-2.852173 2.83478,-2.834783 2.85218,2.852174 z"
       style="font-style:normal;font-variant:normal;font-weight:normal;font-stretch:normal;font-family:IRANSans;-inkscape-font-specification:IRANSans"
       id="path4498" />
    <path
       d="m 182.9316,87.655421 q 1.37391,0.243478 1.98261,-0.608695 0.46956,-0.678261 0.45217,-1.965218 -0.0174,-0.330435 -0.0174,-0.626087 l -0.0174,-0.173913 q -0.15652,-1.547826 -1.04348,-2.730435 -0.92174,-1.252174 -2.03478,-1.252174 -0.90435,0 -1.98261,1.947827 -0.34783,0.626086 -0.86957,1.73913 l -0.20869,0.417391 -0.19131,0.417392 q -0.20869,0.469565 -0.36521,0.765217 2.5913,1.73913 4.29565,2.069565 z m 7.91304,0.104348 q 0.71304,0 1.21739,0.504348 0.48696,0.504348 0.48696,1.2 0,0.713043 -0.48696,1.2 -0.50435,0.504348 -1.21739,0.504348 -2.55652,0 -3.89565,-1.721739 -1.44348,1.913043 -3.61739,1.617391 -3.46087,-0.452174 -6.73044,-2.713044 -0.45217,0.713044 -1.46087,1.408696 -1.98261,1.408696 -4.69565,1.408696 -0.71304,0 -1.2,-0.504348 -0.50435,-0.486957 -0.50435,-1.2 0,-0.695652 0.50435,-1.2 0.48696,-0.504348 1.2,-0.504348 2.46957,0 4.36522,-2.521739 0.62609,-0.852174 1.26956,-2.104348 0.19131,-0.382609 0.46957,-0.956522 l 0.10435,-0.226087 0.10434,-0.208695 q 0.10435,-0.208696 0.17392,-0.365218 l 0.41739,-0.8 q 0.24348,-0.452174 0.45217,-0.8 0.52174,-0.886956 1.06087,-1.443478 1.37392,-1.46087 3.39131,-1.46087 2.36521,0 4.08695,1.947827 1.6,1.826087 2.01739,4.573913 0.12174,0.8 0.0696,1.686956 0.13913,1.234783 0.78261,2.017391 0.55652,0.66087 1.63478,0.66087 z"
       style="font-style:normal;font-variant:normal;font-weight:normal;font-stretch:normal;font-family:IRANSans;-inkscape-font-specification:IRANSans"
       id="path4500" />
    <path
       d="m 153.71095,100.02064 q 2.67826,-0.539132 4.8,-1.495654 2.12173,-0.956521 3.63478,-2.156521 1.51304,-1.2 2.38261,-2.556522 0.88695,-1.339131 1.07826,-2.643478 -0.73044,0.01739 -1.73913,0 -0.99131,0 -1.94783,-0.08696 -3.77391,-0.243478 -5.58261,-2.469565 -0.8,-1.008696 -1.02608,-2.330435 -0.2087,-1.321739 -0.0174,-2.695652 0.2087,-1.391304 0.74783,-2.678261 0.53913,-1.304348 1.26957,-2.243478 0.86956,-1.095652 1.91304,-1.652174 1.04348,-0.573913 2.15652,-0.573913 2.46957,0 4.53913,2.226087 0.73044,0.817391 1.32174,1.843478 0.5913,1.026087 1.0087,2.208696 0.41739,1.165217 0.66087,2.452174 0.24347,1.269565 0.27826,2.591304 l 1.30434,0 q 0.36522,0 0.67826,0.13913 0.31305,0.12174 0.53914,0.365218 0.24347,0.226087 0.3826,0.53913 0.13913,0.313044 0.13913,0.678261 0,0.347826 -0.13913,0.66087 -0.13913,0.295652 -0.3826,0.53913 -0.22609,0.226087 -0.53914,0.365218 -0.31304,0.121739 -0.67826,0.121739 l -1.56521,0 q -0.52174,2.573913 -1.89566,4.643478 -1.35652,2.086956 -3.30434,3.634783 -1.93044,1.547824 -4.31305,2.539134 -2.38261,0.9913 -4.90434,1.3913 l -0.8,-3.35652 z m 7.66956,-20.156523 q -0.50435,0 -0.95652,0.4 -0.45218,0.382609 -0.81739,0.991304 -0.34783,0.608696 -0.59131,1.373913 -0.24348,0.747826 -0.34782,1.495652 -0.087,0.730435 0,1.373913 0.087,0.626087 0.38261,0.991305 0.26087,0.347826 0.66087,0.573913 0.4,0.208695 0.83478,0.347826 0.43478,0.121739 0.85217,0.191304 0.43478,0.05217 0.74783,0.06956 1.09565,0.06957 2,0.05217 0.92174,-0.01739 1.6,-0.06956 -0.0522,-1.095652 -0.26087,-2.086956 -0.2087,-1.008696 -0.53913,-1.86087 -0.31305,-0.852174 -0.73044,-1.530435 -0.41739,-0.695652 -0.85217,-1.2 -0.17391,-0.173913 -0.4,-0.365217 -0.2087,-0.208696 -0.46957,-0.365217 -0.24347,-0.173914 -0.53913,-0.278261 -0.27826,-0.104348 -0.57391,-0.104348 z"
       style="font-style:normal;font-variant:normal;font-weight:normal;font-stretch:normal;font-family:IRANSans;-inkscape-font-specification:IRANSans"
       id="path4502" />
    <path
       d="m 138.26271,89.464117 q 0,-0.730435 0.50435,-1.217391 0.48696,-0.486957 1.2,-0.486957 l 1.7913,0 q 0.92174,0.03478 1.77392,0 0.85217,-0.05217 1.56521,-0.26087 0.71305,-0.208695 1.25218,-0.626087 0.55652,-0.434782 0.90435,-1.165217 0.34782,-0.747826 0.1913,-2.121739 -0.13913,-1.391304 -0.69565,-3.234783 -0.19131,-0.556521 -0.45218,-1.2 -0.24347,-0.660869 -0.48695,-1.217391 -0.27826,-0.66087 -0.57392,-1.304348 l 3.09566,-1.530435 q 0,0.01739 0.15652,0.365218 0.17391,0.330435 0.41739,0.904348 0.24348,0.573913 0.53913,1.33913 0.29565,0.747826 0.55652,1.6 1.61739,4.991304 0.4,7.791304 -1.23478,2.8 -4.38261,3.686957 -0.93913,0.278261 -1.84347,0.330435 -0.88696,0.05217 -1.66957,0.05217 l -2.38261,0 -0.15652,0 q -0.71304,0 -1.2,-0.486957 -0.50435,-0.486956 -0.50435,-1.217391 z m 10.4,-20 -2.83478,2.834782 -2.85217,-2.852173 2.83478,-2.834783 2.85217,2.852174 z"
       style="font-style:normal;font-variant:normal;font-weight:normal;font-stretch:normal;font-family:IRANSans;-inkscape-font-specification:IRANSans"
       id="path4504" />
    <path
       d="m 132.26964,78.959769 q -0.41739,0.173913 -0.9913,0.434783 -0.57392,0.243478 -1.2,0.573913 -0.6087,0.313043 -1.21739,0.713043 -0.59131,0.382609 -1.07827,0.834783 -0.46956,0.434782 -0.76521,0.956521 -0.29566,0.504348 -0.29566,1.06087 0,0.573913 0.34783,0.93913 0.36522,0.347827 0.92174,0.556522 0.57391,0.191305 1.28696,0.26087 0.71304,0.06956 1.42608,0.06956 0.73044,-0.01739 1.37392,-0.08696 0.66087,-0.06956 1.11304,-0.156521 -0.2087,-1.008696 -0.43478,-2.469565 -0.2087,-1.46087 -0.48696,-3.686957 z m -1.70435,9.773913 q -4.48695,0 -6.24348,-2.173913 -0.48695,-0.591304 -0.69565,-1.252174 -0.1913,-0.678261 -0.22608,-1.321739 -0.0174,-0.643478 0.087,-1.2 0.10435,-0.556522 0.26087,-0.921739 0.46957,-0.973913 1.11305,-1.791305 0.66086,-0.817391 1.3913,-1.460869 0.74783,-0.66087 1.53043,-1.165217 0.8,-0.52174 1.53044,-0.904348 0.74783,-0.382609 1.40869,-0.66087 0.66087,-0.278261 1.14783,-0.452174 -0.13913,-1.321739 -0.20869,-1.930435 -0.0522,-0.626087 -0.0522,-0.643478 l 3.4087,-0.713043 0,-0.01739 q 0.0174,0.156522 0.0696,0.643479 0.0522,0.486956 0.12174,1.165217 0.0696,0.66087 0.13913,1.426087 0.087,0.747826 0.15652,1.408696 0.0696,0.660869 0.12174,1.147826 0.0522,0.486956 0.0696,0.608695 0.26087,2.243479 0.48695,3.669566 0.22609,1.426087 0.4,2.27826 0.17392,0.834783 0.27827,1.2 0.12173,0.365218 0.17391,0.469566 0.20869,0.469565 0.46956,0.782608 0.27826,0.313044 0.64348,0.504348 0.36522,0.173913 0.83478,0.26087 0.46957,0.06957 1.07827,0.06957 0.71304,0 1.21739,0.486957 0.50434,0.486956 0.50434,1.217391 0,0.347826 -0.13913,0.660869 -0.13913,0.313044 -0.3826,0.556522 -0.22609,0.226087 -0.53914,0.365218 -0.31304,0.121739 -0.66086,0.121739 -0.66087,0 -1.58261,-0.104348 -0.90435,-0.121739 -1.8087,-0.539131 -1.3913,-0.660869 -2.29565,-2.121739 -1.07826,0.173913 -2.01739,0.26087 -0.93913,0.06956 -1.79131,0.06956 z"
       style="font-style:normal;font-variant:normal;font-weight:normal;font-stretch:normal;font-family:IRANSans;-inkscape-font-specification:IRANSans"
       id="path4506" />
  </g>
  <path
     style="fill:none;fill-rule:evenodd;stroke:#000000;stroke-width:1px;stroke-linecap:butt;stroke-linejoin:miter;stroke-opacity:1"
     d="M 137.26698,105.34733 108.22974,233.37519"
     id="path4318"
     inkscape:connector-curvature="0" />
  <path
     style="fill:none;fill-rule:evenodd;stroke:#000000;stroke-width:1px;stroke-linecap:butt;stroke-linejoin:miter;stroke-opacity:1"
     d="m 153.10548,105.34733 c 0,0 -20.93963,163.142 -15.8385,221.73897 5.10113,58.59697 31.677,126.70799 31.677,126.70799"
     id="path4320"
     inkscape:connector-curvature="0"
     sodipodi:nodetypes="czc" />
  <path
     style="fill:none;fill-rule:evenodd;stroke:#000000;stroke-width:1px;stroke-linecap:butt;stroke-linejoin:miter;stroke-opacity:1"
     d="m 162.3446,105.34733 c 0,0 -7.24794,158.73078 4.61956,205.90047 11.86751,47.16969 38.93631,76.55274 38.93631,76.55274"
     id="path4322"
     inkscape:connector-curvature="0"
     sodipodi:nodetypes="czc" />
  <path
     style="fill:none;fill-rule:evenodd;stroke:#000000;stroke-width:1px;stroke-linecap:butt;stroke-linejoin:miter;stroke-opacity:1"
     d="m 187.42223,107.98708 c 0,0 2.23129,118.0185 15.17856,151.12567 12.94726,33.10716 44.2158,48.17543 44.2158,48.17543"
     id="path4324"
     inkscape:connector-curvature="0"
     sodipodi:nodetypes="czc" />
  <g
     style="font-style:normal;font-weight:normal;font-size:40px;line-height:125%;font-family:sans-serif;letter-spacing:0px;word-spacing:0px;fill:#000000;fill-opacity:1;stroke:none;stroke-width:1px;stroke-linecap:butt;stroke-linejoin:miter;stroke-opacity:1"
     id="text4626-2-1">
    <path
       d="m 971.25316,48.876247 q -0.83478,0 -1.98261,-0.208695 -1.13043,-0.208696 -2.26087,-0.521739 -1.13043,-0.330435 -2.06956,-0.730435 -0.93913,-0.4 -1.37391,-0.8 l 1.42608,-3.269565 q 0.64348,0.417391 1.54783,0.817391 0.90435,0.382609 1.93043,0.678261 1.02609,0.278261 2.10435,0.417391 1.09565,0.13913 2.10435,0.05217 1.0087,-0.08696 1.87826,-0.434783 0.86957,-0.347826 1.46087,-1.060869 0.46957,-0.539131 0.12174,-2.017392 -0.1913,-0.852173 -0.62609,-1.773913 -0.41739,-0.93913 -1.02608,-1.860869 -0.59131,-0.939131 -1.32174,-1.826087 -0.73044,-0.886957 -1.53044,-1.634783 -0.78261,-0.765217 -1.6,-1.356521 -0.81739,-0.591305 -1.6,-0.939131 l 1.4087,-3.165217 q 1.02608,0.469565 2.06956,1.217391 1.04348,0.747826 2.01739,1.686957 0.99131,0.93913 1.87826,2.034782 0.90435,1.078261 1.63479,2.243478 0.73043,1.147826 1.26956,2.313044 0.53913,1.165217 0.8,2.278261 0.2087,0.973913 0.2087,1.756521 0,0.782609 -0.15652,1.391305 -0.13913,0.608695 -0.38261,1.060869 -0.24348,0.452174 -0.52174,0.782609 -1.6,1.930435 -4.46957,2.556522 -0.66087,0.173913 -1.3913,0.243478 -0.73044,0.06956 -1.54783,0.06956 z"
       style="font-style:normal;font-variant:normal;font-weight:normal;font-stretch:normal;font-family:IRANSans;-inkscape-font-specification:IRANSans"
       id="path4463" />
    <path
       d="m 957.47558,37.589291 q 0.48696,1.617391 0.92174,3.2 0.17391,0.678261 0.36522,1.408695 0.1913,0.730435 0.34782,1.46087 0.17392,0.730435 0.29566,1.426087 0.12174,0.678261 0.1913,1.269565 0.0174,0.191305 0.0348,0.434783 0.0174,0.243478 0.0174,0.53913 0,1.513044 -0.45217,2.939131 -0.43478,1.426087 -1.23478,2.730434 -0.78261,1.32174 -1.87826,2.52174 -1.07826,1.2 -2.36522,2.243478 -1.26957,1.060869 -2.69565,1.965217 -1.4087,0.904348 -2.86957,1.617392 l -1.51304,-3.06087 q 1.82609,-0.904348 3.54783,-2.104348 1.72173,-1.182609 3.06086,-2.591304 1.35653,-1.408696 2.17392,-2.991305 0.81739,-1.582608 0.81739,-3.269565 0,-0.08696 -0.0174,-0.278261 -0.0174,-0.208695 -0.0348,-0.4 l 0,0.01739 q -0.0522,-0.539131 -0.17392,-1.165218 -0.12174,-0.643478 -0.27826,-1.304348 -0.15652,-0.67826 -0.33043,-1.33913 -0.17392,-0.678261 -0.34783,-1.304348 -0.41739,-1.460869 -0.88696,-2.921739 l 3.30435,-1.043478 z"
       style="font-style:normal;font-variant:normal;font-weight:normal;font-stretch:normal;font-family:IRANSans;-inkscape-font-specification:IRANSans"
       id="path4465" />
    <path
       d="m 917.70982,45.624073 q 0.92174,0.104348 2.03478,0.156522 1.13044,0.03478 2.31305,0 1.2,-0.03478 2.41739,-0.156522 1.23478,-0.13913 2.36522,-0.4 1.14782,-0.27826 2.13913,-0.695652 0.9913,-0.434782 1.73913,-1.043478 1.40869,-1.147826 1.56521,-2.973913 0,-0.365217 -0.10434,-0.695652 -0.087,-0.347826 -0.22609,-0.626087 -0.13913,-0.295652 -0.31304,-0.521739 -0.17392,-0.226087 -0.31305,-0.365218 -0.50435,-0.521739 -1.06087,-0.8 -0.55652,-0.278261 -1.13043,-0.382608 -0.55652,-0.104348 -1.11305,-0.06957 -0.55652,0.01739 -1.02608,0.08696 -1.37392,0.278261 -2.74783,1.008696 -1.35652,0.713043 -2.53913,1.843478 -0.8,0.765217 -1.44348,1.582608 -0.64348,0.8 -1.14782,1.565218 -0.48696,0.747826 -0.83479,1.408696 -0.34782,0.643478 -0.57391,1.07826 z m -15.23478,1.565218 q 0,-0.730435 0.50435,-1.217392 0.50434,-0.486956 1.21739,-0.486956 1.04348,0 1.77391,-0.156522 0.74783,-0.173913 1.25217,-0.417391 0.50435,-0.243478 0.8174,-0.521739 0.31304,-0.295652 0.50434,-0.556522 0.6087,-0.817391 0.90435,-1.947826 0.29565,-1.147826 0.57391,-2.469565 0.13913,-0.747826 0.29566,-1.443479 0.15652,-0.695652 0.38261,-1.373913 l 3.28695,0.991305 q -0.13913,0.347826 -0.22609,0.713043 -0.0696,0.347826 -0.15652,0.713044 l 0.0174,0 q -0.0696,0.347826 -0.15652,1.008695 -0.0696,0.66087 -0.0348,1.426087 0.0522,0.765218 0.26087,1.565218 0.22609,0.8 0.73043,1.443478 0.22609,-0.504348 0.62609,-1.286957 0.41739,-0.782608 1.02609,-1.721739 0.60869,-0.93913 1.40869,-1.947826 0.8174,-1.026087 1.84348,-2 0.76522,-0.730435 1.61739,-1.33913 0.85218,-0.626087 1.75653,-1.095652 0.92173,-0.486957 1.84347,-0.8 0.93913,-0.330435 1.86087,-0.486957 2.22609,-0.434782 4.10435,0.121739 1.89565,0.556522 3.30435,2.017392 1.02609,1.043478 1.49565,2.27826 0.48696,1.217392 0.4,2.539131 -0.20869,3.321739 -2.8,5.408696 -1.18261,0.956521 -2.64348,1.565217 -1.46087,0.608696 -3.02608,0.956522 -1.54783,0.330434 -3.11305,0.452174 -1.56522,0.121739 -2.95652,0.121739 -1.61739,0 -2.81739,-0.104348 -1.18261,-0.08696 -1.68696,-0.173913 -1.40869,-0.139131 -2.60869,-0.66087 -0.36522,-0.173913 -0.71305,-0.365217 -0.33043,-0.208696 -0.67826,-0.486957 -0.33043,-0.278261 -0.69565,-0.643478 -0.34783,-0.382609 -0.73043,-0.886956 -1.09566,1.530434 -2.8,2.243478 -1.70435,0.713043 -4.08696,0.730435 l -0.15652,0 q -0.71305,0 -1.21739,-0.486957 -0.50435,-0.486956 -0.50435,-1.217391 z"
       style="font-style:normal;font-variant:normal;font-weight:normal;font-stretch:normal;font-family:IRANSans;-inkscape-font-specification:IRANSans"
       id="path4467" />
    <path
       d="m 887.4283,57.745813 q 2.67826,-0.539131 4.8,-1.495653 2.12174,-0.956521 3.63478,-2.156521 1.51305,-1.2 2.38261,-2.556522 0.88696,-1.339131 1.07826,-2.643478 -0.73043,0.01739 -1.73913,0 -0.9913,0 -1.94783,-0.08696 -3.77391,-0.243478 -5.5826,-2.469565 -0.8,-1.008696 -1.02609,-2.330435 -0.2087,-1.321739 -0.0174,-2.695652 0.20869,-1.391304 0.74782,-2.678261 0.53913,-1.304348 1.26957,-2.243478 0.86956,-1.095652 1.91304,-1.652174 1.04348,-0.573913 2.15652,-0.573913 2.46957,0 4.53913,2.226087 0.73044,0.817391 1.32174,1.843478 0.59131,1.026087 1.0087,2.208696 0.41739,1.165217 0.66087,2.452174 0.24348,1.269565 0.27826,2.591304 l 1.30435,0 q 0.36522,0 0.67826,0.13913 0.31304,0.12174 0.53913,0.365218 0.24348,0.226087 0.38261,0.53913 0.13913,0.313044 0.13913,0.678261 0,0.347826 -0.13913,0.66087 -0.13913,0.295652 -0.38261,0.53913 -0.22609,0.226087 -0.53913,0.365217 -0.31304,0.12174 -0.67826,0.12174 l -1.56522,0 q -0.52174,2.573913 -1.89565,4.643478 -1.35652,2.086956 -3.30435,3.634782 -1.93043,1.547827 -4.31304,2.539131 -2.38261,0.991304 -4.90435,1.391304 l -0.8,-3.356521 z m 7.66956,-20.156522 q -0.50434,0 -0.95652,0.4 -0.45217,0.382608 -0.81739,0.991304 -0.34782,0.608696 -0.5913,1.373913 -0.24348,0.747826 -0.34783,1.495652 -0.087,0.730435 0,1.373913 0.087,0.626087 0.38261,0.991305 0.26087,0.347826 0.66087,0.573913 0.4,0.208695 0.83478,0.347826 0.43478,0.121739 0.85218,0.191304 0.43478,0.05217 0.74782,0.06957 1.09565,0.06957 2,0.05217 0.92174,-0.01739 1.6,-0.06956 -0.0522,-1.095652 -0.26087,-2.086956 -0.20869,-1.008696 -0.53913,-1.86087 -0.31304,-0.852174 -0.73043,-1.530435 -0.41739,-0.695652 -0.85218,-1.2 -0.17391,-0.173913 -0.4,-0.365217 -0.20869,-0.208696 -0.46956,-0.365218 -0.24348,-0.173913 -0.53913,-0.27826 -0.27826,-0.104348 -0.57392,-0.104348 z"
       style="font-style:normal;font-variant:normal;font-weight:normal;font-stretch:normal;font-family:IRANSans;-inkscape-font-specification:IRANSans"
       id="path4469" />
    <path
       d="m 881.77246,37.589291 q 0.48695,1.617391 0.92174,3.2 0.17391,0.678261 0.36521,1.408695 0.19131,0.730435 0.34783,1.46087 0.17391,0.730435 0.29565,1.426087 0.12174,0.678261 0.19131,1.269565 0.0174,0.191305 0.0348,0.434783 0.0174,0.243478 0.0174,0.53913 0,1.513044 -0.45217,2.939131 -0.43479,1.426087 -1.23479,2.730434 -0.78261,1.32174 -1.87826,2.52174 -1.07826,1.2 -2.36522,2.243478 -1.26956,1.060869 -2.69565,1.965217 -1.40869,0.904348 -2.86956,1.617392 l -1.51305,-3.06087 q 1.82609,-0.904348 3.54783,-2.104348 1.72174,-1.182609 3.06087,-2.591304 1.35652,-1.408696 2.17391,-2.991305 0.81739,-1.582608 0.81739,-3.269565 0,-0.08696 -0.0174,-0.278261 -0.0174,-0.208695 -0.0348,-0.4 l 0,0.01739 q -0.0522,-0.539131 -0.17391,-1.165218 -0.12174,-0.643478 -0.27826,-1.304348 -0.15653,-0.67826 -0.33044,-1.33913 -0.17391,-0.678261 -0.34782,-1.304348 -0.4174,-1.460869 -0.88696,-2.921739 l 3.30435,-1.043478 z"
       style="font-style:normal;font-variant:normal;font-weight:normal;font-stretch:normal;font-family:IRANSans;-inkscape-font-specification:IRANSans"
       id="path4471" />
    <path
       d="m 855.42422,48.893639 q -6.24348,-0.05217 -10,-1.443479 -3.58261,-1.391304 -4.86956,-3.982608 -0.73044,-1.408696 -0.73044,-3.06087 0,-1.652174 0.67826,-3.443478 0.24348,-0.626087 0.50435,-1.147826 0.26087,-0.521739 0.46957,-0.904348 0.22608,-0.382609 0.38261,-0.608696 0.15652,-0.243478 0.1913,-0.295652 l 2.76522,2.052174 q -0.10435,0.13913 -0.2087,0.295652 -0.10435,0.156522 -0.1913,0.330435 -0.17392,0.295652 -0.36522,0.695652 -0.1913,0.382609 -0.36522,0.869565 -0.8,2.208696 -0.0696,3.652174 0.85217,1.704348 3.89565,2.626087 3.04348,0.904348 7.91304,0.921739 1.39131,0 3.04348,-0.104347 1.65218,-0.12174 3.35652,-0.417392 1.72174,-0.295652 3.4087,-0.8 1.70435,-0.521739 3.16522,-1.33913 -0.0696,-0.782609 -0.33044,-1.634783 -0.26087,-0.869565 -0.62609,-1.704348 -0.36521,-0.834782 -0.76521,-1.582608 -0.4,-0.765218 -0.74783,-1.339131 -0.34783,-0.591304 -0.57391,-0.93913 -0.22609,-0.365218 -0.24348,-0.382609 l 2.88696,-1.878261 q 0.0174,0.03478 0.22608,0.347826 0.2087,0.313044 0.50435,0.834783 0.29565,0.521739 0.66087,1.217391 0.38261,0.695652 0.74783,1.513044 0.36521,0.8 0.67826,1.686956 0.31304,0.886957 0.52174,1.773913 0.20869,0.886957 0.26087,1.582609 0.0696,0.695652 -0.10435,1.286956 -0.15652,0.573914 -0.6087,1.095653 -0.43478,0.504347 -1.25217,1.026087 -0.78261,0.486956 -1.82609,0.921739 -1.04348,0.417391 -2.26087,0.782608 -1.2,0.365218 -2.50435,0.643479 -1.30434,0.278261 -2.62608,0.486956 -1.32174,0.191305 -2.59131,0.295652 -1.26956,0.08696 -2.4,0.06957 z m -0.24348,-17.2 -2.81739,2.817391 -2.85217,-2.834783 2.81739,-2.834782 2.85217,2.852174 z m 7.13044,0.01739 -2.81739,2.834783 -2.85218,-2.852174 2.8174,-2.817392 2.85217,2.834783 z"
       style="font-style:normal;font-variant:normal;font-weight:normal;font-stretch:normal;font-family:IRANSans;-inkscape-font-specification:IRANSans"
       id="path4473" />
    <path
       d="m 796.4249,47.206682 q 0,-0.330435 0.12174,-0.626087 0.12174,-0.313043 0.34783,-0.53913 0.20869,-0.243479 0.50435,-0.382609 0.29565,-0.13913 0.62608,-0.173913 1.02609,0 1.84348,-0.4 0.83478,-0.4 1.46087,-1.06087 0.64348,-0.67826 1.13043,-1.547826 0.48696,-0.869565 0.83479,-1.808695 0.34782,-0.956522 0.57391,-1.913044 0.24348,-0.973913 0.41739,-1.826087 l 3.44348,0.730435 q -0.13913,0.417391 -0.34783,1.078261 -0.1913,0.660869 -0.3826,1.426087 -0.19131,0.747826 -0.33044,1.547826 -0.13913,0.782609 -0.13913,1.460869 0,0.469566 0.087,0.92174 0.087,0.434782 0.29565,0.782608 0.20869,0.347826 0.57391,0.556522 0.36522,0.208696 0.92174,0.208696 0.88696,0 1.58261,-0.486957 0.71304,-0.486956 1.25217,-1.269565 0.55653,-0.782609 0.95653,-1.773913 0.4,-0.991304 0.67826,-2.017391 0.29565,-1.026087 0.48695,-1.982609 0.19131,-0.973913 0.29565,-1.686957 l 3.33914,0.608696 q 0,0 -0.10435,0.573913 -0.087,0.556522 -0.22609,1.373913 -0.12174,0.8 -0.22609,1.721739 -0.10434,0.904348 -0.10434,1.617392 0,0.643478 0.087,1.234782 0.10435,0.573913 0.31305,1.026087 0.22608,0.434783 0.57391,0.730435 0.36522,0.278261 0.88696,0.330435 0.8,0.104348 1.32173,-0.01739 0.53913,-0.121739 0.85218,-0.313043 0.31304,-0.208696 0.45217,-0.434783 0.15652,-0.226087 0.2087,-0.330434 l -0.0174,0 q 0.24347,-0.382609 0.33043,-0.869566 0.10435,-0.486956 0.10435,-1.043478 0,-0.991304 -0.27826,-2.13913 -0.26087,-1.147826 -0.64348,-2.243479 -0.36522,-1.113043 -0.78261,-2.052174 -0.4,-0.956521 -0.67826,-1.513043 l 3.04348,-1.6 q 0.087,0.173913 0.33043,0.678261 0.24348,0.486956 0.55653,1.217391 0.31304,0.713044 0.64347,1.617391 0.34783,0.904348 0.62609,1.913044 0.27826,0.991304 0.45217,2.034783 0.19131,1.043478 0.19131,2.034782 0,1.495652 -0.41739,2.713044 -0.41739,1.2 -1.25218,2.052174 -0.83478,0.852173 -2.10434,1.321739 -1.25218,0.452174 -2.93913,0.434782 -0.67827,0 -1.33914,-0.208695 -0.66086,-0.208696 -1.26956,-0.556522 -0.6087,-0.365218 -1.13044,-0.834783 -0.52173,-0.486956 -0.88695,-1.043478 -1.04348,1.217391 -2.36522,1.930435 -1.32174,0.713043 -2.8,0.713043 -0.64348,0 -1.33913,-0.173913 -0.67826,-0.156522 -1.30435,-0.486956 -0.62608,-0.330435 -1.14782,-0.817392 -0.50435,-0.486956 -0.78261,-1.130434 -1.04348,1.095652 -2.36522,1.73913 -1.32174,0.643478 -3.16522,0.678261 l -0.27826,0 q -0.33043,-0.01739 -0.62608,-0.156522 -0.29566,-0.13913 -0.50435,-0.365217 -0.22609,-0.226087 -0.34783,-0.521739 -0.12174,-0.313044 -0.12174,-0.66087 z m 18.55652,-18.991304 2.8174,-2.817392 2.85217,2.852174 -2.81739,2.817392 -2.85218,-2.852174 z m -7.63478,-0.01739 2.81739,-2.834782 2.85218,2.852174 -2.81739,2.834782 -2.85218,-2.852174 z m 4.19131,-5.234782 2.57391,-2.573913 2.5913,2.591304 -2.57391,2.573913 -2.5913,-2.591304 z"
       style="font-style:normal;font-variant:normal;font-weight:normal;font-stretch:normal;font-family:IRANSans;-inkscape-font-specification:IRANSans"
       id="path4475" />
    <path
       d="m 794.67572,47.693639 q 0,1.513043 -0.45218,2.93913 -0.43478,1.426087 -1.23478,2.747826 -0.78261,1.321739 -1.87826,2.504348 -1.07826,1.2 -2.36522,2.26087 -1.26956,1.060869 -2.69565,1.947826 -1.4087,0.904347 -2.86956,1.634782 l -1.49566,-3.078261 q 1.25218,-0.643478 2.48696,-1.408695 1.23478,-0.765218 2.33043,-1.652174 1.09566,-0.886957 2.0174,-1.878261 0.92173,-0.991304 1.54782,-2.069565 0.64348,-1.078261 0.95652,-2.243479 0.31305,-1.147826 0.19131,-2.382608 l 0,0.03478 q -0.12174,-0.991304 -0.38261,-2.121739 -0.24348,-1.147826 -0.55652,-2.243478 -0.29565,-1.095652 -0.59131,-2.052174 -0.27826,-0.973913 -0.48695,-1.617391 l 3.26956,-1.008696 q 0.66087,2.017391 1.28696,3.443478 0.64348,1.408696 1.30435,2.313044 0.67826,0.886956 1.40869,1.304348 0.73044,0.417391 1.6,0.417391 l 0.087,0 q 0.36522,0 0.67826,0.13913 0.31304,0.139131 0.53913,0.382609 0.24348,0.226087 0.36522,0.539131 0.13913,0.313043 0.13913,0.660869 0,0.730435 -0.50435,1.217391 -0.48696,0.469566 -1.21739,0.469566 l -0.0174,0 q -0.24348,0 -0.64348,-0.01739 -0.38261,-0.01739 -0.86957,-0.13913 -0.46956,-0.121739 -0.97391,-0.382609 -0.50435,-0.260869 -0.97391,-0.730435 l 0,0.06957 z"
       style="font-style:normal;font-variant:normal;font-weight:normal;font-stretch:normal;font-family:IRANSans;-inkscape-font-specification:IRANSans"
       id="path4477" />
    <path
       d="m 780.90928,21.432769 q 0.76521,7.078261 0.88695,12.66087 0.19131,9.217391 -0.27826,14.956521 l -3.42608,-0.191304 q 0.55652,-7.73913 0.34782,-12.991304 -0.34782,-8.434783 -0.93913,-13.913044 l 3.4087,-0.521739 z"
       style="font-style:normal;font-variant:normal;font-weight:normal;font-stretch:normal;font-family:IRANSans;-inkscape-font-specification:IRANSans"
       id="path4479" />
    <path
       d="m 765.22246,54.893639 -2.81739,2.817391 -2.85218,-2.834783 2.81739,-2.834782 2.85218,2.852174 z m 7.13043,0.01739 -2.81739,2.834783 -2.85217,-2.852174 2.81739,-2.817392 2.85217,2.834783 z m -15.51304,-7.721739 q 0,-0.730435 0.50435,-1.217392 0.48695,-0.486956 1.2,-0.486956 l 1.93043,0 q 0.6087,0.01739 1.32174,0.01739 0.71304,-0.01739 1.44348,-0.08696 0.73043,-0.06956 1.42608,-0.191305 0.71305,-0.13913 1.30435,-0.365217 0.59131,-0.243478 1.04348,-0.591304 0.45217,-0.347826 0.67826,-0.834783 0.34783,-0.747826 0.19131,-2.121739 -0.13913,-1.391304 -0.69566,-3.234783 -0.1913,-0.556521 -0.45217,-1.2 -0.24348,-0.660869 -0.48696,-1.217391 -0.27826,-0.66087 -0.57391,-1.304348 l 3.09565,-1.530435 q 0,0.01739 0.15652,0.365218 0.17392,0.330435 0.4174,0.904348 0.24347,0.573913 0.53913,1.33913 0.29565,0.747826 0.55652,1.6 1.61739,4.991304 0.4,7.791304 -1.23478,2.8 -4.38261,3.686957 -0.46957,0.13913 -1.2,0.226087 -0.73044,0.06957 -1.49565,0.104348 -0.76522,0.03478 -1.46087,0.05217 -0.69565,0 -1.07826,0 l -2.52174,0 -0.15652,0 q -0.71305,0 -1.2,-0.486957 -0.50435,-0.486956 -0.50435,-1.217391 z"
       style="font-style:normal;font-variant:normal;font-weight:normal;font-stretch:normal;font-family:IRANSans;-inkscape-font-specification:IRANSans"
       id="path4481" />
    <path
       d="m 743.10507,45.45016 q 1.04347,-0.05217 2.13913,-0.208695 1.11304,-0.156522 2.20869,-0.521739 1.11304,-0.382609 2.2087,-0.991305 1.11304,-0.626087 2.1913,-1.582608 0.31304,-0.330435 0.59131,-0.765218 0.29565,-0.452174 0.50434,-0.93913 0.2087,-0.486957 0.31305,-0.991305 0.12174,-0.521739 0.10434,-1.008695 -0.12173,-0.713044 -0.55652,-1.182609 -0.43478,-0.486957 -1.04348,-0.747826 -0.5913,-0.278261 -1.28695,-0.347826 -0.67826,-0.08696 -1.28696,0.01739 -1.75652,0.278261 -3.86087,1.739131 -2.10435,1.460869 -4.43478,4.052173 l -2.62609,3.32174 4.83479,0.156521 z m 0.33043,3.443479 q -0.36522,0.01739 -0.73043,0.01739 -0.34783,0 -0.69566,0 -0.4,0 -0.86956,-0.01739 -0.45218,0 -1.32174,-0.05217 l -0.087,0 q -2.71304,-0.139131 -5.42608,-0.730435 -2.69566,-0.591304 -5.6,-1.704348 l 1.25217,-3.217391 q 2.31304,0.904348 4.48696,1.443478 0.36521,-0.53913 0.90434,-1.286956 0.55653,-0.747827 1.26957,-1.634783 l 0.12174,-0.173913 q 0.20869,-1.495652 0.31304,-2.678261 0.10435,-1.182609 0.12174,-2.330435 0.0174,-1.165217 -0.0522,-2.452174 -0.0696,-1.304348 -0.19131,-3.026087 -0.13913,-1.878261 -0.29565,-3.478261 -0.15652,-1.617391 -0.29565,-2.782608 -0.13913,-1.182609 -0.24348,-1.843478 -0.087,-0.678261 -0.087,-0.695653 l 3.4087,-0.626087 q 0,0 0.0522,0.452174 0.0522,0.452174 0.13913,1.182609 0.087,0.730435 0.19131,1.669565 0.10435,0.939131 0.1913,1.913044 0.10435,0.973913 0.19131,1.913043 0.10434,0.939131 0.15652,1.686957 0.0696,0.973913 0.10435,1.565217 0.0522,0.573913 0.0696,0.973913 0.0348,0.4 0.0522,0.730435 0.0174,0.313043 0.0174,0.747826 0.0174,0.434783 0.0174,1.113043 0.0174,0.66087 0.0522,1.756522 4.19131,-3.982608 8.01739,-4.556522 0.85218,-0.156521 1.77392,-0.08696 0.92173,0.06957 1.80869,0.347826 0.90435,0.278261 1.70435,0.765217 0.81739,0.486957 1.42609,1.147827 0.62608,0.660869 0.9913,1.495652 0.36522,0.834782 0.4,1.808695 0.0696,0.956522 -0.13913,1.878261 -0.1913,0.921739 -0.57391,1.739131 -0.36522,0.817391 -0.83479,1.513043 -0.46956,0.695652 -0.93913,1.182609 l -0.0174,0.03478 -0.0348,0.03478 q -0.24348,0.226087 -0.48696,0.434783 -0.24347,0.191304 -0.48695,0.382608 l 6.01739,0.03478 0.13913,0 q 0.73043,0 1.21739,0.486956 0.48696,0.486957 0.48696,1.217392 0,0.713043 -0.48696,1.217391 -0.48696,0.486957 -1.21739,0.486957 l -15.98261,0 z"
       style="font-style:normal;font-variant:normal;font-weight:normal;font-stretch:normal;font-family:IRANSans;-inkscape-font-specification:IRANSans"
       id="path4483" />
    <path
       d="m 709.05968,49.345813 q 0,-3.391305 -0.12173,-6.730435 -0.12174,-3.356522 -0.53913,-6.434783 -0.4174,-3.078261 -1.2,-5.756522 -0.76522,-2.67826 -2.06957,-4.730434 l 2.88696,-1.843479 q 1.42608,2.26087 2.36521,5.269566 0.95653,3.008695 1.46087,6.8 0.2087,1.634782 0.33044,3.373913 0.13913,1.73913 0.20869,3.47826 0.087,1.72174 0.10435,3.391305 0.0348,1.669565 0.0348,3.182609 l -3.46087,0 z"
       style="font-style:normal;font-variant:normal;font-weight:normal;font-stretch:normal;font-family:IRANSans;-inkscape-font-specification:IRANSans"
       id="path4485" />
  </g>
  <g
     style="font-style:normal;font-weight:normal;font-size:40px;line-height:125%;font-family:sans-serif;letter-spacing:0px;word-spacing:0px;fill:#000000;fill-opacity:1;stroke:none;stroke-width:1px;stroke-linecap:butt;stroke-linejoin:miter;stroke-opacity:1"
     id="text4626-2-1-7">
    <path
       d="m 986.78679,122.67305 q -0.83478,0 -1.98261,-0.2087 -1.13043,-0.2087 -2.26086,-0.52174 -1.13044,-0.33043 -2.06957,-0.73043 -0.93913,-0.4 -1.37391,-0.8 l 1.42608,-3.26957 q 0.64348,0.41739 1.54783,0.81739 0.90435,0.38261 1.93043,0.67826 1.02609,0.27826 2.10435,0.41739 1.09565,0.13914 2.10435,0.0522 1.0087,-0.087 1.87826,-0.43478 0.86957,-0.34783 1.46087,-1.06087 0.46957,-0.53913 0.12174,-2.01739 -0.1913,-0.85218 -0.62609,-1.77392 -0.41739,-0.93913 -1.02608,-1.86087 -0.59131,-0.93913 -1.32174,-1.82608 -0.73044,-0.88696 -1.53044,-1.63479 -0.78261,-0.76521 -1.6,-1.35652 -0.81739,-0.5913 -1.6,-0.93913 l 1.4087,-3.16522 q 1.02608,0.46957 2.06956,1.21739 1.04348,0.74783 2.01739,1.68696 0.99131,0.93913 1.87827,2.03478 0.90434,1.07826 1.63478,2.24348 0.73043,1.14783 1.26956,2.31305 0.53913,1.16521 0.8,2.27826 0.2087,0.97391 0.2087,1.75652 0,0.78261 -0.15652,1.3913 -0.13913,0.6087 -0.38261,1.06087 -0.24348,0.45218 -0.52174,0.78261 -1.6,1.93044 -4.46957,2.55652 -0.66087,0.17392 -1.3913,0.24348 -0.73044,0.0696 -1.54783,0.0696 z"
       style="font-style:normal;font-variant:normal;font-weight:normal;font-stretch:normal;font-family:IRANSans;-inkscape-font-specification:IRANSans"
       id="path4438" />
    <path
       d="m 973.00921,111.38609 q 0.48696,1.61739 0.92174,3.2 0.17391,0.67826 0.36522,1.4087 0.1913,0.73043 0.34782,1.46086 0.17392,0.73044 0.29566,1.42609 0.12174,0.67826 0.1913,1.26957 0.0174,0.1913 0.0348,0.43478 0.0174,0.24348 0.0174,0.53913 0,1.51304 -0.45218,2.93913 -0.43478,1.42609 -1.23478,2.73044 -0.78261,1.32173 -1.87826,2.52173 -1.07826,1.2 -2.36522,2.24348 -1.26956,1.06087 -2.69565,1.96522 -1.4087,0.90435 -2.86957,1.61739 l -1.51304,-3.06087 q 1.82609,-0.90435 3.54783,-2.10435 1.72173,-1.1826 3.06087,-2.5913 1.35652,-1.4087 2.17391,-2.9913 0.81739,-1.58261 0.81739,-3.26957 0,-0.087 -0.0174,-0.27826 -0.0174,-0.2087 -0.0348,-0.4 l 0,0.0174 q -0.0522,-0.53913 -0.17392,-1.16522 -0.12174,-0.64348 -0.27826,-1.30434 -0.15652,-0.67827 -0.33043,-1.33914 -0.17392,-0.67826 -0.34783,-1.30434 -0.41739,-1.46087 -0.88696,-2.92174 l 3.30435,-1.04348 z"
       style="font-style:normal;font-variant:normal;font-weight:normal;font-stretch:normal;font-family:IRANSans;-inkscape-font-specification:IRANSans"
       id="path4440" />
    <path
       d="m 933.24345,119.42087 q 0.92174,0.10435 2.03478,0.15652 1.13044,0.0348 2.31305,0 1.2,-0.0348 2.41739,-0.15652 1.23478,-0.13913 2.36522,-0.4 1.14782,-0.27826 2.13913,-0.69565 0.9913,-0.43478 1.73913,-1.04348 1.40869,-1.14782 1.56521,-2.97391 0,-0.36522 -0.10434,-0.69565 -0.087,-0.34783 -0.22609,-0.62609 -0.13913,-0.29565 -0.31304,-0.52174 -0.17392,-0.22609 -0.31305,-0.36522 -0.50435,-0.52174 -1.06087,-0.8 -0.55652,-0.27826 -1.13043,-0.38261 -0.55652,-0.10434 -1.11305,-0.0696 -0.55652,0.0174 -1.02608,0.087 -1.37392,0.27826 -2.74783,1.00869 -1.35652,0.71304 -2.53913,1.84348 -0.8,0.76522 -1.44348,1.58261 -0.64348,0.8 -1.14782,1.56522 -0.48696,0.74782 -0.83479,1.40869 -0.34782,0.64348 -0.57391,1.07826 z m -15.23478,1.56522 q 0,-0.73044 0.50435,-1.21739 0.50434,-0.48696 1.21739,-0.48696 1.04348,0 1.77391,-0.15652 0.74783,-0.17391 1.25217,-0.41739 0.50435,-0.24348 0.8174,-0.52174 0.31304,-0.29565 0.50434,-0.55652 0.6087,-0.81739 0.90435,-1.94783 0.29565,-1.14782 0.57391,-2.46956 0.13914,-0.74783 0.29566,-1.44348 0.15652,-0.69565 0.38261,-1.37391 l 3.28695,0.9913 q -0.13913,0.34783 -0.22608,0.71304 -0.0696,0.34783 -0.15653,0.71305 l 0.0174,0 q -0.0696,0.34782 -0.15652,1.00869 -0.0696,0.66087 -0.0348,1.42609 0.0522,0.76522 0.26087,1.56522 0.22609,0.8 0.73043,1.44347 0.22609,-0.50434 0.62609,-1.28695 0.41739,-0.78261 1.02609,-1.72174 0.60869,-0.93913 1.40869,-1.94783 0.8174,-1.02608 1.84348,-2 0.76522,-0.73043 1.61739,-1.33913 0.85218,-0.62608 1.75653,-1.09565 0.92173,-0.48696 1.84347,-0.8 0.93913,-0.33043 1.86087,-0.48696 2.22609,-0.43478 4.10435,0.12174 1.89565,0.55652 3.30435,2.01739 1.02609,1.04348 1.49565,2.27827 0.48696,1.21739 0.4,2.53913 -0.20869,3.32173 -2.8,5.40869 -1.18261,0.95652 -2.64348,1.56522 -1.46087,0.60869 -3.02608,0.95652 -1.54783,0.33044 -3.11305,0.45217 -1.56521,0.12174 -2.95652,0.12174 -1.61739,0 -2.81739,-0.10434 -1.18261,-0.087 -1.68696,-0.17392 -1.40869,-0.13913 -2.60869,-0.66087 -0.36522,-0.17391 -0.71305,-0.36521 -0.33043,-0.2087 -0.67826,-0.48696 -0.33043,-0.27826 -0.69565,-0.64348 -0.34783,-0.38261 -0.73043,-0.88696 -1.09566,1.53044 -2.8,2.24348 -1.70435,0.71305 -4.08696,0.73044 l -0.15652,0 q -0.71305,0 -1.21739,-0.48696 -0.50435,-0.48696 -0.50435,-1.21739 z"
       style="font-style:normal;font-variant:normal;font-weight:normal;font-stretch:normal;font-family:IRANSans;-inkscape-font-specification:IRANSans"
       id="path4442" />
    <path
       d="m 902.96193,131.54261 q 2.67826,-0.53913 4.8,-1.49565 2.12174,-0.95652 3.63478,-2.15652 1.51305,-1.2 2.38261,-2.55652 0.88696,-1.33913 1.07826,-2.64348 -0.73043,0.0174 -1.73913,0 -0.9913,0 -1.94782,-0.087 -3.77392,-0.24348 -5.58261,-2.46956 -0.8,-1.0087 -1.02609,-2.33044 -0.2087,-1.32174 -0.0174,-2.69565 0.20869,-1.39131 0.74782,-2.67826 0.53913,-1.30435 1.26957,-2.24348 0.86956,-1.09565 1.91304,-1.65217 1.04348,-0.57392 2.15652,-0.57392 2.46957,0 4.53914,2.22609 0.73043,0.81739 1.32173,1.84348 0.59131,1.02608 1.0087,2.20869 0.41739,1.16522 0.66087,2.45218 0.24348,1.26956 0.27826,2.5913 l 1.30435,0 q 0.36522,0 0.67826,0.13913 0.31304,0.12174 0.53913,0.36522 0.24348,0.22609 0.38261,0.53913 0.13913,0.31304 0.13913,0.67826 0,0.34783 -0.13913,0.66087 -0.13913,0.29565 -0.38261,0.53913 -0.22609,0.22609 -0.53913,0.36522 -0.31304,0.12174 -0.67826,0.12174 l -1.56522,0 q -0.52174,2.57391 -1.89565,4.64348 -1.35652,2.08695 -3.30435,3.63478 -1.93043,1.54782 -4.31304,2.53913 -2.38261,0.9913 -4.90435,1.3913 l -0.8,-3.35652 z m 7.66956,-20.15652 q -0.50434,0 -0.95652,0.4 -0.45217,0.38261 -0.81739,0.9913 -0.34782,0.6087 -0.5913,1.37392 -0.24348,0.74782 -0.34783,1.49565 -0.087,0.73043 0,1.37391 0.087,0.62609 0.38261,0.99131 0.26087,0.34782 0.66087,0.57391 0.4,0.2087 0.83478,0.34783 0.43478,0.12173 0.85218,0.1913 0.43478,0.0522 0.74782,0.0696 1.09565,0.0696 2,0.0522 0.92174,-0.0174 1.6,-0.0696 -0.0522,-1.09565 -0.26087,-2.08695 -0.20869,-1.0087 -0.53913,-1.86087 -0.31304,-0.85218 -0.73043,-1.53044 -0.41739,-0.69565 -0.85218,-1.2 -0.17391,-0.17391 -0.4,-0.36521 -0.20869,-0.2087 -0.46956,-0.36522 -0.24348,-0.17391 -0.53913,-0.27826 -0.27826,-0.10435 -0.57392,-0.10435 z"
       style="font-style:normal;font-variant:normal;font-weight:normal;font-stretch:normal;font-family:IRANSans;-inkscape-font-specification:IRANSans"
       id="path4444" />
    <path
       d="m 897.30609,111.38609 q 0.48695,1.61739 0.92174,3.2 0.17391,0.67826 0.36521,1.4087 0.19131,0.73043 0.34783,1.46086 0.17391,0.73044 0.29565,1.42609 0.12174,0.67826 0.19131,1.26957 0.0174,0.1913 0.0348,0.43478 0.0174,0.24348 0.0174,0.53913 0,1.51304 -0.45217,2.93913 -0.43479,1.42609 -1.23479,2.73044 -0.78261,1.32173 -1.87826,2.52173 -1.07826,1.2 -2.36521,2.24348 -1.26957,1.06087 -2.69566,1.96522 -1.40869,0.90435 -2.86956,1.61739 l -1.51305,-3.06087 q 1.82609,-0.90435 3.54783,-2.10435 1.72174,-1.1826 3.06087,-2.5913 1.35652,-1.4087 2.17391,-2.9913 0.81739,-1.58261 0.81739,-3.26957 0,-0.087 -0.0174,-0.27826 -0.0174,-0.2087 -0.0348,-0.4 l 0,0.0174 q -0.0522,-0.53913 -0.17391,-1.16522 -0.12174,-0.64348 -0.27826,-1.30434 -0.15653,-0.67827 -0.33044,-1.33914 -0.17391,-0.67826 -0.34782,-1.30434 -0.4174,-1.46087 -0.88696,-2.92174 l 3.30435,-1.04348 z"
       style="font-style:normal;font-variant:normal;font-weight:normal;font-stretch:normal;font-family:IRANSans;-inkscape-font-specification:IRANSans"
       id="path4446" />
    <path
       d="m 870.95785,122.69044 q -6.24347,-0.0522 -10,-1.44348 -3.58261,-1.39131 -4.86956,-3.98261 -0.73044,-1.4087 -0.73044,-3.06087 0,-1.65217 0.67826,-3.44348 0.24348,-0.62608 0.50435,-1.14782 0.26087,-0.52174 0.46957,-0.90435 0.22608,-0.38261 0.38261,-0.6087 0.15652,-0.24348 0.1913,-0.29565 l 2.76522,2.05217 q -0.10435,0.13914 -0.2087,0.29566 -0.10435,0.15652 -0.1913,0.33043 -0.17392,0.29565 -0.36522,0.69565 -0.1913,0.38261 -0.36522,0.86957 -0.8,2.20869 -0.0696,3.65217 0.85217,1.70435 3.89565,2.62609 3.04348,0.90435 7.91304,0.92174 1.39131,0 3.04348,-0.10435 1.65218,-0.12174 3.35652,-0.41739 1.72174,-0.29565 3.4087,-0.8 1.70435,-0.52174 3.16522,-1.33913 -0.0696,-0.78261 -0.33044,-1.63478 -0.26087,-0.86957 -0.62609,-1.70435 -0.36521,-0.83478 -0.76521,-1.58261 -0.4,-0.76522 -0.74783,-1.33913 -0.34782,-0.5913 -0.57391,-0.93913 -0.22609,-0.36522 -0.24348,-0.38261 l 2.88696,-1.87826 q 0.0174,0.0348 0.22608,0.34783 0.2087,0.31304 0.50435,0.83478 0.29565,0.52174 0.66087,1.21739 0.38261,0.69565 0.74783,1.51304 0.36521,0.8 0.67826,1.68696 0.31304,0.88696 0.52174,1.77391 0.20869,0.88696 0.26087,1.58261 0.0696,0.69565 -0.10435,1.28696 -0.15652,0.57391 -0.6087,1.09565 -0.43478,0.50435 -1.25217,1.02609 -0.78261,0.48695 -1.82609,0.92174 -1.04348,0.41739 -2.26087,0.78261 -1.2,0.36521 -2.50435,0.64347 -1.30434,0.27826 -2.62608,0.48696 -1.32174,0.1913 -2.59131,0.29565 -1.26956,0.087 -2.4,0.0696 z m -0.24347,-17.2 -2.8174,2.81739 -2.85217,-2.83478 2.81739,-2.83479 2.85218,2.85218 z m 7.13043,0.0174 -2.81739,2.83478 -2.85218,-2.85217 2.8174,-2.81739 2.85217,2.83478 z"
       style="font-style:normal;font-variant:normal;font-weight:normal;font-stretch:normal;font-family:IRANSans;-inkscape-font-specification:IRANSans"
       id="path4448" />
    <path
       d="m 811.95853,121.00348 q 0,-0.33043 0.12174,-0.62609 0.12174,-0.31304 0.34783,-0.53913 0.20869,-0.24347 0.50435,-0.38261 0.29565,-0.13913 0.62608,-0.17391 1.02609,0 1.84348,-0.4 0.83478,-0.4 1.46087,-1.06087 0.64348,-0.67826 1.13044,-1.54782 0.48695,-0.86957 0.83478,-1.8087 0.34782,-0.95652 0.57391,-1.91304 0.24348,-0.97392 0.41739,-1.82609 l 3.44348,0.73043 q -0.13913,0.4174 -0.34783,1.07827 -0.1913,0.66087 -0.3826,1.42608 -0.19131,0.74783 -0.33044,1.54783 -0.13913,0.78261 -0.13913,1.46087 0,0.46956 0.087,0.92174 0.087,0.43478 0.29565,0.78261 0.20869,0.34782 0.57391,0.55652 0.36522,0.20869 0.92174,0.20869 0.88696,0 1.58261,-0.48695 0.71304,-0.48696 1.25217,-1.26957 0.55653,-0.78261 0.95653,-1.77391 0.4,-0.99131 0.67826,-2.01739 0.29565,-1.02609 0.48695,-1.98261 0.19131,-0.97391 0.29566,-1.68696 l 3.33913,0.6087 q 0,0 -0.10435,0.57391 -0.087,0.55652 -0.22609,1.37391 -0.12174,0.8 -0.22609,1.72174 -0.10434,0.90435 -0.10434,1.61739 0,0.64348 0.087,1.23479 0.10435,0.57391 0.31305,1.02608 0.22608,0.43479 0.57391,0.73044 0.36522,0.27826 0.88696,0.33043 0.8,0.10435 1.32173,-0.0174 0.53914,-0.12174 0.85218,-0.31304 0.31304,-0.2087 0.45217,-0.43478 0.15652,-0.22609 0.2087,-0.33044 l -0.0174,0 q 0.24348,-0.38261 0.33043,-0.86956 0.10435,-0.48696 0.10435,-1.04348 0,-0.99131 -0.27826,-2.13913 -0.26087,-1.14783 -0.64348,-2.24348 -0.36522,-1.11304 -0.78261,-2.05217 -0.4,-0.95653 -0.67826,-1.51305 l 3.04348,-1.6 q 0.087,0.17391 0.33043,0.67826 0.24348,0.48696 0.55653,1.21739 0.31304,0.71305 0.64347,1.6174 0.34783,0.90434 0.62609,1.91304 0.27826,0.9913 0.45217,2.03478 0.19131,1.04348 0.19131,2.03478 0,1.49566 -0.41739,2.71305 -0.41739,1.2 -1.25218,2.05217 -0.83478,0.85218 -2.10434,1.32174 -1.25218,0.45217 -2.93913,0.43478 -0.67827,0 -1.33913,-0.20869 -0.66087,-0.2087 -1.26957,-0.55652 -0.6087,-0.36522 -1.13043,-0.83479 -0.52174,-0.48695 -0.88696,-1.04348 -1.04348,1.2174 -2.36522,1.93044 -1.32174,0.71304 -2.8,0.71304 -0.64348,0 -1.33913,-0.17391 -0.67826,-0.15652 -1.30435,-0.48696 -0.62608,-0.33043 -1.14782,-0.81739 -0.50435,-0.48695 -0.78261,-1.13043 -1.04348,1.09565 -2.36522,1.73913 -1.32174,0.64348 -3.16522,0.67826 l -0.27826,0 q -0.33043,-0.0174 -0.62608,-0.15652 -0.29566,-0.13913 -0.50435,-0.36522 -0.22609,-0.22609 -0.34783,-0.52174 -0.12174,-0.31304 -0.12174,-0.66087 z m 18.55652,-18.9913 2.8174,-2.817395 2.85217,2.852175 -2.81739,2.81739 -2.85218,-2.85217 z m -7.63478,-0.0174 2.81739,-2.834787 2.85218,2.852177 -2.81739,2.83478 -2.85218,-2.85217 z m 4.19131,-5.234787 2.57391,-2.573914 2.5913,2.591305 -2.57391,2.573913 -2.5913,-2.591304 z"
       style="font-style:normal;font-variant:normal;font-weight:normal;font-stretch:normal;font-family:IRANSans;-inkscape-font-specification:IRANSans"
       id="path4450" />
    <path
       d="m 810.20935,121.49044 q 0,1.51304 -0.45218,2.93913 -0.43478,1.42608 -1.23478,2.74782 -0.78261,1.32174 -1.87826,2.50435 -1.07826,1.2 -2.36522,2.26087 -1.26956,1.06087 -2.69565,1.94783 -1.40869,0.90435 -2.86956,1.63478 l -1.49566,-3.07826 q 1.25218,-0.64348 2.48696,-1.4087 1.23478,-0.76521 2.33043,-1.65217 1.09566,-0.88696 2.0174,-1.87826 0.92174,-0.99131 1.54782,-2.06957 0.64348,-1.07826 0.95652,-2.24347 0.31305,-1.14783 0.19131,-2.38261 l 0,0.0348 q -0.12174,-0.99131 -0.38261,-2.12174 -0.24348,-1.14783 -0.55652,-2.24348 -0.29565,-1.09565 -0.59131,-2.05217 -0.27826,-0.97392 -0.48695,-1.61739 l 3.26956,-1.0087 q 0.66087,2.01739 1.28696,3.44348 0.64348,1.40869 1.30435,2.31304 0.67826,0.88696 1.40869,1.30435 0.73044,0.41739 1.6,0.41739 l 0.087,0 q 0.36522,0 0.67826,0.13913 0.31304,0.13913 0.53913,0.38261 0.24348,0.22609 0.36522,0.53913 0.13913,0.31304 0.13913,0.66087 0,0.73044 -0.50435,1.21739 -0.48696,0.46957 -1.21739,0.46957 l -0.0174,0 q -0.24348,0 -0.64348,-0.0174 -0.38261,-0.0174 -0.86957,-0.13913 -0.46956,-0.12174 -0.97391,-0.38261 -0.50435,-0.26087 -0.97391,-0.73044 l 0,0.0696 z"
       style="font-style:normal;font-variant:normal;font-weight:normal;font-stretch:normal;font-family:IRANSans;-inkscape-font-specification:IRANSans"
       id="path4452" />
    <path
       d="m 796.44291,95.229568 q 0.76522,7.078262 0.88695,12.660872 0.19131,9.21739 -0.27826,14.95652 l -3.42608,-0.19131 q 0.55652,-7.73913 0.34782,-12.9913 -0.34782,-8.43478 -0.93913,-13.913043 l 3.4087,-0.521739 z"
       style="font-style:normal;font-variant:normal;font-weight:normal;font-stretch:normal;font-family:IRANSans;-inkscape-font-specification:IRANSans"
       id="path4454" />
    <path
       d="m 780.75609,128.69044 -2.81739,2.81739 -2.85218,-2.83478 2.81739,-2.83479 2.85218,2.85218 z m 7.13043,0.0174 -2.81739,2.83478 -2.85217,-2.85217 2.81739,-2.81739 2.85217,2.83478 z m -15.51304,-7.72174 q 0,-0.73044 0.50435,-1.21739 0.48695,-0.48696 1.2,-0.48696 l 1.93043,0 q 0.6087,0.0174 1.32174,0.0174 0.71304,-0.0174 1.44348,-0.087 0.73043,-0.0696 1.42609,-0.19131 0.71304,-0.13913 1.30434,-0.36522 0.59131,-0.24347 1.04348,-0.5913 0.45218,-0.34783 0.67826,-0.83478 0.34783,-0.74783 0.19131,-2.12174 -0.13913,-1.39131 -0.69566,-3.23478 -0.1913,-0.55653 -0.45217,-1.2 -0.24348,-0.66087 -0.48696,-1.2174 -0.27826,-0.66086 -0.57391,-1.30434 l 3.09565,-1.53044 q 0,0.0174 0.15652,0.36522 0.17392,0.33043 0.4174,0.90435 0.24347,0.57391 0.53913,1.33913 0.29565,0.74782 0.55652,1.6 1.61739,4.9913 0.4,7.7913 -1.23478,2.8 -4.38261,3.68696 -0.46957,0.13913 -1.2,0.22609 -0.73044,0.0696 -1.49565,0.10434 -0.76522,0.0348 -1.46087,0.0522 -0.69565,0 -1.07826,0 l -2.52174,0 -0.15652,0 q -0.71305,0 -1.2,-0.48696 -0.50435,-0.48696 -0.50435,-1.21739 z"
       style="font-style:normal;font-variant:normal;font-weight:normal;font-stretch:normal;font-family:IRANSans;-inkscape-font-specification:IRANSans"
       id="path4456" />
    <path
       d="m 758.6387,119.24696 q 1.04347,-0.0522 2.13913,-0.2087 1.11304,-0.15652 2.20869,-0.52174 1.11305,-0.3826 2.2087,-0.9913 1.11304,-0.62609 2.1913,-1.58261 0.31305,-0.33043 0.59131,-0.76522 0.29565,-0.45217 0.50434,-0.93913 0.2087,-0.48695 0.31305,-0.9913 0.12174,-0.52174 0.10435,-1.0087 -0.12174,-0.71304 -0.55653,-1.18261 -0.43478,-0.48695 -1.04347,-0.74782 -0.59131,-0.27826 -1.28696,-0.34783 -0.67826,-0.0869 -1.28696,0.0174 -1.75652,0.27826 -3.86087,1.73913 -2.10435,1.46087 -4.43478,4.05218 l -2.62609,3.32174 4.83479,0.15652 z m 0.33043,3.44348 q -0.36522,0.0174 -0.73043,0.0174 -0.34783,0 -0.69566,0 -0.4,0 -0.86956,-0.0174 -0.45218,0 -1.32174,-0.0522 l -0.087,0 q -2.71304,-0.13913 -5.42608,-0.73043 -2.69566,-0.59131 -5.6,-1.70435 l 1.25217,-3.21739 q 2.31304,0.90435 4.48696,1.44348 0.36521,-0.53913 0.90434,-1.28696 0.55653,-0.74782 1.26957,-1.63478 l 0.12174,-0.17391 q 0.20869,-1.49566 0.31304,-2.67827 0.10435,-1.1826 0.12174,-2.33043 0.0174,-1.16522 -0.0522,-2.45217 -0.0696,-1.30435 -0.19131,-3.02609 -0.13913,-1.87826 -0.29565,-3.47826 -0.15652,-1.617393 -0.29565,-2.782611 -0.13913,-1.182608 -0.24348,-1.843478 -0.087,-0.678261 -0.087,-0.695652 l 3.4087,-0.626087 q 0,0 0.0522,0.452174 0.0522,0.452174 0.13913,1.182609 0.087,0.730434 0.19131,1.669565 0.10435,0.93913 0.1913,1.91304 0.10435,0.97392 0.19131,1.91305 0.10434,0.93913 0.15652,1.68695 0.0696,0.97392 0.10435,1.56522 0.0522,0.57391 0.0696,0.97391 0.0348,0.4 0.0522,0.73044 0.0174,0.31304 0.0174,0.74782 0.0174,0.43479 0.0174,1.11305 0.0174,0.66087 0.0522,1.75652 4.19131,-3.98261 8.01739,-4.55652 0.85218,-0.15652 1.77392,-0.087 0.92174,0.0696 1.80869,0.34783 0.90435,0.27826 1.70435,0.76522 0.81739,0.48695 1.42609,1.14782 0.62608,0.66087 0.9913,1.49565 0.36522,0.83479 0.4,1.8087 0.0696,0.95652 -0.13913,1.87826 -0.1913,0.92174 -0.57391,1.73913 -0.36522,0.81739 -0.83479,1.51304 -0.46956,0.69566 -0.93913,1.18261 l -0.0174,0.0348 -0.0348,0.0348 q -0.24348,0.22608 -0.48696,0.43478 -0.24347,0.1913 -0.48695,0.38261 l 6.01739,0.0348 0.13913,0 q 0.73043,0 1.21739,0.48696 0.48696,0.48695 0.48696,1.21739 0,0.71304 -0.48696,1.21739 -0.48696,0.48696 -1.21739,0.48696 l -15.98261,0 z"
       style="font-style:normal;font-variant:normal;font-weight:normal;font-stretch:normal;font-family:IRANSans;-inkscape-font-specification:IRANSans"
       id="path4458" />
    <path
       d="m 728.82253,97.26435 q 0,0.03478 0.0522,0.347826 0.0522,0.313044 0.10435,0.8 0.0522,0.486957 0.087,1.130435 0.0348,0.626089 0.0174,1.321739 -0.087,4.03478 -1.89566,6.15652 l 0,-0.0174 q -0.86956,1.06087 -2.10434,1.6 -1.21739,0.53913 -2.71305,0.53913 -0.81739,0 -1.49565,-0.10435 -0.67826,-0.12174 -1.33913,-0.38261 0.0348,0.24348 0.0696,0.48696 0.0348,0.22609 0.0696,0.46957 0.2087,1.63478 0.33044,3.37391 0.13913,1.72174 0.20869,3.46087 0.087,1.72174 0.10435,3.40869 0.0348,1.66957 0.0348,3.18261 l -3.46087,0 q 0,-2.76521 -0.0522,-5.49565 -0.0522,-2.74782 -0.27826,-5.32174 -0.22609,-2.5913 -0.67826,-4.93913 -0.43479,-2.36522 -1.21739,-4.34782 -0.36522,-0.92174 -0.78261,-1.77392 -0.41739,-0.86956 -0.93913,-1.773911 l 2.90434,-1.843478 q 0.27827,0.452174 0.52174,0.921739 0.24348,0.452174 0.46957,0.956522 0.22609,0.486957 0.46956,1.043478 0.24348,0.55652 0.53913,1.2 0.4,0.92174 0.78261,1.66957 0.4,0.73043 0.90435,1.26956 0.52174,0.53913 1.18261,0.83478 0.67826,0.27826 1.65217,0.27826 0.73044,0 1.25218,-0.20869 0.53913,-0.22609 0.92174,-0.67826 0.33043,-0.38261 0.53913,-0.88696 0.20869,-0.52174 0.33043,-1.09565 0.13913,-0.57391 0.19131,-1.18261 0.0522,-0.6087 0.0522,-1.18261 0,-0.747824 -0.087,-1.443477 -0.0696,-0.695652 -0.15652,-1.147826 l 3.4087,-0.626087 z"
       style="font-style:normal;font-variant:normal;font-weight:normal;font-stretch:normal;font-family:IRANSans;-inkscape-font-specification:IRANSans"
       id="path4460" />
  </g>
  <g
     style="font-style:normal;font-weight:normal;font-size:40px;line-height:125%;font-family:sans-serif;letter-spacing:0px;word-spacing:0px;fill:#000000;fill-opacity:1;stroke:none;stroke-width:1px;stroke-linecap:butt;stroke-linejoin:miter;stroke-opacity:1"
     id="text4626-2-1-9">
    <path
       d="m 636.12841,477.32419 q -0.83479,0 -1.98261,-0.20869 -1.13044,-0.2087 -2.26087,-0.52174 -1.13044,-0.33044 -2.06957,-0.73044 -0.93913,-0.4 -1.37391,-0.8 l 1.42609,-3.26956 q 0.64348,0.41739 1.54782,0.81739 0.90435,0.38261 1.93044,0.67826 1.02609,0.27826 2.10435,0.41739 1.09565,0.13913 2.10434,0.0522 1.0087,-0.087 1.87827,-0.43478 0.86956,-0.34782 1.46086,-1.06087 0.46957,-0.53913 0.12174,-2.01739 -0.1913,-0.85217 -0.62608,-1.77391 -0.41739,-0.93913 -1.02609,-1.86087 -0.5913,-0.93913 -1.32174,-1.82609 -0.73043,-0.88696 -1.53043,-1.63478 -0.78261,-0.76522 -1.6,-1.35652 -0.8174,-0.59131 -1.6,-0.93913 l 1.40869,-3.16522 q 1.02609,0.46956 2.06957,1.21739 1.04348,0.74783 2.01739,1.68696 0.9913,0.93913 1.87826,2.03478 0.90435,1.07826 1.63478,2.24348 0.73044,1.14782 1.26957,2.31304 0.53913,1.16522 0.8,2.27826 0.20869,0.97392 0.20869,1.75652 0,0.78261 -0.15652,1.39131 -0.13913,0.60869 -0.38261,1.06087 -0.24348,0.45217 -0.52174,0.78261 -1.6,1.93043 -4.46956,2.55652 -0.66087,0.17391 -1.39131,0.24348 -0.73043,0.0696 -1.54782,0.0696 z"
       style="font-style:normal;font-variant:normal;font-weight:normal;font-stretch:normal;font-family:IRANSans;-inkscape-font-specification:IRANSans"
       id="path4413" />
    <path
       d="m 622.35083,466.03724 q 0.48695,1.61739 0.92173,3.2 0.17392,0.67826 0.36522,1.40869 0.19131,0.73044 0.34783,1.46087 0.17391,0.73044 0.29565,1.42609 0.12174,0.67826 0.1913,1.26956 0.0174,0.19131 0.0348,0.43479 0.0174,0.24347 0.0174,0.53913 0,1.51304 -0.45218,2.93913 -0.43478,1.42608 -1.23478,2.73043 -0.78261,1.32174 -1.87826,2.52174 -1.07826,1.2 -2.36522,2.24348 -1.26956,1.06087 -2.69565,1.96522 -1.40869,0.90434 -2.86956,1.61739 l -1.51305,-3.06087 q 1.82609,-0.90435 3.54783,-2.10435 1.72174,-1.18261 3.06087,-2.5913 1.35652,-1.4087 2.17391,-2.99131 0.81739,-1.58261 0.81739,-3.26956 0,-0.087 -0.0174,-0.27827 -0.0174,-0.20869 -0.0348,-0.4 l 0,0.0174 q -0.0522,-0.53913 -0.17391,-1.16522 -0.12174,-0.64348 -0.27826,-1.30435 -0.15653,-0.67826 -0.33044,-1.33913 -0.17391,-0.67826 -0.34783,-1.30435 -0.41739,-1.46087 -0.88695,-2.92174 l 3.30435,-1.04347 z"
       style="font-style:normal;font-variant:normal;font-weight:normal;font-stretch:normal;font-family:IRANSans;-inkscape-font-specification:IRANSans"
       id="path4415" />
    <path
       d="m 582.58506,474.07202 q 0.92174,0.10435 2.03479,0.15652 1.13043,0.0348 2.31304,0 1.2,-0.0348 2.41739,-0.15652 1.23478,-0.13913 2.36522,-0.4 1.14783,-0.27826 2.13913,-0.69565 0.9913,-0.43479 1.73913,-1.04348 1.4087,-1.14783 1.56522,-2.97392 0,-0.36521 -0.10435,-0.69565 -0.087,-0.34782 -0.22609,-0.62608 -0.13913,-0.29566 -0.31304,-0.52174 -0.17391,-0.22609 -0.31304,-0.36522 -0.50435,-0.52174 -1.06087,-0.8 -0.55653,-0.27826 -1.13044,-0.38261 -0.55652,-0.10435 -1.11304,-0.0696 -0.55652,0.0174 -1.02609,0.087 -1.37391,0.27826 -2.74782,1.0087 -1.35653,0.71304 -2.53914,1.84348 -0.8,0.76521 -1.44347,1.5826 -0.64348,0.8 -1.14783,1.56522 -0.48696,0.74783 -0.83478,1.4087 -0.34783,0.64348 -0.57392,1.07826 z m -15.23478,1.56522 q 0,-0.73044 0.50435,-1.2174 0.50435,-0.48695 1.21739,-0.48695 1.04348,0 1.77391,-0.15652 0.74783,-0.17392 1.25218,-0.4174 0.50435,-0.24347 0.81739,-0.52173 0.31304,-0.29566 0.50435,-0.55653 0.60869,-0.81739 0.90435,-1.94782 0.29565,-1.14783 0.57391,-2.46957 0.13913,-0.74782 0.29565,-1.44348 0.15652,-0.69565 0.38261,-1.37391 l 3.28696,0.99131 q -0.13913,0.34782 -0.22609,0.71304 -0.0696,0.34782 -0.15652,0.71304 l 0.0174,0 q -0.0696,0.34783 -0.15652,1.0087 -0.0696,0.66087 -0.0348,1.42608 0.0522,0.76522 0.26087,1.56522 0.22609,0.8 0.73044,1.44348 0.22609,-0.50435 0.62609,-1.28696 0.41739,-0.7826 1.02608,-1.72174 0.6087,-0.93913 1.4087,-1.94782 0.81739,-1.02609 1.84348,-2 0.76521,-0.73044 1.61739,-1.33913 0.85217,-0.62609 1.75652,-1.09565 0.92174,-0.48696 1.84348,-0.8 0.93913,-0.33044 1.86087,-0.48696 2.22608,-0.43478 4.10434,0.12174 1.89566,0.55652 3.30435,2.01739 1.02609,1.04348 1.49565,2.27826 0.48696,1.21739 0.4,2.53913 -0.20869,3.32174 -2.8,5.4087 -1.1826,0.95652 -2.64347,1.56521 -1.46087,0.6087 -3.02609,0.95653 -1.54783,0.33043 -3.11304,0.45217 -1.56522,0.12174 -2.95653,0.12174 -1.61739,0 -2.81739,-0.10435 -1.18261,-0.087 -1.68695,-0.17391 -1.4087,-0.13913 -2.6087,-0.66087 -0.36522,-0.17391 -0.71304,-0.36522 -0.33044,-0.20869 -0.67826,-0.48696 -0.33044,-0.27826 -0.69566,-0.64347 -0.34782,-0.38261 -0.73043,-0.88696 -1.09565,1.53043 -2.8,2.24348 -1.70435,0.71304 -4.08696,0.73043 l -0.15652,0 q -0.71304,0 -1.21739,-0.48695 -0.50435,-0.48696 -0.50435,-1.21739 z"
       style="font-style:normal;font-variant:normal;font-weight:normal;font-stretch:normal;font-family:IRANSans;-inkscape-font-specification:IRANSans"
       id="path4417" />
    <path
       d="m 552.30354,486.19376 q 2.67826,-0.53913 4.8,-1.49566 2.12174,-0.95652 3.63479,-2.15652 1.51304,-1.2 2.3826,-2.55652 0.88696,-1.33913 1.07827,-2.64348 -0.73044,0.0174 -1.73914,0 -0.9913,0 -1.94782,-0.087 -3.77391,-0.24348 -5.58261,-2.46957 -0.8,-1.00869 -1.02609,-2.33043 -0.20869,-1.32174 -0.0174,-2.69566 0.2087,-1.3913 0.74783,-2.67826 0.53913,-1.30434 1.26956,-2.24347 0.86957,-1.09566 1.91305,-1.65218 1.04347,-0.57391 2.15652,-0.57391 2.46956,0 4.53913,2.22609 0.73043,0.81739 1.32174,1.84347 0.5913,1.02609 1.00869,2.2087 0.41739,1.16522 0.66087,2.45217 0.24348,1.26957 0.27826,2.59131 l 1.30435,0 q 0.36522,0 0.67826,0.13913 0.31305,0.12174 0.53913,0.36522 0.24348,0.22608 0.38261,0.53913 0.13913,0.31304 0.13913,0.67826 0,0.34782 -0.13913,0.66087 -0.13913,0.29565 -0.38261,0.53913 -0.22608,0.22608 -0.53913,0.36521 -0.31304,0.12174 -0.67826,0.12174 l -1.56522,0 q -0.52173,2.57392 -1.89565,4.64348 -1.35652,2.08696 -3.30435,3.63478 -1.93043,1.54783 -4.31304,2.53913 -2.38261,0.99131 -4.90435,1.39131 l -0.8,-3.35652 z m 7.66957,-20.15652 q -0.50435,0 -0.95652,0.4 -0.45218,0.3826 -0.81739,0.9913 -0.34783,0.6087 -0.59131,1.37391 -0.24348,0.74783 -0.34783,1.49565 -0.087,0.73044 0,1.37392 0.087,0.62608 0.38261,0.9913 0.26087,0.34783 0.66087,0.57392 0.4,0.20869 0.83479,0.34782 0.43478,0.12174 0.85217,0.19131 0.43478,0.0522 0.74783,0.0696 1.09565,0.0696 2,0.0522 0.92173,-0.0174 1.6,-0.0696 -0.0522,-1.09565 -0.26087,-2.08696 -0.2087,-1.00869 -0.53913,-1.86087 -0.31305,-0.85217 -0.73044,-1.53043 -0.41739,-0.69565 -0.85217,-1.2 -0.17392,-0.17391 -0.4,-0.36522 -0.2087,-0.20869 -0.46957,-0.36522 -0.24348,-0.17391 -0.53913,-0.27826 -0.27826,-0.10434 -0.57391,-0.10434 z"
       style="font-style:normal;font-variant:normal;font-weight:normal;font-stretch:normal;font-family:IRANSans;-inkscape-font-specification:IRANSans"
       id="path4419" />
    <path
       d="m 546.6477,466.03724 q 0.48696,1.61739 0.92174,3.2 0.17391,0.67826 0.36522,1.40869 0.1913,0.73044 0.34782,1.46087 0.17392,0.73044 0.29566,1.42609 0.12173,0.67826 0.1913,1.26956 0.0174,0.19131 0.0348,0.43479 0.0174,0.24347 0.0174,0.53913 0,1.51304 -0.45217,2.93913 -0.43478,1.42608 -1.23478,2.73043 -0.78261,1.32174 -1.87826,2.52174 -1.07826,1.2 -2.36522,2.24348 -1.26957,1.06087 -2.69565,1.96522 -1.4087,0.90434 -2.86957,1.61739 l -1.51304,-3.06087 q 1.82609,-0.90435 3.54782,-2.10435 1.72174,-1.18261 3.06087,-2.5913 1.35653,-1.4087 2.17392,-2.99131 0.81739,-1.58261 0.81739,-3.26956 0,-0.087 -0.0174,-0.27827 -0.0174,-0.20869 -0.0348,-0.4 l 0,0.0174 q -0.0522,-0.53913 -0.17391,-1.16522 -0.12174,-0.64348 -0.27826,-1.30435 -0.15652,-0.67826 -0.33043,-1.33913 -0.17392,-0.67826 -0.34783,-1.30435 -0.41739,-1.46087 -0.88696,-2.92174 l 3.30435,-1.04347 z"
       style="font-style:normal;font-variant:normal;font-weight:normal;font-stretch:normal;font-family:IRANSans;-inkscape-font-specification:IRANSans"
       id="path4421" />
    <path
       d="m 520.29947,477.34158 q -6.24348,-0.0522 -10,-1.44348 -3.58261,-1.3913 -4.86957,-3.9826 -0.73043,-1.4087 -0.73043,-3.06087 0,-1.65218 0.67826,-3.44348 0.24348,-0.62609 0.50435,-1.14783 0.26087,-0.52174 0.46956,-0.90435 0.22609,-0.3826 0.38261,-0.60869 0.15652,-0.24348 0.1913,-0.29565 l 2.76522,2.05217 q -0.10435,0.13913 -0.20869,0.29565 -0.10435,0.15652 -0.19131,0.33044 -0.17391,0.29565 -0.36522,0.69565 -0.1913,0.38261 -0.36521,0.86956 -0.8,2.2087 -0.0696,3.65218 0.85218,1.70435 3.89565,2.62609 3.04348,0.90434 7.91305,0.92173 1.3913,0 3.04348,-0.10434 1.65217,-0.12174 3.35652,-0.41739 1.72174,-0.29566 3.40869,-0.8 1.70435,-0.52174 3.16522,-1.33913 -0.0696,-0.78261 -0.33043,-1.63479 -0.26087,-0.86956 -0.62609,-1.70435 -0.36522,-0.83478 -0.76522,-1.5826 -0.4,-0.76522 -0.74783,-1.33913 -0.34782,-0.59131 -0.57391,-0.93913 -0.22609,-0.36522 -0.24348,-0.38261 l 2.88696,-1.87826 q 0.0174,0.0348 0.22609,0.34782 0.20869,0.31305 0.50434,0.83478 0.29566,0.52174 0.66087,1.2174 0.38261,0.69565 0.74783,1.51304 0.36522,0.8 0.67826,1.68696 0.31304,0.88695 0.52174,1.77391 0.2087,0.88696 0.26087,1.58261 0.0696,0.69565 -0.10435,1.28695 -0.15652,0.57392 -0.60869,1.09566 -0.43479,0.50434 -1.25218,1.02608 -0.78261,0.48696 -1.82608,0.92174 -1.04348,0.41739 -2.26087,0.78261 -1.2,0.36522 -2.50435,0.64348 -1.30435,0.27826 -2.62609,0.48696 -1.32174,0.1913 -2.5913,0.29565 -1.26957,0.087 -2.4,0.0696 z m -0.24348,-17.2 -2.81739,2.81739 -2.85218,-2.83478 2.81739,-2.83478 2.85218,2.85217 z m 7.13043,0.0174 -2.81739,2.83479 -2.85217,-2.85218 2.81739,-2.81739 2.85217,2.83478 z"
       style="font-style:normal;font-variant:normal;font-weight:normal;font-stretch:normal;font-family:IRANSans;-inkscape-font-specification:IRANSans"
       id="path4423" />
    <path
       d="m 461.30015,475.65463 q 0,-0.33044 0.12174,-0.62609 0.12173,-0.31304 0.34782,-0.53913 0.2087,-0.24348 0.50435,-0.38261 0.29565,-0.13913 0.62609,-0.17391 1.02608,0 1.84347,-0.4 0.83479,-0.4 1.46087,-1.06087 0.64348,-0.67826 1.13044,-1.54783 0.48696,-0.86956 0.83478,-1.80869 0.34783,-0.95653 0.57391,-1.91305 0.24348,-0.97391 0.4174,-1.82608 l 3.44347,0.73043 q -0.13913,0.41739 -0.34782,1.07826 -0.19131,0.66087 -0.38261,1.42609 -0.1913,0.74782 -0.33044,1.54782 -0.13913,0.78261 -0.13913,1.46087 0,0.46957 0.087,0.92174 0.087,0.43479 0.29565,0.78261 0.2087,0.34783 0.57392,0.55652 0.36521,0.2087 0.92174,0.2087 0.88695,0 1.5826,-0.48696 0.71305,-0.48695 1.25218,-1.26956 0.55652,-0.78261 0.95652,-1.77392 0.4,-0.9913 0.67826,-2.01739 0.29565,-1.02608 0.48696,-1.98261 0.1913,-0.97391 0.29565,-1.68695 l 3.33913,0.60869 q 0,0 -0.10435,0.57392 -0.087,0.55652 -0.22609,1.37391 -0.12173,0.8 -0.22608,1.72174 -0.10435,0.90435 -0.10435,1.61739 0,0.64348 0.087,1.23478 0.10434,0.57392 0.31304,1.02609 0.22609,0.43478 0.57391,0.73043 0.36522,0.27827 0.88696,0.33044 0.8,0.10435 1.32174,-0.0174 0.53913,-0.12174 0.85217,-0.31305 0.31305,-0.20869 0.45218,-0.43478 0.15652,-0.22609 0.20869,-0.33043 l -0.0174,0 q 0.24348,-0.38261 0.33044,-0.86957 0.10434,-0.48695 0.10434,-1.04348 0,-0.9913 -0.27826,-2.13913 -0.26087,-1.14782 -0.64348,-2.24348 -0.36521,-1.11304 -0.7826,-2.05217 -0.4,-0.95652 -0.67827,-1.51304 l 3.04348,-1.6 q 0.087,0.17391 0.33044,0.67826 0.24348,0.48695 0.55652,1.21739 0.31304,0.71304 0.64348,1.61739 0.34782,0.90435 0.62608,1.91304 0.27827,0.99131 0.45218,2.03479 0.1913,1.04348 0.1913,2.03478 0,1.49565 -0.41739,2.71304 -0.41739,1.2 -1.25217,2.05218 -0.83478,0.85217 -2.10435,1.32174 -1.25217,0.45217 -2.93913,0.43478 -0.67826,0 -1.33913,-0.2087 -0.66087,-0.20869 -1.26957,-0.55652 -0.60869,-0.36522 -1.13043,-0.83478 -0.52174,-0.48696 -0.88696,-1.04348 -1.04348,1.21739 -2.36521,1.93044 -1.32174,0.71304 -2.8,0.71304 -0.64348,0 -1.33914,-0.17391 -0.67826,-0.15653 -1.30434,-0.48696 -0.62609,-0.33044 -1.14783,-0.81739 -0.50435,-0.48696 -0.78261,-1.13044 -1.04348,1.09566 -2.36522,1.73913 -1.32173,0.64348 -3.16521,0.67826 l -0.27826,0 q -0.33044,-0.0174 -0.62609,-0.15652 -0.29565,-0.13913 -0.50435,-0.36521 -0.22609,-0.22609 -0.34782,-0.52174 -0.12174,-0.31305 -0.12174,-0.66087 z m 18.55652,-18.99131 2.81739,-2.81739 2.85217,2.85217 -2.81739,2.8174 -2.85217,-2.85218 z m -7.63478,-0.0174 2.81739,-2.83478 2.85217,2.85217 -2.81739,2.83478 -2.85217,-2.85217 z m 4.1913,-5.23478 2.57391,-2.57391 2.59131,2.5913 -2.57392,2.57391 -2.5913,-2.5913 z"
       style="font-style:normal;font-variant:normal;font-weight:normal;font-stretch:normal;font-family:IRANSans;-inkscape-font-specification:IRANSans"
       id="path4425" />
    <path
       d="m 459.55096,476.14158 q 0,1.51305 -0.45217,2.93913 -0.43478,1.42609 -1.23478,2.74783 -0.78261,1.32174 -1.87827,2.50435 -1.07826,1.2 -2.36521,2.26087 -1.26957,1.06087 -2.69566,1.94782 -1.40869,0.90435 -2.86956,1.63479 l -1.49565,-3.07827 q 1.25217,-0.64347 2.48695,-1.40869 1.23479,-0.76522 2.33044,-1.65217 1.09565,-0.88696 2.01739,-1.87827 0.92174,-0.9913 1.54783,-2.06956 0.64347,-1.07826 0.95652,-2.24348 0.31304,-1.14783 0.1913,-2.38261 l 0,0.0348 q -0.12174,-0.9913 -0.38261,-2.12173 -0.24347,-1.14783 -0.55652,-2.24348 -0.29565,-1.09565 -0.5913,-2.05218 -0.27826,-0.97391 -0.48696,-1.61739 l 3.26957,-1.00869 q 0.66087,2.01739 1.28695,3.44347 0.64348,1.4087 1.30435,2.31305 0.67826,0.88695 1.4087,1.30435 0.73043,0.41739 1.6,0.41739 l 0.087,0 q 0.36522,0 0.67826,0.13913 0.31305,0.13913 0.53913,0.38261 0.24348,0.22608 0.36522,0.53913 0.13913,0.31304 0.13913,0.66087 0,0.73043 -0.50435,1.21739 -0.48695,0.46956 -1.21739,0.46956 l -0.0174,0 q -0.24348,0 -0.64348,-0.0174 -0.38261,-0.0174 -0.86956,-0.13913 -0.46957,-0.12174 -0.97392,-0.38261 -0.50434,-0.26087 -0.97391,-0.73043 l 0,0.0696 z"
       style="font-style:normal;font-variant:normal;font-weight:normal;font-stretch:normal;font-family:IRANSans;-inkscape-font-specification:IRANSans"
       id="path4427" />
    <path
       d="m 445.78452,449.88071 q 0.76522,7.07826 0.88696,12.66087 0.1913,9.21739 -0.27826,14.95652 l -3.42609,-0.1913 q 0.55652,-7.73913 0.34783,-12.9913 -0.34783,-8.43479 -0.93913,-13.91305 l 3.40869,-0.52174 z"
       style="font-style:normal;font-variant:normal;font-weight:normal;font-stretch:normal;font-family:IRANSans;-inkscape-font-specification:IRANSans"
       id="path4429" />
    <path
       d="m 430.0977,483.34158 -2.81739,2.81739 -2.85217,-2.83478 2.81739,-2.83478 2.85217,2.85217 z m 7.13044,0.0174 -2.8174,2.83479 -2.85217,-2.85218 2.81739,-2.81739 2.85218,2.83478 z m -15.51305,-7.72173 q 0,-0.73044 0.50435,-1.2174 0.48696,-0.48695 1.2,-0.48695 l 1.93043,0 q 0.6087,0.0174 1.32174,0.0174 0.71305,-0.0174 1.44348,-0.087 0.73044,-0.0696 1.42609,-0.1913 0.71304,-0.13913 1.30435,-0.36522 0.5913,-0.24348 1.04348,-0.5913 0.45217,-0.34783 0.67826,-0.83479 0.34782,-0.74782 0.1913,-2.12174 -0.13913,-1.3913 -0.69565,-3.23478 -0.19131,-0.55652 -0.45218,-1.2 -0.24347,-0.66087 -0.48695,-1.21739 -0.27826,-0.66087 -0.57392,-1.30435 l 3.09566,-1.53043 q 0,0.0174 0.15652,0.36522 0.17391,0.33043 0.41739,0.90434 0.24348,0.57392 0.53913,1.33913 0.29565,0.74783 0.55652,1.6 1.61739,4.99131 0.4,7.79131 -1.23478,2.8 -4.38261,3.68695 -0.46956,0.13913 -1.2,0.22609 -0.73043,0.0696 -1.49565,0.10435 -0.76522,0.0348 -1.46087,0.0522 -0.69565,0 -1.07826,0 l -2.52174,0 -0.15652,0 q -0.71304,0 -1.2,-0.48695 -0.50435,-0.48696 -0.50435,-1.21739 z"
       style="font-style:normal;font-variant:normal;font-weight:normal;font-stretch:normal;font-family:IRANSans;-inkscape-font-specification:IRANSans"
       id="path4431" />
    <path
       d="m 407.98031,473.8981 q 1.04348,-0.0522 2.13913,-0.20869 1.11304,-0.15652 2.2087,-0.52174 1.11304,-0.38261 2.20869,-0.9913 1.11304,-0.62609 2.19131,-1.58261 0.31304,-0.33044 0.5913,-0.76522 0.29565,-0.45217 0.50435,-0.93913 0.20869,-0.48696 0.31304,-0.99131 0.12174,-0.52173 0.10435,-1.00869 -0.12174,-0.71304 -0.55652,-1.18261 -0.43479,-0.48696 -1.04348,-0.74783 -0.59131,-0.27826 -1.28696,-0.34782 -0.67826,-0.087 -1.28695,0.0174 -1.75653,0.27826 -3.86087,1.73913 -2.10435,1.46087 -4.43479,4.05217 l -2.62608,3.32174 4.83478,0.15652 z m 0.33043,3.44348 q -0.36521,0.0174 -0.73043,0.0174 -0.34783,0 -0.69565,0 -0.4,0 -0.86957,-0.0174 -0.45217,0 -1.32174,-0.0522 l -0.087,0 q -2.71305,-0.13913 -5.42609,-0.73044 -2.69565,-0.5913 -5.6,-1.70434 l 1.25217,-3.21739 q 2.31305,0.90434 4.48696,1.44347 0.36522,-0.53913 0.90435,-1.28695 0.55652,-0.74783 1.26956,-1.63479 l 0.12174,-0.17391 q 0.2087,-1.49565 0.31305,-2.67826 0.10434,-1.18261 0.12173,-2.33043 0.0174,-1.16522 -0.0522,-2.45218 -0.0696,-1.30435 -0.1913,-3.02609 -0.13913,-1.87826 -0.29566,-3.47826 -0.15652,-1.61739 -0.29565,-2.7826 -0.13913,-1.18261 -0.24348,-1.84348 -0.087,-0.67826 -0.087,-0.69566 l 3.40869,-0.62608 q 0,0 0.0522,0.45217 0.0522,0.45218 0.13913,1.18261 0.087,0.73044 0.1913,1.66957 0.10435,0.93913 0.19131,1.91304 0.10434,0.97391 0.1913,1.91304 0.10435,0.93913 0.15652,1.68696 0.0696,0.97391 0.10435,1.56522 0.0522,0.57391 0.0696,0.97391 0.0348,0.4 0.0522,0.73043 0.0174,0.31305 0.0174,0.74783 0.0174,0.43478 0.0174,1.11304 0.0174,0.66087 0.0522,1.75653 4.1913,-3.98261 8.01739,-4.55653 0.85217,-0.15652 1.77391,-0.087 0.92174,0.0696 1.8087,0.34782 0.90434,0.27826 1.70434,0.76522 0.81739,0.48696 1.42609,1.14783 0.62609,0.66087 0.9913,1.49565 0.36522,0.83478 0.4,1.80869 0.0696,0.95653 -0.13913,1.87827 -0.1913,0.92173 -0.57391,1.73913 -0.36522,0.81739 -0.83478,1.51304 -0.46957,0.69565 -0.93913,1.18261 l -0.0174,0.0348 -0.0348,0.0348 q -0.24347,0.22609 -0.48695,0.43479 -0.24348,0.1913 -0.48696,0.3826 l 6.01739,0.0348 0.13913,0 q 0.73044,0 1.21739,0.48695 0.48696,0.48696 0.48696,1.2174 0,0.71304 -0.48696,1.21739 -0.48695,0.48695 -1.21739,0.48695 l -15.98261,0 z"
       style="font-style:normal;font-variant:normal;font-weight:normal;font-stretch:normal;font-family:IRANSans;-inkscape-font-specification:IRANSans"
       id="path4433" />
    <path
       d="m 377.86998,451.72419 q 0.27826,1.49565 0.41739,2.76522 0.15653,1.26956 0.15653,2.33043 0,3.32174 -1.4087,5.04348 -0.66087,0.78261 -1.58261,1.2 -0.90435,0.41739 -2.01739,0.41739 -0.43478,0 -0.92174,-0.087 -0.48695,-0.10435 -0.9913,-0.33044 -0.50435,-0.24348 -0.99131,-0.66087 -0.48695,-0.41739 -0.92174,-1.04348 l -0.34782,0.52174 q -0.83478,0.93913 -1.8087,1.42609 -0.97391,0.48696 -2.31304,0.48696 -0.66087,0 -1.14783,-0.0696 -0.48695,-0.087 -1.02608,-0.27826 0.0348,0.22609 0.0522,0.41739 0.0348,0.19131 0.0696,0.4 0.22609,1.66957 0.34783,3.39131 0.13913,1.72174 0.2087,3.42608 0.0696,1.70435 0.087,3.37392 0.0348,1.66956 0.0348,3.21739 l -3.46087,0 q 0.0348,-0.71305 0.0348,-1.47826 0.0174,-0.78261 0.0174,-1.47826 0,-2.50435 -0.17391,-4.92174 -0.17392,-2.41739 -0.52174,-4.66087 -0.33044,-2.24348 -0.85218,-4.29565 -0.52174,-2.05218 -1.21739,-3.84348 -0.0348,-0.0696 -0.10435,-0.24348 -0.0348,-0.0696 -0.0522,-0.13913 -0.27826,-0.66087 -0.60869,-1.30435 -0.31305,-0.66087 -0.71305,-1.28696 l 3.14783,-1.86087 q 0.12174,0.2087 0.27826,0.50435 0.17391,0.29565 0.34782,0.64348 0.17392,0.34783 0.34783,0.73044 0.17391,0.36521 0.34783,0.71304 0.4,0.83478 0.81739,1.75652 0.46956,1.07826 0.81739,1.8087 0.36522,0.73043 0.74783,1.1826 0.3826,0.45218 0.88695,0.66087 0.50435,0.19131 1.28696,0.19131 0.57391,0 0.86956,-0.17391 0.31305,-0.17392 0.6087,-0.53913 0.48696,-0.55653 0.76522,-1.6 0.29565,-1.04348 0.33043,-2.45218 0,-0.1913 -0.0174,-0.66087 -0.0174,-0.48695 -0.0522,-1.00869 -0.0348,-0.52174 -0.0696,-0.95653 -0.0174,-0.45217 -0.0348,-0.55652 l 3.44348,-0.41739 q 0,0.0522 0,0.15652 0,0.10435 0.0174,0.17392 0.0348,0.1913 0.0696,0.62608 0.0522,0.41739 0.087,0.99131 0.10435,1.06087 0.27826,2.24348 0.19131,1.1826 0.46957,2.08695 0.22608,0.6087 0.45217,0.97392 0.22609,0.34782 0.43478,0.52173 0.2087,0.17392 0.36522,0.22609 0.17391,0.0348 0.27826,0.0348 0.45217,0 0.64348,-0.10434 0.20869,-0.12174 0.29565,-0.24348 0.087,-0.10435 0.19131,-0.29565 0.12173,-0.2087 0.20869,-0.53913 0.10435,-0.34783 0.17391,-0.83479 0.0696,-0.50435 0.0696,-1.2 0,-0.76521 -0.12174,-1.84348 -0.12174,-1.09565 -0.4,-2.5913 l 3.37391,-0.64348 z"
       style="font-style:normal;font-variant:normal;font-weight:normal;font-stretch:normal;font-family:IRANSans;-inkscape-font-specification:IRANSans"
       id="path4435" />
  </g>
  <path
     id="rect4339-7-9-3-56-6"
     d="m 650.10487,47.418271 -0.38449,-6.973567 -0.009,-2.06e-4 -0.3843,-6.972758 -37.06339,7.674888 0.0135,0.0013 37.82802,6.271549 z"
     style="fill:#000000;fill-opacity:1;stroke:none;stroke-width:5;stroke-miterlimit:4;stroke-dasharray:none;stroke-opacity:1"
     inkscape:connector-curvature="0"
     inkscape:transform-center-x="2.5514371"
     inkscape:transform-center-y="60.012754" />
  <path
     id="rect4339-7-9-3-56-0"
     d="m 679.35753,180.50565 -6.87614,-1.2236 -0.002,0.009 -6.8753,-1.2236 -1.02166,37.8359 0.004,-0.0128 14.77226,-35.38463 z"
     style="fill:#000000;fill-opacity:1;stroke:none;stroke-width:5;stroke-miterlimit:4;stroke-dasharray:none;stroke-opacity:1"
     inkscape:connector-curvature="0"
     inkscape:transform-center-x="-61.566983"
     inkscape:transform-center-y="15.894671" />
  <path
     id="rect4339-7-9-3-56-62"
     d="m 621.71022,382.54227 4.46781,5.36816 0.007,-0.006 4.46718,5.36762 25.1722,-28.26587 -0.0113,0.007 -34.10392,17.52751 z"
     style="fill:#000000;fill-opacity:1;stroke:none;stroke-width:5;stroke-miterlimit:4;stroke-dasharray:none;stroke-opacity:1"
     inkscape:connector-curvature="0"
     inkscape:transform-center-x="36.033957"
     inkscape:transform-center-y="-47.407524" />
  <path
     style="fill:none;fill-rule:evenodd;stroke:#000000;stroke-width:1px;stroke-linecap:butt;stroke-linejoin:miter;stroke-opacity:1"
     d="m 532.90999,453.64082 96.12912,-68.13034"
     id="path4397"
     inkscape:connector-curvature="0" />
  <path
     style="fill:none;fill-rule:evenodd;stroke:#000000;stroke-width:1px;stroke-linecap:butt;stroke-linejoin:miter;stroke-opacity:1"
     d="m 699.96933,38.325686 -55.06425,2.799877"
     id="path4399"
     inkscape:connector-curvature="0" />
  <path
     style="fill:none;fill-rule:evenodd;stroke:#000000;stroke-width:1px;stroke-linecap:butt;stroke-linejoin:miter;stroke-opacity:1"
     d="m 709.30226,112.05579 c 0,0 -25.1851,30.23229 -30.79865,42.4648 -5.61355,12.23252 -6.53305,27.53213 -6.53305,27.53213"
     id="path4401"
     inkscape:connector-curvature="0"
     sodipodi:nodetypes="czc" />
</svg>
