<?xml version="1.0" encoding="UTF-8" standalone="no"?>
<!-- Created with Inkscape (http://www.inkscape.org/) -->

<svg
   xmlns:dc="http://purl.org/dc/elements/1.1/"
   xmlns:cc="http://creativecommons.org/ns#"
   xmlns:rdf="http://www.w3.org/1999/02/22-rdf-syntax-ns#"
   xmlns:svg="http://www.w3.org/2000/svg"
   xmlns="http://www.w3.org/2000/svg"
   xmlns:sodipodi="http://sodipodi.sourceforge.net/DTD/sodipodi-0.dtd"
   xmlns:inkscape="http://www.inkscape.org/namespaces/inkscape"
   width="279.59305mm"
   height="93.78701mm"
   viewBox="0 0 990.68403 332.31617"
   id="svg2"
   version="1.1"
   inkscape:version="0.91 r"
   sodipodi:docname="straight-line-classification-sample.svg">
  <defs
     id="defs4">
    <clipPath
       clipPathUnits="userSpaceOnUse"
       id="clipPath4157">
      <rect
         style="fill:#ffffff;fill-opacity:1;stroke:none;stroke-width:5;stroke-miterlimit:4;stroke-dasharray:none;stroke-opacity:1"
         id="rect4159"
         width="989.94952"
         height="222.03152"
         x="41.771786"
         y="289.79333" />
    </clipPath>
    <clipPath
       clipPathUnits="userSpaceOnUse"
       id="clipPath4161">
      <rect
         style="fill:#ffffff;fill-opacity:1;stroke:none;stroke-width:5;stroke-miterlimit:4;stroke-dasharray:none;stroke-opacity:1"
         id="rect4163"
         width="989.94952"
         height="222.03152"
         x="41.771786"
         y="289.79333" />
    </clipPath>
    <clipPath
       clipPathUnits="userSpaceOnUse"
       id="clipPath4165">
      <rect
         style="fill:#ffffff;fill-opacity:1;stroke:none;stroke-width:5;stroke-miterlimit:4;stroke-dasharray:none;stroke-opacity:1"
         id="rect4167"
         width="989.94952"
         height="222.03152"
         x="41.771786"
         y="289.79333" />
    </clipPath>
    <clipPath
       clipPathUnits="userSpaceOnUse"
       id="clipPath4169">
      <rect
         style="fill:#ffffff;fill-opacity:1;stroke:none;stroke-width:5;stroke-miterlimit:4;stroke-dasharray:none;stroke-opacity:1"
         id="rect4171"
         width="989.94952"
         height="222.03152"
         x="41.771786"
         y="289.79333" />
    </clipPath>
    <clipPath
       clipPathUnits="userSpaceOnUse"
       id="clipPath4173">
      <rect
         style="fill:#ffffff;fill-opacity:1;stroke:none;stroke-width:5;stroke-miterlimit:4;stroke-dasharray:none;stroke-opacity:1"
         id="rect4175"
         width="1006.5593"
         height="218.48843"
         x="42.472652"
         y="285.16891"
         transform="matrix(-0.66226529,0.74926943,-0.75203599,-0.65912205,0,0)" />
    </clipPath>
    <clipPath
       clipPathUnits="userSpaceOnUse"
       id="clipPath4177">
      <rect
         style="fill:#ffffff;fill-opacity:1;stroke:none;stroke-width:5;stroke-miterlimit:4;stroke-dasharray:none;stroke-opacity:1"
         id="rect4179"
         width="980.15204"
         height="224.44673"
         x="41.358372"
         y="292.94562"
         transform="matrix(0.94684109,0.32170164,-0.34586398,0.93828466,0,0)" />
    </clipPath>
    <clipPath
       clipPathUnits="userSpaceOnUse"
       id="clipPath4181">
      <rect
         style="fill:#ffffff;fill-opacity:1;stroke:none;stroke-width:5;stroke-miterlimit:4;stroke-dasharray:none;stroke-opacity:1"
         id="rect4183"
         width="981.1615"
         height="224.22475"
         x="41.400967"
         y="292.65591"
         transform="matrix(0.28455806,0.95865881,-0.9505825,0.31047207,0,0)" />
    </clipPath>
    <clipPath
       clipPathUnits="userSpaceOnUse"
       id="clipPath4185">
      <rect
         style="fill:#ffffff;fill-opacity:1;stroke:none;stroke-width:5;stroke-miterlimit:4;stroke-dasharray:none;stroke-opacity:1"
         id="rect4187"
         width="994.24152"
         height="221.30739"
         x="41.952888"
         y="288.84821"
         transform="matrix(-0.13175712,0.99128203,-0.99500014,-0.09987352,0,0)" />
    </clipPath>
    <clipPath
       clipPathUnits="userSpaceOnUse"
       id="clipPath4189">
      <rect
         style="fill:#ffffff;fill-opacity:1;stroke:none;stroke-width:5;stroke-miterlimit:4;stroke-dasharray:none;stroke-opacity:1"
         id="rect4191"
         width="1005.2021"
         height="218.80252"
         x="42.415382"
         y="285.57886"
         transform="matrix(-0.54426255,0.83891494,0.84637649,0.53258505,0,0)" />
    </clipPath>
    <clipPath
       clipPathUnits="userSpaceOnUse"
       id="clipPath4193">
      <rect
         style="fill:#ffffff;fill-opacity:1;stroke:none;stroke-width:5;stroke-miterlimit:4;stroke-dasharray:none;stroke-opacity:1"
         id="rect4195"
         width="1005.2021"
         height="218.80252"
         x="42.415382"
         y="285.57886"
         transform="matrix(0.54426255,-0.83891494,0.84637649,0.53258505,0,0)" />
    </clipPath>
    <clipPath
       clipPathUnits="userSpaceOnUse"
       id="clipPath4197">
      <rect
         style="fill:#ffffff;fill-opacity:1;stroke:none;stroke-width:5;stroke-miterlimit:4;stroke-dasharray:none;stroke-opacity:1"
         id="rect4199"
         width="1015.8438"
         height="216.75621"
         x="42.864414"
         y="282.90805"
         transform="matrix(0.54815032,-0.83637983,0.84879765,0.52871783,0,0)" />
    </clipPath>
    <clipPath
       clipPathUnits="userSpaceOnUse"
       id="clipPath4201">
      <rect
         style="fill:#ffffff;fill-opacity:1;stroke:none;stroke-width:5;stroke-miterlimit:4;stroke-dasharray:none;stroke-opacity:1"
         id="rect4203"
         width="989.94952"
         height="222.03152"
         x="41.771786"
         y="289.79333" />
    </clipPath>
    <clipPath
       clipPathUnits="userSpaceOnUse"
       id="clipPath4205">
      <rect
         style="fill:#ffffff;fill-opacity:1;stroke:none;stroke-width:5;stroke-miterlimit:4;stroke-dasharray:none;stroke-opacity:1"
         id="rect4207"
         width="989.94952"
         height="222.03152"
         x="41.771786"
         y="289.79333" />
    </clipPath>
  </defs>
  <sodipodi:namedview
     id="base"
     pagecolor="#ffffff"
     bordercolor="#666666"
     borderopacity="1.0"
     inkscape:pageopacity="0.0"
     inkscape:pageshadow="2"
     inkscape:zoom="1.4142136"
     inkscape:cx="309.67403"
     inkscape:cy="125.56199"
     inkscape:document-units="px"
     inkscape:current-layer="layer1"
     showgrid="false"
     fit-margin-top="0"
     fit-margin-left="0"
     fit-margin-right="0"
     fit-margin-bottom="0"
     inkscape:window-width="1360"
     inkscape:window-height="716"
     inkscape:window-x="0"
     inkscape:window-y="0"
     inkscape:window-maximized="1" />
  <metadata
     id="metadata7">
    <rdf:RDF>
      <cc:Work
         rdf:about="">
        <dc:format>image/svg+xml</dc:format>
        <dc:type
           rdf:resource="http://purl.org/dc/dcmitype/StillImage" />
        <dc:title />
      </cc:Work>
    </rdf:RDF>
  </metadata>
  <g
     inkscape:label="Layer 1"
     inkscape:groupmode="layer"
     id="layer1"
     transform="translate(-41.037294,-231.00875)">
    <rect
       style="fill:#163b80;fill-opacity:1;stroke:none;stroke-width:5;stroke-miterlimit:4;stroke-dasharray:none;stroke-opacity:1"
       id="rect4192"
       width="345.06812"
       height="227.68839"
       x="37.529144"
       y="287.19714"
       clip-path="url(#clipPath4205)" />
    <rect
       style="fill:#163b80;fill-opacity:1;stroke:none;stroke-width:5;stroke-miterlimit:4;stroke-dasharray:none;stroke-opacity:1"
       id="rect4192-7"
       width="616.59711"
       height="227.68839"
       x="419.36682"
       y="287.19714"
       clip-path="url(#clipPath4201)" />
    <rect
       style="fill:#00ffff;fill-opacity:1;stroke:none;stroke-width:5;stroke-miterlimit:4;stroke-dasharray:none;stroke-opacity:1"
       id="rect4211"
       width="12.652651"
       height="431.72916"
       x="445.96683"
       y="-183.74622"
       transform="matrix(0.51537767,0.85696316,-0.82738151,0.56164031,0,0)"
       clip-path="url(#clipPath4197)" />
    <rect
       style="fill:#00ffff;fill-opacity:1;stroke:none;stroke-width:5;stroke-miterlimit:4;stroke-dasharray:none;stroke-opacity:1"
       id="rect4211-5"
       width="12.237969"
       height="421.83716"
       x="649.3186"
       y="-500.89023"
       transform="matrix(0.52455414,0.85137709,-0.83361388,0.55234762,0,0)"
       clip-path="url(#clipPath4193)" />
    <rect
       style="fill:#00ffff;fill-opacity:1;stroke:none;stroke-width:5;stroke-miterlimit:4;stroke-dasharray:none;stroke-opacity:1"
       id="rect4211-5-3"
       width="12.237969"
       height="421.83716"
       x="-17.376352"
       y="539.54126"
       transform="matrix(-0.52455414,0.85137709,0.83361388,0.55234762,0,0)"
       clip-path="url(#clipPath4189)" />
    <rect
       style="fill:#00ffff;fill-opacity:1;stroke:none;stroke-width:5;stroke-miterlimit:4;stroke-dasharray:none;stroke-opacity:1"
       id="rect4211-5-5"
       width="12.237969"
       height="421.83716"
       x="-565.14062"
       y="334.39618"
       transform="matrix(-0.09949364,-0.9950382,0.99121554,-0.13225637,0,0)"
       clip-path="url(#clipPath4185)" />
    <rect
       style="fill:#00ffff;fill-opacity:1;stroke:none;stroke-width:5;stroke-miterlimit:4;stroke-dasharray:none;stroke-opacity:1"
       id="rect4211-5-5-6"
       width="12.237969"
       height="421.83716"
       x="-299.38351"
       y="513.57391"
       transform="matrix(0.31336834,-0.94963166,0.9594501,0.28187854,0,0)"
       clip-path="url(#clipPath4181)" />
    <rect
       style="fill:#00ffff;fill-opacity:1;stroke:none;stroke-width:5;stroke-miterlimit:4;stroke-dasharray:none;stroke-opacity:1"
       id="rect4211-5-5-2"
       width="12.237969"
       height="421.83716"
       x="343.98257"
       y="391.52594"
       transform="matrix(0.9479751,-0.31834449,0.349436,0.93696023,0,0)"
       clip-path="url(#clipPath4177)" />
    <rect
       style="fill:#00ffff;fill-opacity:1;stroke:none;stroke-width:5;stroke-miterlimit:4;stroke-dasharray:none;stroke-opacity:1"
       id="rect4211-5-5-9"
       width="12.237969"
       height="421.83716"
       x="-976.97528"
       y="237.48212"
       transform="matrix(-0.64825118,-0.76142656,0.7396327,-0.67301075,0,0)"
       clip-path="url(#clipPath4173)" />
    <path
       style="fill:#0000ff;fill-opacity:1;stroke:none;stroke-width:5;stroke-miterlimit:4;stroke-dasharray:none;stroke-opacity:1"
       d="M 60.119752,513.49981 C 61.301421,512.41393 367.92973,304.21771 377.89354,297.73598 l 3.88909,-2.52996 0,109.7642 0,109.7642 -161.50319,0 c -92.08874,0 -160.92575,-0.53064 -160.159688,-1.23461 z"
       id="path4276"
       inkscape:connector-curvature="0"
       clip-path="url(#clipPath4169)" />
    <path
       style="fill:#0000ff;fill-opacity:1;stroke:none;stroke-width:5;stroke-miterlimit:4;stroke-dasharray:none;stroke-opacity:1"
       d="m 579.2437,468.7156 c -13.90266,-4.12838 -25.79636,-8.03185 -26.43044,-8.67438 -1.0068,-1.02021 -9.81029,-23.71471 -9.81029,-25.28993 0,-0.66193 58.98481,-40.22502 59.97168,-40.22502 0.34313,0 23.68115,15.23666 51.86228,33.85924 42.29553,27.94964 50.64483,33.98829 47.83753,34.59861 -1.8705,0.40665 -23.44737,3.32961 -47.94862,6.49547 -24.50125,3.16586 -45.82052,5.97797 -47.37615,6.24913 -1.55564,0.27116 -14.20333,-2.88474 -28.10599,-7.01312 z"
       id="path4278"
       inkscape:connector-curvature="0"
       clip-path="url(#clipPath4165)" />
    <path
       style="fill:#0000ff;fill-opacity:1;stroke:none;stroke-width:5;stroke-miterlimit:4;stroke-dasharray:none;stroke-opacity:1"
       d="m 888.81747,512.07546 c 1.53403,-1.46243 35.08625,-32.00072 74.56048,-67.86286 l 71.77135,-65.2039 0,67.86286 0,67.86286 -74.56049,0 c -73.02266,0 -74.50296,-0.0548 -71.77134,-2.65896 z"
       id="path4280"
       inkscape:connector-curvature="0"
       clip-path="url(#clipPath4161)" />
    <g
       clip-path="url(#clipPath4157)"
       style="font-style:normal;font-weight:normal;font-size:40px;line-height:125%;font-family:sans-serif;letter-spacing:0px;word-spacing:0px;fill:#ffffff;fill-opacity:1;stroke:none;stroke-width:1px;stroke-linecap:butt;stroke-linejoin:miter;stroke-opacity:1"
       id="text4282">
      <path
         d="m 352.48222,498.61166 -2.81739,2.8174 -2.85217,-2.83479 2.81739,-2.83478 2.85217,2.85217 z m 7.13044,0.0174 -2.81739,2.83478 -2.85218,-2.85218 2.81739,-2.81739 2.85218,2.83479 z m -15.51305,-7.72174 q 0,-0.73044 0.50435,-1.2174 0.48696,-0.48695 1.2,-0.48695 l 1.93044,0 q 0.60869,0.0174 1.32174,0.0174 0.71304,-0.0174 1.44347,-0.087 0.73044,-0.0696 1.42609,-0.1913 0.71304,-0.13913 1.30435,-0.36522 0.5913,-0.24348 1.04348,-0.5913 0.45217,-0.34783 0.67826,-0.83479 0.34782,-0.74782 0.1913,-2.12173 -0.13913,-1.39131 -0.69565,-3.23479 -0.1913,-0.55652 -0.45217,-1.2 -0.24348,-0.66087 -0.48696,-1.21739 -0.27826,-0.66087 -0.57391,-1.30435 l 3.09565,-1.53043 q 0,0.0174 0.15652,0.36522 0.17391,0.33043 0.41739,0.90434 0.24348,0.57392 0.53913,1.33913 0.29565,0.74783 0.55652,1.6 1.61739,4.99131 0.4,7.79131 -1.23478,2.8 -4.38261,3.68696 -0.46956,0.13913 -1.2,0.22608 -0.73043,0.0696 -1.49565,0.10435 -0.76521,0.0348 -1.46087,0.0522 -0.69565,0 -1.07826,0 l -2.52174,0 -0.15652,0 q -0.71304,0 -1.2,-0.48695 -0.50435,-0.48696 -0.50435,-1.21739 z"
         style="font-style:normal;font-variant:normal;font-weight:normal;font-stretch:normal;font-family:IRANSans;-inkscape-font-specification:IRANSans"
         id="path4205" />
      <path
         d="m 346.64812,489.20297 q 0.73043,0 1.21739,0.48695 0.48696,0.48696 0.48696,1.2174 0,0.71304 -0.48696,1.21739 -0.48696,0.48695 -1.21739,0.48695 -2.88696,0 -5.26957,-1.09565 -2.36521,-1.09565 -3.91304,-3.25217 -0.27826,0.46956 -0.66087,0.86956 -0.38261,0.4 -0.83478,0.73044 -0.43478,0.33043 -0.92174,0.60869 -0.46957,0.27826 -0.95652,0.50435 -3.63479,1.63478 -9.54783,1.63478 l -1.6,0 q -1.86087,0 -3.49565,-0.15652 -1.30435,-0.0869 -2.53913,-0.27826 -1.21739,-0.1913 -2.41739,-0.52174 -0.2087,-0.0522 -0.6087,-0.17391 -0.4,-0.13913 -0.81739,-0.29565 -0.41739,-0.15652 -0.78261,-0.29566 -0.36522,-0.13913 -0.50435,-0.20869 -1.06087,-0.53913 -1.84347,-1.2 -0.55653,-0.43478 -1.02609,-1.0087 -0.45218,-0.57391 -0.85218,-1.30434 -0.0174,-0.0174 -0.0174,-0.0696 -0.29565,-0.62609 -0.48695,-1.35652 -0.19131,-0.73044 -0.22609,-1.54783 -0.0348,-0.81739 0.12174,-1.70435 0.15652,-0.88695 0.55652,-1.80869 0.53913,-1.23478 1.0087,-2.01739 0.46956,-0.8 0.55652,-0.93913 l 2.74782,2.05217 q -0.27826,0.43478 -0.48695,0.85218 -0.19131,0.34782 -0.36522,0.73043 -0.17391,0.36522 -0.26087,0.6087 -0.8,2.20869 -0.0696,3.65217 0.66087,1.33913 2.67826,2.1913 2.03478,0.85218 5.26956,1.18261 1.18261,0.087 2.2087,0.12174 1.04348,0.0348 1.80869,0.0348 1.77392,0.0696 3.2,-0.0174 1.44348,-0.087 2.57392,-0.26087 1.13043,-0.17391 1.96521,-0.4 0.85218,-0.24347 1.42609,-0.46956 1.51304,-0.57391 2.24348,-1.37391 0.73043,-0.8 0.83478,-1.72174 0.12174,-0.93913 -0.27826,-1.94783 -0.4,-1.02609 -1.13043,-2.06957 -0.71305,-1.04347 -1.66957,-2.05217 -0.95652,-1.00869 -1.94783,-1.91304 -0.9913,-0.90435 -1.93043,-1.66957 -0.93913,-0.76522 -1.63478,-1.30435 l 0.38261,-3.5826 15.6,-6.71305 1.30434,3.16522 -13.77391,5.8087 q 1.46087,1.02608 2.76522,2.1913 1.32174,1.16522 2.4,2.43478 1.07826,1.26957 1.87826,2.6087 0.8,1.32174 1.25217,2.64348 0.27826,0.83478 0.62609,1.68695 0.34783,0.85218 0.85217,1.65218 0.50435,0.8 1.23479,1.49565 0.73043,0.69565 1.7913,1.2 1.37391,0.64348 3.44348,0.66087 l 0.13913,0 z"
         style="font-style:normal;font-variant:normal;font-weight:normal;font-stretch:normal;font-family:IRANSans;-inkscape-font-specification:IRANSans"
         id="path4207" />
      <path
         d="m 266.26252,490.90732 q 0,-0.73044 0.50435,-1.2174 0.50435,-0.48695 1.23478,-0.48695 l 3.44348,0 q 2.33043,0 4.62609,-0.43478 2.31304,-0.45218 4.55652,-1.18261 2.24348,-0.73044 4.38261,-1.66957 2.13913,-0.93913 4.12174,-1.93043 -1.18261,-0.41739 -2.29566,-0.90435 -1.09565,-0.48696 -2.15652,-0.99131 -0.81739,-0.3826 -1.6,-0.73043 -0.76521,-0.36522 -1.47826,-0.64348 -0.71304,-0.27826 -1.37391,-0.43478 -0.64348,-0.17391 -1.18261,-0.17391 -0.71304,0 -1.35652,0.31304 -0.64348,0.31304 -1.2,0.8 -0.53913,0.46956 -0.97391,1.02609 -0.43479,0.53913 -0.74783,1.02608 -0.29565,0.46957 -0.46957,0.8 -0.17391,0.31305 -0.17391,0.33044 l -3.13043,-1.4087 q 0.0174,-0.0348 0.13913,-0.29565 0.13913,-0.27826 0.38261,-0.69565 0.24347,-0.43478 0.60869,-0.95652 0.36522,-0.53913 0.83478,-1.09566 1.33913,-1.63478 2.86957,-2.45217 1.54782,-0.81739 3.21739,-0.81739 0.83478,0 1.70435,0.1913 0.86956,0.19131 1.75652,0.52174 0.88696,0.31305 1.7913,0.73044 0.92174,0.41739 1.86087,0.85217 1.02609,0.48696 2.06957,0.95652 1.06087,0.46957 2.12174,0.85218 1.06087,0.36521 2.12174,0.5913 1.06087,0.22609 2.13913,0.22609 l 0.66087,3.30435 q -1.21739,0.50434 -2.43479,1.09565 -1.2,0.57391 -2.48695,1.21739 -1.91305,0.95652 -4.12174,1.91304 -2.19131,0.95652 -4.6087,1.73913 -2.4,0.76522 -4.97391,1.25218 -2.57391,0.48695 -5.2,0.48695 l -3.30435,0 -0.13913,0 q -0.36522,0 -0.67826,-0.12174 -0.31304,-0.13913 -0.53913,-0.36521 -0.24348,-0.24348 -0.38261,-0.55652 -0.13913,-0.31305 -0.13913,-0.66087 z m 14.88696,-20.64348 -2.83478,2.83478 -2.85218,-2.85217 2.83478,-2.83479 2.85218,2.85218 z"
         style="font-style:normal;font-variant:normal;font-weight:normal;font-stretch:normal;font-family:IRANSans;-inkscape-font-specification:IRANSans"
         id="path4209" />
      <path
         d="m 251.69296,489.16819 q 1.04347,-0.0522 2.13913,-0.2087 1.11304,-0.15652 2.20869,-0.52174 1.11305,-0.38261 2.2087,-0.9913 1.11304,-0.62609 2.1913,-1.58261 0.31305,-0.33044 0.59131,-0.76522 0.29565,-0.45217 0.50434,-0.93913 0.2087,-0.48696 0.31305,-0.9913 0.12174,-0.52174 0.10435,-1.0087 -0.12174,-0.71304 -0.55653,-1.18261 -0.43478,-0.48696 -1.04347,-0.74782 -0.59131,-0.27827 -1.28696,-0.34783 -0.67826,-0.087 -1.28696,0.0174 -1.75652,0.27826 -3.86087,1.73913 -2.10434,1.46087 -4.43478,4.05217 l -2.62609,3.32174 4.83479,0.15653 z m 0.33043,3.44347 q -0.36522,0.0174 -0.73043,0.0174 -0.34783,0 -0.69566,0 -0.4,0 -0.86956,-0.0174 -0.45218,0 -1.32174,-0.0522 l -0.087,0 q -2.71304,-0.13913 -5.42608,-0.73043 -2.69566,-0.59131 -5.6,-1.70435 l 1.25217,-3.21739 q 2.31304,0.90434 4.48696,1.44347 0.36521,-0.53913 0.90434,-1.28695 0.55653,-0.74783 1.26957,-1.63478 l 0.12174,-0.17392 q 0.20869,-1.49565 0.31304,-2.67826 0.10435,-1.18261 0.12174,-2.33043 0.0174,-1.16522 -0.0522,-2.45218 -0.0696,-1.30435 -0.19131,-3.02608 -0.13913,-1.87827 -0.29565,-3.47827 -0.15652,-1.61739 -0.29565,-2.7826 -0.13913,-1.18261 -0.24348,-1.84348 -0.087,-0.67826 -0.087,-0.69565 l 3.4087,-0.62609 q 0,0 0.0522,0.45217 0.0522,0.45218 0.13913,1.18261 0.087,0.73044 0.19131,1.66957 0.10435,0.93913 0.1913,1.91304 0.10435,0.97391 0.19131,1.91304 0.10434,0.93913 0.15652,1.68696 0.0696,0.97391 0.10435,1.56522 0.0522,0.57391 0.0696,0.97391 0.0348,0.4 0.0522,0.73044 0.0174,0.31304 0.0174,0.74782 0.0174,0.43478 0.0174,1.11304 0.0174,0.66087 0.0522,1.75653 4.19131,-3.98261 8.01739,-4.55653 0.85218,-0.15652 1.77392,-0.087 0.92174,0.0696 1.80869,0.34782 0.90435,0.27827 1.70435,0.76522 0.81739,0.48696 1.42609,1.14783 0.62608,0.66087 0.9913,1.49565 0.36522,0.83478 0.4,1.8087 0.0696,0.95652 -0.13913,1.87826 -0.1913,0.92174 -0.57391,1.73913 -0.36522,0.81739 -0.83478,1.51304 -0.46957,0.69565 -0.93914,1.18261 l -0.0174,0.0348 -0.0348,0.0348 q -0.24348,0.22609 -0.48696,0.43479 -0.24347,0.1913 -0.48695,0.38261 l 6.01739,0.0348 0.13913,0 q 0.73043,0 1.21739,0.48695 0.48696,0.48696 0.48696,1.2174 0,0.71304 -0.48696,1.21739 -0.48696,0.48695 -1.21739,0.48695 l -15.98261,0 z"
         style="font-style:normal;font-variant:normal;font-weight:normal;font-stretch:normal;font-family:IRANSans;-inkscape-font-specification:IRANSans"
         id="path4211" />
    </g>
    <rect
       style="fill:#ffffff;fill-opacity:1;stroke:none;stroke-width:5;stroke-miterlimit:4;stroke-dasharray:none;stroke-opacity:1"
       id="rect4273"
       width="25.75"
       height="31.25"
       x="393.52179"
       y="411.32489" />
    <rect
       style="fill:#ffffff;fill-opacity:1;stroke:none;stroke-width:5;stroke-miterlimit:4;stroke-dasharray:none;stroke-opacity:1"
       id="rect4273-3"
       width="35.313709"
       height="21"
       x="383.65729"
       y="491.25012" />
    <g
       style="font-style:normal;font-variant:normal;font-weight:300;font-stretch:normal;font-size:40px;line-height:125%;font-family:IRANSans;-inkscape-font-specification:'IRANSans Light';letter-spacing:0px;word-spacing:0px;fill:#ffffff;fill-opacity:1;stroke:none;stroke-width:1px;stroke-linecap:butt;stroke-linejoin:miter;stroke-opacity:1"
       id="text4303">
      <path
         d="m 1003.3394,314.79284 -2.5391,2.53913 -2.57391,-2.55652 2.53911,-2.55653 2.5739,2.57392 z m 6.1739,0.0348 -2.5217,2.53913 -2.5739,-2.57391 2.5391,-2.53913 2.5565,2.57391 z m -14.93908,19.93043 q 0,-0.57391 0.4,-0.95652 0.4,-0.4 0.95652,-0.4 l 1.93044,0 q 0.97391,0 2.13912,-0.0348 1.1826,-0.0522 2.2783,-0.26087 1.0956,-0.22609 1.9652,-0.67826 0.8869,-0.46957 1.2522,-1.28696 l 0,0.0174 q 0.2782,-0.57391 0.2782,-1.53043 0,-0.81739 -0.2435,-1.84348 -0.2434,-1.02609 -0.626,-2.24348 -0.1392,-0.43478 -0.3479,-0.93913 -0.1913,-0.50435 -0.3826,-0.97391 -0.1913,-0.48696 -0.3826,-0.88696 -0.1739,-0.4 -0.2783,-0.64348 l 2.4696,-1.23478 q 0.1044,0.24348 0.2783,0.62609 0.1739,0.38261 0.3826,0.88696 0.2087,0.50434 0.4174,1.09565 0.2261,0.5913 0.4348,1.23478 0.4521,1.4087 0.6782,2.62609 0.2261,1.21739 0.2261,2.26087 0,1.53043 -0.487,2.66087 -0.6086,1.26956 -1.6695,2.1913 -1.0435,0.90435 -2.5044,1.30435 -0.4521,0.13913 -1.1652,0.20869 -0.713,0.0696 -1.4782,0.10435 -0.7479,0.0348 -1.42613,0.0522 -0.67826,0 -1.06087,0 l -2.67826,0 q -0.55652,0 -0.95652,-0.38261 -0.4,-0.4 -0.4,-0.97392 z"
         style=""
         id="path4225" />
      <path
         d="m 996.73903,333.40153 q 0.55652,0 0.95652,0.41739 0.41739,0.4 0.41739,0.97392 0,0.55652 -0.41739,0.95652 -0.4,0.38261 -0.95652,0.38261 -2.73044,0 -5.11304,-0.52174 -2.36522,-0.52174 -4.33044,-1.66957 -1.13043,0.53913 -2.43478,0.95652 -1.30435,0.4 -2.67826,0.67827 -1.35652,0.27826 -2.73044,0.41739 -1.37391,0.13913 -2.62608,0.13913 -0.55653,0 -0.95653,-0.38261 -0.41739,-0.4 -0.41739,-0.95652 0,-0.57392 0.41739,-0.97392 0.4,-0.41739 0.95653,-0.41739 0.90434,0 1.94782,-0.087 1.06087,-0.10435 2.10435,-0.26087 1.06087,-0.17392 2.05217,-0.41739 0.99131,-0.24348 1.75652,-0.55653 -1.30434,-1.2 -2.4,-2.43478 -1.09565,-1.25217 -2.17391,-2.53913 l -1.37391,-1.61739 0.17391,-2.13913 q 0.83478,-0.73044 1.75652,-1.21739 0.92174,-0.50435 1.82609,-0.81739 0.90435,-0.33044 1.73913,-0.50435 0.85217,-0.17391 1.56522,-0.26087 0.4,-0.0348 0.8,-0.0522 0.4,-0.0348 0.74782,-0.0348 1.30435,0 2.53913,0.24348 1.23479,0.22609 2.27827,0.66087 0.83478,0.38261 1.35652,0.83478 0.53913,0.43479 0.83478,0.88696 0.29565,0.43478 0.4,0.83478 0.12174,0.4 0.12174,0.67826 0.087,0.76522 -0.33044,1.79131 -0.41739,1.00869 -1.16521,2.06956 -0.73044,1.06087 -1.68696,2.06957 -0.93913,0.9913 -1.89565,1.72174 1.49565,0.57391 3.30435,0.86956 1.82608,0.27826 3.63478,0.27826 z m -9.4087,-2.69565 q 0.50435,-0.26087 1.06087,-0.73043 0.55652,-0.46957 1.07826,-1.04348 0.53913,-0.57392 1.0087,-1.2 0.48696,-0.64348 0.85217,-1.23479 0.36522,-0.5913 0.57392,-1.09565 0.22608,-0.50435 0.22608,-0.83478 -1.04348,-0.67826 -2.33043,-1.02609 -1.26957,-0.34782 -2.62609,-0.34782 -1.30435,0 -2.71304,0.38261 -1.4087,0.36521 -2.76522,1.14782 0.8,0.95652 1.51304,1.8087 0.71305,0.83478 1.39131,1.58261 0.67826,0.73043 1.33913,1.37391 0.67826,0.64348 1.3913,1.21739 z"
         style=""
         id="path4227" />
      <path
         d="m 963.53346,336.11458 q -0.93913,0 -1.87826,-0.19131 -0.92174,-0.20869 -1.8087,-0.57391 -0.86956,-0.38261 -1.68696,-0.92174 -0.8,-0.55652 -1.47826,-1.23478 0.43479,-0.6087 0.8,-1.09566 0.36522,-0.50434 0.78261,-1.09565 1.37392,1.18261 2.86957,1.75652 1.51304,0.57392 2.83478,0.57392 0.66087,0 1.44348,-0.12174 0.78261,-0.13913 1.3913,-0.38261 0.45218,-0.17391 0.90435,-0.4 0.46957,-0.22609 0.88696,-0.45217 0.41739,-0.22609 0.73043,-0.43479 0.33044,-0.22608 0.52174,-0.41739 l -5.44348,-13.11304 q 0.71305,-0.29565 1.26957,-0.53913 0.57391,-0.24348 1.23478,-0.52174 0.52174,1.28696 1.32174,3.18261 0.66087,1.63478 1.68696,4.10435 1.04347,2.46956 2.46956,5.91304 0.29565,0.74782 0.57391,1.35652 0.27827,0.5913 0.73044,1.02609 0.46956,0.41739 1.18261,0.64348 0.71304,0.22608 1.86087,0.22608 0.55652,0 0.95652,0.4 0.41739,0.38261 0.41739,0.95652 0,0.57392 -0.41739,0.97392 -0.4,0.38261 -0.95652,0.38261 -1.07826,0 -1.93044,-0.19131 -0.85217,-0.1913 -1.53043,-0.52174 -0.66087,-0.34782 -1.18261,-0.78261 -0.50435,-0.45217 -0.88696,-0.95652 -0.29565,0.22609 -0.71304,0.46957 -0.4,0.22608 -0.86957,0.45217 -0.45217,0.2087 -0.92173,0.41739 -0.46957,0.2087 -0.88696,0.38261 l 0.0174,0 q -0.93913,0.36522 -1.98261,0.55652 -1.02609,0.17392 -2.31304,0.17392 z"
         style=""
         id="path4229" />
      <path
         d="m 949.42694,336.11458 q 0.087,-1.42609 0.13913,-2.74783 0.0696,-1.33913 0.10434,-2.5913 0.0522,-1.25218 0.0696,-2.45218 0.0174,-1.21739 0.0174,-2.4 0,-3.25217 -0.12174,-5.96522 -0.10435,-2.73043 -0.26087,-4.7826 -0.15652,-2.06957 -0.31304,-3.42609 -0.13913,-1.35652 -0.2087,-1.91304 l 2.73044,-0.4174 q 0,0.0348 0.0174,0.12174 0.0174,0.0696 0.0348,0.27826 0.0174,0.19131 0.0522,0.52174 0.0522,0.31305 0.10434,0.81739 0.12174,0.99131 0.2087,2.13913 0.087,1.14783 0.17391,2.46957 0.087,1.28696 0.13913,2.52174 0.0522,1.21739 0.087,2.27826 0.0348,1.21739 0.0522,2.55652 0.0348,1.33913 0.0348,2.83478 0,2.33044 -0.0696,4.90435 -0.0696,2.55652 -0.26087,5.4087 l -2.73043,-0.15652 z"
         style=""
         id="path4231" />
      <path
         d="m 936.1306,336.09718 q -0.7826,0 -1.86086,-0.17391 -1.06087,-0.17391 -2.12174,-0.45217 -1.04348,-0.29565 -1.94783,-0.66087 -0.88696,-0.36522 -1.33913,-0.73044 l 1.16522,-2.66087 q 0.62608,0.36522 1.40869,0.69566 0.8,0.33043 1.68696,0.5913 0.90435,0.24348 1.84348,0.4 0.93913,0.15652 1.84348,0.15652 1.28695,0 2.43478,-0.34782 1.16522,-0.36522 1.91304,-1.28696 0.6087,-0.74783 0.48696,-1.7913 -0.10435,-1.06087 -0.69565,-2.24348 -0.57392,-1.18261 -1.49566,-2.4 -0.92174,-1.21739 -1.94782,-2.27826 -1.02609,-1.07826 -2.01739,-1.89566 -0.99131,-0.81739 -1.72174,-1.21739 0.31304,-0.69565 0.57391,-1.28695 0.26087,-0.59131 0.55652,-1.25218 0.95652,0.52174 1.93044,1.28696 0.9913,0.76522 1.93043,1.68696 0.93913,0.92173 1.79131,1.96521 0.85217,1.04348 1.54782,2.13913 0.69565,1.09566 1.2,2.19131 0.52174,1.09565 0.76522,2.12174 0.12174,0.57391 0.17391,1.2 0.0522,0.62608 -0.0348,1.23478 -0.0696,0.60869 -0.29565,1.2 -0.2087,0.57391 -0.62609,1.06087 -1.54783,1.86087 -4.29565,2.45217 -0.6087,0.15652 -1.33913,0.22609 -0.71305,0.0696 -1.51305,0.0696 z"
         style=""
         id="path4233" />
      <path
         d="m 919.94039,322.34066 q 0.48695,-0.10434 0.93913,-0.13913 0.45217,-0.0522 0.86956,-0.0522 0.64348,0 1.21739,0.087 0.59131,0.0696 1.07827,0.1913 0.48695,0.10435 0.86956,0.24348 0.38261,0.12174 0.62609,0.20869 -0.17392,0.36522 -0.33044,0.67826 -0.15652,0.31305 -0.29565,0.6087 -0.13913,0.29565 -0.29565,0.6087 -0.13913,0.29565 -0.31305,0.66087 -0.36521,-0.13914 -1.02608,-0.27827 -0.66087,-0.15652 -1.46087,-0.15652 -0.31305,0 -0.64348,0.0348 -0.33043,0.0174 -0.64348,0.087 l 0.0348,0 q -0.69565,0.0696 -1.42608,0.4 -0.73044,0.33044 -1.44348,0.86957 -0.69565,0.52174 -1.32174,1.2 -0.62609,0.67826 -1.11304,1.44348 -0.46957,0.76521 -0.74783,1.56521 -0.27826,0.8 -0.27826,1.56522 0,0.6087 0.17391,1.14783 0.19131,0.55652 0.6087,0.93913 0.43478,0.36521 1.00869,0.64347 0.57392,0.26087 1.25218,0.45218 0.69565,0.1913 1.40869,0.34782 0.90435,0.2087 1.82609,0.48696 0.92174,0.27826 1.65217,0.73044 0.73044,0.46956 1.18261,1.2 0.46957,0.73043 0.46957,1.86087 0,0.48695 -0.10435,1.11304 l 0,-0.0174 q -0.29565,1.63478 -1.46087,2.9913 -1.16522,1.35652 -3.11304,2.33044 -1.87826,0.95652 -4.27826,1.44348 -2.38261,0.50434 -5.18261,0.50434 -3.18261,0 -5.66957,-0.93913 -2.46956,-0.93913 -4.03478,-2.64348 -1.09565,-1.28695 -1.70435,-2.97391 -0.5913,-1.68696 -0.5913,-3.58261 0,-0.4 0.0174,-0.83478 0.0348,-0.41739 0.087,-0.85217 0.20869,-1.47826 0.55652,-3.07826 0.36521,-1.6174 0.74782,-3.02609 0.4,-1.42609 0.73044,-2.50435 0.34782,-1.09565 0.50435,-1.54783 0.69565,0.24348 1.35652,0.48696 0.66087,0.24348 1.30435,0.46957 -0.36522,1.11304 -0.71305,2.31304 -0.34782,1.2 -0.66087,2.43478 -0.31304,1.21739 -0.57391,2.43478 -0.24348,1.2174 -0.41739,2.34783 -0.0348,0.29565 -0.0696,0.64348 -0.0174,0.34783 -0.0174,0.71304 0,0.55652 0.087,1.14783 0.087,0.60869 0.27826,1.21739 0.1913,0.6087 0.48696,1.18261 0.31304,0.5913 0.73043,1.09565 1.18261,1.25217 3.11304,1.93044 1.94783,0.69565 4.45218,0.69565 2.55652,0 4.5913,-0.41739 2.03478,-0.41739 3.47826,-1.11305 1.46087,-0.69565 2.26087,-1.58261 0.81739,-0.88695 0.90435,-1.82608 0.0348,-0.41739 -0.22609,-0.73044 -0.26087,-0.29565 -0.71304,-0.53913 -0.45217,-0.24348 -1.04348,-0.41739 -0.5913,-0.17391 -1.18261,-0.33043 -0.86956,-0.22609 -1.84348,-0.52174 -0.97391,-0.29566 -1.84347,-0.78261 -0.85218,-0.46957 -1.49566,-1.18261 -0.62608,-0.71304 -0.83478,-1.75652 -0.17391,-0.86957 -0.17391,-1.73913 0,-1.77392 0.64348,-3.44348 0.66087,-1.66957 1.7913,-3.04348 1.13044,-1.37391 2.66087,-2.34783 1.53044,-0.9913 3.28696,-1.35652 z"
         style=""
         id="path4235" />
      <path
         d="m 856.3374,334.75805 q 0,-0.57391 0.41739,-0.95652 0.4,-0.4 0.97391,-0.4 l 3.44348,0 q 2.34783,0 4.74783,-0.46956 2.4,-0.48696 4.74782,-1.26957 2.36522,-0.78261 4.64348,-1.7913 2.29565,-1.0087 4.43478,-2.08696 l -5.1826,-2.15652 q -0.8174,-0.38261 -1.6174,-0.74783 -0.7826,-0.36521 -1.53043,-0.64347 -0.73044,-0.29566 -1.4087,-0.45218 -0.66087,-0.17391 -1.23478,-0.17391 -0.66087,0 -1.25217,0.24348 -0.59131,0.22608 -1.11305,0.60869 -0.50434,0.38261 -0.93913,0.85218 -0.43478,0.46956 -0.78261,0.93913 -0.34782,0.46956 -0.5913,0.88695 -0.24348,0.4 -0.38261,0.64348 l -2.33043,-1.3913 q 0.1913,-0.4 0.53913,-0.97392 0.36521,-0.5913 1.02608,-1.3913 1.28696,-1.56522 2.76522,-2.34783 1.47826,-0.8 3.06087,-0.8 0.81739,0 1.65217,0.19131 0.85218,0.1913 1.72174,0.50435 0.86957,0.31304 1.75653,0.73043 0.90434,0.4 1.82608,0.83478 1.0087,0.46957 1.82609,0.88696 0.83478,0.41739 1.63478,0.81739 0.8,0.38261 1.65218,0.78261 0.86956,0.38261 1.94782,0.78261 0.13913,0.76522 0.27826,1.3913 0.13913,0.6087 0.27826,1.33913 -0.5913,0.24348 -0.97391,0.41739 -0.38261,0.15653 -0.73043,0.33044 -0.33044,0.15652 -0.71305,0.36522 -0.38261,0.1913 -1.00869,0.50434 -1.87826,0.92174 -4.08696,1.87827 -2.2087,0.95652 -4.62609,1.73913 -2.4,0.76521 -4.95652,1.25217 -2.53913,0.48696 -5.07826,0.48696 l -3.44348,0 q -0.57391,0 -0.97391,-0.4 -0.41739,-0.4 -0.41739,-0.95653 z m 14.26087,-20.64347 -2.55652,2.55652 -2.57392,-2.57392 2.55652,-2.55652 2.57392,2.57392 z"
         style=""
         id="path4237" />
      <path
         d="m 841.73305,336.11458 q -0.36522,0.0174 -0.71304,0.0174 -0.34783,0 -0.69566,0 -0.4,0 -0.86956,0 -0.45217,-0.0174 -1.32174,-0.0696 l -0.0696,0 q -2.53914,-0.13913 -5.2,-0.69565 -2.64348,-0.57391 -5.37392,-1.6 0.27826,-0.71304 0.48696,-1.30435 0.22609,-0.5913 0.48696,-1.25217 1.02608,0.4 2.12173,0.74782 1.11305,0.33044 2.33044,0.62609 0.36522,-0.53913 0.9913,-1.3913 0.62609,-0.86957 1.33913,-1.75652 l 0.43479,-0.62609 q 0.12174,-0.83478 0.15652,-1.49565 0.0522,-0.67826 0.0522,-1.25218 0,-0.5913 -0.0348,-1.14782 -0.0174,-0.57392 -0.0174,-1.2 0,-1.07826 -0.0696,-2.29566 -0.0522,-1.23478 -0.17391,-2.81739 -0.12174,-1.58261 -0.26087,-2.97391 -0.12174,-1.4087 -0.24348,-2.52174 -0.12174,-1.11304 -0.22608,-1.89565 -0.10435,-0.78261 -0.15653,-1.14783 l 2.69566,-0.60869 q 0.0348,0.26087 0.087,0.81739 0.0696,0.53913 0.13913,1.26956 0.087,0.73044 0.17392,1.58261 0.10434,0.85218 0.1913,1.72174 0.087,0.86957 0.15652,1.70435 0.087,0.81739 0.15652,1.49565 l 0.0696,0.81739 q 0.0696,0.83478 0.10435,1.30435 0.0348,0.46957 0.0348,0.83478 0.0174,0.36522 0.0174,0.74783 0.0174,0.38261 0.0348,1.02609 l 0.0696,2.90434 q 4.67826,-4.45217 8.4,-4.9913 0.29565,-0.0522 0.5913,-0.087 0.29565,-0.0348 0.59131,-0.0348 1.13043,0 2.26087,0.36522 1.14782,0.36521 2.06956,1.06087 0.92174,0.67826 1.51305,1.66956 0.60869,0.97392 0.67826,2.19131 0.0522,0.90434 -0.22609,1.98261 -0.26087,1.07826 -0.81739,2.12173 -0.53913,1.04348 -1.33913,1.96522 -0.78261,0.90435 -1.77392,1.44348 l 7.0087,0.0348 0.13913,0 q 0.57391,0 0.95652,0.4 0.4,0.38261 0.4,0.95652 0,0.55653 -0.4,0.95653 -0.38261,0.4 -0.95652,0.4 l -16,0 z m -0.31304,-2.74783 q 1.07826,-0.0522 2.20869,-0.2087 1.13044,-0.17391 2.27826,-0.55652 1.14783,-0.4 2.29566,-1.04348 1.16521,-0.66087 2.29565,-1.68695 0.31304,-0.34783 0.60869,-0.8 0.31305,-0.46957 0.52174,-0.97392 0.22609,-0.52173 0.33044,-1.07826 0.12174,-0.55652 0.0696,-1.07826 -0.087,-0.69565 -0.45217,-1.18261 -0.36522,-0.48695 -0.90435,-0.8 -0.53913,-0.31304 -1.18261,-0.45217 -0.62608,-0.15652 -1.23478,-0.15652 -0.43478,0 -0.8,0.0522 -1.82609,0.29565 -3.98261,1.79131 -2.15652,1.49565 -4.53913,4.13913 l -3.04348,3.86087 5.53044,0.17391 z"
         style=""
         id="path4239" />
    </g>
    <g
       style="font-style:normal;font-weight:normal;font-size:40px;line-height:125%;font-family:sans-serif;letter-spacing:0px;word-spacing:0px;fill:#000000;fill-opacity:1;stroke:none;stroke-width:1px;stroke-linecap:butt;stroke-linejoin:miter;stroke-opacity:1"
       id="text4307">
      <path
         d="m 1004.5265,549.81189 q 0,-0.57392 0.4174,-0.95652 0.4,-0.4 0.974,-0.4 l 3.4434,0 q 2.3479,0 4.7479,-0.46957 2.4,-0.48696 4.7478,-1.26956 2.3652,-0.78261 4.6435,-1.79131 2.2956,-1.00869 4.4347,-2.08696 l -5.1826,-2.15652 q -0.8174,-0.38261 -1.6174,-0.74782 -0.7826,-0.36522 -1.5304,-0.64348 -0.7304,-0.29565 -1.4087,-0.45218 -0.6609,-0.17391 -1.2348,-0.17391 -0.6608,0 -1.2521,0.24348 -0.5913,0.22609 -1.1131,0.6087 -0.5043,0.3826 -0.9391,0.85217 -0.4348,0.46956 -0.7826,0.93913 -0.3479,0.46956 -0.5913,0.88696 -0.2435,0.4 -0.3826,0.64347 l -2.3305,-1.3913 q 0.1913,-0.4 0.5392,-0.97391 0.3652,-0.59131 1.026,-1.39131 1.287,-1.56521 2.7653,-2.34782 1.4782,-0.8 3.0608,-0.8 0.8174,0 1.6522,0.1913 0.8522,0.19131 1.7217,0.50435 0.8696,0.31304 1.7566,0.73043 0.9043,0.4 1.8261,0.83479 1.0086,0.46956 1.826,0.88695 0.8348,0.41739 1.6348,0.81739 0.8,0.38261 1.6522,0.78261 0.8696,0.38261 1.9478,0.78261 0.1392,0.76522 0.2783,1.39131 0.1391,0.60869 0.2782,1.33913 -0.5913,0.24347 -0.9739,0.41739 -0.3826,0.15652 -0.7304,0.33043 -0.3304,0.15652 -0.713,0.36522 -0.3827,0.1913 -1.0087,0.50435 -1.8783,0.92174 -4.087,1.87826 -2.2087,0.95652 -4.6261,1.73913 -2.4,0.76522 -4.9565,1.25217 -2.5391,0.48696 -5.0783,0.48696 l -3.4434,0 q -0.574,0 -0.974,-0.4 -0.4174,-0.4 -0.4174,-0.95652 z m 14.2609,-20.64348 -2.5565,2.55652 -2.5739,-2.57391 2.5565,-2.55652 2.5739,2.57391 z"
         style="font-style:normal;font-variant:normal;font-weight:300;font-stretch:normal;font-family:IRANSans;-inkscape-font-specification:'IRANSans Light'"
         id="path4214" />
      <path
         d="m 989.58415,560.64667 q 2.64348,-0.57391 4.74783,-1.6 2.12174,-1.02609 3.63478,-2.31304 1.51305,-1.26957 2.40004,-2.71305 0.8869,-1.44348 1.0956,-2.85217 l -1.3391,0 q -0.64349,0 -1.35654,-0.0174 -0.69565,-0.0174 -1.37391,-0.0696 -3.6,-0.24348 -5.32174,-2.34782 l 0,0.0174 q -0.55652,-0.71305 -0.81739,-1.6 -0.24348,-0.88696 -0.24348,-1.87826 0,-0.8 0.15652,-1.61739 0.17392,-0.83479 0.43479,-1.63479 0.27826,-0.8 0.64347,-1.51304 0.38261,-0.71304 0.8,-1.28696 0.8,-0.9913 1.79131,-1.53043 0.9913,-0.55652 2,-0.55652 2.31304,0 4.27827,2.12174 l 0,-0.0174 q 0.713,0.8 1.2869,1.82609 0.574,1.02609 0.974,2.22609 0.4174,1.18261 0.6608,2.50435 0.2435,1.30434 0.2783,2.66087 l 1.6348,0 q 0.5739,0 0.9739,0.4 0.4174,0.3826 0.4174,0.97391 0,0.55652 -0.4174,0.95652 -0.4,0.38261 -0.9739,0.38261 l -1.8609,0 q -0.5043,2.53913 -1.8261,4.5913 -1.3217,2.06957 -3.18259,3.6 -1.86087,1.54783 -4.13913,2.53913 -2.27826,1.0087 -4.71305,1.42609 l -0.64348,-2.67826 z m 7.25218,-20.78261 q -0.64348,0 -1.26957,0.53913 -0.62608,0.52174 -1.13043,1.32174 -0.48696,0.78261 -0.8,1.72174 -0.31304,0.93913 -0.31304,1.77391 0,0.57392 0.17391,1.04348 0.17391,0.46957 0.43478,0.8 l 0,-0.0174 q 0.29565,0.38261 0.76522,0.62609 0.48695,0.24348 1.00869,0.4 0.52174,0.13913 1.0087,0.20869 0.50435,0.0696 0.85217,0.087 0.97392,0.0522 2.03479,0.0522 1.07825,0 1.96525,-0.087 -0.052,-1.21739 -0.2783,-2.29566 -0.2261,-1.09565 -0.5739,-2.01739 -0.3304,-0.92174 -0.76523,-1.65217 -0.41739,-0.74783 -0.88695,-1.26957 -0.19131,-0.20869 -0.43479,-0.41739 -0.24348,-0.22608 -0.53913,-0.4 -0.27826,-0.1913 -0.5913,-0.29565 -0.31305,-0.12174 -0.66087,-0.12174 z"
         style="font-style:normal;font-variant:normal;font-weight:300;font-stretch:normal;font-family:IRANSans;-inkscape-font-specification:'IRANSans Light'"
         id="path4216" />
      <path
         d="m 970.55739,551.16841 q -3.02609,-0.0348 -5.53044,-0.4 -2.50434,-0.36522 -4.34782,-1.02609 -1.68696,-0.66087 -2.88696,-1.61739 -1.2,-0.97391 -1.7913,-2.1913 -0.69566,-1.32174 -0.69566,-2.93913 0,-0.76522 0.17392,-1.6 0.17391,-0.85218 0.48695,-1.68696 0.34783,-0.88696 0.71305,-1.54783 0.36521,-0.67826 0.5913,-1.02608 l 2.19131,1.63478 q -0.0522,0.0696 -0.087,0.13913 -0.0348,0.0522 -0.12174,0.24348 -0.087,0.17391 -0.26087,0.55652 -0.17391,0.36522 -0.50435,1.04348 -0.22608,0.60869 -0.36521,1.16522 -0.12174,0.55652 -0.12174,1.06086 0,0.45218 0.10434,0.90435 0.10435,0.43479 0.27827,0.8 0.48695,0.86957 1.54782,1.56522 1.06087,0.67826 2.6087,1.16522 1.56521,0.46956 3.58261,0.74782 2.01739,0.26087 4.43478,0.26087 1.40869,0 3.09565,-0.12174 1.68696,-0.12174 3.44348,-0.43478 1.75652,-0.31304 3.49565,-0.85217 1.75652,-0.53913 3.30435,-1.39131 -0.10435,-1.11304 -0.52174,-2.31304 -0.4,-1.2 -0.92174,-2.26087 -0.50435,-1.06087 -0.9913,-1.87826 -0.48696,-0.83478 -0.73044,-1.23478 l 2.31304,-1.49566 q 0.22609,0.36522 0.64348,1.09566 0.43479,0.71304 0.88696,1.65217 0.45217,0.93913 0.86956,2.03478 0.43479,1.09566 0.69566,2.19131 0.12174,0.52174 0.1913,0.9913 0.0696,0.45218 0.0696,0.88696 0,0.78261 -0.43479,1.44348 -0.41739,0.64347 -1.3913,1.28695 -1.2,0.67826 -2.92174,1.26957 -1.72174,0.5913 -3.65217,1.00869 -1.91305,0.4174 -3.86087,0.66087 -1.94783,0.22609 -3.58261,0.2087 z m 2.78261,6.62609 -2.55652,2.55652 -2.57392,-2.57392 2.55652,-2.55652 2.57392,2.57392 z"
         style="font-style:normal;font-variant:normal;font-weight:300;font-stretch:normal;font-family:IRANSans;-inkscape-font-specification:'IRANSans Light'"
         id="path4218" />
      <path
         d="m 914.84543,549.7945 q 0,-0.55653 0.41739,-0.93913 0.41739,-0.4 1.0087,-0.4 l 0.15652,0 q 1.18261,0 2.08696,-0.0174 0.90434,-0.0348 1.63478,-0.087 0.73043,-0.0522 1.32174,-0.12174 0.60869,-0.0696 1.16522,-0.15652 -1.51305,-1.47826 -2.26087,-2.90435 -0.73044,-1.42609 -0.73044,-2.74783 0,-0.92174 0.26087,-1.93043 0.27826,-1.0087 0.83478,-1.93044 0.55653,-0.92174 1.42609,-1.65217 0.88696,-0.74783 2.10435,-1.14783 l -1.86087,-0.71304 1.33913,-2.50435 q 0.83478,0.31305 1.54783,0.59131 0.71304,0.27826 1.3913,0.55652 0.67826,0.26087 1.35652,0.53913 0.69565,0.26087 1.46087,0.53913 1.58261,0.69565 3.09565,1.42609 1.51305,0.71304 2.8,1.44347 1.30435,0.73044 2.27826,1.47827 0.99131,0.73043 1.51305,1.44347 1.53043,2.10435 1.53043,4.31305 0,1.61739 -0.86956,3.02608 -0.85218,1.39131 -2.59131,2.33044 l 0.0174,-0.0174 q -0.46956,0.27826 -1.13043,0.46956 -0.66087,0.19131 -1.3913,0.31305 -0.73044,0.12174 -1.47827,0.17391 -0.73043,0.0522 -1.32173,0.0522 -1.51305,0 -2.93914,-0.22608 -1.42608,-0.22609 -2.90434,-0.83479 -0.88696,0.27826 -2.05218,0.46957 -1.16521,0.1913 -2.45217,0.31304 -1.26957,0.12174 -2.6087,0.17392 -1.32174,0.0522 -2.57391,0.0522 l -0.15652,0 q -0.59131,0 -1.0087,-0.4 -0.41739,-0.4 -0.41739,-0.97391 z m 17.73913,-8.2087 q 0,0.78261 -0.24348,1.68696 -0.22608,0.88695 -0.66087,1.7913 -0.41739,0.90435 -1.02608,1.75652 -0.6087,0.83479 -1.35652,1.51305 0.7826,0.15652 1.33913,0.20869 0.57391,0.0348 0.9913,0.0348 l 0.83478,0 q 1.4087,0 2.46957,-0.31304 1.07826,-0.31304 1.7913,-0.85217 0.73044,-0.53913 1.07826,-1.25218 0.36522,-0.71304 0.36522,-1.49565 0,-0.69565 -0.4,-1.51304 -0.4,-0.83478 -1.18261,-1.65218 -0.76522,-0.81739 -1.89565,-1.5826 -1.11304,-0.76522 -2.57391,-1.35653 0.36521,0.88696 0.41739,1.61739 0.0696,0.73044 0.0522,1.2 l 0,0.2087 z m -5.14782,-4 q -0.12174,-0.0348 -0.24348,-0.0522 -0.10435,-0.0174 -0.19131,0 -1.13043,0.10434 -2.05217,0.5913 -0.92174,0.46957 -1.54783,1.18261 -0.62608,0.71304 -0.92174,1.6 -0.27826,0.86956 -0.13913,1.7913 0.10435,0.67826 0.4174,1.32174 0.33043,0.64348 0.8,1.21739 0.46956,0.57392 1.06086,1.07827 0.6087,0.48695 1.26957,0.86956 0.97391,-0.41739 1.68696,-1.06087 0.73043,-0.66087 1.2,-1.42609 0.46956,-0.7826 0.69565,-1.61739 0.24348,-0.85217 0.24348,-1.63478 0,-0.71304 -0.17392,-1.37391 -0.15652,-0.66087 -0.45217,-1.18261 -0.29565,-0.53913 -0.71304,-0.88696 -0.41739,-0.34782 -0.92174,-0.41739 l -0.0174,0 z"
         style="font-style:normal;font-variant:normal;font-weight:300;font-stretch:normal;font-family:IRANSans;-inkscape-font-specification:'IRANSans Light'"
         id="path4220" />
      <path
         d="m 916.06337,551.16841 q -1.84348,0 -3.14783,-0.41739 -1.30435,-0.43478 -2.1913,-1.32174 -0.53913,-0.53913 -0.83479,-1.16522 -0.27826,-0.62609 -0.41739,-1.23478 -0.12174,-0.6087 -0.13913,-1.16522 -0.0174,-0.55652 -0.0174,-0.95652 l 0,-0.31304 q 0.0174,-0.29566 0.0348,-1.54783 0.0348,-1.26957 0.0348,-3.09565 0,-0.64348 -0.0174,-1.46087 0,-0.81739 -0.0174,-1.54783 0,-1.37391 -0.0348,-2.92174 -0.0348,-1.56521 -0.10435,-3.04348 -0.0696,-1.47826 -0.17391,-2.76521 -0.087,-1.28696 -0.22609,-2.12174 l 2.71305,-0.48696 q 0.15652,0.92174 0.26087,2.17391 0.10434,1.25218 0.15652,2.69566 0.0696,1.44348 0.10435,3.00869 0.0348,1.54783 0.0348,3.04348 0.0174,1.0087 0.0174,1.96522 0.0174,0.93913 0.0174,1.80869 0,1.33913 -0.0174,2.34783 0,1.0087 -0.0174,1.53043 l 0,0.45218 0,0.31304 q -0.0174,0.83478 0.0696,1.47826 0.087,0.62609 0.55652,1.07826 0.43479,0.43479 1.23479,0.69566 0.8,0.24347 1.96521,0.26087 l 0.15653,0 q 0.55652,0 0.95652,0.4 0.41739,0.4 0.41739,0.95652 0,0.57391 -0.41739,0.97391 -0.4,0.38261 -0.95652,0.38261 z"
         style="font-style:normal;font-variant:normal;font-weight:300;font-stretch:normal;font-family:IRANSans;-inkscape-font-specification:'IRANSans Light'"
         id="path4222" />
    </g>
    <g
       style="font-style:normal;font-weight:normal;font-size:40px;line-height:125%;font-family:sans-serif;letter-spacing:0px;word-spacing:0px;fill:#000000;fill-opacity:1;stroke:none;stroke-width:1px;stroke-linecap:butt;stroke-linejoin:miter;stroke-opacity:1"
       id="text4321">
      <path
         d="m 94.441234,273.20169 q 0,-0.57391 0.4,-0.95652 0.4,-0.4 0.956521,-0.4 l 1.791305,0 q 0.191304,0 0.382609,0.0174 0.208695,0 0.4,0 0.834782,0 1.6,-0.087 0.782611,-0.087 1.426091,-0.33043 0.66087,-0.24348 1.16521,-0.69566 0.50435,-0.45217 0.83479,-1.16521 l 0,0.0174 q 0.27826,-0.57391 0.27826,-1.53044 0,-1.63478 -0.76522,-4.08695 -0.13913,-0.43479 -0.34783,-0.93913 -0.1913,-0.50435 -0.38261,-0.97392 -0.1913,-0.48695 -0.3826,-0.88695 -0.17392,-0.4 -0.27827,-0.64348 l 2.46957,-1.23478 q 0.10435,0.24347 0.27826,0.62608 0.17391,0.38261 0.38261,0.88696 0.2087,0.50435 0.41739,1.09565 0.22609,0.59131 0.43478,1.23478 0.45218,1.4087 0.67826,2.62609 0.22609,1.21739 0.22609,2.26087 0,1.53044 -0.48696,2.66087 -0.60869,1.26957 -1.66956,2.19131 -1.04348,0.90434 -2.50435,1.30434 -0.90435,0.26087 -1.773911,0.31305 -0.852174,0.0522 -1.634783,0.0522 l -2.539131,0 q -0.556521,0 -0.956521,-0.38261 -0.4,-0.4 -0.4,-0.97391 z m 9.147826,8.24348 -2.55652,2.55652 -2.573915,-2.57391 2.556525,-2.55653 2.57391,2.57392 z"
         style="font-style:normal;font-variant:normal;font-weight:300;font-stretch:normal;font-family:IRANSans;-inkscape-font-specification:'IRANSans Light'"
         id="path4196" />
      <path
         d="m 82.644359,274.55821 q -0.939131,0 -1.878261,-0.1913 -0.921739,-0.2087 -1.808696,-0.57392 -0.869565,-0.38261 -1.686956,-0.92174 -0.8,-0.55652 -1.478261,-1.23478 0.434782,-0.60869 0.8,-1.09565 0.365217,-0.50435 0.782609,-1.09565 1.373913,1.18261 2.869565,1.75652 1.513043,0.57391 2.834782,0.57391 0.66087,0 1.443479,-0.12174 0.782608,-0.13913 1.391304,-0.38261 0.452174,-0.17391 0.904348,-0.4 0.469565,-0.22608 0.886956,-0.45217 0.417392,-0.22609 0.730435,-0.43478 0.330435,-0.22609 0.521739,-0.41739 l -5.443478,-13.11305 q 0.713043,-0.29565 1.269565,-0.53913 0.573913,-0.24348 1.234783,-0.52174 0.521739,1.28696 1.321739,3.18261 0.660869,1.63478 1.686956,4.10435 1.043479,2.46956 2.469566,5.91304 0.295652,0.74783 0.573913,1.35652 0.278261,0.59131 0.730434,1.02609 0.469566,0.41739 1.182609,0.64348 0.713044,0.22609 1.86087,0.22609 0.556521,0 0.956521,0.4 0.417392,0.38261 0.417392,0.95652 0,0.57391 -0.417392,0.97391 -0.4,0.38261 -0.956521,0.38261 -1.078261,0 -1.930435,-0.1913 -0.852174,-0.19131 -1.530435,-0.52174 -0.660869,-0.34783 -1.182609,-0.78261 -0.504347,-0.45218 -0.886956,-0.95652 -0.295652,0.22608 -0.713044,0.46956 -0.4,0.22609 -0.869565,0.45218 -0.452174,0.20869 -0.921739,0.41739 -0.469565,0.20869 -0.886956,0.38261 l 0.01739,0 q -0.939131,0.36521 -1.982609,0.55652 -1.026087,0.17391 -2.313043,0.17391 z"
         style="font-style:normal;font-variant:normal;font-weight:300;font-stretch:normal;font-family:IRANSans;-inkscape-font-specification:'IRANSans Light'"
         id="path4198" />
      <path
         d="m 47.071533,273.1843 q 0,-0.55652 0.417391,-0.93913 0.417391,-0.4 1.008696,-0.4 l 0.156521,0 q 1.182609,0 2.086957,-0.0174 0.904348,-0.0348 1.634782,-0.087 0.730435,-0.0522 1.32174,-0.12174 0.608695,-0.0696 1.165217,-0.15652 -1.513043,-1.47826 -2.26087,-2.90435 -0.730434,-1.42609 -0.730434,-2.74783 0,-0.92173 0.260869,-1.93043 0.278261,-1.0087 0.834783,-1.93044 0.556522,-0.92173 1.426087,-1.65217 0.886956,-0.74783 2.104348,-1.14783 l -1.86087,-0.71304 1.33913,-2.50435 q 0.834783,0.31305 1.547827,0.59131 0.713043,0.27826 1.391304,0.55652 0.678261,0.26087 1.356522,0.53913 0.695652,0.26087 1.460869,0.53913 1.582609,0.69565 3.095652,1.42609 1.513044,0.71304 2.8,1.44348 1.304348,0.73043 2.278261,1.47826 0.991305,0.73043 1.513044,1.44347 1.530435,2.10435 1.530435,4.31305 0,1.61739 -0.869566,3.02609 -0.852174,1.3913 -2.591304,2.33043 l 0.01739,-0.0174 q -0.469565,0.27826 -1.130435,0.46956 -0.660869,0.19131 -1.391304,0.31305 -0.730435,0.12174 -1.478261,0.17391 -0.730435,0.0522 -1.321739,0.0522 -1.513043,0 -2.93913,-0.22608 -1.426087,-0.22609 -2.904348,-0.83479 -0.886957,0.27827 -2.052174,0.46957 -1.165217,0.1913 -2.452174,0.31304 -1.269565,0.12174 -2.608696,0.17392 -1.321739,0.0522 -2.573913,0.0522 l -0.156521,0 q -0.591305,0 -1.008696,-0.4 -0.417391,-0.4 -0.417391,-0.97391 z m 17.73913,-8.2087 q 0,0.78261 -0.243478,1.68696 -0.226087,0.88695 -0.66087,1.7913 -0.417391,0.90435 -1.026087,1.75652 -0.608695,0.83479 -1.356521,1.51305 0.782608,0.15652 1.33913,0.20869 0.573913,0.0348 0.991304,0.0348 l 0.834783,0 q 1.408696,0 2.469565,-0.31305 1.078261,-0.31304 1.791305,-0.85217 0.730434,-0.53913 1.07826,-1.25218 0.365218,-0.71304 0.365218,-1.49565 0,-0.69565 -0.4,-1.51304 -0.4,-0.83478 -1.182609,-1.65217 -0.765217,-0.8174 -1.895652,-1.58261 -1.113044,-0.76522 -2.573913,-1.35653 0.365217,0.88696 0.417391,1.6174 0.06956,0.73043 0.05217,1.2 l 0,0.20869 z m -5.147826,-4 q -0.121739,-0.0348 -0.243478,-0.0522 -0.104348,-0.0174 -0.191305,0 -1.130434,0.10435 -2.052174,0.5913 -0.921739,0.46957 -1.547826,1.18261 -0.626087,0.71304 -0.921739,1.6 -0.278261,0.86957 -0.13913,1.79131 0.104348,0.67826 0.417391,1.32173 0.330435,0.64348 0.8,1.2174 0.469565,0.57391 1.06087,1.07826 0.608695,0.48695 1.269565,0.86956 0.973913,-0.41739 1.686956,-1.06087 0.730435,-0.66087 1.2,-1.42608 0.469566,-0.78261 0.695653,-1.6174 0.243478,-0.85217 0.243478,-1.63478 0,-0.71304 -0.173913,-1.37391 -0.156522,-0.66087 -0.452174,-1.18261 -0.295652,-0.53913 -0.713044,-0.88696 -0.417391,-0.34782 -0.921739,-0.41739 l -0.01739,0 z"
         style="font-style:normal;font-variant:normal;font-weight:300;font-stretch:normal;font-family:IRANSans;-inkscape-font-specification:'IRANSans Light'"
         id="path4200" />
      <path
         d="m 48.289467,274.55821 q -1.843478,0 -3.147826,-0.41739 -1.304347,-0.43478 -2.191304,-1.32174 -0.53913,-0.53913 -0.834783,-1.16522 -0.27826,-0.62608 -0.417391,-1.23478 -0.121739,-0.6087 -0.13913,-1.16522 -0.01739,-0.55652 -0.01739,-0.95652 l 0,-0.31304 q 0.01739,-0.29565 0.03478,-1.54783 0.03478,-1.26956 0.03478,-3.09565 0,-0.64348 -0.01739,-1.46087 0,-0.81739 -0.01739,-1.54783 0,-1.37391 -0.03478,-2.92174 -0.03478,-1.56521 -0.104347,-3.04347 -0.06957,-1.47826 -0.173914,-2.76522 -0.08696,-1.28696 -0.226086,-2.12174 l 2.713043,-0.48696 q 0.156522,0.92174 0.26087,2.17392 0.104347,1.25217 0.156521,2.69565 0.06957,1.44348 0.104348,3.00869 0.03478,1.54783 0.03478,3.04348 0.01739,1.0087 0.01739,1.96522 0.01739,0.93913 0.01739,1.8087 0,1.33913 -0.01739,2.34782 0,1.0087 -0.01739,1.53044 l 0,0.45217 0,0.31304 q -0.01739,0.83479 0.06956,1.47826 0.08696,0.62609 0.556522,1.07827 0.434782,0.43478 1.234782,0.69565 0.8,0.24348 1.965218,0.26087 l 0.156521,0 q 0.556522,0 0.956522,0.4 0.417391,0.4 0.417391,0.95652 0,0.57391 -0.417391,0.97391 -0.4,0.38261 -0.956522,0.38261 z"
         style="font-style:normal;font-variant:normal;font-weight:300;font-stretch:normal;font-family:IRANSans;-inkscape-font-specification:'IRANSans Light'"
         id="path4202" />
    </g>
    <path
       style="fill:none;fill-rule:evenodd;stroke:#000000;stroke-width:1px;stroke-linecap:butt;stroke-linejoin:miter;stroke-opacity:1"
       d="m 967.72811,522.43148 c 36.06249,-69.65002 1.41422,-53.03301 1.41422,-53.03301 l 0,0"
       id="path4325"
       inkscape:connector-curvature="0" />
    <path
       style="fill:none;fill-rule:evenodd;stroke:#000000;stroke-width:1px;stroke-linecap:butt;stroke-linejoin:miter;stroke-opacity:1"
       d="m 892.77178,539.82488 c -128,-197 -282,-102 -282,-102 l 0,0 0,2"
       id="path4327"
       inkscape:connector-curvature="0" />
    <path
       style="fill:none;fill-rule:evenodd;stroke:#000000;stroke-width:1px;stroke-linecap:butt;stroke-linejoin:miter;stroke-opacity:1"
       d="m 886.77178,546.82488 c -604,1 -548,-136.00001 -548,-136.00001 l -1,1"
       id="path4329"
       inkscape:connector-curvature="0" />
    <path
       style="fill:none;fill-rule:evenodd;stroke:#000000;stroke-width:1px;stroke-linecap:butt;stroke-linejoin:miter;stroke-opacity:1"
       d="m 69.771784,281.82487 c 79.999996,67.00001 49.999996,98.00001 49.999996,98.00001"
       id="path4331"
       inkscape:connector-curvature="0" />
    <path
       style="fill:none;fill-rule:evenodd;stroke:#000000;stroke-width:1px;stroke-linecap:butt;stroke-linejoin:miter;stroke-opacity:1"
       d="m 114.77178,266.82488 c 345,-5 345,81 345,81"
       id="path4333"
       inkscape:connector-curvature="0" />
    <path
       style="fill:none;fill-rule:evenodd;stroke:#000000;stroke-width:1px;stroke-linecap:butt;stroke-linejoin:miter;stroke-opacity:1"
       d="m 113.77178,254.82487 c 449,-36 480,55.00001 480,55.00001"
       id="path4335"
       inkscape:connector-curvature="0" />
    <path
       style="fill:none;fill-rule:evenodd;stroke:#000000;stroke-width:1px;stroke-linecap:butt;stroke-linejoin:miter;stroke-opacity:1"
       d="m 94.771784,247.82487 c 682.999996,-59 703.999996,61.00001 703.999996,61.00001"
       id="path4337"
       inkscape:connector-curvature="0" />
    <path
       style="fill:#000000;fill-opacity:1;stroke:none;stroke-width:5;stroke-miterlimit:4;stroke-dasharray:none;stroke-opacity:1"
       d="m 123.31012,382.43033 -3.42391,-2.71774 -0.003,0.004 -3.42349,-2.71741 -10.90981,20.77592 0.005,-0.006 17.75563,-15.33877 z"
       id="rect4339"
       inkscape:connector-curvature="0" />
    <path
       style="fill:#000000;fill-opacity:1;stroke:none;stroke-width:5;stroke-miterlimit:4;stroke-dasharray:none;stroke-opacity:1"
       d="m 464.183,347.27004 -4.36981,-0.11821 0,0.005 -4.36928,-0.11821 3.74631,23.16523 1.9e-4,-0.008 4.99273,-22.92625 z"
       id="rect4339-7"
       inkscape:connector-curvature="0" />
    <path
       style="fill:#000000;fill-opacity:1;stroke:none;stroke-width:5;stroke-miterlimit:4;stroke-dasharray:none;stroke-opacity:1"
       d="m 596.23447,305.99695 -3.51899,2.59344 0.003,0.004 -3.51857,2.59312 17.19714,15.96624 -0.005,-0.006 L 596.234,305.997 Z"
       id="rect4339-7-5"
       inkscape:connector-curvature="0" />
    <path
       style="fill:#000000;fill-opacity:1;stroke:none;stroke-width:5;stroke-miterlimit:4;stroke-dasharray:none;stroke-opacity:1"
       d="m 802.01866,304.8624 -4.04824,1.64952 0.002,0.005 -4.04776,1.64932 12.74806,19.70151 -0.003,-0.007 -4.65107,-22.99799 z"
       id="rect4339-7-3"
       inkscape:connector-curvature="0" />
    <path
       style="fill:#000000;fill-opacity:1;stroke:none;stroke-width:5;stroke-miterlimit:4;stroke-dasharray:none;stroke-opacity:1"
       d="m 972.81539,473.12289 -1.57459,-4.07797 -0.005,0.002 -1.57438,-4.07749 -19.93328,12.38253 0.007,-0.003 23.07987,-4.22613 z"
       id="rect4339-7-56"
       inkscape:connector-curvature="0" />
    <path
       style="fill:#000000;fill-opacity:1;stroke:none;stroke-width:5;stroke-miterlimit:4;stroke-dasharray:none;stroke-opacity:1"
       d="m 615.98668,439.7664 -3.56617,-2.52816 -0.003,0.004 -3.56573,-2.52787 -9.76778,21.33666 0.005,-0.007 16.89823,-16.27853 z"
       id="rect4339-7-2"
       inkscape:connector-curvature="0" />
    <path
       style="fill:#000000;fill-opacity:1;stroke:none;stroke-width:5;stroke-miterlimit:4;stroke-dasharray:none;stroke-opacity:1"
       d="m 334.08369,411.7346 4.2682,0.94427 9.6e-4,-0.005 4.26766,0.94425 0.71228,-23.45539 -0.002,0.008 -9.24762,21.56436 z"
       id="rect4339-7-9"
       inkscape:connector-curvature="0" />
  </g>
</svg>
