<?xml version="1.0" encoding="UTF-8" standalone="no"?>
<!-- Created with Inkscape (http://www.inkscape.org/) -->

<svg
   width="10.612598mm"
   height="9.3384447mm"
   viewBox="0 0 10.612599 9.3384446"
   version="1.1"
   id="svg8"
   inkscape:version="1.1.2 (0a00cf5339, 2022-02-04)"
   sodipodi:docname="artificial intelligence.svg"
   xmlns:inkscape="http://www.inkscape.org/namespaces/inkscape"
   xmlns:sodipodi="http://sodipodi.sourceforge.net/DTD/sodipodi-0.dtd"
   xmlns="http://www.w3.org/2000/svg"
   xmlns:svg="http://www.w3.org/2000/svg"
   xmlns:rdf="http://www.w3.org/1999/02/22-rdf-syntax-ns#"
   xmlns:cc="http://creativecommons.org/ns#"
   xmlns:dc="http://purl.org/dc/elements/1.1/">
  <defs
     id="defs2">
    <marker
       inkscape:stockid="Arrow1Send"
       orient="auto"
       refY="0"
       refX="0"
       id="marker1211"
       style="overflow:visible"
       inkscape:isstock="true">
      <path
         id="path1209"
         d="M 0,0 5,-5 -12.5,0 5,5 Z"
         style="fill:#000000;fill-opacity:1;fill-rule:evenodd;stroke:#000000;stroke-width:1.00000003pt;stroke-opacity:1"
         transform="matrix(-0.2,0,0,-0.2,-1.2,0)"
         inkscape:connector-curvature="0" />
    </marker>
    <marker
       inkscape:stockid="Arrow1Mend"
       orient="auto"
       refY="0"
       refX="0"
       id="Arrow1Mend"
       style="overflow:visible"
       inkscape:isstock="true">
      <path
         id="path876"
         d="M 0,0 5,-5 -12.5,0 5,5 Z"
         style="fill:#000000;fill-opacity:1;fill-rule:evenodd;stroke:#000000;stroke-width:1.00000003pt;stroke-opacity:1"
         transform="matrix(-0.4,0,0,-0.4,-4,0)"
         inkscape:connector-curvature="0" />
    </marker>
    <marker
       inkscape:stockid="Arrow1Send"
       orient="auto"
       refY="0"
       refX="0"
       id="Arrow1Send"
       style="overflow:visible"
       inkscape:isstock="true">
      <path
         id="path882"
         d="M 0,0 5,-5 -12.5,0 5,5 Z"
         style="fill:#000000;fill-opacity:1;fill-rule:evenodd;stroke:#000000;stroke-width:1.00000003pt;stroke-opacity:1"
         transform="matrix(-0.2,0,0,-0.2,-1.2,0)"
         inkscape:connector-curvature="0" />
    </marker>
    <marker
       inkscape:stockid="Arrow1Lend"
       orient="auto"
       refY="0"
       refX="0"
       id="Arrow1Lend"
       style="overflow:visible"
       inkscape:isstock="true">
      <path
         id="path870"
         d="M 0,0 5,-5 -12.5,0 5,5 Z"
         style="fill:#000000;fill-opacity:1;fill-rule:evenodd;stroke:#000000;stroke-width:1.00000003pt;stroke-opacity:1"
         transform="matrix(-0.8,0,0,-0.8,-10,0)"
         inkscape:connector-curvature="0" />
    </marker>
  </defs>
  <sodipodi:namedview
     id="base"
     pagecolor="#ffffff"
     bordercolor="#666666"
     borderopacity="1.0"
     inkscape:pageopacity="0.0"
     inkscape:pageshadow="2"
     inkscape:zoom="5.6"
     inkscape:cx="12.410714"
     inkscape:cy="46.428571"
     inkscape:document-units="mm"
     inkscape:current-layer="layer1"
     showgrid="false"
     fit-margin-top="0"
     fit-margin-left="0"
     fit-margin-right="0"
     fit-margin-bottom="0"
     inkscape:window-width="1600"
     inkscape:window-height="832"
     inkscape:window-x="0"
     inkscape:window-y="0"
     inkscape:window-maximized="1"
     inkscape:pagecheckerboard="1" />
  <metadata
     id="metadata5">
    <rdf:RDF>
      <cc:Work
         rdf:about="">
        <dc:format>image/svg+xml</dc:format>
        <dc:type
           rdf:resource="http://purl.org/dc/dcmitype/StillImage" />
      </cc:Work>
    </rdf:RDF>
  </metadata>
  <g
     inkscape:label="Layer 1"
     inkscape:groupmode="layer"
     id="layer1"
     transform="translate(-33.075977,-100.2838)">
    <path
       style="fill:#666666;stroke-width:0.0166781;fill-opacity:1"
       d="m 37.376362,108.83112 c -0.123069,-0.0251 -0.239057,-0.0708 -0.350006,-0.13771 l -0.07824,-0.0472 -0.102538,0.0388 c -0.610035,0.23105 -1.319047,-0.15441 -1.421302,-0.77269 l -0.01947,-0.11771 -0.113562,-0.0199 c -0.142186,-0.0248 -0.358165,-0.12225 -0.488222,-0.22022 -0.248912,-0.18751 -0.425221,-0.53652 -0.425221,-0.84175 0,-0.13647 0.04653,-0.32573 0.112729,-0.4585 0.03261,-0.0654 0.05928,-0.12137 0.05928,-0.12437 0,-0.003 -0.04838,-0.0295 -0.107509,-0.0589 -0.146865,-0.0729 -0.33238,-0.25019 -0.411569,-0.39317 -0.09567,-0.17273 -0.123736,-0.2812 -0.123418,-0.47702 4.55e-4,-0.26828 0.08966,-0.47661 0.290317,-0.67797 l 0.105931,-0.10629 -0.03452,-0.0728 c -0.136582,-0.28792 -0.12881,-0.65567 0.0197,-0.93223 0.131046,-0.24403 0.359921,-0.44413 0.606511,-0.53025 l 0.07881,-0.0275 -0.02424,-0.11606 c -0.07787,-0.37273 0.10509,-0.81318 0.432938,-1.04226 0.275396,-0.19243 0.624731,-0.2695 0.938817,-0.20713 0.0615,0.0122 0.112385,0.0211 0.113087,0.0199 0.177643,-0.32406 0.47961,-0.546 0.83737,-0.61547 0.166633,-0.0323 0.288829,-0.0323 0.45651,-2e-5 0.35509,0.0685 0.661073,0.29151 0.812334,0.59207 l 0.05129,0.10194 1.3e-5,0.50533 1.5e-5,0.50532 h 0.267063 0.267064 l 0.06621,-0.0984 0.06621,-0.0984 -0.0573,-0.0895 c -0.192605,-0.30066 0.01507,-0.67108 0.390451,-0.69642 0.211002,-0.0143 0.393667,0.0827 0.486807,0.25844 0.06326,0.11934 0.06326,0.29437 0,0.41371 -0.09217,0.17386 -0.274011,0.2715 -0.482411,0.25903 l -0.110877,-0.006 -0.09447,0.14074 c -0.05195,0.0774 -0.106492,0.14508 -0.121184,0.15038 -0.0147,0.005 -0.173324,0.01 -0.352517,0.01 h -0.325791 l 0.0047,0.3032 0.0047,0.30319 0.836706,0.005 0.836705,0.005 0.208074,-0.23058 0.208074,-0.23058 2.29e-4,-0.22967 2.26e-4,-0.22967 -0.07465,-0.0311 c -0.0905,-0.0376 -0.186851,-0.12533 -0.238963,-0.2175 -0.03129,-0.0553 -0.03862,-0.0944 -0.03862,-0.20575 0,-0.11138 0.0073,-0.15039 0.03862,-0.20573 0.23588,-0.4172 0.884881,-0.30506 0.943401,0.163 0.02244,0.17942 -0.09895,0.38207 -0.277537,0.46333 l -0.07703,0.0351 v 0.24814 c 0,0.13649 -0.0069,0.265 -0.01545,0.28559 -0.01968,0.0477 -0.509323,0.5899 -0.552205,0.61148 -0.02024,0.0102 -0.360589,0.0162 -0.919167,0.0162 h -0.887054 v 0.23447 0.23447 l 0.907391,-7.9e-4 0.90739,-0.002 0.266627,-0.29125 c 0.146645,-0.16018 0.311821,-0.33792 0.36706,-0.39496 l 0.100432,-0.10372 h 0.28957 0.289572 l 0.01968,-0.056 c 0.01082,-0.0308 0.05376,-0.0917 0.09543,-0.13525 0.200661,-0.2098 0.545698,-0.2065 0.74574,0.007 0.214872,0.22947 0.13706,0.58575 -0.15939,0.7298 -0.119178,0.0579 -0.306606,0.0605 -0.426827,0.005 -0.09778,-0.0445 -0.224705,-0.16809 -0.255968,-0.24936 l -0.0229,-0.0596 h -0.22703 -0.227031 l -0.346609,0.37596 c -0.190635,0.20678 -0.371389,0.38868 -0.401677,0.40424 -0.05051,0.0259 -0.132318,0.0282 -0.988262,0.0283 l -0.933193,3e-5 v 0.44467 0.44469 h 0.959642 0.959643 l 0.07854,0.0768 c 0.04319,0.0423 0.211493,0.22052 0.373999,0.39617 l 0.295467,0.31937 h 0.23038 0.23038 l 0.01939,-0.0553 c 0.02857,-0.0814 0.143187,-0.19493 0.244871,-0.24256 0.06893,-0.0323 0.115092,-0.0418 0.203165,-0.0418 0.211459,0 0.358251,0.0788 0.456081,0.24483 0.0448,0.076 0.05102,0.10251 0.05073,0.21603 -2.79e-4,0.10827 -0.0078,0.14254 -0.04577,0.21021 -0.09589,0.17064 -0.251801,0.25899 -0.452748,0.25658 -0.07251,-7.8e-4 -0.146782,-0.0124 -0.186696,-0.0289 -0.09789,-0.0405 -0.228521,-0.16281 -0.262071,-0.24539 l -0.02896,-0.0713 h -0.290098 c -0.254155,0 -0.29382,-0.003 -0.320194,-0.0285 -0.01656,-0.0157 -0.183657,-0.19394 -0.371332,-0.39617 l -0.341229,-0.36769 H 39.49381 38.592215 v 0.23447 0.23448 h 0.884482 c 0.486464,0 0.897394,0.005 0.913176,0.0103 0.05252,0.0189 0.554277,0.58608 0.565599,0.63929 0.0059,0.0273 0.01053,0.15423 0.01053,0.28196 v 0.23224 l 0.05985,0.0236 c 0.0329,0.0129 0.09846,0.0574 0.145669,0.099 0.198485,0.17453 0.209689,0.45941 0.02564,0.65184 -0.173783,0.1817 -0.449028,0.21059 -0.663793,0.0697 -0.12298,-0.0807 -0.206146,-0.22726 -0.208806,-0.36796 -0.0036,-0.1934 0.09772,-0.35588 0.272058,-0.43606 l 0.09417,-0.0434 v -0.22489 -0.2249 l -0.202119,-0.22465 -0.20212,-0.22465 -0.847186,-0.002 -0.847184,-0.002 v 0.29106 0.29107 h 0.308821 c 0.201643,0 0.324371,0.007 0.353626,0.0192 0.02784,0.0119 0.07984,0.0741 0.137295,0.16422 l 0.09249,0.14503 0.129467,-0.003 c 0.153819,-0.005 0.257176,0.0315 0.360795,0.12464 0.132449,0.11907 0.184298,0.31557 0.129027,0.48898 -0.03271,0.10262 -0.133896,0.21179 -0.246469,0.2659 -0.134649,0.0647 -0.318896,0.069 -0.43937,0.0103 -0.228024,-0.11121 -0.336598,-0.33594 -0.268574,-0.5559 0.01543,-0.0499 0.04815,-0.11315 0.07271,-0.14058 l 0.04466,-0.0499 -0.07263,-0.1048 -0.07263,-0.1048 h -0.264607 -0.264605 v 0.54338 0.54339 l -0.06424,0.11556 c -0.210772,0.37916 -0.704348,0.595 -1.15163,0.5036 z m 0.457426,-0.26505 c 0.196063,-0.0574 0.368322,-0.19278 0.459203,-0.36097 l 0.04122,-0.0762 v -1.51282 -1.51282 l -0.07955,-0.0474 c -0.152054,-0.0907 -0.32187,-0.0963 -0.488893,-0.0162 -0.03666,0.0176 -0.07917,0.0319 -0.09445,0.0319 -0.04448,0 -0.128375,-0.0895 -0.128375,-0.13698 0,-0.0934 0.189594,-0.18397 0.412842,-0.19719 0.120248,-0.007 0.163556,-4.8e-4 0.339733,0.0516 l 0.0387,0.0114 v -0.58929 -0.58928 l -0.0387,-0.0333 c -0.08264,-0.0711 -0.153261,-0.0932 -0.296728,-0.0931 -0.116404,6e-5 -0.151446,0.007 -0.227352,0.0442 -0.110655,0.0545 -0.149399,0.0553 -0.203474,0.005 -0.137483,-0.12924 0.06278,-0.28217 0.387821,-0.29615 0.132774,-0.005 0.18274,-7.8e-4 0.266465,0.0258 0.05668,0.018 0.104868,0.0311 0.107095,0.029 0.0022,-0.002 0.0047,-0.38023 0.0053,-0.8403 l 0.0013,-0.8365 -0.05543,-0.0911 c -0.08337,-0.13697 -0.231681,-0.26738 -0.380733,-0.33477 -0.305938,-0.13833 -0.651432,-0.10825 -0.924109,0.0804 -0.09879,0.0684 -0.258439,0.24706 -0.258439,0.28927 0,0.0109 0.02113,0.029 0.04693,0.04 0.169411,0.0726 0.336676,0.25256 0.403085,0.43379 0.0528,0.14407 0.05867,0.45606 0.0099,0.52601 -0.05215,0.0748 -0.180628,0.0793 -0.221379,0.008 -0.01212,-0.0213 -0.02109,-0.11193 -0.022,-0.22216 -0.0014,-0.16764 -0.0062,-0.19505 -0.04778,-0.27514 -0.08879,-0.17071 -0.173063,-0.2284 -0.43914,-0.30059 -0.404019,-0.10961 -0.703894,-0.0571 -0.954026,0.16723 -0.201207,0.18041 -0.276331,0.34269 -0.278812,0.60231 -0.0024,0.25314 0.07259,0.43756 0.208435,0.51239 0.07499,0.0412 0.149129,0.0442 0.331485,0.0131 0.11109,-0.019 0.191821,0.0992 0.125309,0.18345 -0.04778,0.0605 -0.145877,0.0895 -0.306008,0.0904 -0.117034,4.8e-4 -0.152533,-0.006 -0.236583,-0.0447 -0.05439,-0.0251 -0.13563,-0.0813 -0.180538,-0.12503 -0.0449,-0.0438 -0.09395,-0.0796 -0.109004,-0.0796 -0.052,-1.8e-4 -0.237946,0.099 -0.327552,0.17461 -0.114383,0.0966 -0.21196,0.23822 -0.2576,0.37392 -0.05026,0.14947 -0.04968,0.36108 0.0014,0.50245 0.05123,0.14179 0.056,0.14605 0.135071,0.12044 0.173039,-0.056 0.40367,-0.0388 0.574047,0.0429 0.08577,0.0412 0.248043,0.18206 0.283176,0.24592 0.04799,0.0872 -0.01216,0.18905 -0.111659,0.18905 -0.027,0 -0.07426,-0.0313 -0.138087,-0.0915 -0.137392,-0.12956 -0.245896,-0.17338 -0.405445,-0.16376 -0.151247,0.009 -0.268545,0.0633 -0.396162,0.18296 -0.167413,0.15698 -0.243874,0.35235 -0.228507,0.5839 0.01173,0.17671 0.09016,0.33943 0.224437,0.46567 0.09851,0.0926 0.255148,0.17686 0.364684,0.19617 0.08404,0.0148 0.146133,0.0715 0.146133,0.13331 0,0.0283 -0.02287,0.0751 -0.05778,0.11807 -0.224205,0.27602 -0.262037,0.61098 -0.103666,0.91777 0.06182,0.11976 0.259935,0.306 0.387326,0.36412 0.212809,0.0971 0.357895,0.1112 0.540889,0.0527 0.257995,-0.0825 0.390957,-0.16771 0.46329,-0.29688 0.04099,-0.0732 0.0635,-0.0956 0.108353,-0.10766 0.0464,-0.0125 0.06499,-0.009 0.10308,0.0172 0.0993,0.0694 0.05532,0.23038 -0.102995,0.37686 -0.09224,0.0853 -0.320576,0.20445 -0.483264,0.25207 l -0.09946,0.0291 0.01117,0.0737 c 0.04538,0.29948 0.255591,0.52995 0.563875,0.61821 0.09578,0.0274 0.147137,0.0322 0.27197,0.0255 0.133213,-0.007 0.171378,-0.0164 0.284046,-0.0687 0.158521,-0.0737 0.25265,-0.15102 0.307453,-0.25267 0.06248,-0.1159 0.07066,-0.22806 0.02521,-0.34572 -0.0591,-0.15303 -0.06039,-0.17505 -0.01334,-0.22649 0.0567,-0.062 0.140263,-0.0628 0.195895,-0.002 0.06982,0.0763 0.114553,0.25045 0.10625,0.41364 -0.006,0.11856 -0.01628,0.15964 -0.06122,0.24545 -0.02968,0.0567 -0.08089,0.13261 -0.113781,0.16873 l -0.05982,0.0657 0.03728,0.0221 c 0.136873,0.081 0.425872,0.10486 0.611962,0.0504 z m -1.782494,-2.24052 c -0.174957,-0.0514 -0.367327,-0.21163 -0.44462,-0.37034 -0.08207,-0.16851 -0.09814,-0.41209 -0.03174,-0.48107 0.04239,-0.0441 0.145632,-0.0409 0.191797,0.005 0.02964,0.03 0.03582,0.0564 0.03504,0.14958 -6.67e-4,0.0834 0.0094,0.13569 0.03816,0.19856 0.04871,0.10637 0.176823,0.21811 0.290933,0.25374 0.0459,0.0143 0.09728,0.0404 0.114167,0.0579 0.04308,0.0448 0.03878,0.12066 -0.0096,0.16905 -0.0449,0.0449 -0.07818,0.048 -0.184167,0.0168 z m 1.238647,-0.12224 c -0.126766,-0.0174 -0.298978,-0.0979 -0.40064,-0.18732 -0.100442,-0.0883 -0.196498,-0.25757 -0.226013,-0.39825 -0.01677,-0.0799 -0.01545,-0.0982 0.0096,-0.13412 0.03689,-0.0529 0.100282,-0.0763 0.154462,-0.0569 0.05025,0.018 0.09635,0.0766 0.09635,0.12262 0,0.0815 0.05995,0.19519 0.145093,0.27523 0.103804,0.0976 0.208014,0.13639 0.366204,0.13639 0.09336,0 0.115764,0.005 0.151751,0.0397 0.07716,0.0726 0.04049,0.17215 -0.0744,0.20214 -0.07068,0.0185 -0.09168,0.0185 -0.222371,4.9e-4 z m -0.57669,-1.99556 c -0.08713,-0.0811 -0.131522,-0.10938 -0.203095,-0.12936 -0.128288,-0.0359 -0.231846,-0.0313 -0.351971,0.0152 -0.128788,0.0499 -0.164614,0.0501 -0.213178,0.002 -0.02911,-0.0291 -0.03722,-0.0539 -0.03309,-0.10106 0.0052,-0.0594 0.01117,-0.0652 0.120157,-0.11665 0.316047,-0.14923 0.720501,-0.056 0.928955,0.21425 0.05977,0.0775 0.06159,0.12837 0.0064,0.18023 -0.0723,0.0679 -0.127198,0.0541 -0.254197,-0.0641 z m 3.077413,3.59332 c 0.153561,-0.14435 0.0502,-0.36841 -0.170034,-0.36858 -0.06618,-5e-5 -0.09226,0.009 -0.141675,0.0499 -0.176744,0.14588 -0.0643,0.40054 0.168526,0.38165 0.06705,-0.005 0.09506,-0.0178 0.143183,-0.063 z m 1.152964,0.0363 c 0.111551,-0.064 0.14795,-0.17358 0.09303,-0.28022 -0.04334,-0.0842 -0.111997,-0.12477 -0.210858,-0.12469 -0.148308,1.2e-4 -0.252263,0.11079 -0.23272,0.24777 0.0094,0.0653 0.07669,0.14818 0.140764,0.17326 0.06018,0.0236 0.153025,0.0164 0.209785,-0.0161 z m 1.4178,-1.45414 c 0.05932,-0.0557 0.06678,-0.0716 0.06672,-0.14149 -1.24e-4,-0.13919 -0.09474,-0.23245 -0.235605,-0.23222 -0.169558,3e-4 -0.281616,0.18034 -0.20214,0.32481 0.03838,0.0697 0.120912,0.11154 0.220511,0.11162 0.07437,5e-5 0.0912,-0.007 0.150515,-0.0627 z m -0.05704,-2.69262 c 0.155178,-0.0755 0.177658,-0.25499 0.04557,-0.36401 -0.148805,-0.12282 -0.386201,-0.0171 -0.386201,0.17209 0,0.15208 0.19573,0.26236 0.340628,0.19192 z m -2.555512,-1.42725 c 0.104325,-0.0494 0.14637,-0.1977 0.08296,-0.29265 -0.04294,-0.0643 -0.130716,-0.11695 -0.195171,-0.11702 -0.213211,-2.6e-4 -0.322202,0.23787 -0.173041,0.37809 0.07759,0.073 0.175111,0.0837 0.285242,0.0316 z m 1.209119,-0.005 c 0.06867,-0.0399 0.118318,-0.14529 0.103484,-0.21964 -0.02976,-0.14914 -0.213688,-0.22979 -0.348208,-0.15268 -0.209875,0.12029 -0.130397,0.40471 0.113148,0.40491 0.04569,3e-5 0.09751,-0.0128 0.131578,-0.0326 z"
       id="path1663" />
  </g>
</svg>
