<?xml version="1.0" encoding="UTF-8" standalone="no"?>
<!-- Created with Inkscape (http://www.inkscape.org/) -->

<svg
   xmlns:dc="http://purl.org/dc/elements/1.1/"
   xmlns:cc="http://creativecommons.org/ns#"
   xmlns:rdf="http://www.w3.org/1999/02/22-rdf-syntax-ns#"
   xmlns:svg="http://www.w3.org/2000/svg"
   xmlns="http://www.w3.org/2000/svg"
   xmlns:sodipodi="http://sodipodi.sourceforge.net/DTD/sodipodi-0.dtd"
   xmlns:inkscape="http://www.inkscape.org/namespaces/inkscape"
   width="10.710351mm"
   height="9.9998484mm"
   viewBox="0 0 10.710351 9.9998484"
   version="1.1"
   id="svg8"
   inkscape:version="0.92.5 (2060ec1f9f, 2020-04-08)"
   sodipodi:docname="arts.svg">
  <defs
     id="defs2" />
  <sodipodi:namedview
     id="base"
     pagecolor="#ffffff"
     bordercolor="#666666"
     borderopacity="1.0"
     inkscape:pageopacity="0.0"
     inkscape:pageshadow="2"
     inkscape:zoom="11.2"
     inkscape:cx="24.354982"
     inkscape:cy="10.380572"
     inkscape:document-units="mm"
     inkscape:current-layer="layer1"
     showgrid="false"
     fit-margin-top="0"
     fit-margin-left="0"
     fit-margin-right="0"
     fit-margin-bottom="0"
     inkscape:window-width="1600"
     inkscape:window-height="835"
     inkscape:window-x="0"
     inkscape:window-y="0"
     inkscape:window-maximized="1" />
  <metadata
     id="metadata5">
    <rdf:RDF>
      <cc:Work
         rdf:about="">
        <dc:format>image/svg+xml</dc:format>
        <dc:type
           rdf:resource="http://purl.org/dc/dcmitype/StillImage" />
        <dc:title></dc:title>
      </cc:Work>
    </rdf:RDF>
  </metadata>
  <g
     inkscape:label="Layer 1"
     inkscape:groupmode="layer"
     id="layer1"
     transform="translate(-53.080118,-176.83031)">
    <path
       style="fill:#666666;stroke-width:0.02236574"
       d="m 59.661372,186.81702 c -0.839736,-0.10497 -1.604072,-0.72671 -2.120853,-1.72516 -0.0867,-0.16751 -0.157628,-0.30942 -0.157628,-0.31536 0,-0.006 0.108194,-0.0166 0.240431,-0.0237 0.132238,-0.007 0.255529,-0.0187 0.27398,-0.0259 0.02389,-0.009 0.05273,0.0241 0.100194,0.11575 0.203317,0.39276 0.587524,0.86332 0.894434,1.09546 0.184591,0.13963 0.503218,0.29004 0.705168,0.33289 0.551354,0.11699 1.240612,-0.11716 1.856357,-0.63064 0.745647,-0.62181 1.3294,-1.57093 1.620043,-2.63402 0.123769,-0.45271 0.176416,-0.80648 0.178533,-1.1997 0.0021,-0.38251 -0.02652,-0.52774 -0.131956,-0.67053 -0.185076,-0.25065 -0.444833,-0.28917 -1.208122,-0.17916 -0.438277,0.0632 -0.828426,0.095 -1.055904,0.0861 -0.112249,-0.004 -0.209366,-0.0133 -0.215817,-0.0198 -0.0065,-0.006 -0.0058,-0.12334 0.0014,-0.25971 l 0.01308,-0.24796 0.404987,-0.0132 c 0.244388,-0.008 0.560198,-0.0356 0.796388,-0.0697 0.854151,-0.12318 1.270456,-0.0541 1.587675,0.26334 0.364037,0.36433 0.440212,1.03128 0.234127,2.04992 -0.333125,1.64657 -1.323357,3.10255 -2.559871,3.76388 -0.455552,0.24365 -1.017063,0.36202 -1.456597,0.30707 z m 1.367532,-1.64379 c -0.09388,-0.11312 -0.550507,-0.35973 -0.854878,-0.46171 -0.366309,-0.12272 -0.862799,-0.10439 -1.321861,0.0488 -0.108335,0.0362 -0.201432,0.0657 -0.206883,0.0657 -0.0055,0 -0.0098,-0.0176 -0.0097,-0.0391 4.23e-4,-0.0721 0.139868,-0.28385 0.278127,-0.42219 0.235306,-0.23543 0.522246,-0.34882 0.881994,-0.34852 0.693156,5.9e-4 1.213546,0.43119 1.311647,1.08538 0.01273,0.0849 0.0094,0.10469 -0.01765,0.10469 -0.01834,0 -0.0457,-0.0149 -0.06079,-0.0331 z m -3.871775,-0.86172 c -1.285227,-0.14735 -2.671372,-1.27284 -3.457258,-2.80713 -0.2558,-0.4994 -0.469689,-1.08485 -0.567748,-1.55403 -0.06293,-0.30108 -0.06977,-0.72882 -0.01493,-0.93321 0.130039,-0.48464 0.468897,-0.76493 1.035673,-0.85667 0.0851,-0.0138 0.466737,-0.0339 0.848072,-0.0447 1.125544,-0.0319 1.304304,-0.0905 2.281305,-0.74674 0.221422,-0.14874 0.462972,-0.30235 0.536778,-0.34136 0.374817,-0.19809 0.74906,-0.24945 1.044078,-0.14327 0.437962,0.15763 0.767617,0.60275 1.023887,1.38251 0.480298,1.4614 0.432443,3.03518 -0.130761,4.30025 -0.419385,0.94202 -1.074395,1.54364 -1.863488,1.71157 -0.198815,0.0423 -0.525562,0.0569 -0.735609,0.0328 z m 0.376575,-1.47576 c 0.687543,-0.16484 1.160753,-0.67998 1.206718,-1.31365 0.01863,-0.25683 -0.0091,-0.26235 -0.234685,-0.0468 -0.305805,0.29217 -0.808822,0.59175 -1.13403,0.67539 -0.335457,0.0863 -0.967926,0.1033 -1.292154,0.0348 -0.07102,-0.015 -0.135137,-0.0213 -0.142472,-0.014 -0.03648,0.0365 0.03329,0.14884 0.189255,0.30481 0.185146,0.18515 0.391889,0.30608 0.630314,0.3687 0.183707,0.0482 0.555668,0.0438 0.777054,-0.009 z m -1.638136,-2.15725 c 0.143187,-0.0426 0.285435,-0.13503 0.333737,-0.2168 0.128948,-0.21829 -0.05348,-0.58014 -0.342059,-0.67847 -0.481471,-0.16406 -1.20241,0.26233 -1.095883,0.64814 0.05804,0.2102 0.320493,0.30921 0.768719,0.29001 0.123012,-0.005 0.273981,-0.0246 0.335486,-0.0429 z m 1.980662,-0.62275 c 0.202574,-0.0691 0.378154,-0.1792 0.570352,-0.35777 0.186556,-0.17332 0.249157,-0.2947 0.223244,-0.43282 -0.05548,-0.29574 -0.588933,-0.39484 -0.999086,-0.18559 -0.135188,0.069 -0.278322,0.21108 -0.342689,0.34025 -0.155554,0.31216 0.01997,0.68448 0.323229,0.68564 0.04305,1.6e-4 0.144281,-0.0222 0.22495,-0.0497 z m 3.631497,3.02658 c -0.480062,-0.12589 -0.749469,-0.37093 -0.682254,-0.62055 0.03335,-0.12385 0.180819,-0.28504 0.303714,-0.33198 0.154638,-0.059 0.408958,-0.0367 0.581475,0.051 0.245707,0.125 0.466158,0.39891 0.4935,0.61318 0.01567,0.12276 -0.04081,0.23381 -0.148211,0.2914 -0.100005,0.0536 -0.337033,0.0523 -0.548224,-0.003 z"
       id="path826"
       inkscape:connector-curvature="0" />
  </g>
</svg>
