<svg xmlns="http://www.w3.org/2000/svg" viewBox="0 0 111.9 87.3"><g fill="#c76700"><path fill-rule="evenodd" d="M34.6 2.3s-4 8.6-4.6 12c-.6 3.6.2 6.2-.7 8.5-.8 2.2-2.8 6.6-10.4 8.4-7.4 1.8-7.2.3-7.2-.2 0-1 .3-1.6 2.2-4.2 4.8-6.5 7-5.7 7-5.7s1.4-1.8 2-3.7c.5-2 0-3.3 0-3.3s-7 4.8-12.8 14c-5.9 9.1-9 17-9.2 18.5-.3 1.3-1.5 4.5-.6 7.7 1 3.2 2.5 2.7 2.5 2.7s-1.6 1.7-1.3 5c.2 1.2 1.2 3.3 2.5 4.1 4 1.4 7.3-.7 10.6-2.8 0 0-.6 1.1 0 3.7.7 2.7 2.3 3.4 3 3.6a18 18 0 0 0 6.4-.2s-.2.6.5 1.6c.8 1 1.3 1.6 2.9 2 1.6.4 4 0 6.4-.8a29 29 0 0 0 8.8-5.7c5-5.4 7.7-10 8.4-13.2.8-3.2 1-7.6-2.6-7.7-3.5 0-7.3 5-7.3 5s.6-2.4-1-5.4c-1.7-3-4-2.4-4-2.4l-4.6 6s-.8-.6-1-2.6c-.3-1.9 0-5.8 0-8.9.2-3 1-9.8 1-9.8s-4.4 6.9-5.4 10.7c-1 3.8.2 7.8-.6 11.7-.7 3.8-1.2 7-4 8.6-2.7 1.6-3.8.3-3.8.3s3-3.5 4.3-6.6c1.3-3 2.2-6.9.3-10.6-1.9-3.7-5.4-3.6-5.4-3.6l-2.5 5.8s.7.7 2.1 1c1.5.1 2 0 2.6.5 3 2 2.1 5.3-2.7 9.6-5 4.3-9.5 4.6-11.1 2.9-1.6-1.7-.4-1.7-.4-1.7 5.2-1.7 6.9-6.8 8.2-12.5-.8.5-.8 1.2-2.3 2C9 48 7.3 48 6.3 47.7c-.8-.4-3.2-1-1.4-5.7 2-5.1 3.4-5.4 3.4-5.4s.7 1.3 2.6 2c1.9.6 3.8.3 3.8.3s5-.4 10.4-5a21 21 0 0 0 7.6-12.5c1.4-6.6 2-19 2-19zm.8 48.2c.8 0 1.1.3 1.2.3.2.1 1.3.8.7 3-1.3 4.7-7.4 7.5-10.7 9a21 21 0 0 1-6.3 1.7c-.5.3-.5 0-.5 0h.5c.7-.3 2-1.3 4.8-4.1 5-5.2 3.9-8.2 8.5-9.6.7-.3 1.3-.4 1.8-.3zm11.5 4c.4 0 .7.2.1 2.1-1.3 4.6-7.4 7.4-10.7 9a14 14 0 0 1-6 1.7c-1-.1-1-.4-.6-.5.4-.3 1.4-1 3.6-3.2 3.1-3.3 4.9-5.7 6-8.3.3-.5 1.2-1 1.3-.3.3 1 1.5 1.3 2.4 1.2 1.6-.1 3.2-1.7 3.7-1.7h.2z"/><path d="M32 80.2c-4.3-.7.2-2.7 2.2-2.8a31.6 31.6 0 0 0 16-11.1c1.1-1.6 3.3-3.1 2-.2-1.8 5-5.3 9.6-9.7 12.5-3.2 1.8-7 2.3-10.6 1.6zm56.3-33.7c3.5-4-4-7.8-5.3-2.5-1.1 2.8 3.6 4.4 5.3 2.5zm9 1c2.7-2.4.6-4.8-2.3-4-2.4-.8-3.7 1.4-2.6 3.6 1 1.7 3.5 1.4 5 .5zM36.8 85.8c-2.7 1.2-7.4-4.8-2.2-3.6 6.6.4 13.1-2 18.3-6.1 3.6-2.7 8-5.6 9-10.3-1.3 0-7.9.6-5.3-3.3 2.1-2.7 5.9-7.2 9.5-5.6 2 4.7-.9 9.7-3.5 13.5-2.8 4-6.4 7.6-10.2 10.6 4.6-.4 8.8-3.2 12.4-6 5.3-4.5 8-11 10.4-17.3 2-4 6.3-6.7 6-11.7a13 13 0 0 1 6.9-9.8c2.4-3 4.8-6 7.8-8.5 4.2-3.4 8.3-7.4 13.6-9.2 5.4-.5.6 4.5-.8 6.4-2.5 2.6-7.7 2.2-10.7 5-2.8 1.6-9.9 7.2-3.7 8.9 3.6.2 8.5 1.6 7.2 6.3-.2 4-3.5 8-7.8 8.1-5.9.8-12.9 1.4-16.5 6.8-3 4.3-2.5 10.1-5.5 14.5A21.8 21.8 0 0 1 53.9 85c-4.2-1-8.4-1-12.3.8a15 15 0 0 1-4.9-.1zm19.7-37s.7-2 2-4.5S60 41 60 41s4.6 1.4 5 4.2c.4 2.7-1 6.4-3.8 6.7-2.8.4-4.7-3-4.7-3z"/><path d="M82.4 66.7s.7-2 2-4.5l1.6-3.3s4.5 1.3 5 4.1c.3 2.8-1.1 6.4-4 6.8-2.7.4-4.6-3-4.6-3zM.2 84.2s.7-2 2-4.6c1.3-2.5 1.5-3.2 1.5-3.2s4.6 1.3 5 4.1c.4 2.8-1 6.4-3.8 6.8C2 87.7.2 84.2.2 84.2z"/><path d="M.5 74s.7-2 2-4.5C3.8 66.9 4 66.2 4 66.2s4.6 1.3 5 4.1c.4 2.8-1 6.4-3.9 6.8C2.3 77.5.5 74 .5 74zM22.8 7.8s.7-2 2-4.5C26.1.7 26.3 0 26.3 0s4.6 1.3 5 4.1c.4 2.8-1 6.4-3.8 6.8-2.8.4-4.7-3.1-4.7-3.1z"/></g></svg>
