<?xml version="1.0" encoding="UTF-8" standalone="no"?>
<!-- Created with Inkscape (http://www.inkscape.org/) -->

<svg
   xmlns:dc="http://purl.org/dc/elements/1.1/"
   xmlns:cc="http://creativecommons.org/ns#"
   xmlns:rdf="http://www.w3.org/1999/02/22-rdf-syntax-ns#"
   xmlns:svg="http://www.w3.org/2000/svg"
   xmlns="http://www.w3.org/2000/svg"
   xmlns:sodipodi="http://sodipodi.sourceforge.net/DTD/sodipodi-0.dtd"
   xmlns:inkscape="http://www.inkscape.org/namespaces/inkscape"
   width="111.89909mm"
   height="87.314018mm"
   viewBox="0 0 111.89909 87.314018"
   version="1.1"
   id="svg8"
   inkscape:version="0.92.5 (2060ec1f9f, 2020-04-08)"
   sodipodi:docname="behrooz_vedadian_in_shekaste.svg">
  <defs
     id="defs2" />
  <sodipodi:namedview
     id="base"
     pagecolor="#ffffff"
     bordercolor="#666666"
     borderopacity="1.0"
     inkscape:pageopacity="0.0"
     inkscape:pageshadow="2"
     inkscape:zoom="0.35"
     inkscape:cx="-685.08802"
     inkscape:cy="179.46998"
     inkscape:document-units="mm"
     inkscape:current-layer="layer1"
     showgrid="false"
     inkscape:window-width="1600"
     inkscape:window-height="835"
     inkscape:window-x="0"
     inkscape:window-y="0"
     inkscape:window-maximized="1"
     fit-margin-top="0"
     fit-margin-left="0"
     fit-margin-right="0"
     fit-margin-bottom="0" />
  <metadata
     id="metadata5">
    <rdf:RDF>
      <cc:Work
         rdf:about="">
        <dc:format>image/svg+xml</dc:format>
        <dc:type
           rdf:resource="http://purl.org/dc/dcmitype/StillImage" />
        <dc:title></dc:title>
      </cc:Work>
    </rdf:RDF>
  </metadata>
  <g
     inkscape:label="Layer 1"
     inkscape:groupmode="layer"
     id="layer1"
     transform="translate(-53.867136,-1.952713)">
    <g
       id="g5613"
       transform="translate(2.1381562,13.363476)">
      <path
         d="m 86.336198,-9.104183 c 0,0 -4.06091,8.57742339 -4.6479,12.067235 -0.5871,3.4898051 0.20286,6.1303716 -0.61917,8.386934 -0.82204,2.256371 -2.88943,6.661771 -10.47234,8.452916 -7.35232,1.73642 -7.15556,0.243073 -7.17321,-0.19774 -0.0414,-1.022746 0.33969,-1.597992 2.25315,-4.226362 4.73635,-6.5054231 6.98139,-5.6981267 6.98139,-5.6981267 0,0 1.34567,-1.7465321 1.89899,-3.7252879 0.55331,-1.9785624 -0.013,-3.2365984 -0.013,-3.2365984 0,0 -6.82851,4.7337315 -12.715274,13.905465 -5.886782,9.171928 -8.931669,17.144161 -9.236063,18.522315 -0.30439,1.378154 -1.415486,4.538869 -0.524588,7.72513 0.890901,3.18646 2.423572,2.668787 2.423572,2.668787 0,0 -1.55119,1.787139 -1.221739,5.154158 0.116145,1.186912 1.146856,3.33975 2.456759,4.091751 4.004768,1.432112 7.271933,-0.723395 10.557413,-2.821518 0,0 -0.57766,1.146108 0.10291,3.760373 0.68057,2.614255 2.28063,3.368539 2.87176,3.580186 1.89522,0.678982 6.42727,-0.183046 6.42727,-0.183046 0,0 -0.1496,0.575648 0.57637,1.552805 0.72597,0.976791 1.27544,1.567103 2.85644,1.989246 1.58099,0.421935 4.01006,0.112492 6.45388,-0.822926 1.66287,-0.637186 6.17843,-2.99445 8.73134,-5.687074 5.0601,-5.337574 7.697222,-9.964342 8.463992,-13.182448 0.76678,-3.2183 0.99971,-7.585177 -2.59459,-7.678993 -3.594562,-0.09339 -7.356932,5.044334 -7.356932,5.044334 0,0 0.62846,-2.410244 -1.03587,-5.472004 -1.66432,-3.061562 -4.01064,-2.345031 -4.01064,-2.345031 l -4.51514,5.935899 c 0,0 -0.78726,-0.614347 -1.05525,-2.518542 -0.26794,-1.9044 -0.006,-5.844946 0.12207,-8.922727 0.12835,-3.078153 0.98609,-9.786635 0.98609,-9.786635 0,0 -4.44581,6.822123 -5.47125,10.625964 -1.02152,3.789351 0.21338,7.861455 -0.55771,11.700953 -0.77125,3.839302 -1.24839,7.10832 -4.01058,8.684006 -2.76211,1.575492 -3.84947,0.248835 -3.84947,0.248835 0,0 2.96907,-3.512499 4.30327,-6.554999 1.33419,-3.04231 2.24332,-6.945871 0.34123,-10.643505 -1.90159,-3.697258 -5.44262,-3.630329 -5.44262,-3.630329 l -2.46981,5.86268 c 0,0 0.664,0.708314 2.12476,0.903766 1.46077,0.195437 1.88047,0.108673 2.60282,0.592433 2.85731,2.048354 2.08808,5.306881 -2.79124,9.594258 -4.87955,4.287569 -9.500135,4.610176 -11.060872,2.868998 -1.560739,-1.741195 -0.397273,-1.733186 -0.397273,-1.733186 5.175552,-1.637845 6.866205,-6.787231 8.193725,-12.421492 -0.84026,0.510788 -0.83331,1.189775 -2.24764,2.013078 -1.939496,1.128765 -3.547977,1.275003 -4.577763,0.820456 -0.752013,-0.376607 -3.121477,-0.969739 -1.354434,-5.654858 1.929945,-5.117737 3.426159,-5.410792 3.426159,-5.410792 0,0 0.708322,1.294446 2.563038,1.941771 1.85471,0.647351 3.78466,0.329837 3.78466,0.329837 0,0 5.03175,-0.35066 10.38467,-5.044528 3.46638,-3.039063 6.24845,-5.887844 7.65951,-12.4716317 1.41063,-6.5834093 1.87552,-18.9539883 1.87552,-18.9539883 z m 0.77372,48.144599 c 0.84682,0.01948 1.15585,0.341292 1.2465,0.398295 0.13808,0.0877 1.3097,0.72035 0.65275,3.02782 -1.31397,4.614942 -7.39331,7.403852 -10.69733,8.951893 -2.50496,1.173565 -5.12017,1.577216 -6.24035,1.704005 -0.51584,0.25222 -0.5657,0.05333 -0.5657,0.05333 0,0 0.2084,-0.01949 0.5657,-0.05333 0.63034,-0.308508 1.95715,-1.291401 4.74917,-4.143991 5.07717,-5.18771 3.90503,-8.18426 8.47006,-9.621136 0.78471,-0.247105 1.37584,-0.324936 1.81941,-0.317079 z m 11.55872,4.016631 c 0.37761,0.0016 0.63538,0.253228 0.10154,2.12805 -1.31393,4.614941 -7.39341,7.403663 -10.69746,8.951699 -2.88971,1.353941 -4.9215,1.845296 -5.95303,1.745384 -1.03181,-0.09916 -1.12296,-0.344898 -0.69498,-0.449245 0.43289,-0.38857 1.38858,-0.97127 3.57922,-3.252422 3.1238,-3.253002 4.88129,-5.696613 6.06588,-8.308392 0.23205,-0.511937 1.1108,-1.009592 1.29512,-0.323563 0.30382,1.131236 1.50403,1.365565 2.31824,1.273854 1.62845,-0.18304 3.22374,-1.692184 3.71245,-1.743091 0.0916,0 0.18513,-0.02309 0.27226,-0.02309 z"
         id="path2"
         style="fill:#5b5b76;fill-opacity:1;fill-rule:evenodd;stroke:none;stroke-width:0.7206375;stroke-miterlimit:4;stroke-dasharray:none"
         inkscape:connector-curvature="0" />
      <path
         inkscape:connector-curvature="0"
         id="path1768"
         d="m 83.668458,68.805068 c -4.232,-0.74409 0.25109,-2.747484 2.23621,-2.793661 6.23211,-2.129399 12.22609,-5.669789 16.050542,-11.157556 1.07206,-1.525346 3.27599,-3.076703 1.92932,-0.154965 -1.70614,5.066797 -5.235652,9.584327 -9.683762,12.516304 -3.18426,1.725793 -6.9803,2.309789 -10.53231,1.589804 z M 140.02491,35.059782 c 3.53643,-3.959325 -4.06022,-7.764365 -5.31663,-2.483052 -1.10896,2.844748 3.66644,4.438088 5.31663,2.483052 z m 9.08438,1.099724 c 2.60868,-2.474958 0.54489,-4.890805 -2.33148,-4.092037 -2.4014,-0.802065 -3.72635,1.448101 -2.6857,3.620179 1.00943,1.747445 3.5698,1.391227 5.01718,0.471858 z M 88.464488,74.271899 c -2.69049,1.17682 -7.40824,-4.815775 -2.22824,-3.577317 6.63024,0.366696 13.14091,-2.05133 18.336802,-6.10087 3.57264,-2.701598 8.01849,-5.587451 8.95439,-10.273777 -1.33666,-0.115766 -7.87263,0.617223 -5.3442,-3.363553 2.17638,-2.711581 5.91068,-7.192203 9.4971,-5.569793 2.06413,4.660901 -0.82203,9.723541 -3.44113,13.543233 -2.84273,4.040894 -6.41794,7.514223 -10.25904,10.599552 4.68958,-0.419925 8.83021,-3.259729 12.45067,-6.088504 5.29237,-4.434096 8.06699,-10.923863 10.44066,-17.223495 1.89725,-4.06097 6.27992,-6.728497 5.94598,-11.748805 0.37342,-4.307999 3.34143,-7.64369 6.88165,-9.827748 2.39542,-2.945989 4.80339,-6.02837 7.80587,-8.45757 4.22369,-3.430411 8.35608,-7.395507 13.60148,-9.149015 5.41493,-0.591487 0.63251,4.504618 -0.75,6.348595 -2.55239,2.620177 -7.72669,2.219099 -10.73096,4.917327 -2.765,1.722148 -9.86221,7.263073 -3.74319,8.95322 3.63017,0.206254 8.58611,1.634462 7.29398,6.28888 -0.2953,4.115537 -3.52224,8.09624 -7.85384,8.16788 -5.88491,0.768745 -12.8463,1.34164 -16.5008,6.730823 -3.05447,4.357181 -2.53963,10.159971 -5.53359,14.578571 -3.6323,6.081544 -10.50807,10.419418 -17.62677,10.576362 -4.19699,-0.950344 -8.436362,-1.053892 -12.363772,0.821682 -1.60298,0.268845 -3.2396,0.107889 -4.83305,-0.145623 z"
         style="fill:#5b5b76;fill-opacity:1;stroke-width:0.48464817" />
      <path
         sodipodi:nodetypes="czczzc"
         inkscape:connector-curvature="0"
         id="rect1826"
         d="m 108.26675,37.406549 c 0,0 0.68548,-1.993315 1.99383,-4.524054 1.30835,-2.530738 1.51711,-3.255497 1.51711,-3.255497 0,0 4.5952,1.31515 4.97932,4.112274 0.38412,2.797125 -1.04682,6.402904 -3.84395,6.787025 -2.79712,0.38412 -4.64631,-3.119748 -4.64631,-3.119748 z"
         style="fill:#5b5b76;fill-opacity:1;stroke:none;stroke-width:0.05904928;stroke-linecap:round;stroke-linejoin:bevel;stroke-miterlimit:4;stroke-dasharray:0.05904928, 0.05904928;stroke-dashoffset:0;stroke-opacity:1" />
      <path
         sodipodi:nodetypes="czczzc"
         inkscape:connector-curvature="0"
         id="rect1826-8"
         d="m 134.16973,55.298112 c 0,0 0.68548,-1.993315 1.99383,-4.524054 1.30835,-2.530738 1.51711,-3.255497 1.51711,-3.255497 0,0 4.5952,1.31515 4.97932,4.112274 0.38412,2.797125 -1.04682,6.402904 -3.84395,6.787025 -2.79713,0.38412 -4.64631,-3.119748 -4.64631,-3.119748 z"
         style="fill:#5b5b76;fill-opacity:1;stroke:none;stroke-width:0.05904928;stroke-linecap:round;stroke-linejoin:bevel;stroke-miterlimit:4;stroke-dasharray:0.05904928, 0.05904928;stroke-dashoffset:0;stroke-opacity:1" />
      <path
         sodipodi:nodetypes="czczzc"
         inkscape:connector-curvature="0"
         id="rect1826-4"
         d="m 51.959603,72.754089 c 0,0 0.685473,-1.993315 1.993826,-4.524054 1.308353,-2.530739 1.51711,-3.255498 1.51711,-3.255498 0,0 4.5952,1.31515 4.97932,4.112274 0.38412,2.797125 -1.04682,6.402904 -3.84395,6.787025 -2.797124,0.38412 -4.646306,-3.119747 -4.646306,-3.119747 z"
         style="fill:#5b5b76;fill-opacity:1;stroke:none;stroke-width:0.05904928;stroke-linecap:round;stroke-linejoin:bevel;stroke-miterlimit:4;stroke-dasharray:0.05904928, 0.05904928;stroke-dashoffset:0;stroke-opacity:1" />
      <path
         sodipodi:nodetypes="czczzc"
         inkscape:connector-curvature="0"
         id="rect1826-5"
         d="m 52.215839,62.565944 c 0,0 0.685473,-1.993315 1.993826,-4.524054 1.308353,-2.530738 1.51711,-3.255497 1.51711,-3.255497 0,0 4.5952,1.31515 4.97932,4.112274 0.38412,2.797125 -1.04682,6.402904 -3.84395,6.787025 -2.797124,0.38412 -4.646306,-3.119748 -4.646306,-3.119748 z"
         style="fill:#5b5b76;fill-opacity:1;stroke:none;stroke-width:0.05904928;stroke-linecap:round;stroke-linejoin:bevel;stroke-miterlimit:4;stroke-dasharray:0.05904928, 0.05904928;stroke-dashoffset:0;stroke-opacity:1" />
      <path
         sodipodi:nodetypes="czczzc"
         inkscape:connector-curvature="0"
         id="rect1826-0"
         d="m 74.544108,-3.6312131 c 0,0 0.685473,-1.9933135 1.993826,-4.5240535 1.308353,-2.5307374 1.51711,-3.2554964 1.51711,-3.2554964 0,0 4.5952,1.31515 4.97932,4.1122734 0.38412,2.797125 -1.04682,6.40290307 -3.84395,6.78702407 -2.797124,0.38412007 -4.646306,-3.11974757 -4.646306,-3.11974757 z"
         style="fill:#5b5b76;fill-opacity:1;stroke:none;stroke-width:0.05904928;stroke-linecap:round;stroke-linejoin:bevel;stroke-miterlimit:4;stroke-dasharray:0.05904928, 0.05904928;stroke-dashoffset:0;stroke-opacity:1" />
    </g>
  </g>
</svg>
