<?xml version="1.0" encoding="UTF-8" standalone="no"?>
<!-- Created with Inkscape (http://www.inkscape.org/) -->

<svg
   width="10.612598mm"
   height="9.3384447mm"
   viewBox="0 0 10.612599 9.3384446"
   version="1.1"
   id="svg8"
   inkscape:version="1.1.2 (0a00cf5339, 2022-02-04)"
   sodipodi:docname="code.svg"
   xmlns:inkscape="http://www.inkscape.org/namespaces/inkscape"
   xmlns:sodipodi="http://sodipodi.sourceforge.net/DTD/sodipodi-0.dtd"
   xmlns="http://www.w3.org/2000/svg"
   xmlns:svg="http://www.w3.org/2000/svg"
   xmlns:rdf="http://www.w3.org/1999/02/22-rdf-syntax-ns#"
   xmlns:cc="http://creativecommons.org/ns#"
   xmlns:dc="http://purl.org/dc/elements/1.1/">
  <defs
     id="defs2">
    <marker
       inkscape:stockid="Arrow1Send"
       orient="auto"
       refY="0"
       refX="0"
       id="marker1211"
       style="overflow:visible"
       inkscape:isstock="true">
      <path
         id="path1209"
         d="M 0,0 5,-5 -12.5,0 5,5 Z"
         style="fill:#000000;fill-opacity:1;fill-rule:evenodd;stroke:#000000;stroke-width:1.00000003pt;stroke-opacity:1"
         transform="matrix(-0.2,0,0,-0.2,-1.2,0)"
         inkscape:connector-curvature="0" />
    </marker>
    <marker
       inkscape:stockid="Arrow1Mend"
       orient="auto"
       refY="0"
       refX="0"
       id="Arrow1Mend"
       style="overflow:visible"
       inkscape:isstock="true">
      <path
         id="path876"
         d="M 0,0 5,-5 -12.5,0 5,5 Z"
         style="fill:#000000;fill-opacity:1;fill-rule:evenodd;stroke:#000000;stroke-width:1.00000003pt;stroke-opacity:1"
         transform="matrix(-0.4,0,0,-0.4,-4,0)"
         inkscape:connector-curvature="0" />
    </marker>
    <marker
       inkscape:stockid="Arrow1Send"
       orient="auto"
       refY="0"
       refX="0"
       id="Arrow1Send"
       style="overflow:visible"
       inkscape:isstock="true">
      <path
         id="path882"
         d="M 0,0 5,-5 -12.5,0 5,5 Z"
         style="fill:#000000;fill-opacity:1;fill-rule:evenodd;stroke:#000000;stroke-width:1.00000003pt;stroke-opacity:1"
         transform="matrix(-0.2,0,0,-0.2,-1.2,0)"
         inkscape:connector-curvature="0" />
    </marker>
    <marker
       inkscape:stockid="Arrow1Lend"
       orient="auto"
       refY="0"
       refX="0"
       id="Arrow1Lend"
       style="overflow:visible"
       inkscape:isstock="true">
      <path
         id="path870"
         d="M 0,0 5,-5 -12.5,0 5,5 Z"
         style="fill:#000000;fill-opacity:1;fill-rule:evenodd;stroke:#000000;stroke-width:1.00000003pt;stroke-opacity:1"
         transform="matrix(-0.8,0,0,-0.8,-10,0)"
         inkscape:connector-curvature="0" />
    </marker>
  </defs>
  <sodipodi:namedview
     id="base"
     pagecolor="#ffffff"
     bordercolor="#666666"
     borderopacity="1.0"
     inkscape:pageopacity="0.0"
     inkscape:pageshadow="2"
     inkscape:zoom="11.2"
     inkscape:cx="16.116071"
     inkscape:cy="20.357143"
     inkscape:document-units="mm"
     inkscape:current-layer="layer1"
     showgrid="false"
     fit-margin-top="0"
     fit-margin-left="0"
     fit-margin-right="0"
     fit-margin-bottom="0"
     inkscape:window-width="1600"
     inkscape:window-height="832"
     inkscape:window-x="0"
     inkscape:window-y="0"
     inkscape:window-maximized="1"
     inkscape:pagecheckerboard="1" />
  <metadata
     id="metadata5">
    <rdf:RDF>
      <cc:Work
         rdf:about="">
        <dc:format>image/svg+xml</dc:format>
        <dc:type
           rdf:resource="http://purl.org/dc/dcmitype/StillImage" />
      </cc:Work>
    </rdf:RDF>
  </metadata>
  <g
     inkscape:label="Layer 1"
     inkscape:groupmode="layer"
     id="layer1"
     transform="translate(-33.075977,-100.2838)">
    <path
       style="fill:#666666;stroke-width:0.0587034"
       d="m 36.704717,109.1953 c -0.09479,-0.0948 -0.09047,-0.25241 0.0092,-0.33512 0.05699,-0.0473 0.557094,-0.0623 1.710706,-0.0512 1.478593,0.0142 1.636201,0.0252 1.694947,0.11835 0.04722,0.0749 0.04722,0.13056 0,0.20545 -0.05876,0.0932 -0.21676,0.10414 -1.70414,0.1183 -1.225849,0.0117 -1.657363,-0.003 -1.710705,-0.0559 z m 0.867917,-1.10451 v -0.46962 h 0.821848 0.821846 v 0.46962 0.46963 h -0.821846 -0.821848 z m -3.965144,-0.84851 -0.14409,-0.1441 v -3.11662 -3.11661 l 0.14409,-0.14409 0.144091,-0.14409 h 4.642901 4.6429 l 0.144089,0.14409 0.144091,0.14409 v 3.11661 3.11662 l -0.144091,0.1441 -0.144089,0.14407 h -4.6429 -4.642901 z m 4.245194,-1.33819 c 0.03278,-0.0403 0.383092,-0.89014 0.77846,-1.88841 0.742999,-1.876 0.767071,-1.97597 0.485997,-2.01819 -0.0641,-0.009 -0.144823,0.0167 -0.179379,0.0586 -0.09458,0.1147 -1.482534,3.61221 -1.482534,3.73581 0,0.0589 0.01761,0.12482 0.03913,0.14634 0.0656,0.0656 0.29503,0.0437 0.358321,-0.0343 z m -0.90273,-0.64573 c 0.04424,-0.0705 0.0457,-0.13238 0.0046,-0.19745 -0.03286,-0.0521 -0.448316,-0.30965 -0.923238,-0.57235 -0.474922,-0.2627 -0.863497,-0.49086 -0.863497,-0.507 0,-0.0163 0.388575,-0.24429 0.863497,-0.507 0.474922,-0.26269 0.89038,-0.52026 0.923238,-0.57236 0.07586,-0.12026 -0.02451,-0.29474 -0.180464,-0.31373 -0.13144,-0.016 -2.254734,1.1624 -2.341067,1.29928 -0.03976,0.063 -0.03976,0.12459 0,0.18763 0.08633,0.13686 2.209627,1.31529 2.341067,1.29929 0.06128,-0.007 0.14039,-0.0598 0.175809,-0.11636 z m 4.261517,-0.48085 c 0.596882,-0.33459 1.111868,-0.65054 1.144414,-0.70213 0.03976,-0.0631 0.03976,-0.12459 0,-0.18763 -0.08633,-0.13688 -2.209625,-1.31529 -2.341066,-1.29928 -0.155955,0.019 -0.256324,0.19347 -0.180465,0.31373 0.03287,0.0521 0.448316,0.30967 0.923239,0.57236 0.474921,0.26271 0.863637,0.49085 0.863808,0.507 1.76e-4,0.0163 -0.309754,0.19916 -0.688725,0.40669 -0.973502,0.53314 -1.129314,0.63749 -1.129314,0.75637 0,0.13001 0.110996,0.24659 0.231878,0.24352 0.05005,-8.6e-4 0.579348,-0.27605 1.176231,-0.61063 z"
       id="path1307"
       inkscape:connector-curvature="0" />
  </g>
</svg>
