<?xml version="1.0" encoding="UTF-8" standalone="no"?>
<!-- Created with Inkscape (http://www.inkscape.org/) -->

<svg
   width="10.612598mm"
   height="9.3384447mm"
   viewBox="0 0 10.612599 9.3384446"
   version="1.1"
   id="svg8"
   inkscape:version="1.1.2 (0a00cf5339, 2022-02-04)"
   sodipodi:docname="image processing.svg"
   xmlns:inkscape="http://www.inkscape.org/namespaces/inkscape"
   xmlns:sodipodi="http://sodipodi.sourceforge.net/DTD/sodipodi-0.dtd"
   xmlns="http://www.w3.org/2000/svg"
   xmlns:svg="http://www.w3.org/2000/svg"
   xmlns:rdf="http://www.w3.org/1999/02/22-rdf-syntax-ns#"
   xmlns:cc="http://creativecommons.org/ns#"
   xmlns:dc="http://purl.org/dc/elements/1.1/">
  <defs
     id="defs2">
    <marker
       inkscape:stockid="Arrow1Send"
       orient="auto"
       refY="0"
       refX="0"
       id="marker1211"
       style="overflow:visible"
       inkscape:isstock="true">
      <path
         id="path1209"
         d="M 0,0 5,-5 -12.5,0 5,5 Z"
         style="fill:#000000;fill-opacity:1;fill-rule:evenodd;stroke:#000000;stroke-width:1.00000003pt;stroke-opacity:1"
         transform="matrix(-0.2,0,0,-0.2,-1.2,0)"
         inkscape:connector-curvature="0" />
    </marker>
    <marker
       inkscape:stockid="Arrow1Mend"
       orient="auto"
       refY="0"
       refX="0"
       id="Arrow1Mend"
       style="overflow:visible"
       inkscape:isstock="true">
      <path
         id="path876"
         d="M 0,0 5,-5 -12.5,0 5,5 Z"
         style="fill:#000000;fill-opacity:1;fill-rule:evenodd;stroke:#000000;stroke-width:1.00000003pt;stroke-opacity:1"
         transform="matrix(-0.4,0,0,-0.4,-4,0)"
         inkscape:connector-curvature="0" />
    </marker>
    <marker
       inkscape:stockid="Arrow1Send"
       orient="auto"
       refY="0"
       refX="0"
       id="Arrow1Send"
       style="overflow:visible"
       inkscape:isstock="true">
      <path
         id="path882"
         d="M 0,0 5,-5 -12.5,0 5,5 Z"
         style="fill:#000000;fill-opacity:1;fill-rule:evenodd;stroke:#000000;stroke-width:1.00000003pt;stroke-opacity:1"
         transform="matrix(-0.2,0,0,-0.2,-1.2,0)"
         inkscape:connector-curvature="0" />
    </marker>
    <marker
       inkscape:stockid="Arrow1Lend"
       orient="auto"
       refY="0"
       refX="0"
       id="Arrow1Lend"
       style="overflow:visible"
       inkscape:isstock="true">
      <path
         id="path870"
         d="M 0,0 5,-5 -12.5,0 5,5 Z"
         style="fill:#000000;fill-opacity:1;fill-rule:evenodd;stroke:#000000;stroke-width:1.00000003pt;stroke-opacity:1"
         transform="matrix(-0.8,0,0,-0.8,-10,0)"
         inkscape:connector-curvature="0" />
    </marker>
    <marker
       inkscape:stockid="Arrow1Send"
       orient="auto"
       refY="0"
       refX="0"
       id="marker1211-7"
       style="overflow:visible"
       inkscape:isstock="true">
      <path
         id="path1209-5"
         d="M 0,0 5,-5 -12.5,0 5,5 Z"
         style="fill:#000000;fill-opacity:1;fill-rule:evenodd;stroke:#000000;stroke-width:1.00000003pt;stroke-opacity:1"
         transform="matrix(-0.2,0,0,-0.2,-1.2,0)"
         inkscape:connector-curvature="0" />
    </marker>
    <marker
       inkscape:stockid="Arrow1Mend"
       orient="auto"
       refY="0"
       refX="0"
       id="Arrow1Mend-3"
       style="overflow:visible"
       inkscape:isstock="true">
      <path
         id="path876-5"
         d="M 0,0 5,-5 -12.5,0 5,5 Z"
         style="fill:#000000;fill-opacity:1;fill-rule:evenodd;stroke:#000000;stroke-width:1.00000003pt;stroke-opacity:1"
         transform="matrix(-0.4,0,0,-0.4,-4,0)"
         inkscape:connector-curvature="0" />
    </marker>
    <marker
       inkscape:stockid="Arrow1Send"
       orient="auto"
       refY="0"
       refX="0"
       id="Arrow1Send-6"
       style="overflow:visible"
       inkscape:isstock="true">
      <path
         id="path882-2"
         d="M 0,0 5,-5 -12.5,0 5,5 Z"
         style="fill:#000000;fill-opacity:1;fill-rule:evenodd;stroke:#000000;stroke-width:1.00000003pt;stroke-opacity:1"
         transform="matrix(-0.2,0,0,-0.2,-1.2,0)"
         inkscape:connector-curvature="0" />
    </marker>
    <marker
       inkscape:stockid="Arrow1Lend"
       orient="auto"
       refY="0"
       refX="0"
       id="Arrow1Lend-9"
       style="overflow:visible"
       inkscape:isstock="true">
      <path
         id="path870-1"
         d="M 0,0 5,-5 -12.5,0 5,5 Z"
         style="fill:#000000;fill-opacity:1;fill-rule:evenodd;stroke:#000000;stroke-width:1.00000003pt;stroke-opacity:1"
         transform="matrix(-0.8,0,0,-0.8,-10,0)"
         inkscape:connector-curvature="0" />
    </marker>
  </defs>
  <sodipodi:namedview
     id="base"
     pagecolor="#ffffff"
     bordercolor="#666666"
     borderopacity="1.0"
     inkscape:pageopacity="0.0"
     inkscape:pageshadow="2"
     inkscape:zoom="7.919596"
     inkscape:cx="17.614535"
     inkscape:cy="32.198612"
     inkscape:document-units="mm"
     inkscape:current-layer="layer1"
     showgrid="false"
     fit-margin-top="0"
     fit-margin-left="0"
     fit-margin-right="0"
     fit-margin-bottom="0"
     inkscape:window-width="1600"
     inkscape:window-height="832"
     inkscape:window-x="0"
     inkscape:window-y="0"
     inkscape:window-maximized="1"
     inkscape:pagecheckerboard="1" />
  <metadata
     id="metadata5">
    <rdf:RDF>
      <cc:Work
         rdf:about="">
        <dc:format>image/svg+xml</dc:format>
        <dc:type
           rdf:resource="http://purl.org/dc/dcmitype/StillImage" />
      </cc:Work>
    </rdf:RDF>
  </metadata>
  <g
     inkscape:label="Layer 1"
     inkscape:groupmode="layer"
     id="layer1"
     transform="translate(-33.075977,-100.2838)">
    <path
       style="fill:#666666;stroke-width:0.0453876;fill-opacity:1"
       d="m 33.408498,109.32469 c -0.07352,-0.0748 -0.06808,-0.18001 0.0093,-0.18001 0.02435,0 0.03274,0.0187 0.01863,0.0415 -0.01411,0.0228 -0.0027,0.0491 0.02519,0.0585 0.02796,0.009 0.04341,0.0474 0.03432,0.0846 -0.01435,0.0588 -0.02584,0.0581 -0.08745,-0.004 z m 0.660958,0.0469 c -0.01543,-0.025 -0.0065,-0.0454 0.02001,-0.0454 0.02644,0 0.04807,0.0204 0.04807,0.0454 0,0.025 -0.009,0.0454 -0.02001,0.0454 -0.01101,0 -0.03263,-0.0204 -0.04807,-0.0454 z m 0.521199,-0.0881 c 0.03305,-0.11525 0.02545,-0.13543 -0.0556,-0.14751 -0.109445,-0.0164 -0.145711,-0.16428 -0.07796,-0.3181 0.04091,-0.0929 0.04355,-0.0886 0.02402,0.039 -0.015,0.098 -0.0015,0.15126 0.04272,0.16822 0.03557,0.0136 0.07511,0.008 0.08786,-0.0127 0.0399,-0.0645 0.01747,-0.59395 -0.02515,-0.59395 -0.02228,0 -0.04051,0.033 -0.04051,0.0733 0,0.0672 -0.0095,0.0671 -0.113468,-8.1e-4 -0.117131,-0.0768 -0.155203,-0.0414 -0.059,0.0548 0.03548,0.0355 0.03742,0.0545 0.0056,0.0545 -0.0269,0 -0.07433,-0.0307 -0.10541,-0.0681 -0.03108,-0.0375 -0.08464,-0.0681 -0.119027,-0.0681 -0.03438,0 -0.06253,-0.0204 -0.06253,-0.0454 0,-0.025 0.02163,-0.0454 0.04807,-0.0454 0.02644,0 0.03273,-0.0255 0.01398,-0.0567 -0.02386,-0.0397 -0.01142,-0.0383 0.04148,0.004 0.07022,0.0569 0.37636,0.0867 0.42203,0.041 0.01114,-0.0111 0.03021,-0.14083 0.0424,-0.28821 0.01218,-0.14738 0.03286,-0.39505 0.04595,-0.55036 l 0.02379,-0.28239 -0.171336,-0.11304 c -0.380215,-0.25087 -0.364202,-0.1914 -0.193003,-0.71688 0.188027,-0.57714 0.187381,-0.57341 0.09639,-0.55574 -0.0411,0.008 -0.15642,0.0188 -0.256272,0.0239 l -0.18155,0.009 0.158856,0.0335 0.158856,0.0335 -0.195576,0.006 c -0.120154,0.004 -0.184758,-0.0115 -0.167525,-0.0394 0.01543,-0.025 -0.005,-0.0454 -0.04539,-0.0454 -0.04039,0 -0.06082,0.0204 -0.04539,0.0454 0.01723,0.0279 -0.05611,0.0451 -0.19022,0.0447 -0.157658,-4.9e-4 -0.199364,-0.0129 -0.150188,-0.0447 0.05224,-0.0338 0.03638,-0.044 -0.06808,-0.044 -0.104471,0 -0.120317,0.0102 -0.06808,0.044 0.04006,0.0259 0.04603,0.0443 0.01451,0.0447 -0.02947,3.5e-4 -0.06243,0.0467 -0.07325,0.10282 -0.01081,0.0561 -0.02245,-0.0352 -0.02585,-0.20282 -0.0052,-0.25397 0.0052,-0.30057 0.0619,-0.27882 0.03745,0.0144 0.06808,0.003 0.06808,-0.0256 0,-0.0285 -0.03063,-0.0634 -0.06808,-0.0778 -0.042,-0.0161 -0.06808,-0.0851 -0.06808,-0.18012 0,-0.14152 0.01126,-0.15401 0.138842,-0.15401 0.081,0 0.127155,0.0189 0.11079,0.0454 -0.01543,0.025 0.006,0.0454 0.04756,0.0454 0.04857,0 0.06627,-0.0243 0.04949,-0.068 -0.01437,-0.0375 -0.0057,-0.0681 0.01926,-0.0681 0.02497,0 0.05715,0.0306 0.07152,0.0681 0.01437,0.0374 0.05707,0.068 0.09491,0.068 0.04988,0 0.05584,0.0156 0.0217,0.0568 -0.02589,0.0312 -0.05393,0.0768 -0.06229,0.10125 -0.0084,0.0245 -0.04584,0.0449 -0.08329,0.0454 -0.03753,4.8e-4 -0.06808,0.0416 -0.06808,0.0916 0,0.0499 0.02427,0.0861 0.05394,0.0804 0.137755,-0.0266 0.501011,-0.0225 0.592837,0.006 0.11678,0.0372 0.142075,-0.0393 0.02755,-0.0833 -0.118347,-0.0454 -0.02551,-0.0946 0.178627,-0.0946 0.18713,0 0.187217,-9e-5 0.362004,-0.34041 0.09616,-0.18722 0.201907,-0.46884 0.235002,-0.6258 l 0.06017,-0.28541 -0.268289,-0.2559 c -0.479732,-0.45759 -0.487096,-0.44178 0.736531,-1.58048 0.135094,-0.12572 0.278662,-0.27846 0.319038,-0.33942 0.06817,-0.10293 0.107625,-0.11253 0.55235,-0.13452 0.263415,-0.013 0.492267,-0.0371 0.50856,-0.0535 0.0163,-0.0164 0.0971,-0.24059 0.179574,-0.49825 0.130738,-0.40846 0.166665,-0.47563 0.280393,-0.5242 0.28881,-0.12333 0.712523,-0.0451 0.929256,0.17168 0.07247,0.0725 0.109063,0.0859 0.122709,0.0449 0.02983,-0.0895 0.189825,0.18036 0.190174,0.32073 2.22e-4,0.0982 0.01717,0.11616 0.09107,0.0968 0.05075,-0.0132 0.09078,-0.002 0.09078,0.0269 0,0.0279 0.02962,0.0507 0.06582,0.0507 0.03621,0 0.08389,0.0323 0.10597,0.0718 0.02268,0.0406 0.107606,0.0751 0.195154,0.0794 0.137754,0.006 0.154123,0.0211 0.147066,0.12811 -0.0056,0.0838 0.01799,0.1272 0.07725,0.14269 0.04686,0.0123 0.09477,-8e-4 0.106481,-0.0297 0.01503,-0.0367 0.02234,-0.0356 0.02487,0.003 0.0019,0.0304 0.03422,0.0435 0.07166,0.0292 0.03745,-0.0144 0.06808,-0.003 0.06808,0.0241 0,0.0277 -0.02751,0.0502 -0.06115,0.0502 -0.03363,0 -0.08331,0.046 -0.110397,0.10213 l -0.04925,0.10212 -0.0038,-0.11346 c -0.003,-0.0904 -0.01272,-0.0996 -0.04776,-0.0454 -0.02933,0.0454 -0.04423,0.0492 -0.04469,0.0113 -3.61e-4,-0.0312 -0.02242,-0.0568 -0.04896,-0.0568 -0.02711,0 -0.04203,0.0647 -0.03405,0.14751 0.01366,0.14169 0.02228,0.14769 0.218468,0.15194 0.254025,0.006 0.318823,-0.0169 0.287297,-0.099 -0.01649,-0.043 0.0071,-0.0644 0.07095,-0.0644 0.076,0 0.09563,0.0279 0.09563,0.13616 v 0.13617 h -0.272325 c -0.231982,0 -0.272326,0.0121 -0.272326,0.0817 0,0.0449 0.02232,0.10402 0.04959,0.13129 0.03587,0.0359 0.03567,0.0756 -6.87e-4,0.14355 -0.02766,0.0517 -0.05725,0.15382 -0.06578,0.227 -0.0085,0.0732 -0.05737,0.19185 -0.108541,0.26373 -0.08258,0.11598 -0.08605,0.14331 -0.03081,0.24309 0.08783,0.15865 0.0799,0.27273 -0.02684,0.38635 l -0.09229,0.0982 0.133431,0.33587 c 0.232096,0.58422 0.55969,1.33268 0.603933,1.37979 0.02709,0.0288 0.0316,0.0164 0.01239,-0.034 -0.02103,-0.0552 -0.0081,-0.0794 0.0427,-0.0794 0.05715,0 0.07294,0.0485 0.07294,0.22426 0,0.12334 0.02043,0.23688 0.04539,0.25232 0.02818,0.0174 0.04539,-0.0677 0.04539,-0.22427 0,-0.13876 0.02042,-0.25231 0.04539,-0.25231 0.02497,0 0.04794,0.0204 0.05106,0.0454 0.0031,0.025 0.0082,0.0641 0.01135,0.087 0.0031,0.0229 0.02401,0.0586 0.04642,0.0794 0.02358,0.0219 0.0307,-0.003 0.01691,-0.0593 -0.01311,-0.0534 -0.0082,-0.1224 0.01092,-0.15332 0.05858,-0.0948 0.135675,-0.002 0.135675,0.16233 0,0.0859 0.02199,0.15618 0.04887,0.15618 0.02814,0 0.04309,-0.067 0.03525,-0.15799 -0.0075,-0.0869 0.0063,-0.15328 0.03056,-0.14751 0.0425,0.0101 0.05017,0.0302 0.06163,0.16107 0.0084,0.0959 0.272839,-0.11599 0.305067,-0.24439 0.02817,-0.11223 0.125561,-0.14788 0.176937,-0.0647 0.01554,0.0251 -0.0037,0.058 -0.04271,0.073 -0.119088,0.0457 -0.08078,0.0923 0.144633,0.17602 0.118575,0.044 0.322735,0.14016 0.453689,0.21363 l 0.238098,0.13358 0.135451,-0.0965 c 0.140538,-0.10007 0.710713,-0.31579 0.851251,-0.32207 0.04751,-0.002 0.05712,-0.0129 0.02355,-0.0264 -0.105314,-0.0425 -0.0577,-0.1061 0.07943,-0.1061 0.09077,0 0.136162,0.0227 0.136162,0.0681 0,0.0375 0.02043,0.068 0.04539,0.068 0.02497,0 0.04539,-0.0285 0.04539,-0.0633 0,-0.0389 0.04356,-0.0608 0.113437,-0.0568 0.110667,0.006 0.113438,0.0151 0.113469,0.35829 l 3.2e-5,0.35176 -0.374447,0.002 c -0.205947,4.9e-4 -0.941226,1.4e-4 -1.633955,-0.002 -0.89485,-0.002 -1.259507,0.012 -1.259507,0.0478 0,0.0455 0.163708,0.44635 0.349661,0.8563 0.0649,0.14305 0.06427,0.15971 -0.008,0.21256 -0.09688,0.0709 -0.05479,0.15372 0.0625,0.12306 0.05956,-0.0156 0.0957,0.007 0.116482,0.0723 0.01657,0.0522 0.06449,0.0952 0.106498,0.0956 0.0659,4.9e-4 0.06703,0.006 0.0083,0.0447 -0.04947,0.032 -0.05184,0.0442 -0.0087,0.0447 0.03267,3.4e-4 0.04722,0.0204 0.03233,0.0445 -0.0149,0.0241 0.0144,0.12515 0.06511,0.22456 l 0.0922,0.18074 -0.09971,0.0698 -0.09971,0.0698 0.09222,0.0859 c 0.05072,0.0473 0.117602,0.15476 0.148625,0.23891 0.03102,0.0841 0.116219,0.28102 0.189324,0.4375 0.152862,0.32722 0.153078,0.3282 0.07212,0.3282 -0.03344,0 -0.08406,-0.051 -0.112495,-0.11346 -0.02843,-0.0624 -0.08277,-0.11347 -0.120755,-0.11347 -0.03798,0 -0.06905,-0.0204 -0.06905,-0.0454 0,-0.025 0.02043,-0.0454 0.04539,-0.0454 0.02497,0 0.04539,-0.0204 0.04539,-0.0454 0,-0.0751 -0.169677,-0.051 -0.200172,0.0284 -0.01559,0.0406 -0.0051,0.10189 0.02339,0.13617 0.03194,0.0385 0.03409,0.0623 0.0056,0.0623 -0.05408,0 -0.101188,-0.10738 -0.101188,-0.23065 0,-0.056 0.03151,-0.0871 0.0881,-0.0871 0.04845,0 0.09817,-0.0163 0.110475,-0.0362 0.02934,-0.0475 -0.03639,-0.15233 -0.08926,-0.14236 -0.09429,0.0177 -0.127445,-0.007 -0.06392,-0.0484 0.05505,-0.0357 0.04854,-0.0441 -0.03404,-0.0447 -0.05617,-3.4e-4 -0.102123,-0.0205 -0.102123,-0.0447 0,-0.0242 0.03063,-0.0322 0.06808,-0.0178 0.07916,0.0304 0.09309,-0.0766 0.01955,-0.15013 -0.02669,-0.0267 -0.05425,-0.0768 -0.06123,-0.1112 -0.04321,-0.21336 -0.243468,-0.62908 -0.316533,-0.65712 -0.03551,-0.0136 -0.05323,-0.0613 -0.04065,-0.10938 0.02517,-0.0963 -0.20029,-0.58972 -0.269442,-0.58972 -0.02471,0 -0.03364,-0.0293 -0.01986,-0.0653 0.01378,-0.0359 -0.03996,-0.21162 -0.119435,-0.39047 l -0.144484,-0.32518 -0.27168,0.0197 c -0.149423,0.0108 -0.292631,0.003 -0.318239,-0.0173 -0.283361,-0.2251 -0.338047,-0.27868 -0.329183,-0.32248 0.0056,-0.028 -0.02545,-0.0587 -0.06913,-0.0683 -0.06021,-0.0132 -0.07943,0.012 -0.07943,0.10429 0,0.0848 0.01898,0.11437 0.06265,0.0976 0.05941,-0.0228 0.328306,0.23583 1.137917,1.09446 0.301047,0.31927 0.309276,0.33402 0.227836,0.40848 -0.06413,0.0586 -0.07163,0.06 -0.03112,0.006 0.04424,-0.0594 0.01465,-0.11185 -0.172835,-0.30637 -0.124415,-0.12908 -0.244186,-0.23468 -0.266158,-0.23468 -0.02197,0 -0.05058,-0.0406 -0.06358,-0.0904 -0.013,-0.0498 -0.08674,-0.1263 -0.163864,-0.1702 -0.07712,-0.0439 -0.140355,-0.10804 -0.140512,-0.14254 -1.36e-4,-0.0345 -0.06978,-0.12827 -0.154728,-0.20838 -0.122967,-0.11597 -0.183089,-0.14144 -0.29502,-0.12502 -0.100209,0.0147 -0.140578,0.0452 -0.140578,0.10626 0,0.0471 -0.01547,0.0856 -0.03437,0.0856 -0.0189,0 -0.02705,-0.0919 -0.01813,-0.20425 0.0091,-0.11395 -0.0034,-0.20425 -0.02816,-0.20425 -0.110523,0 -0.142327,0.1433 -0.139674,0.62929 0.0026,0.46727 -0.01558,0.60235 -0.07313,0.54479 -0.01162,-0.0116 -0.02384,-0.26791 -0.02715,-0.56956 -0.0065,-0.59524 0.0377,-0.7659 0.188326,-0.72651 0.07041,0.0184 0.08689,-0.002 0.08689,-0.1051 v -0.12783 l 0.238285,0.0533 c 0.131057,0.0293 0.314877,0.0508 0.408489,0.0478 0.154371,-0.005 0.170268,0.006 0.170898,0.11283 5.31e-4,0.0907 0.01056,0.10269 0.04292,0.0515 0.05157,-0.0815 0.08518,-0.0533 0.107026,0.0898 0.0091,0.0596 0.0407,0.11297 0.07024,0.11866 0.02955,0.006 0.03265,-9e-5 0.0069,-0.0128 -0.02574,-0.0127 -0.03412,-0.0437 -0.0186,-0.0688 0.01552,-0.0251 -0.04744,-0.21227 -0.139879,-0.41596 -0.09244,-0.20368 -0.202023,-0.44668 -0.243509,-0.54001 -0.06936,-0.15603 -0.171403,-0.25083 -0.116784,-0.1085 0.01314,0.0343 -0.0101,0.0752 -0.05162,0.0912 -0.05529,0.0212 -0.06766,0.0602 -0.04621,0.14569 0.02356,0.0939 0.01423,0.11377 -0.0476,0.1017 -0.05224,-0.0102 -0.07828,-0.0623 -0.08122,-0.16253 -0.0023,-0.0811 0.011,-0.14751 0.02972,-0.14751 0.01872,0 0.03404,-0.0313 0.03404,-0.0695 0,-0.0382 0.04032,-0.0844 0.08959,-0.10269 0.08639,-0.0319 0.0845,-0.0441 -0.05289,-0.3398 l -0.142482,-0.30667 -0.105966,0.0995 c -0.0996,0.0936 -0.105966,0.13222 -0.105966,0.64385 0,0.29938 -0.0093,0.53501 -0.02067,0.52364 -0.01137,-0.0114 -0.02513,-0.32213 -0.03059,-0.69058 -0.0055,-0.36845 -0.02266,-0.67779 -0.03823,-0.68741 -0.10931,-0.0676 -0.13526,0.0917 -0.142494,0.8748 -0.0042,0.45455 -0.02521,0.82645 -0.04668,0.82645 -0.02147,0 -0.03904,0.0297 -0.03904,0.066 0,0.0364 -0.07903,0.24568 -0.175614,0.46522 -0.09659,0.21954 -0.232152,0.54215 -0.301252,0.71689 -0.137938,0.34882 -0.147638,0.36646 -0.182352,0.33175 -0.01309,-0.0131 0.01755,-0.2011 0.06808,-0.41782 0.09284,-0.39816 0.109979,-0.51451 0.06989,-0.47441 -0.01209,0.0121 -0.05525,0.18399 -0.09591,0.38201 -0.04066,0.19801 -0.09625,0.40087 -0.123551,0.4508 -0.0273,0.0499 -0.05256,0.15204 -0.05613,0.22694 -0.0035,0.0749 -0.01923,0.23828 -0.0348,0.3631 -0.01995,0.16003 -0.0069,0.12938 0.04446,-0.10395 0.044,-0.20012 0.09284,-0.32379 0.123594,-0.31295 0.02797,0.01 0.04499,0.0718 0.03782,0.13782 l -0.01304,0.1199 0.34437,-0.0112 c 0.306914,-0.01 0.342042,-0.0201 0.322976,-0.0932 -0.01616,-0.0619 -0.0073,-0.0704 0.03595,-0.0344 0.03154,0.0262 0.07078,0.0341 0.0872,0.0177 0.01643,-0.0165 0.02986,0.0144 0.02986,0.0685 0,0.0541 -0.02553,0.10069 -0.05674,0.10357 -0.03121,0.003 -0.07716,0.01 -0.102123,0.0158 -0.02497,0.006 -0.08113,0.0136 -0.124816,0.0175 -0.04369,0.004 -0.07943,0.0258 -0.07943,0.0489 0,0.0231 0.126312,0.0339 0.280692,0.024 0.250848,-0.016 0.273375,-0.0106 0.21187,0.051 -0.06086,0.0609 -0.207051,0.0775 -0.549296,0.0625 -0.09356,-0.004 -0.10141,-0.0483 -0.02269,-0.12773 0.04556,-0.046 0.0325,-0.0541 -0.06636,-0.041 -0.0677,0.009 -0.137488,0.0306 -0.155074,0.0482 -0.01759,0.0176 -0.06821,0.032 -0.112506,0.032 -0.09793,0 -0.110795,0.0206 -0.150905,0.24275 -0.01857,0.10284 -0.01442,0.16409 0.0101,0.14894 0.06611,-0.0409 0.145207,0.17277 0.09179,0.24792 -0.03617,0.0509 -0.04033,0.048 -0.02039,-0.0143 0.02333,-0.0727 -6.83e-4,-0.10806 -0.168882,-0.24818 -0.09388,-0.0782 -0.22224,0.0289 -0.233149,0.19455 -0.0048,0.0725 -0.04548,0.30024 -0.09046,0.50619 -0.06105,0.27955 -0.100247,0.37445 -0.154642,0.37445 -0.08,0 -0.107183,-0.2259 -0.02747,-0.22832 0.02497,-4.9e-4 0.0054,-0.0245 -0.04337,-0.0529 -0.08809,-0.0511 -0.08809,-0.0518 0,-0.0862 0.07532,-0.0294 0.06986,-0.0352 -0.03605,-0.0379 -0.136183,-0.003 -0.168248,-0.0802 -0.05216,-0.12469 0.03996,-0.0153 0.08962,-4.9e-4 0.110351,0.0331 0.03436,0.0556 0.05633,0.0114 0.113972,-0.22931 0.003,-0.0125 0.01797,-0.0738 0.0333,-0.13616 0.01532,-0.0624 0.04003,-0.2077 0.05488,-0.32286 l 0.02702,-0.20939 -0.224903,0.005 c -0.17863,0.004 -0.214868,0.0173 -0.176131,0.064 0.02682,0.0323 0.07614,0.0483 0.109584,0.0355 0.03345,-0.0128 0.06081,-0.003 0.06081,0.0206 0,0.0242 -0.02896,0.0439 -0.06437,0.0439 -0.114069,0 -0.207956,-0.0534 -0.207956,-0.11833 0,-0.2383 -0.176265,0.18249 -0.196912,0.47009 -0.004,0.0561 -0.02265,0.10212 -0.04138,0.10212 -0.01872,0 -0.03404,0.0613 -0.03404,0.13616 0,0.0908 0.02269,0.13617 0.06808,0.13617 0.03745,0 0.06808,0.0216 0.06808,0.0481 0,0.0264 -0.02043,0.0355 -0.04539,0.02 -0.02497,-0.0154 -0.04539,0.004 -0.04539,0.0427 0,0.0389 0.02553,0.0714 0.05674,0.0722 0.03952,8.1e-4 0.03608,0.0182 -0.01135,0.0568 -0.09263,0.0752 -0.106902,0.19902 -0.02295,0.19902 0.03758,0 0.05884,-0.009 0.04724,-0.0211 -0.03473,-0.0348 0.06549,-0.19072 0.122547,-0.19072 0.03935,0 0.03894,0.014 -0.0016,0.0544 -0.07832,0.0783 -0.06706,0.16254 0.02497,0.18658 0.04369,0.0114 -0.187792,0.0231 -0.514393,0.026 -0.445091,0.004 -0.595138,-0.009 -0.599073,-0.0515 -0.0046,-0.0499 -0.01446,-0.23323 -0.05176,-0.96449 -0.0087,-0.17128 -0.01195,-0.17513 -0.0569,-0.0681 -0.09033,0.21515 -0.12181,0.40845 -0.06665,0.40918 0.0348,4.9e-4 0.03634,0.0117 0.0047,0.034 -0.062,0.0437 -0.183414,0.42253 -0.163441,0.50991 0.0086,0.0374 0.03905,0.0831 0.06776,0.10143 0.02871,0.0183 -0.16594,0.0336 -0.432551,0.034 l -0.484749,4.8e-4 z m 2.814721,-1.37562 c 5.8e-5,-0.0281 -0.391202,-0.0582 -0.510541,-0.0394 -0.01872,0.003 -0.03404,-0.015 -0.03404,-0.04 0,-0.0402 0.299693,-0.0688 0.506849,-0.0484 0.0836,0.008 0.08703,-8e-4 0.196886,-0.51895 0.04234,-0.1997 0.118117,-0.52649 0.16839,-0.72619 0.158847,-0.63102 0.159341,-0.61188 -0.01596,-0.61853 -0.08396,-0.003 -0.198514,-0.0106 -0.254557,-0.0165 -0.07361,-0.008 -0.120855,0.0273 -0.170203,0.12623 -0.09706,0.19457 -0.08864,0.21285 0.101895,0.22139 l 0.170203,0.007 -0.170203,0.0178 c -0.135194,0.0141 -0.170204,0.0369 -0.170204,0.11033 0,0.0509 -0.02886,0.15688 -0.06413,0.23554 -0.08808,0.19642 -0.2434,0.72805 -0.298086,1.02025 -0.02488,0.13298 -0.05541,0.25824 -0.06785,0.27836 -0.01243,0.0201 0.120071,0.0339 0.29444,0.0306 0.174368,-0.003 0.317065,-0.0214 0.317104,-0.0401 z m -0.280766,-0.24659 c 0.03276,-0.0131 0.07191,-0.0115 0.08699,0.003 0.01509,0.0151 -0.01173,0.0258 -0.05958,0.0239 -0.05287,-0.002 -0.06363,-0.0129 -0.02743,-0.0274 z m 1.112764,-1.45991 c -0.03066,-0.11723 -0.105523,-0.13007 -0.106226,-0.0182 -2.74e-4,0.0437 -0.01151,0.16113 -0.02495,0.26099 l -0.02445,0.18155 0.09058,-0.16332 c 0.05213,-0.094 0.07974,-0.20477 0.06504,-0.26098 z m -0.183827,0.11794 c 0.01264,-0.0811 0.0048,-0.16691 -0.01755,-0.19063 -0.02466,-0.0262 -0.04076,-0.008 -0.04113,0.0454 -3.61e-4,0.0487 -0.01294,0.13446 -0.02799,0.19063 -0.01506,0.0562 -0.0069,0.10212 0.01816,0.10212 0.02505,0 0.05587,-0.0664 0.06851,-0.14751 z m 1.530505,-0.16753 c 0,-0.0535 -0.08852,-0.11083 -0.121034,-0.0783 -0.03251,0.0325 0.02477,0.12103 0.07832,0.12103 0.02349,0 0.04271,-0.0192 0.04271,-0.0427 z m 1.576275,0.0152 c -0.01508,-0.0151 -0.05423,-0.0167 -0.08699,-0.003 -0.03621,0.0145 -0.02545,0.0252 0.02742,0.0274 0.04784,0.002 0.07465,-0.009 0.05958,-0.0239 z m -0.561779,-0.0872 c -0.01739,-0.0453 -0.04434,-0.0547 -0.078,-0.0271 -0.02829,0.0232 -0.102495,0.0516 -0.164903,0.0631 -0.07449,0.0137 -0.04769,0.023 0.078,0.0271 0.154426,0.005 0.186332,-0.007 0.164903,-0.0631 z m -2.526671,-0.12082 c -0.01449,-0.0362 -0.02524,-0.0255 -0.02743,0.0274 -0.0019,0.0478 0.0088,0.0747 0.02384,0.0596 0.01508,-0.0151 0.01669,-0.0543 0.0035,-0.087 z m 0.233131,-0.003 c -0.008,-0.0561 -0.03492,-0.10212 -0.05989,-0.10212 -0.02497,0 -0.05192,0.046 -0.05989,0.10212 -0.01,0.0702 0.0087,0.10213 0.05989,0.10213 0.05119,0 0.06987,-0.0319 0.05989,-0.10213 z m 0.984024,0.0568 c -0.01543,-0.025 -0.0677,-0.0454 -0.116148,-0.0454 -0.04846,0 -0.0881,0.0204 -0.0881,0.0454 0,0.025 0.05227,0.0454 0.116148,0.0454 0.06587,0 0.104005,-0.0197 0.0881,-0.0454 z m -1.172712,-0.28368 c -0.0126,-0.0312 -0.02289,-0.006 -0.02289,0.0568 0,0.0624 0.01031,0.0879 0.02289,0.0568 0.01259,-0.0312 0.01259,-0.0823 0,-0.11347 z m -0.179001,-0.0454 c -0.01118,-0.0312 -0.0048,-0.0874 0.01437,-0.12481 0.01909,-0.0374 0.04628,-0.13957 0.06043,-0.22694 0.01415,-0.0874 0.04709,-0.27022 0.07319,-0.40634 0.04618,-0.24075 0.04408,-0.25023 -0.07791,-0.34931 -0.116002,-0.0942 -0.12974,-0.0961 -0.183599,-0.0255 -0.03201,0.042 -0.09781,0.20452 -0.146198,0.36119 -0.04839,0.15667 -0.111205,0.32824 -0.13959,0.38128 -0.02838,0.0531 -0.05921,0.17535 -0.0685,0.2718 l -0.01689,0.17536 h 0.25252 c 0.182606,0 0.246887,-0.0157 0.232176,-0.0568 z m -0.293588,-0.0653 c 0.04369,-0.0114 0.115171,-0.0114 0.158856,0 0.04369,0.0114 0.008,0.0208 -0.07943,0.0208 -0.08737,0 -0.123114,-0.009 -0.07943,-0.0208 z m 0.851017,-0.3999 c 0,-0.28707 -0.01652,-0.52195 -0.03672,-0.52195 -0.04946,0 -0.217322,0.86735 -0.19544,1.00987 0.0029,0.0187 0.05629,0.034 0.118696,0.034 h 0.113468 z m -0.333041,0.28367 c -0.01259,-0.0312 -0.02289,-0.006 -0.02289,0.0568 0,0.0624 0.0103,0.088 0.02289,0.0568 0.0126,-0.0312 0.0126,-0.0823 0,-0.11347 z m 0.04633,-0.1787 c -0.01449,-0.0362 -0.02524,-0.0255 -0.02743,0.0274 -0.0019,0.0478 0.0088,0.0747 0.02384,0.0596 0.01508,-0.0151 0.01669,-0.0543 0.0035,-0.087 z m 0.04539,-0.22694 c -0.01449,-0.0362 -0.02524,-0.0255 -0.02743,0.0274 -0.0019,0.0478 0.0088,0.0747 0.02384,0.0596 0.01508,-0.0151 0.01669,-0.0543 0.0035,-0.087 z m 0.23993,-1.10349 c 0,-0.025 -0.0198,-0.0148 -0.044,0.0226 -0.0242,0.0374 -0.044,0.0885 -0.044,0.11347 0,0.025 0.0198,0.0148 0.044,-0.0227 0.0242,-0.0374 0.044,-0.0885 0.044,-0.11347 z m 0.438847,-0.28118 c -0.04066,-0.0406 -0.255906,0.0292 -0.255906,0.0831 0,0.0275 0.04072,0.0392 0.09078,0.0261 0.05181,-0.0135 0.09137,-8.1e-4 0.09216,0.0287 7.56e-4,0.0289 0.02305,0.0152 0.04955,-0.0303 0.02649,-0.0456 0.03704,-0.094 0.02343,-0.10757 z m -0.346681,0.0543 c 0,-0.0374 -0.02043,-0.0681 -0.04539,-0.0681 -0.02497,0 -0.04538,0.0306 -0.04538,0.0681 0,0.0374 0.02043,0.0681 0.04538,0.0681 0.02497,0 0.04539,-0.0306 0.04539,-0.0681 z m -0.417476,-0.91268 c 0.09231,-0.017 0.18285,-0.0535 0.20119,-0.081 0.02149,-0.0323 0.03359,-0.0252 0.03404,0.0202 3.6e-4,0.0387 -0.01922,0.0903 -0.04358,0.11462 -0.02876,0.0288 -0.0258,0.10447 0.0085,0.21618 0.04903,0.15976 0.06419,0.17128 0.214472,0.16298 0.08894,-0.005 0.198832,0.006 0.244201,0.0259 0.198653,0.0838 0.430605,-0.20691 0.373296,-0.46784 -0.02905,-0.13229 -0.03163,-0.13328 -0.293804,-0.11232 -0.237538,0.019 -0.271984,0.0104 -0.338051,-0.0839 -0.04742,-0.0677 -0.07357,-0.19915 -0.07357,-0.36993 0,-0.15194 -0.01801,-0.25378 -0.04225,-0.23879 -0.02324,0.0143 -0.05508,0.006 -0.07076,-0.02 -0.01647,-0.0267 0.02052,-0.0461 0.08764,-0.0461 0.132695,0 0.133762,-0.002 0.06584,-0.15153 -0.03743,-0.0822 -0.08336,-0.10884 -0.179458,-0.10426 -0.07103,0.003 -0.124985,-0.0143 -0.119895,-0.0392 0.0051,-0.025 0.06542,-0.0452 0.134071,-0.045 0.139722,4.9e-4 0.156381,-0.0312 0.05891,-0.1121 -0.119126,-0.0989 -0.43336,0.0642 -0.43336,0.22488 0,0.042 -0.05388,0.101 -0.119736,0.13101 l -0.119735,0.0545 0.151248,0.11159 c 0.165761,0.12229 0.227521,0.13569 0.298494,0.0648 0.02578,-0.0258 0.08056,-0.034 0.121716,-0.0181 0.05797,0.0222 0.06444,0.0481 0.02868,0.11496 -0.02538,0.0474 -0.06836,0.0862 -0.0955,0.0862 -0.03236,0 -0.02989,-0.0235 0.0072,-0.068 0.03152,-0.038 0.03643,-0.0681 0.01111,-0.0681 -0.02497,0 -0.07134,0.0313 -0.103068,0.0695 -0.0477,0.0575 -0.04276,0.0808 0.02848,0.13472 0.07938,0.0601 0.07986,0.0653 0.0061,0.0667 -0.07435,0.002 -0.07515,0.0131 -0.01135,0.16583 0.03778,0.0904 0.06869,0.16957 0.06869,0.17588 0,0.006 -0.0571,0.0229 -0.126897,0.0369 -0.122636,0.0245 -0.842701,0.70756 -0.931637,0.88372 -0.02168,0.043 0.147404,-0.12032 0.375751,-0.36282 0.337033,-0.35794 0.446768,-0.44673 0.583021,-0.47177 z m 0.882094,0.24369 c 0.03154,-0.0673 0.06482,-0.10056 0.07395,-0.0739 0.0091,0.0266 -0.01667,0.0816 -0.05734,0.12232 -0.06835,0.0684 -0.06961,0.0647 -0.01661,-0.0484 z m -0.589309,-0.18203 c 0.01047,-0.0312 0.05158,-0.057 0.09135,-0.0573 0.03977,-3.5e-4 0.08738,-0.0156 0.10578,-0.034 0.0184,-0.0184 0.127073,-0.0301 0.241488,-0.0258 l 0.208027,0.007 -0.181551,0.0185 c -0.09985,0.0102 -0.197884,0.0476 -0.217846,0.0832 -0.04544,0.081 -0.27423,0.0884 -0.247252,0.008 z m 0.03253,0.60139 c 0,-0.0606 -0.0049,-0.0606 -0.044,0 -0.0242,0.0374 -0.044,0.0987 -0.044,0.13616 0,0.0606 0.0049,0.0606 0.044,0 0.0242,-0.0374 0.044,-0.0987 0.044,-0.13616 z m -1.01983,-0.68081 c 0.01543,-0.025 0.0065,-0.0454 -0.02002,-0.0454 -0.02644,0 -0.04807,0.0204 -0.04807,0.0454 0,0.025 0.009,0.0454 0.02002,0.0454 0.01101,0 0.03263,-0.0204 0.04807,-0.0454 z m 0.01851,-0.19632 c -0.0182,-0.14746 0.01076,-0.21218 0.09495,-0.21218 0.135459,0 0.108516,-0.053 -0.103845,-0.20424 -0.257432,-0.18335 -0.253012,-0.18308 -0.216067,-0.0134 0.0179,0.0822 0.05636,0.14441 0.08545,0.13817 0.0291,-0.006 0.05291,0.009 0.05291,0.034 0,0.025 -0.02451,0.0454 -0.05446,0.0454 -0.04236,0 -0.04236,0.0121 0,0.0544 0.02996,0.0299 0.05446,0.10264 0.05446,0.16153 0,0.0617 0.01976,0.0949 0.04659,0.0783 0.02563,-0.0159 0.04362,-0.0528 0.04001,-0.0821 z m 1.819059,-0.38238 c -0.0016,-0.088 -0.05911,-0.23828 -0.0912,-0.23828 -0.01972,0 -0.02516,0.0409 -0.0121,0.0908 0.01514,0.0579 0.0013,0.091 -0.03829,0.0915 -0.0484,4.8e-4 -0.04707,0.0103 0.006,0.0447 0.08207,0.0531 0.136386,0.0576 0.135544,0.0114 z m -0.223304,-0.37445 c 0.0233,0 0.04237,0.0204 0.04237,0.0454 0,0.0854 0.07616,0.0455 0.127305,-0.0668 0.05107,-0.11208 0.05096,-0.11214 -0.176394,-0.0962 -0.264944,0.0185 -0.268709,0.021 -0.220729,0.14029 0.02008,0.0499 0.03794,0.0652 0.03969,0.034 0.0018,-0.0312 0.0258,-0.0568 0.05343,-0.0568 0.02764,0 0.03778,0.0325 0.02255,0.0722 -0.01523,0.0397 -0.01231,0.0959 0.0065,0.12481 0.02072,0.0319 0.03984,0.003 0.04855,-0.0722 0.0079,-0.0686 0.03343,-0.12482 0.05674,-0.12482 z m -1.273868,-0.11832 c 0,-0.0597 -0.02043,-0.10862 -0.04539,-0.10862 -0.02497,0 -0.0457,0.046 -0.04608,0.10213 -5.85e-4,0.0824 -0.0091,0.089 -0.04435,0.034 -0.02401,-0.0375 -0.03254,-0.10382 -0.01894,-0.14751 0.01359,-0.0437 0.0029,-0.0794 -0.02373,-0.0794 -0.0614,0 -0.06278,0.16073 -0.0024,0.27362 0.06107,0.11412 0.180858,0.065 0.180858,-0.0743 z m 0.95314,-0.10862 c 0,-0.025 -0.02043,-0.0454 -0.04539,-0.0454 -0.02497,0 -0.04539,0.0204 -0.04539,0.0454 0,0.025 0.02042,0.0454 0.04539,0.0454 0.02497,0 0.04539,-0.0204 0.04539,-0.0454 z m -1.270853,7.67051 c 0,-0.0499 0.0078,-0.0908 0.0174,-0.0908 0.0096,0 0.02808,0.0409 0.04113,0.0908 0.01306,0.0499 0.0052,0.0908 -0.0174,0.0908 -0.02263,0 -0.04113,-0.0409 -0.04113,-0.0908 z m 0.139745,0.008 c 0.0022,-0.0467 0.01248,-0.0546 0.02635,-0.0202 0.01616,0.04 0.047,0.0434 0.106224,0.0117 0.05922,-0.0317 0.09007,-0.0283 0.106224,0.0117 0.01734,0.0429 0.02363,0.0422 0.02635,-0.003 0.0019,-0.0327 0.02401,-0.0468 0.04897,-0.0314 0.09531,0.0589 0.03846,0.10287 -0.136163,0.10527 -0.14242,0.002 -0.180778,-0.014 -0.177967,-0.0741 z m 0.450293,0.0444 c 0,-0.0208 0.03063,-0.0378 0.06808,-0.0378 0.03745,0 0.06808,0.017 0.06808,0.0378 0,0.0208 -0.03064,0.0378 -0.06808,0.0378 -0.03745,0 -0.06808,-0.017 -0.06808,-0.0378 z m 0.181552,-0.0756 c 0,-0.0624 0.02261,-0.11346 0.05025,-0.11346 0.02763,0 0.03944,0.0281 0.02624,0.0626 -0.0132,0.0344 -10e-4,0.0855 0.02692,0.11347 0.03763,0.0377 0.03079,0.0509 -0.02624,0.0509 -0.05204,0 -0.07716,-0.0369 -0.07716,-0.11348 z m 0.51061,0.0822 c 0.04369,-0.0114 0.07943,-0.0499 0.07943,-0.0855 0,-0.0361 0.04343,-0.0648 0.09834,-0.0648 0.113429,0 0.08654,-0.0463 -0.03745,-0.0644 -0.04977,-0.007 -0.08569,-0.0523 -0.08879,-0.11104 -0.0028,-0.0543 -0.03869,-0.1358 -0.07961,-0.18103 -0.06188,-0.0684 -0.06325,-0.0822 -0.0081,-0.0822 0.03645,0 0.05708,0.0148 0.04584,0.0331 -0.01124,0.0182 0.0109,0.0451 0.04921,0.0598 0.04073,0.0156 0.06665,0.003 0.06245,-0.0293 -0.01566,-0.12181 0.0066,-0.16546 0.07164,-0.14051 0.03745,0.0144 0.06808,0.0437 0.06808,0.0652 0,0.0215 -0.03087,0.0273 -0.0686,0.0127 -0.04901,-0.0188 -0.06061,-0.006 -0.04063,0.0466 0.01538,0.0401 0.05136,0.0598 0.07994,0.0438 0.03141,-0.0176 0.02952,-0.005 -0.0048,0.032 -0.101067,0.10888 -0.06947,0.19216 0.06054,0.15953 0.0713,-0.0179 0.106595,-0.0122 0.09004,0.0146 -0.01498,0.0243 -0.0065,0.0569 0.01889,0.0726 0.02537,0.0157 0.04612,0.007 0.04612,-0.0195 0,-0.0265 0.03063,-0.0481 0.06808,-0.0481 0.110958,0 0.07765,0.0699 -0.05565,0.11676 l -0.123726,0.0435 0.157767,0.0777 c 0.125836,0.0619 0.137864,0.0779 0.05943,0.0787 -0.05408,4.9e-4 -0.108642,-0.0245 -0.121233,-0.0557 -0.01831,-0.0454 -0.02361,-0.0454 -0.02647,0 -0.0019,0.0312 -0.03933,0.0552 -0.08301,0.0531 -0.04792,-0.002 -0.05681,-0.0127 -0.02241,-0.0266 0.08039,-0.0324 0.02318,-0.10602 -0.08239,-0.10602 -0.04846,0 -0.0881,0.0306 -0.0881,0.0681 0,0.0419 -0.03926,0.066 -0.102122,0.0628 -0.07685,-0.004 -0.08247,-0.0104 -0.02269,-0.0261 z m 0.669467,0.0135 c 0,-0.01 0.0317,-0.03 0.07044,-0.0448 0.04039,-0.0155 0.05861,-0.008 0.04271,0.0178 -0.02665,0.0431 -0.113148,0.0638 -0.113148,0.027 z m 0.340408,-0.0276 c -0.01543,-0.025 -0.01543,-0.0658 0,-0.0908 0.01543,-0.025 -0.0089,-0.0476 -0.05406,-0.0502 -0.207246,-0.0122 -0.239799,-0.0208 -0.239872,-0.0632 -4.2e-5,-0.025 0.02522,-0.046 0.05615,-0.0466 0.03092,-4.9e-4 0.08523,-0.0194 0.120675,-0.0415 0.04792,-0.0299 0.05742,-0.022 0.03706,0.031 -0.01913,0.0498 0.0065,0.0799 0.08515,0.0996 0.0619,0.0155 0.132175,0.0161 0.15618,8e-4 0.02401,-0.0148 0.01979,0.0254 -0.0094,0.0894 -0.05599,0.12288 -0.105531,0.14603 -0.151916,0.071 z m 0.341317,-0.0238 c 0.03158,-0.0381 0.06676,-0.0598 0.07819,-0.0485 0.03147,0.0315 -0.03248,0.11759 -0.08733,0.11759 -0.03009,0 -0.02665,-0.0261 0.0091,-0.0692 z m 0.508247,-0.0227 c -0.05317,-0.0852 -0.05068,-0.0877 0.03447,-0.0345 0.05049,0.0315 0.0918,0.0728 0.0918,0.0918 0,0.0656 -0.06915,0.0341 -0.12627,-0.0573 z m 0.171657,0.0434 c 0,-0.0278 0.03872,-0.0361 0.091,-0.0195 0.06048,0.0192 0.100163,0.005 0.118325,-0.0423 0.01503,-0.0392 0.06088,-0.0706 0.101898,-0.0698 0.0656,8.1e-4 0.0649,0.007 -0.0058,0.0481 -0.04421,0.0257 -0.06853,0.066 -0.05406,0.0894 0.01448,0.0234 -0.03615,0.0426 -0.112514,0.0426 -0.07636,0 -0.138842,-0.0218 -0.138842,-0.0484 z m 0.884601,0.002 c -0.01568,-0.0254 -0.0463,-0.0351 -0.06806,-0.0217 -0.05743,0.0355 -0.229129,-0.16373 -0.191962,-0.22273 0.01999,-0.0318 0.03679,-0.0227 0.04621,0.0248 0.01381,0.0696 0.236953,0.15215 0.236953,0.0877 0,-0.0161 0.03935,-0.0293 0.08744,-0.0293 0.04809,0 0.07753,0.016 0.0654,0.0356 -0.01212,0.0196 0.01831,0.0356 0.06763,0.0356 0.04932,0 0.09997,-0.0255 0.112564,-0.0567 0.01259,-0.0312 0.02451,-4.9e-4 0.02647,0.0681 0.0033,0.11565 -0.0095,0.12481 -0.175289,0.12481 -0.09838,0 -0.191701,-0.0208 -0.207381,-0.0461 z m 0.567803,0.002 c 0,-0.0242 -0.03063,-0.0322 -0.06808,-0.0178 -0.04204,0.0161 -0.06808,-1.4e-4 -0.06808,-0.0426 0,-0.0476 0.03134,-0.0618 0.102123,-0.0464 0.08439,0.0185 0.0903,0.0133 0.03404,-0.0299 -0.05482,-0.0421 -0.04597,-0.0462 0.04539,-0.021 0.150991,0.0416 0.168603,0.0627 0.09206,0.11001 -0.04501,0.0278 -0.01074,0.0451 0.114783,0.058 0.174848,0.0179 0.174007,0.0185 -0.03664,0.026 -0.118575,0.004 -0.215591,-0.0122 -0.215591,-0.0364 z m 0.471707,-0.13393 c 0.0031,-0.1196 0.02585,-0.185 0.06428,-0.18508 0.03267,-9e-5 0.04693,0.02 0.03168,0.0448 -0.0159,0.0257 0.0023,0.0334 0.04271,0.0178 0.08235,-0.0316 0.0934,0.0323 0.01852,0.10723 -0.03897,0.0389 -0.0283,0.0457 0.04283,0.0272 0.05212,-0.0136 0.101017,-0.0655 0.108661,-0.11521 0.01375,-0.0895 0.01502,-0.0894 0.122179,0.004 0.0757,0.066 0.143983,0.0864 0.226938,0.0679 l 0.118656,-0.0264 -0.136163,0.1163 c -0.146516,0.12516 -0.204244,0.14613 -0.204244,0.0742 0,-0.025 -0.03575,-0.0451 -0.07943,-0.0447 -0.06788,4.9e-4 -0.06953,0.007 -0.01135,0.0447 0.05818,0.0376 0.05654,0.0441 -0.01134,0.0447 -0.04369,3.4e-4 -0.07943,-0.021 -0.07943,-0.0476 0,-0.0545 -0.189456,-0.04 -0.231802,0.0177 -0.01515,0.0206 -0.02537,-0.0456 -0.02269,-0.14739 z m 0.481433,0.0239 c 0,-0.01 -0.0317,-0.03 -0.07044,-0.0448 -0.04039,-0.0155 -0.05861,-0.008 -0.0427,0.0178 0.02665,0.0431 0.113148,0.0638 0.113147,0.027 z m -9.529234,0.0202 c -0.03626,-0.0229 -0.08197,-0.0318 -0.101602,-0.0197 -0.01963,0.0122 -0.02196,-0.0137 -0.0052,-0.0574 0.01875,-0.0489 0.0375,-0.0585 0.04865,-0.0251 0.01,0.0299 0.05729,0.0544 0.10514,0.0544 0.04785,0 0.08699,0.0204 0.08699,0.0454 0,0.0561 -0.0476,0.0569 -0.133997,0.002 z m 1.768645,0.009 c 3.78e-4,-0.0187 0.02049,-0.0647 0.04469,-0.10213 0.0365,-0.0564 0.04423,-0.0526 0.04539,0.0227 0.0012,0.0753 0.0089,0.0792 0.04539,0.0227 0.0376,-0.0581 0.0441,-0.0565 0.04469,0.0114 4.29e-4,0.0494 -0.03362,0.0794 -0.09008,0.0794 -0.04992,0 -0.09046,-0.0153 -0.09008,-0.034 z m 1.451709,-0.0314 c 0,-0.036 0.02553,-0.0801 0.05674,-0.0981 0.0312,-0.018 0.04159,-0.016 0.02309,0.004 -0.01851,0.0204 -0.0109,0.0645 0.0169,0.0981 0.03876,0.0467 0.03337,0.0609 -0.02309,0.0609 -0.04051,0 -0.07364,-0.0294 -0.07364,-0.0654 z m 3.109053,0.02 c 0.01543,-0.025 0.04847,-0.0454 0.07344,-0.0454 0.02497,0 0.03276,0.0204 0.01734,0.0454 -0.01543,0.025 -0.04847,0.0454 -0.07344,0.0454 -0.02497,0 -0.03276,-0.0204 -0.01734,-0.0454 z m 0.334203,-0.0108 c 0.06466,-0.0825 0.144946,-0.0681 0.138783,0.0248 -0.0024,0.0371 -0.01096,0.0356 -0.02711,-0.004 -0.01922,-0.0479 -0.03723,-0.0479 -0.09854,0 -0.06692,0.0523 -0.06834,0.0502 -0.01314,-0.0203 z m 2.140103,-0.0332 c -0.0476,-0.0889 -0.01897,-0.11643 0.101442,-0.0974 0.01872,0.003 0.03404,-0.015 0.03404,-0.04 0,-0.025 -0.04986,-0.0454 -0.110791,-0.0454 -0.06094,0 -0.123413,0.0204 -0.138841,0.0454 -0.04889,0.0791 -0.158784,0.0527 -0.126859,-0.0306 0.02116,-0.0552 0.01039,-0.0688 -0.03925,-0.0497 -0.04153,0.016 -0.0684,4.9e-4 -0.0684,-0.0394 0,-0.0361 0.02298,-0.0568 0.05108,-0.0461 0.0712,0.0273 0.191407,-0.0694 0.191182,-0.15393 -9.1e-5,-0.0411 -0.04504,-0.0739 -0.108583,-0.0791 -0.07571,-0.006 -0.09817,0.008 -0.0745,0.0475 0.02269,0.0378 0.0085,0.0359 -0.0429,-0.006 -0.06874,-0.0557 -0.07694,-0.0486 -0.07817,0.0681 -0.0012,0.11331 -0.0077,0.11962 -0.04919,0.0482 -0.0263,-0.0452 -0.03692,-0.11054 -0.02363,-0.1452 0.01581,-0.0412 0.0014,-0.0543 -0.04159,-0.0378 -0.07519,0.0289 -0.08764,0.13282 -0.02084,0.17411 0.02828,0.0174 0.02408,0.0502 -0.01135,0.0884 -0.0385,0.0415 -0.06594,0.0452 -0.08686,0.0118 -0.02112,-0.0337 -0.05271,-0.0304 -0.102121,0.0106 -0.08375,0.0695 -0.09163,0.0344 -0.02163,-0.0964 0.0308,-0.0576 0.03221,-0.0823 0.0036,-0.0647 -0.02544,0.0157 -0.07951,-0.005 -0.120158,-0.0453 -0.109762,-0.10977 -0.126719,-0.0535 -0.05101,0.16939 0.04751,0.13986 0.05034,0.17575 0.0095,0.12123 -0.05464,-0.0731 -0.06266,-0.0731 -0.140205,0 -0.04524,0.0426 -0.06882,0.0534 -0.05242,0.0239 0.0164,-0.0295 0.0087,-0.0666 -0.01704,-0.0826 -0.05433,-0.0336 -0.01708,-0.11347 0.05292,-0.11347 0.02616,0 0.0354,0.0317 0.02054,0.0705 -0.0155,0.0404 -0.0079,0.0586 0.01784,0.0427 0.02468,-0.0152 0.04487,-0.0662 0.04487,-0.11322 0,-0.0602 -0.02607,-0.0805 -0.08816,-0.0685 -0.058,0.0111 -0.08041,-0.003 -0.06551,-0.042 0.01277,-0.0332 -0.01806,-0.0697 -0.0707,-0.0834 -0.05133,-0.0134 -0.09334,-0.0581 -0.09334,-0.0994 0,-0.0413 0.01901,-0.0633 0.04225,-0.0489 0.02324,0.0144 0.05518,0.005 0.07098,-0.0204 0.0182,-0.0294 0.05367,-0.0215 0.09681,0.0216 0.03745,0.0374 0.05852,0.0836 0.04683,0.10246 -0.01169,0.0189 0.02275,0.037 0.07653,0.0402 0.05379,0.003 0.143743,0.0173 0.199911,0.0314 0.05616,0.0141 0.102121,0.006 0.102121,-0.0191 0,-0.0246 -0.03555,-0.0388 -0.07902,-0.0314 -0.04663,0.008 -0.09755,-0.0285 -0.124232,-0.0888 -0.02487,-0.0562 -0.08633,-0.10355 -0.136574,-0.10531 -0.09112,-0.003 -0.09112,-0.003 -5.86e-4,-0.0422 0.186069,-0.08 0.253796,-0.0557 0.221943,0.0794 -0.02327,0.0987 -0.01755,0.11369 0.02736,0.0716 0.03123,-0.0293 0.08493,-0.0424 0.119329,-0.0292 0.08236,0.0316 0.07964,-0.0205 -0.0056,-0.10567 -0.03745,-0.0374 -0.06808,-0.10747 -0.06808,-0.15561 0,-0.0481 -0.01532,-0.088 -0.03404,-0.0885 -0.01872,-5e-4 -0.0834,-0.0389 -0.143716,-0.0853 l -0.109675,-0.0843 0.185943,-0.002 c 0.202011,-0.003 0.351487,0.10285 0.241614,0.17076 -0.03205,0.0198 -0.05087,0.0744 -0.04182,0.12135 0.01234,0.064 0.05591,0.0853 0.173857,0.0853 0.113738,0 0.161686,0.022 0.172879,0.0794 0.0085,0.0437 -0.0077,0.0794 -0.03591,0.0794 -0.02826,0 -0.03742,0.0226 -0.02034,0.0502 0.0219,0.0355 0.04164,0.0331 0.06703,-0.008 0.01979,-0.032 0.08238,-0.0653 0.13908,-0.0739 0.135941,-0.0207 0.159369,-0.0492 0.09424,-0.11429 -0.04135,-0.0414 -0.0537,-0.0412 -0.0537,4.8e-4 0,0.0299 -0.0248,0.0544 -0.05512,0.0544 -0.03764,0 -0.03404,-0.0195 0.01134,-0.0615 0.0431,-0.0399 0.134265,-0.0542 0.259359,-0.0406 0.214043,0.0231 0.263904,0.10032 0.06808,0.10533 -0.108536,0.003 -0.112976,0.008 -0.03404,0.0391 0.04992,0.0198 0.116305,0.0264 0.14751,0.0147 0.03121,-0.0117 0.05674,0.002 0.05674,0.0289 0,0.0277 0.02172,0.0502 0.04826,0.0502 0.02711,0 0.04203,-0.0647 0.03404,-0.14752 -0.01231,-0.12774 -0.03095,-0.14727 -0.139039,-0.14571 -0.147445,0.002 -0.165234,-0.0487 -0.02947,-0.0842 0.05244,-0.0137 0.08356,-0.044 0.06916,-0.0673 -0.03173,-0.0514 -0.255282,-0.015 -0.255282,0.0415 0,0.022 -0.02261,0.0401 -0.05024,0.0401 -0.02764,0 -0.03913,-0.0289 -0.02556,-0.0643 0.01358,-0.0353 -0.0047,-0.0756 -0.04053,-0.0893 -0.03846,-0.0148 -0.06521,0.002 -0.06521,0.0416 0,0.0367 -0.02043,0.0667 -0.04539,0.0667 -0.05528,0 -0.0571,-0.0474 -0.005,-0.12968 0.02448,-0.0386 0.07496,-0.0502 0.135468,-0.031 0.05721,0.0181 0.09644,0.0109 0.09644,-0.0178 0,-0.0266 0.01978,-0.0485 0.04396,-0.0485 0.02417,0 0.03221,0.0306 0.01784,0.0681 -0.01678,0.0437 8.87e-4,0.0681 0.04949,0.0681 0.04158,0 0.06432,-0.0183 0.0505,-0.0406 -0.01381,-0.0223 0.0077,-0.0532 0.04776,-0.0686 0.05207,-0.02 0.06536,-0.008 0.04655,0.0406 -0.0287,0.0748 0.03961,0.0955 0.08307,0.0252 0.01476,-0.0239 0.05852,-0.0313 0.09726,-0.0164 0.057,0.0219 0.05889,0.0345 0.0099,0.0661 -0.04956,0.032 -0.04819,0.0473 0.0075,0.0845 0.05976,0.0398 0.05992,0.0506 0.0013,0.0883 -0.100766,0.0648 -0.03345,0.0994 0.210214,0.10809 0.197998,0.007 0.220967,0.019 0.232974,0.12131 0.0098,0.0831 0.0019,0.0965 -0.02944,0.0502 -0.03471,-0.0514 -0.04691,-0.0471 -0.06479,0.0227 -0.01867,0.0729 -0.02283,0.0704 -0.02729,-0.0161 -0.0029,-0.0562 -0.02059,-0.10343 -0.0393,-0.10502 -0.01872,-0.002 -0.100421,-0.009 -0.181551,-0.0174 -0.08113,-0.008 -0.147509,-0.005 -0.147509,0.006 0,0.0545 0.121874,0.13293 0.181955,0.11709 0.04968,-0.0131 0.04655,-4.8e-4 -0.01175,0.0467 -0.04369,0.0355 -0.07943,0.0872 -0.07943,0.1149 0,0.0277 -0.03087,0.0385 -0.0686,0.024 -0.04908,-0.0188 -0.06061,-0.006 -0.04053,0.0468 0.0218,0.0568 -8.87e-4,0.073 -0.101608,0.0724 -0.09,-4.9e-4 -0.11083,-0.0127 -0.06809,-0.0397 0.04293,-0.0272 0.04637,-0.0485 0.01135,-0.0701 -0.04448,-0.0275 -0.05875,0.002 -0.04636,0.094 0.0021,0.016 -0.01685,0.0418 -0.04217,0.0574 -0.02532,0.0156 0.04317,0.0293 0.15219,0.0303 0.11762,8.1e-4 0.187112,-0.0162 0.170884,-0.0424 -0.01602,-0.026 0.004,-0.0316 0.04818,-0.0139 0.04154,0.0167 0.111269,0.0422 0.154955,0.0568 0.07156,0.0238 0.07229,0.0204 0.0074,-0.034 -0.03963,-0.0333 -0.07197,-0.0962 -0.07186,-0.13987 2.23e-4,-0.0889 0.05884,-0.10772 0.08557,-0.0276 0.01289,0.0387 0.04279,0.0383 0.117252,-0.002 0.06471,-0.0346 0.09995,-0.0369 0.09995,-0.006 0,0.0258 -0.03063,0.0469 -0.06808,0.0469 -0.03745,0 -0.06808,0.0306 -0.06808,0.0681 0,0.0374 0.02432,0.063 0.05404,0.0568 0.02972,-0.006 0.05999,0.0295 0.06728,0.0794 0.0073,0.0499 0.0018,0.0654 -0.0123,0.0344 -0.01947,-0.043 -0.04159,-0.0403 -0.09313,0.0113 -0.04482,0.0448 -0.09328,0.0544 -0.143863,0.0286 -0.04196,-0.0214 -0.142656,-0.0352 -0.223786,-0.0306 -0.08113,0.004 -0.147509,-0.006 -0.147509,-0.0248 0,-0.0182 -0.04085,-0.0225 -0.09078,-0.009 -0.05024,0.0131 -0.09077,0.0619 -0.09077,0.10921 0,0.047 -0.02163,0.0855 -0.04807,0.0855 -0.02643,0 -0.03632,0.019 -0.02196,0.0423 0.01436,0.0232 0.0064,0.0544 -0.01774,0.0694 -0.02412,0.0149 -0.06602,-0.0144 -0.09311,-0.0649 z m 0.12319,-0.25563 c -0.01508,-0.0151 -0.05423,-0.0167 -0.08699,-0.003 -0.03621,0.0145 -0.02545,0.0252 0.02743,0.0274 0.04784,0.002 0.07465,-0.009 0.05958,-0.0239 z m -0.05579,-0.16425 c 0.0259,-0.0194 0.01129,-0.0342 -0.03404,-0.0346 -0.04416,-3.4e-4 -0.07943,0.0329 -0.07943,0.075 0,0.0416 0.01532,0.0572 0.03404,0.0346 0.01872,-0.0226 0.05446,-0.0563 0.07943,-0.0749 z M 41.354164,108.599 c 0,-0.025 -0.009,-0.0454 -0.02001,-0.0454 -0.01101,0 -0.03264,0.0205 -0.04807,0.0454 -0.01543,0.025 -0.0065,0.0454 0.02001,0.0454 0.02644,0 0.04807,-0.0204 0.04807,-0.0454 z m 1.167785,0.018 c -0.01508,-0.0151 -0.05423,-0.0167 -0.08699,-0.003 -0.03621,0.0145 -0.02545,0.0252 0.02743,0.0274 0.04785,0.002 0.07465,-0.009 0.05958,-0.0239 z m -0.668522,-0.49454 c 0,-0.0374 -0.02042,-0.068 -0.04539,-0.068 -0.02496,0 -0.04539,0.0306 -0.04539,0.068 0,0.0374 0.02043,0.0681 0.04539,0.0681 0.02497,0 0.04539,-0.0306 0.04539,-0.0681 z m -7.760016,1.09084 c -0.03038,-0.0366 -0.04471,-0.0928 -0.03184,-0.12483 0.01514,-0.0377 0.02467,-0.0311 0.02698,0.0185 0.005,0.10739 0.07664,0.14017 0.182506,0.0835 0.05638,-0.0302 0.081,-0.0776 0.06588,-0.12691 -0.01327,-0.0433 0.0062,-0.0278 0.04324,0.0344 0.04999,0.084 0.05373,0.12185 0.01448,0.14682 -0.0874,0.0556 -0.242414,0.0394 -0.30126,-0.0315 z m -0.228205,-0.0198 c 0,-0.0472 0.08634,-0.11536 0.111911,-0.0884 0.0083,0.009 -0.01348,0.0422 -0.04841,0.0744 -0.03493,0.0322 -0.0635,0.0385 -0.0635,0.014 z m 4.175661,-0.0498 c -0.02672,-0.0499 -0.03837,-0.0908 -0.02589,-0.0908 0.01248,0 0.04455,0.0409 0.07127,0.0908 0.02672,0.0499 0.03837,0.0908 0.02589,0.0908 -0.01248,0 -0.04455,-0.0409 -0.07127,-0.0908 z m 2.621135,-0.004 c -0.100731,-0.11032 -0.09979,-0.13238 0.0056,-0.13238 0.06052,0 0.0851,0.0327 0.0851,0.11347 0,0.0624 -0.0026,0.11177 -0.0056,0.1097 -0.0031,-0.002 -0.04142,-0.0429 -0.0851,-0.0908 z m -7.177367,-0.0216 c -0.016,-0.0417 -0.0576,-0.0636 -0.09407,-0.0497 -0.04309,0.0165 -0.05697,0.003 -0.0407,-0.0393 0.01358,-0.0354 0.04573,-0.0599 0.07144,-0.0544 0.02572,0.006 0.05707,-0.0185 0.06966,-0.0531 0.01331,-0.0366 0.0027,-0.0506 -0.02523,-0.0333 -0.02647,0.0164 -0.05845,0.0131 -0.07103,-0.007 -0.0126,-0.0204 0.02358,-0.0371 0.08038,-0.0371 0.09119,0 0.101221,0.0187 0.0857,0.15948 -0.02091,0.18976 -0.03766,0.21496 -0.07615,0.11464 z m 0.698284,-0.0426 c -0.03257,-0.0393 -0.03698,-0.0681 -0.01041,-0.0681 0.02535,0 0.05785,0.0306 0.07222,0.0681 0.01437,0.0374 0.01905,0.068 0.01041,0.068 -0.0086,0 -0.04113,-0.0306 -0.07221,-0.068 z m 3.376522,-0.004 c 0.01515,-0.0395 0.02755,-0.11216 0.02755,-0.16153 0,-0.0605 0.01853,-0.0781 0.05674,-0.0543 0.09709,0.0606 0.165024,0.0546 0.139315,-0.0124 -0.01706,-0.0444 -0.0022,-0.0555 0.04853,-0.036 0.04022,0.0154 0.07314,0.0781 0.07314,0.13936 0,0.0626 -0.01984,0.099 -0.04539,0.0832 -0.02497,-0.0154 -0.04539,-0.005 -0.04539,0.0233 0,0.0297 -0.03009,0.0212 -0.07132,-0.02 -0.07774,-0.0777 -0.113232,-0.0904 -0.104851,-0.0373 0.01356,0.0859 -0.0097,0.14751 -0.05562,0.14751 -0.02763,0 -0.03784,-0.0323 -0.02269,-0.0718 z m 1.139546,0.0264 c -0.01543,-0.025 -0.0065,-0.0454 0.02001,-0.0454 0.02644,0 0.04807,0.0204 0.04807,0.0454 0,0.025 -0.009,0.0454 -0.02001,0.0454 -0.01101,0 -0.03263,-0.0204 -0.04807,-0.0454 z m -1.90628,-0.0454 c 0.01543,-0.025 0.04848,-0.0454 0.07344,-0.0454 0.02497,0 0.03276,0.0204 0.01734,0.0454 -0.01543,0.025 -0.04848,0.0454 -0.07344,0.0454 -0.02497,0 -0.03276,-0.0204 -0.01734,-0.0454 z m 1.504892,-0.0248 c 0.0255,-0.0665 0.01706,-0.068 -0.07453,-0.0137 -0.07798,0.0462 -0.108111,0.0479 -0.122982,0.007 -0.01083,-0.0298 -0.04901,-0.0429 -0.08485,-0.0292 -0.03583,0.0138 -0.06515,0.004 -0.06515,-0.0204 0,-0.0671 0.09463,-0.0913 0.260979,-0.0666 0.141685,0.021 0.196613,0.112 0.102641,0.17007 -0.0263,0.0163 -0.03297,-0.003 -0.01611,-0.0472 z m 2.148812,-0.0178 c 0,-0.0327 -0.02953,-0.0465 -0.06808,-0.0317 -0.03745,0.0143 -0.06808,0.006 -0.06808,-0.0178 0,-0.0242 0.02943,-0.044 0.0654,-0.044 0.07399,0 0.139338,0.0827 0.098,0.12404 -0.01498,0.015 -0.02724,8.1e-4 -0.02724,-0.0306 z m 1.520943,-0.003 c 0.01568,-0.0254 0.04752,-0.0344 0.07076,-0.02 0.06295,0.0389 0.05121,0.0661 -0.02851,0.0661 -0.03892,0 -0.05793,-0.0208 -0.04225,-0.0461 z m -8.189341,-0.0587 c -0.0022,-0.0501 -0.02405,-0.0694 -0.05598,-0.0498 -0.03378,0.0209 -0.04003,0.0123 -0.01757,-0.0239 0.04534,-0.0734 0.134999,0.0108 0.101354,0.0951 -0.01595,0.04 -0.02544,0.0327 -0.02779,-0.0214 z m 0.116166,-0.009 c -0.04508,-0.11747 0.01323,-0.19227 0.132157,-0.16953 0.06116,0.0117 0.111195,0.0397 0.111195,0.0623 0,0.0225 -0.05207,0.0315 -0.115702,0.02 -0.09786,-0.0177 -0.111387,-0.007 -0.08772,0.0672 0.03271,0.10307 -0.0015,0.12027 -0.03993,0.0201 z m 4.703582,-0.0258 c -0.0078,-0.10424 0.01355,-0.1134 0.049,-0.021 0.01406,0.0366 0.01027,0.0761 -0.0084,0.0876 -0.01869,0.0115 -0.03696,-0.0185 -0.04058,-0.0666 z m 1.07706,0.0486 c 0,-0.025 0.02163,-0.0454 0.04807,-0.0454 0.02643,0 0.03544,0.0204 0.02002,0.0454 -0.01543,0.025 -0.03706,0.0454 -0.04807,0.0454 -0.01101,0 -0.02002,-0.0204 -0.02002,-0.0454 z m -0.49568,-0.11725 c 0.0022,-0.0529 0.01293,-0.0636 0.02743,-0.0274 0.01311,0.0327 0.0115,0.0719 -0.0035,0.087 -0.01508,0.0151 -0.02581,-0.0118 -0.02384,-0.0596 z m 1.312658,0.0223 c 0,-0.0273 0.04085,-0.0603 0.09078,-0.0734 0.04992,-0.0131 0.09077,-0.0425 0.09077,-0.0654 0,-0.0231 -0.04062,-0.0199 -0.09077,0.007 -0.05724,0.0306 -0.120123,0.0332 -0.170204,0.007 -0.04369,-0.0229 -0.150913,-0.0327 -0.238285,-0.0219 -0.110229,0.0136 -0.138016,0.006 -0.09078,-0.0225 0.106697,-0.0661 0.538444,-0.11499 0.453876,-0.0514 -0.05528,0.0415 -0.04777,0.0467 0.03998,0.0272 0.06266,-0.0139 0.135528,0.003 0.173445,0.0414 0.04032,0.0403 0.04571,0.0654 0.01408,0.0654 -0.02822,0 -0.03818,0.0212 -0.02213,0.0472 0.01898,0.0307 -0.01578,0.0373 -0.09944,0.019 -0.09847,-0.0215 -0.112658,-0.0169 -0.06054,0.0202 0.05878,0.0418 0.05723,0.0485 -0.01135,0.049 -0.04368,3.4e-4 -0.07943,-0.0216 -0.07943,-0.0489 z m 1.724729,-0.0412 c 0.08889,-0.0574 0.148971,-0.0574 0.113469,0 -0.01543,0.025 -0.06259,0.0451 -0.1048,0.0447 -0.06614,-4.8e-4 -0.06734,-0.006 -0.0087,-0.0447 z m -8.010915,-0.0454 c -0.01543,-0.025 -0.0065,-0.0454 0.02001,-0.0454 0.02644,0 0.04807,0.0204 0.04807,0.0454 0,0.025 -0.009,0.0454 -0.02001,0.0454 -0.01101,0 -0.03263,-0.0204 -0.04807,-0.0454 z m 4.28913,-0.0454 c 0,-0.025 0.02042,-0.0454 0.04539,-0.0454 0.02497,0 0.04539,0.0205 0.04539,0.0454 0,0.025 -0.02043,0.0454 -0.04539,0.0454 -0.02497,0 -0.04539,-0.0204 -0.04539,-0.0454 z m -1.73324,-0.031 c 0.03276,-0.0131 0.07191,-0.0115 0.08699,0.003 0.01508,0.0151 -0.01172,0.0258 -0.05958,0.0239 -0.05287,-0.002 -0.06363,-0.0129 -0.02742,-0.0274 z m 2.711992,-0.0464 c -0.02463,-0.0647 -0.01942,-0.0699 0.02541,-0.0254 0.03102,0.0308 0.04496,0.0674 0.03099,0.0814 -0.01397,0.014 -0.03935,-0.0112 -0.0564,-0.056 z m -1.227926,-0.014 c 0.01568,-0.0254 0.04752,-0.0344 0.07076,-0.02 0.06295,0.0389 0.05121,0.0661 -0.02851,0.0661 -0.03892,0 -0.05793,-0.0208 -0.04225,-0.0461 z m 1.395212,-0.0218 c -0.07511,-0.0853 -0.07249,-0.0931 0.03404,-0.10118 0.0619,-0.005 0.09078,0.0211 0.09078,0.0811 0,0.10305 -0.04534,0.11033 -0.124815,0.0201 z m -5.803959,-0.0903 c -0.0451,-0.0956 -0.03832,-0.11031 0.06233,-0.13557 0.121708,-0.0306 0.198029,0.006 0.11972,0.058 -0.02638,0.0173 -0.06674,0.066 -0.0897,0.1082 -0.03707,0.068 -0.04741,0.0646 -0.09235,-0.0306 z m 4.95294,0.0674 c -0.08662,-0.0373 -0.0861,-0.0392 0.01135,-0.0422 0.05616,-0.002 0.102122,0.0173 0.102122,0.0422 0,0.025 -0.0051,0.0439 -0.01135,0.0422 -0.0062,-0.002 -0.0522,-0.0207 -0.102122,-0.0422 z m 0.542786,-0.003 c -0.01646,-0.0266 -0.02018,-0.0581 -0.0083,-0.0701 0.01189,-0.0118 0.03372,0.01 0.04851,0.0485 0.03069,0.08 0.0045,0.094 -0.04022,0.0216 z m 0.593844,0.006 c -0.01436,-0.0233 -0.0053,-0.0551 0.02001,-0.0707 0.02537,-0.0157 0.04613,0.003 0.04613,0.0423 0,0.0798 -0.02724,0.0915 -0.06614,0.0285 z m -6.583144,-0.0485 c -0.01543,-0.025 -0.0065,-0.0454 0.02001,-0.0454 0.02644,0 0.04807,0.0204 0.04807,0.0454 0,0.025 -0.009,0.0454 -0.02001,0.0454 -0.01101,0 -0.03263,-0.0204 -0.04807,-0.0454 z m 0.136591,-0.0114 c -0.01806,-0.0437 -0.06065,-0.0794 -0.09464,-0.0794 -0.03544,0 -0.05099,-0.0282 -0.03646,-0.066 0.02107,-0.0549 0.04079,-0.0517 0.116958,0.0194 0.05039,0.0469 0.08157,0.11241 0.06929,0.14548 -0.01634,0.044 -0.03112,0.0389 -0.05516,-0.0193 z m 0.249204,0.0203 c 0,-0.0294 -0.03242,-0.0391 -0.07552,-0.0225 -0.05079,0.0195 -0.06478,0.0115 -0.04271,-0.0241 0.01805,-0.0292 0.01183,-0.0531 -0.01382,-0.0531 -0.02565,0 -0.03423,-0.0323 -0.01906,-0.0719 0.02221,-0.0579 0.03507,-0.0601 0.06596,-0.0113 0.02111,0.0333 0.03998,0.0401 0.04195,0.0152 0.0019,-0.025 0.02314,0.003 0.04706,0.0633 0.02392,0.0598 0.03284,0.11936 0.01981,0.13238 -0.01301,0.013 -0.02367,4.9e-4 -0.02367,-0.0278 z m 5.310351,-0.0531 c 0,-0.11987 0.07541,-0.15569 0.103294,-0.049 0.01314,0.0502 -0.004,0.0976 -0.04023,0.11153 -0.04026,0.0155 -0.06307,-0.007 -0.06307,-0.0625 z m 1.216956,0.0585 c 0.03276,-0.0131 0.07191,-0.0115 0.08699,0.003 0.01508,0.0151 -0.01172,0.0258 -0.05957,0.0239 -0.05287,-0.002 -0.06363,-0.0129 -0.02743,-0.0274 z m 0.385882,-0.0485 c -0.01555,-0.0437 -0.03654,-0.0947 -0.04664,-0.11346 -0.0101,-0.0187 0.02368,-0.034 0.07508,-0.034 0.0514,0 0.09345,0.0216 0.09345,0.0481 0,0.0264 -0.02261,0.0341 -0.05025,0.017 -0.03382,-0.0209 -0.04024,4.9e-4 -0.01964,0.0654 0.03662,0.11537 -0.01141,0.13109 -0.052,0.017 z m -2.507007,-0.0378 c 0.0022,-0.0529 0.01293,-0.0636 0.02743,-0.0274 0.01311,0.0327 0.0115,0.0719 -0.0035,0.087 -0.01508,0.0151 -0.02581,-0.0118 -0.02384,-0.0596 z m 0.153408,0.0235 c -0.01646,-0.0266 -0.02018,-0.0581 -0.0083,-0.0701 0.01189,-0.0118 0.03372,0.01 0.04851,0.0485 0.03069,0.08 0.0045,0.094 -0.04022,0.0216 z m 1.057128,-0.0283 c -0.124176,-0.0324 -0.09309,-0.11807 0.03404,-0.0938 0.0624,0.0119 0.113469,0.003 0.113469,-0.0201 0,-0.023 0.02058,-0.029 0.04574,-0.0136 0.03966,0.0245 -0.05422,0.16962 -0.09923,0.15337 -0.0081,-0.003 -0.05033,-0.0146 -0.09402,-0.026 z m 0.896406,-0.0141 c -0.01543,-0.025 -0.0065,-0.0454 0.02001,-0.0454 0.02643,0 0.04807,0.0204 0.04807,0.0454 0,0.025 -0.009,0.0454 -0.02001,0.0454 -0.01101,0 -0.03263,-0.0204 -0.04807,-0.0454 z m -2.337463,-0.0427 c 0,-0.0235 0.02019,-0.0551 0.04487,-0.0705 0.02573,-0.0159 0.03334,0.002 0.01784,0.0427 -0.03017,0.0786 -0.0627,0.093 -0.0627,0.0277 z m 0.612733,-0.002 c -0.01543,-0.025 -0.0065,-0.0454 0.02001,-0.0454 0.02644,0 0.04807,0.0204 0.04807,0.0454 0,0.025 -0.009,0.0454 -0.02001,0.0454 -0.01101,0 -0.03264,-0.0205 -0.04807,-0.0454 z m 1.111997,8.1e-4 c 0,-0.0197 0.04085,-0.0465 0.09078,-0.0596 0.04993,-0.0131 0.09078,-0.007 0.09078,0.0121 0,0.0197 -0.04085,0.0465 -0.09078,0.0596 -0.04992,0.0131 -0.09078,0.007 -0.09078,-0.0121 z m 0.317713,-8.1e-4 c 0,-0.025 0.02163,-0.0454 0.04807,-0.0454 0.02643,0 0.03544,0.0204 0.02001,0.0454 -0.01543,0.025 -0.03706,0.0454 -0.04807,0.0454 -0.01101,0 -0.02001,-0.0205 -0.02001,-0.0454 z m -1.901012,-0.13197 c -0.0029,-0.0353 -0.01816,-0.0514 -0.03393,-0.0357 -0.03815,0.0381 -0.198276,-0.0495 -0.198276,-0.10857 0,-0.0256 0.02043,-0.0339 0.04539,-0.0185 0.02497,0.0154 0.04539,0.006 0.04539,-0.02 0,-0.0264 0.02163,-0.0481 0.04807,-0.0481 0.02644,0 0.03545,0.0204 0.02001,0.0454 -0.01543,0.025 -0.0095,0.0454 0.01308,0.0454 0.02262,0 0.06531,-0.046 0.09486,-0.10213 0.02955,-0.0561 0.04448,-0.0689 0.03317,-0.0282 -0.01131,0.0406 0.0023,0.0968 0.03037,0.12481 0.03763,0.0377 0.03758,0.051 -2.23e-4,0.051 -0.02813,0 -0.06048,0.0357 -0.0719,0.0794 -0.01293,0.0495 -0.02274,0.0552 -0.02602,0.0151 z m 3.353418,-0.0366 -0.158857,-0.0609 0.155548,0.0247 c 0.151885,0.024 0.21912,0.0549 0.181078,0.0831 -0.0104,0.008 -0.0904,-0.0134 -0.177769,-0.0468 z m 0.840129,0.0321 c 0.01568,-0.0253 0.04752,-0.0344 0.07076,-0.02 0.06295,0.0389 0.05121,0.0661 -0.02851,0.0661 -0.03892,0 -0.05793,-0.0208 -0.04225,-0.0461 z m 0.897158,-0.0821 c 0.0056,-0.0792 0.02546,-0.14398 0.04418,-0.14404 0.06578,-1.7e-4 0.03322,-0.17224 -0.03776,-0.19947 -0.102825,-0.0394 -0.119398,-0.0345 -0.08273,0.0248 0.01914,0.031 0.01254,0.0402 -0.01614,0.0224 -0.02669,-0.0165 -0.05886,-0.004 -0.07151,0.027 -0.01826,0.0453 -0.02372,0.0454 -0.02657,3.3e-4 -0.002,-0.032 -0.06299,-0.0567 -0.139746,-0.0567 -0.09396,0 -0.136163,-0.0223 -0.136163,-0.0718 0,-0.0395 -0.02553,-0.0629 -0.05674,-0.0519 -0.03121,0.011 -0.101967,0.003 -0.157251,-0.0172 -0.05528,-0.0205 -0.111187,-0.0198 -0.12423,8.1e-4 -0.04006,0.0648 -0.268233,0.03 -0.387987,-0.0593 -0.08551,-0.0637 -0.0911,-0.0762 -0.02269,-0.0506 0.160641,0.06 0.347717,0.0565 0.372088,-0.007 0.01288,-0.0335 0.04287,-0.061 0.06663,-0.061 0.02376,0 0.0286,0.0236 0.01074,0.0526 -0.02225,0.036 -0.0016,0.0445 0.06546,0.0269 0.06135,-0.0161 0.08707,-0.008 0.06884,0.0215 -0.01978,0.032 0.08197,0.0367 0.317651,0.0146 0.275033,-0.0257 0.346893,-0.0199 0.347443,0.0281 4.98e-4,0.0434 0.01022,0.0456 0.03416,0.008 0.04495,-0.0706 0.282862,-0.0219 0.282862,0.0579 0,0.0345 -0.03063,0.0628 -0.06808,0.0628 -0.03745,0 -0.06808,0.0198 -0.06808,0.0439 0,0.0242 0.02723,0.0336 0.06052,0.0207 0.03329,-0.0128 0.06052,0.006 0.06052,0.0406 0,0.038 -0.03158,0.0555 -0.07809,0.0434 -0.04295,-0.0112 -0.09181,0.002 -0.108582,0.029 -0.01893,0.0306 0.01357,0.0493 0.08565,0.0493 0.102049,0 0.115398,0.0179 0.109967,0.1475 -0.0044,0.10667 -0.01163,0.11925 -0.02585,0.0454 -0.01082,-0.0562 -0.04697,-0.10213 -0.08035,-0.10213 -0.04046,0 -0.05191,0.034 -0.03436,0.10213 0.02227,0.0864 0.01588,0.0936 -0.04164,0.0464 -0.0512,-0.0419 -0.08082,-0.0427 -0.120131,-0.003 -0.03931,0.0393 -0.04967,0.0167 -0.04204,-0.0918 z m -0.18503,-0.42553 c -0.04236,-0.0424 -0.06657,-0.0424 -0.10893,0 -0.04236,0.0424 -0.03026,0.0544 0.05446,0.0544 0.08472,0 0.09683,-0.0121 0.05446,-0.0544 z m -9.57306,0.4219 c -0.0035,-0.0463 0.02809,-0.0756 0.08152,-0.0756 0.109128,0 0.11109,0.0346 0.0057,0.1004 -0.06593,0.0411 -0.08261,0.0365 -0.08722,-0.0247 z m 4.97897,0.0173 c -0.04796,-0.0578 -0.04516,-0.0644 0.01714,-0.0406 0.04097,0.0157 0.0745,0.0468 0.0745,0.0691 0,0.0584 -0.02627,0.0502 -0.09164,-0.0285 z m 2.224857,0.0238 c 0,-0.025 0.01921,-0.0454 0.0427,-0.0454 0.02349,0 0.05533,0.0204 0.07076,0.0454 0.01543,0.025 -0.0038,0.0454 -0.04271,0.0454 -0.03892,0 -0.07076,-0.0204 -0.07076,-0.0454 z m -1.840644,-0.0493 c -0.06365,-0.10299 0.05877,-0.142 0.185341,-0.0591 0.07006,0.0459 0.100809,0.0895 0.07031,0.0997 -0.02982,0.01 -0.09734,-0.0198 -0.150057,-0.0661 -0.08772,-0.0769 -0.09339,-0.0773 -0.06688,-0.005 0.03219,0.0883 0.0086,0.10661 -0.03871,0.0301 z m -1.563428,-0.049 c 0,-0.0208 0.03063,-0.0378 0.06808,-0.0378 0.03745,0 0.06808,0.017 0.06808,0.0378 0,0.0208 -0.03063,0.0378 -0.06808,0.0378 -0.03745,0 -0.06808,-0.017 -0.06808,-0.0378 z m -3.177134,-0.0632 c 0,-0.0389 0.02076,-0.058 0.04612,-0.0423 0.02537,0.0157 0.03438,0.0476 0.02001,0.0708 -0.03891,0.063 -0.06615,0.0512 -0.06615,-0.0285 z m 5.982656,0.0397 c 0.03276,-0.0131 0.07191,-0.0115 0.08699,0.003 0.01508,0.0151 -0.01172,0.0258 -0.05958,0.0239 -0.05287,-0.002 -0.06363,-0.0129 -0.02742,-0.0274 z m 1.180176,-0.0206 c -0.03804,-0.0241 0.002,-0.0381 0.110535,-0.0386 0.09361,-3.4e-4 0.170203,0.007 0.170203,0.0167 0,0.0394 -0.225485,0.0568 -0.280738,0.0219 z m 0.952475,-0.003 c 0.04236,-0.0424 0.06657,-0.0424 0.10893,0 0.04236,0.0423 0.03026,0.0544 -0.05446,0.0544 -0.08472,0 -0.09683,-0.0121 -0.05446,-0.0544 z m -3.099975,-0.0364 c 0.01543,-0.025 0.0728,-0.0439 0.127495,-0.0422 0.09587,0.003 0.09619,0.004 0.0087,0.0422 -0.124929,0.0537 -0.169341,0.0537 -0.136164,0 z m 2.543021,-0.12727 c -0.01465,-0.0146 -0.05828,-0.0313 -0.09695,-0.0369 -0.123897,-0.0182 -0.199386,-0.0585 -0.199386,-0.10666 0,-0.0257 0.02163,-0.0469 0.04807,-0.0469 0.02643,0 0.03544,0.0204 0.02002,0.0454 -0.01543,0.025 0.01472,0.0454 0.067,0.0454 0.08099,0 0.08786,-0.0134 0.04647,-0.0908 -0.03423,-0.064 -0.09503,-0.0908 -0.205841,-0.0908 -0.109528,0 -0.15726,-0.0207 -0.15726,-0.0681 0,-0.0729 0.05404,-0.0897 0.109718,-0.034 0.05632,0.0563 0.336722,0.0448 0.314592,-0.0129 -0.01085,-0.0283 0.0098,-0.0514 0.04598,-0.0514 0.03614,0 0.05622,0.0248 0.04463,0.0549 -0.01176,0.0306 0.03025,0.0678 0.0951,0.0841 0.0639,0.016 0.116176,0.0492 0.116176,0.0737 0,0.0572 -0.07386,0.0568 -0.18178,-8.1e-4 -0.05684,-0.0304 -0.09436,-0.0304 -0.113164,0 -0.01547,0.025 0.01393,0.0455 0.06532,0.0455 0.0514,0 0.09345,0.0204 0.09345,0.0454 0,0.025 0.03184,0.0454 0.07076,0.0454 0.03892,0 0.05966,0.018 0.04609,0.0399 -0.03201,0.0518 -0.194562,0.0942 -0.22901,0.0598 z m 0.368067,-0.0315 c 0.01437,-0.0374 0.04437,-0.0681 0.06665,-0.0681 0.02229,0 0.04053,0.0306 0.04053,0.0681 0,0.0374 -0.03,0.068 -0.06665,0.068 -0.0406,0 -0.05645,-0.0266 -0.04053,-0.068 z m 0.325651,0.0198 c -0.06707,-0.0182 -0.133448,-0.0215 -0.147509,-0.007 -0.01406,0.014 -0.02556,4.9e-4 -0.02556,-0.0302 0,-0.0406 0.05845,-0.0473 0.215591,-0.0244 0.118575,0.0173 0.221508,0.0363 0.228738,0.0424 0.03904,0.033 -0.166969,0.0479 -0.271254,0.0197 z m -8.726301,-0.0386 c -0.01293,-0.0209 0.09358,-0.0482 0.236701,-0.0606 0.24488,-0.0212 0.323081,-0.0129 0.279134,0.0298 -0.04077,0.0396 -0.493697,0.0666 -0.515835,0.0308 z m 6.510784,-0.0745 c 0,-0.0389 0.02043,-0.0581 0.04539,-0.0427 0.02497,0.0154 0.04539,0.0472 0.04539,0.0707 0,0.0236 -0.02043,0.0427 -0.04539,0.0427 -0.02497,0 -0.04539,-0.0319 -0.04539,-0.0707 z m -1.316242,-0.0291 c 0,-0.0199 0.07149,-0.0363 0.158857,-0.0363 0.08737,0 0.158857,0.008 0.158857,0.0177 0,0.01 -0.07149,0.0261 -0.158857,0.0363 -0.08737,0.0102 -0.158857,0.002 -0.158857,-0.0177 z m 3.985601,-0.15806 c 0.03276,-0.0131 0.07191,-0.0115 0.08699,0.003 0.01508,0.0151 -0.01172,0.0258 -0.05958,0.0239 -0.05288,-0.002 -0.06363,-0.0129 -0.02743,-0.0274 z m -0.581529,-0.0798 c 0,-0.036 0.02352,-0.0799 0.05226,-0.0977 0.03621,-0.0224 0.02658,-0.051 -0.03137,-0.0935 -0.07861,-0.0575 -0.07697,-0.0613 0.02717,-0.0635 0.06094,-0.002 0.233344,-0.0133 0.383124,-0.0266 0.252708,-0.0224 0.265786,-0.0191 0.18155,0.0463 -0.09003,0.07 -0.08996,0.0706 0.0087,0.072 0.0547,8.1e-4 0.109961,-0.0156 0.122817,-0.0364 0.04247,-0.0687 0.299699,-0.002 0.299656,0.077 -3.2e-5,0.0585 -0.04605,0.0742 -0.215591,0.0738 -0.118553,-3.5e-4 -0.259276,0.0173 -0.312718,0.039 -0.06029,0.0246 -0.129192,0.021 -0.181551,-0.009 -0.07727,-0.0449 -0.07769,-0.0492 -0.0049,-0.0504 0.106061,-0.002 0.101567,-0.0758 -0.0063,-0.10399 -0.106993,-0.028 -0.228669,0.0344 -0.134976,0.0692 0.04703,0.0174 0.04009,0.0402 -0.02891,0.0948 -0.113958,0.0902 -0.158857,0.0928 -0.158857,0.009 z m -0.249632,-0.0254 c -0.01543,-0.025 0.0026,-0.0454 0.04003,-0.0454 0.03745,0 0.0807,0.0204 0.09613,0.0454 0.01543,0.025 -0.0026,0.0454 -0.04003,0.0454 -0.03745,0 -0.0807,-0.0204 -0.09613,-0.0454 z m 1.39567,-0.0313 c 0.04369,-0.0114 0.115171,-0.0114 0.158856,0 0.04369,0.0115 0.008,0.0208 -0.07943,0.0208 -0.08737,0 -0.123114,-0.009 -0.07943,-0.0208 z m -0.03404,-0.10488 c -0.01591,-0.0257 0.02222,-0.0454 0.0881,-0.0454 0.06388,0 0.116148,0.0204 0.116148,0.0454 0,0.025 -0.03964,0.0454 -0.0881,0.0454 -0.04846,0 -0.10072,-0.0204 -0.116148,-0.0454 z m -5.151496,-0.13618 c 0,-0.025 0.0829,-0.0454 0.184229,-0.0454 0.111262,0 0.173119,0.018 0.156178,0.0454 -0.01543,0.025 -0.09833,0.0454 -0.184228,0.0454 -0.0859,0 -0.156179,-0.0204 -0.156179,-0.0454 z m 0.696074,-0.40849 c 0,-0.18722 0.008,-0.26381 0.0178,-0.1702 0.0098,0.0936 0.0098,0.24679 0,0.3404 -0.0098,0.0936 -0.0178,0.017 -0.0178,-0.1702 z m 3.808648,0.28448 c -0.106093,-0.01 -0.192898,-0.037 -0.192898,-0.061 0,-0.0258 0.166275,-0.0373 0.407476,-0.0281 0.224111,0.009 0.423601,-5e-4 0.443312,-0.0203 0.04162,-0.0416 0.238516,4.8e-4 0.238516,0.0513 0,0.0757 -0.408051,0.10218 -0.896406,0.0582 z m -2.635918,-0.16259 c -0.05428,-0.0578 -0.09807,-0.12416 -0.09731,-0.14751 7.57e-4,-0.0234 0.0222,-0.006 0.04764,0.0369 0.02544,0.0437 0.07588,0.0794 0.112089,0.0794 0.03621,0 0.06582,0.0306 0.06582,0.0681 0,0.0902 -0.01209,0.0867 -0.128252,-0.0369 z m -0.384842,-0.0337 c -0.02004,-0.0766 -0.01284,-0.0838 0.04009,-0.0398 0.0722,0.0599 0.08564,0.1332 0.02442,0.1332 -0.02205,0 -0.05108,-0.042 -0.06451,-0.0934 z m 2.159259,0.0619 c 0.04416,-0.0115 0.105434,-0.0108 0.136163,0.002 0.03073,0.0124 -0.0054,0.0219 -0.08029,0.0209 -0.07489,-8e-4 -0.100032,-0.0111 -0.05587,-0.0226 z m -1.219732,-0.1154 c -0.04895,-0.14807 -0.05388,-0.26116 -0.0102,-0.23416 0.02071,0.0128 0.03765,0.0714 0.03765,0.13027 0,0.0589 0.02452,0.11518 0.0545,0.12518 0.0397,0.0132 0.04059,0.0268 0.0033,0.0498 -0.03009,0.0186 -0.06525,-0.0107 -0.08521,-0.0711 z m 0.742298,0.0199 c -0.168502,-0.007 -0.306367,-0.0329 -0.306367,-0.0568 0,-0.0238 -0.0817,-0.0433 -0.18155,-0.0433 -0.09985,0 -0.18155,-0.0204 -0.18155,-0.0454 0,-0.025 0.06638,-0.0457 0.147509,-0.0461 0.111794,-4.9e-4 0.131026,-0.0113 0.07943,-0.0446 -0.04925,-0.0318 -0.01786,-0.0414 0.11347,-0.0352 0.09985,0.005 0.717692,-0.006 1.372976,-0.0258 0.782077,-0.0227 1.191425,-0.019 1.191425,0.0106 0,0.0248 -0.0868,0.0529 -0.192897,0.0625 l -0.192898,0.0173 0.192898,0.008 c 0.167432,0.007 0.192897,0.0214 0.192898,0.11005 l 2e-6,0.10212 h -0.964489 c -0.530468,0 -1.102353,-0.006 -1.270855,-0.0134 z m 1.781464,-0.21867 c 0,-0.01 -0.06128,-0.0176 -0.136163,-0.0176 -0.07489,0 -0.136163,0.0169 -0.136163,0.0376 0,0.0206 0.06128,0.0285 0.136163,0.0176 0.07489,-0.011 0.136163,-0.0279 0.136163,-0.0376 z m -3.040971,0.11595 c 0,-0.0265 0.02043,-0.0355 0.04539,-0.02 0.02497,0.0154 0.04539,0.0371 0.04539,0.0481 0,0.011 -0.02042,0.02 -0.04539,0.02 -0.02497,0 -0.04539,-0.0216 -0.04539,-0.0481 z m -0.249632,-0.13349 c -0.01543,-0.025 -0.0065,-0.0454 0.02002,-0.0454 0.02643,0 0.04807,0.0204 0.04807,0.0454 0,0.025 -0.009,0.0454 -0.02001,0.0454 -0.01101,0 -0.03264,-0.0204 -0.04807,-0.0454 z m -6.418765,-0.32906 c -0.0019,-0.0437 0.005,-0.0794 0.01539,-0.0794 0.01044,0 0.05129,-0.0124 0.09078,-0.0276 0.03948,-0.0152 0.07179,-0.005 0.07179,0.0226 0,0.0277 -0.02893,0.0502 -0.0643,0.0502 -0.03536,0 -0.0746,0.0255 -0.08719,0.0568 -0.01368,0.0339 -0.02434,0.0248 -0.02647,-0.0227 z m 0.722619,0.0134 c 0,-0.0239 -0.07351,-0.0571 -0.163346,-0.0739 -0.09418,-0.0177 -0.140984,-0.0445 -0.110536,-0.0633 0.08507,-0.0526 0.272797,0.003 0.322242,0.0954 0.03097,0.0579 0.03052,0.0852 -0.0014,0.0852 -0.02584,0 -0.04699,-0.0195 -0.04699,-0.0434 z m 0.136163,-0.24683 c 0,-0.0431 0.135862,-0.0648 0.160081,-0.0256 0.01475,0.0239 -0.01522,0.0434 -0.06663,0.0434 -0.0514,0 -0.09345,-0.008 -0.09345,-0.0178 z m 6.85353,-2.34923 c 0,-0.0212 0.06128,-0.0385 0.136163,-0.0385 0.07489,0 0.136163,0.0191 0.136163,0.0423 0,0.0233 -0.06128,0.0406 -0.136163,0.0385 -0.07489,-0.002 -0.136163,-0.0212 -0.136163,-0.0423 z"
       id="path1127" />
  </g>
</svg>
