<?xml version="1.0" encoding="UTF-8" standalone="no"?>
<!-- Created with Inkscape (http://www.inkscape.org/) -->

<svg
   width="10.710351mm"
   height="9.9998484mm"
   viewBox="0 0 10.710351 9.9998484"
   version="1.1"
   id="svg8"
   inkscape:version="1.1.2 (0a00cf5339, 2022-02-04)"
   sodipodi:docname="unknown.svg"
   xmlns:inkscape="http://www.inkscape.org/namespaces/inkscape"
   xmlns:sodipodi="http://sodipodi.sourceforge.net/DTD/sodipodi-0.dtd"
   xmlns="http://www.w3.org/2000/svg"
   xmlns:svg="http://www.w3.org/2000/svg"
   xmlns:rdf="http://www.w3.org/1999/02/22-rdf-syntax-ns#"
   xmlns:cc="http://creativecommons.org/ns#"
   xmlns:dc="http://purl.org/dc/elements/1.1/">
  <defs
     id="defs2" />
  <sodipodi:namedview
     id="base"
     pagecolor="#ffffff"
     bordercolor="#666666"
     borderopacity="1.0"
     inkscape:pageopacity="0.0"
     inkscape:pageshadow="2"
     inkscape:zoom="11.2"
     inkscape:cx="34.241071"
     inkscape:cy="19.642857"
     inkscape:document-units="mm"
     inkscape:current-layer="layer1"
     showgrid="false"
     fit-margin-top="0"
     fit-margin-left="0"
     fit-margin-right="0"
     fit-margin-bottom="0"
     inkscape:window-width="1600"
     inkscape:window-height="872"
     inkscape:window-x="1600"
     inkscape:window-y="0"
     inkscape:window-maximized="1"
     inkscape:pagecheckerboard="1" />
  <metadata
     id="metadata5">
    <rdf:RDF>
      <cc:Work
         rdf:about="">
        <dc:format>image/svg+xml</dc:format>
        <dc:type
           rdf:resource="http://purl.org/dc/dcmitype/StillImage" />
      </cc:Work>
    </rdf:RDF>
  </metadata>
  <g
     inkscape:label="Layer 1"
     inkscape:groupmode="layer"
     id="layer1"
     transform="translate(-53.080118,-176.83031)">
    <path
       style="fill:#666666;fill-opacity:1;stroke-width:0.0212986"
       d="m 54.684307,186.78878 c -0.248061,-0.0494 -0.381694,-0.31896 -0.345796,-0.5565 0,-3.02091 0,-6.04181 0,-9.0627 0.06043,-0.18534 0.201207,-0.33526 0.401343,-0.3607 0.989886,-0.0222 1.985222,-0.003 2.977204,-0.01 0.68771,-2e-5 1.37542,-5e-5 2.063128,-7e-5 0.912328,0.91225 1.824663,1.8245 2.736991,2.73675 0,2.30223 0,4.60443 0,6.90667 -0.061,0.15511 -0.152908,0.28148 -0.310838,0.34643 -0.844044,0.0237 -1.700227,0.005 -2.548937,0.012 -1.642662,-0.002 -3.287231,0.011 -4.928698,-0.002 l -0.02513,-0.006 z m 3.849092,-1.42391 c 0.124635,-0.058 0.199926,-0.21489 0.21353,-0.34271 0.02147,-0.21665 -0.130921,-0.41953 -0.331349,-0.48098 -0.159624,-0.006 -0.32085,-0.0186 -0.437864,0.10938 -0.189629,0.17567 -0.197508,0.51699 0.02083,0.67622 0.124586,0.13692 0.388339,0.15069 0.53485,0.038 z m -0.01719,-1.55316 c -0.02339,-0.23337 0.05467,-0.47272 0.239624,-0.62367 0.258535,-0.23385 0.619437,-0.32575 0.881405,-0.56129 0.377757,-0.2724 0.641449,-0.73144 0.60075,-1.20618 0.0013,-0.4356 -0.226679,-0.85639 -0.576926,-1.11311 -0.263202,-0.1823 -0.576324,-0.32697 -0.899991,-0.34244 -0.369982,0.004 -0.757933,-0.0431 -1.096873,0.13795 -0.212015,0.0911 -0.410662,0.2016 -0.564663,0.37705 -0.284932,0.27532 -0.416131,0.66538 -0.489735,1.04685 0.181906,0.0733 0.40405,0.10074 0.593772,0.14307 0.08458,-0.33467 0.198411,-0.68639 0.47614,-0.91045 0.221475,-0.19592 0.534681,-0.26579 0.825667,-0.24015 0.403773,-0.004 0.839383,0.22251 0.976231,0.61985 0.08854,0.28726 0.06182,0.60629 -0.101846,0.86321 -0.252336,0.34223 -0.683074,0.47255 -1.007354,0.72877 -0.195749,0.13893 -0.304541,0.35755 -0.381667,0.57595 -0.0048,0.25873 -0.0094,0.51747 -0.01416,0.7762 0.177392,0 0.354784,0 0.532174,0 0.0024,-0.0905 0.005,-0.18107 0.0074,-0.27161 z m 3.085115,-4.29176 c -0.595806,-0.60832 -1.208205,-1.20975 -1.810383,-1.81543 0,0.60694 0,1.21389 0,1.82084 0.601595,-0.004 1.21778,0.007 1.810383,-0.005 z"
       id="path1043" />
  </g>
</svg>
