<?xml version="1.0" encoding="UTF-8" standalone="no"?>
<svg
   xmlns:dc="http://purl.org/dc/elements/1.1/"
   xmlns:cc="http://creativecommons.org/ns#"
   xmlns:rdf="http://www.w3.org/1999/02/22-rdf-syntax-ns#"
   xmlns:svg="http://www.w3.org/2000/svg"
   xmlns="http://www.w3.org/2000/svg"
   xmlns:sodipodi="http://sodipodi.sourceforge.net/DTD/sodipodi-0.dtd"
   xmlns:inkscape="http://www.inkscape.org/namespaces/inkscape"
   class="logo"
   viewBox="0 0 27.071467 37.836969"
   version="1.1"
   id="svg4"
   sodipodi:docname="vedadian.svg"
   width="27.071468"
   height="37.836967"
   inkscape:version="0.92.5 (2060ec1f9f, 2020-04-08)">
  <metadata
     id="metadata10">
    <rdf:RDF>
      <cc:Work
         rdf:about="">
        <dc:format>image/svg+xml</dc:format>
        <dc:type
           rdf:resource="http://purl.org/dc/dcmitype/StillImage" />
        <dc:title></dc:title>
      </cc:Work>
    </rdf:RDF>
  </metadata>
  <defs
     id="defs8" />
  <sodipodi:namedview
     pagecolor="#ffffff"
     bordercolor="#666666"
     borderopacity="1"
     objecttolerance="10"
     gridtolerance="10"
     guidetolerance="10"
     inkscape:pageopacity="0"
     inkscape:pageshadow="2"
     inkscape:window-width="1600"
     inkscape:window-height="835"
     id="namedview6"
     showgrid="false"
     fit-margin-top="0"
     fit-margin-left="0"
     fit-margin-right="0"
     fit-margin-bottom="0"
     inkscape:zoom="8.5867824"
     inkscape:cx="-7.9619163"
     inkscape:cy="5.5903823"
     inkscape:window-x="0"
     inkscape:window-y="0"
     inkscape:window-maximized="1"
     inkscape:current-layer="svg4" />
  <path
     d="m 18.17943,0.07032831 c 0,0 -2.129821,4.49859999 -2.437684,6.32889999 -0.307908,1.8303 0.10638,3.2152 -0.324753,4.3986997 -0.431133,1.1834 -1.515415,3.4939 -5.4924292,4.4333 -3.8560665,0.9107 -3.7528739,0.1275 -3.7621309,-0.1037 -0.021701,-0.5364 0.1781591,-0.8381 1.1817076,-2.2166 2.4840748,-3.4118997 3.6615335,-2.9884997 3.6615335,-2.9884997 0,0 0.705762,-0.916 0.995961,-1.9538 0.290199,-1.0377 -0.007,-1.6975 -0.007,-1.6975 0,0 -3.5813466,2.4827 -6.6687796,7.2929997 -3.0874331,4.8104 -4.68438489,8.9916 -4.84402999,9.7144 -0.15964515,0.7228 -0.74238005,2.3805 -0.27512985,4.0516 0.46725028,1.6712 1.27109064,1.3997 1.27109064,1.3997 0,0 -0.81355261,0.9373 -0.64076562,2.7032 0.060914,0.6225 0.60149172,1.7516 1.28849682,2.146 2.1003802,0.7511 3.8139093,-0.3794 5.5370445,-1.4798 0,0 -0.3029767,0.6011 0.053964,1.9722 0.3569252,1.3711 1.1961242,1.7667 1.5061574,1.8777 0.9939877,0.3561 3.3709097,-0.096 3.3709097,-0.096 0,0 -0.07846,0.3019 0.302293,0.8144 0.380751,0.5123 0.668932,0.8219 1.498115,1.0433 0.829183,0.2213 2.103157,0.059 3.384871,-0.4316 0.872129,-0.3342 3.240401,-1.5705 4.579325,-2.9827 2.653872,-2.7994 4.036957,-5.226 4.439105,-6.9138 0.402148,-1.6879 0.52431,-3.9782 -1.360777,-4.0274 -1.885239,-0.049 -3.858495,2.6456 -3.858495,2.6456 0,0 0.32961,-1.2641 -0.543279,-2.8699 -0.872888,-1.6057 -2.10346,-1.2299 -2.10346,-1.2299 l -2.368059,3.1132 c 0,0 -0.412892,-0.3222 -0.553447,-1.3209 -0.140524,-0.9988 -0.0033,-3.0655 0.06404,-4.6797 0.06732,-1.6144 0.517178,-5.1328 0.517178,-5.1328 0,0 -2.331699,3.578 -2.869515,5.573 -0.535752,1.9874 0.111934,4.1231 -0.292505,6.1368 -0.4045,2.0136 -0.654743,3.7281 -2.103431,4.5545 -1.4486424,0.8263 -2.0189336,0.1305 -2.0189336,0.1305 0,0 1.5571926,-1.8422 2.2569446,-3.4379 0.699737,-1.5956 1.176548,-3.6429 0.178979,-5.5822 -0.997327,-1.9391 -2.8544912,-1.904 -2.8544912,-1.904 l -1.2953409,3.0748 c 0,0 0.3482448,0.3715 1.1143744,0.474 0.7661295,0.1025 0.9862486,0.057 1.3651017,0.3107 1.49857,1.0743 1.095132,2.7833 -1.4639239,5.0319 -2.5591777,2.2487 -4.9825357,2.4179 -5.8010962,1.5047 -0.8185606,-0.9132 -0.2083581,-0.909 -0.2083581,-0.909 2.714422,-0.859 3.60112,-3.5597 4.2973669,-6.5147 -0.4406933,0.2679 -0.4370513,0.624 -1.1788243,1.0558 -1.0172064,0.592 -1.8608063,0.6687 -2.4008984,0.4303 -0.3944084,-0.1975 -1.6371211,-0.5086 -0.71036,-2.9658 1.0121985,-2.6841 1.7969179,-2.8378 1.7969179,-2.8378 0,0 0.3714935,0.6789 1.344236,1.0184 0.9727425,0.3395 1.984941,0.173 1.984941,0.173 0,0 2.6390001,-0.1839 5.4464471,-2.6457 1.818012,-1.5939 3.277126,-3.088 4.017184,-6.541 0.739831,-3.4527997 0.983654,-9.94079969 0.983654,-9.94079969 z M 18.58522,25.320728 c 0.444138,0.01 0.606211,0.179 0.653756,0.2089 0.07242,0.046 0.686898,0.3778 0.342356,1.588 -0.689144,2.4204 -3.87757,3.8831 -5.610432,4.695 -1.313779,0.6155 -2.685377,0.8272 -3.272877,0.8937 -0.270532,0.1323 -0.296679,0.028 -0.296679,0.028 0,0 0.109293,-0.01 0.296679,-0.028 0.330581,-0.1618 1.026464,-0.6773 2.490798,-2.1734 2.662825,-2.7208 2.04807,-4.2924 4.442292,-5.046 0.411556,-0.1296 0.721589,-0.1704 0.954228,-0.1663 z m 6.062204,2.1066 c 0.198039,7e-4 0.333251,0.1328 0.05326,1.1161 -0.689114,2.4204 -3.877615,3.883 -5.610493,4.6949 -1.515566,0.7101 -2.581182,0.9678 -3.122185,0.9154 -0.541154,-0.052 -0.588957,-0.1809 -0.364513,-0.2356 0.227024,-0.2038 0.728267,-0.5094 1.877196,-1.7058 1.638335,-1.7061 2.560088,-2.9877 3.181369,-4.3575 0.121707,-0.2685 0.582583,-0.5295 0.67925,-0.1697 0.159342,0.5933 0.788817,0.7162 1.215853,0.6681 0.85407,-0.096 1.69075,-0.8875 1.947063,-0.9142 0.04805,0 0.09708,-0.012 0.1428,-0.012 z"
     id="path2"
     style="fill:#000000;fill-rule:evenodd;stroke:none;stroke-width:0.37795276;stroke-miterlimit:4;stroke-dasharray:none"
     inkscape:connector-curvature="0" />
</svg>
